G04*
G04 #@! TF.GenerationSoftware,Altium Limited,Altium Designer,18.1.9 (240)*
G04*
G04 Layer_Color=65535*
%FSLAX25Y25*%
%MOIN*%
G70*
G01*
G75*
%ADD10C,0.00984*%
%ADD11C,0.02362*%
%ADD12C,0.00394*%
%ADD13C,0.00787*%
%ADD14C,0.00492*%
%ADD15C,0.00390*%
%ADD16C,0.00600*%
D10*
X294293Y259966D02*
G03*
X294293Y259966I-984J0D01*
G01*
X279325Y334195D02*
G03*
X279325Y334195I-492J0D01*
G01*
D11*
X273321Y325140D02*
G03*
X273321Y325140I-1181J0D01*
G01*
D12*
X216032Y269094D02*
X219969D01*
X204031D02*
X207968D01*
X192126D02*
X196063D01*
D13*
X331890Y333858D02*
Y334252D01*
X335039Y333858D02*
Y334252D01*
X185236Y313779D02*
X185630D01*
X185236Y316929D02*
X185630D01*
X175197Y327362D02*
Y327756D01*
X172047Y327362D02*
Y327756D01*
X279603Y292425D02*
X279997D01*
X279603Y295575D02*
X279997D01*
X371969Y282087D02*
X381968D01*
X371969D02*
Y322087D01*
X381968Y282087D02*
Y322087D01*
X371969D02*
X381968D01*
X371969Y211890D02*
Y271890D01*
X381968Y211890D02*
Y271890D01*
X371969D02*
X381968D01*
X371969Y211890D02*
X381968D01*
X304175Y328053D02*
Y328447D01*
X307325Y328053D02*
Y328447D01*
X244053Y288675D02*
X244447D01*
X244053Y291825D02*
X244447D01*
X244053Y285825D02*
X244447D01*
X244053Y282675D02*
X244447D01*
X226803Y328825D02*
X227197D01*
X226803Y325675D02*
X227197D01*
X226803Y310825D02*
X227197D01*
X226803Y307675D02*
X227197D01*
X226803Y322825D02*
X227197D01*
X226803Y319675D02*
X227197D01*
X226803Y316825D02*
X227197D01*
X226803Y313675D02*
X227197D01*
X234053Y218575D02*
X234447D01*
X234053Y215425D02*
X234447D01*
X233596Y173782D02*
Y177718D01*
X226904Y173782D02*
Y177718D01*
X304346Y173782D02*
Y177718D01*
X297654Y173782D02*
Y177718D01*
X171675Y180053D02*
Y180447D01*
X174825Y180053D02*
Y180447D01*
X201675Y180053D02*
Y180447D01*
X204825Y180053D02*
Y180447D01*
X242675Y180053D02*
Y180447D01*
X245825Y180053D02*
Y180447D01*
X272675Y180053D02*
Y180447D01*
X275825Y180053D02*
Y180447D01*
X313675Y180053D02*
Y180447D01*
X316825Y180053D02*
Y180447D01*
X343675Y179903D02*
Y180297D01*
X346825Y179903D02*
Y180297D01*
X238575Y262053D02*
Y262447D01*
X235425Y262053D02*
Y262447D01*
X230075Y229803D02*
Y230197D01*
X226925Y229803D02*
Y230197D01*
X235825Y229803D02*
Y230197D01*
X232675Y229803D02*
Y230197D01*
X216425Y286803D02*
Y287197D01*
X219575Y286803D02*
Y287197D01*
X225575Y274803D02*
Y275197D01*
X222425Y274803D02*
Y275197D01*
X225575Y286803D02*
Y287197D01*
X222425Y286803D02*
Y287197D01*
X213575Y274803D02*
Y275197D01*
X210425Y274803D02*
Y275197D01*
X213575Y286803D02*
Y287197D01*
X210425Y286803D02*
Y287197D01*
X204425Y286803D02*
Y287197D01*
X207575Y286803D02*
Y287197D01*
X201575Y286803D02*
Y287197D01*
X198425Y286803D02*
Y287197D01*
X201575Y274803D02*
Y275197D01*
X198425Y274803D02*
Y275197D01*
X192425Y286803D02*
Y287197D01*
X195575Y286803D02*
Y287197D01*
X280053Y345825D02*
X280447D01*
X280053Y342675D02*
X280447D01*
X301325Y328053D02*
Y328447D01*
X298175Y328053D02*
Y328447D01*
X295325Y328053D02*
Y328447D01*
X292175Y328053D02*
Y328447D01*
X235175Y308053D02*
Y308447D01*
X238325Y308053D02*
Y308447D01*
X254423Y329077D02*
X276077D01*
X254423Y307423D02*
X276077D01*
Y329077D01*
X254423Y307423D02*
Y329077D01*
X258675Y347553D02*
Y347947D01*
X261825Y347553D02*
Y347947D01*
X252675Y347553D02*
Y347947D01*
X255825Y347553D02*
Y347947D01*
X269553Y279175D02*
X269947D01*
X269553Y282325D02*
X269947D01*
X244053Y276675D02*
X244447D01*
X244053Y279825D02*
X244447D01*
X269553Y272675D02*
X269947D01*
X269553Y275825D02*
X269947D01*
X258675Y209053D02*
Y209447D01*
X261825Y209053D02*
Y209447D01*
X268675Y209053D02*
Y209447D01*
X271825Y209053D02*
Y209447D01*
X278675Y209053D02*
Y209447D01*
X281825Y209053D02*
Y209447D01*
X234053Y212575D02*
X234447D01*
X234053Y209425D02*
X234447D01*
X320071Y265886D02*
X320464D01*
X320071Y269035D02*
X320464D01*
X320071Y258886D02*
X320464D01*
X320071Y262035D02*
X320464D01*
X320071Y286925D02*
X320464D01*
X320071Y290075D02*
X320464D01*
X320071Y279925D02*
X320464D01*
X320071Y283075D02*
X320464D01*
X320071Y276075D02*
X320464D01*
X320071Y272925D02*
X320464D01*
X287553Y272675D02*
X287947D01*
X287553Y275825D02*
X287947D01*
D14*
X177362Y329724D02*
Y343504D01*
Y329724D02*
X202953D01*
Y343504D01*
X177362D02*
X202953D01*
D15*
X231722Y122142D02*
X290778D01*
X231722Y89858D02*
X290778D01*
X231722D02*
Y122142D01*
X290778Y89858D02*
Y122142D01*
X231722Y117417D02*
X290778D01*
X170055Y217472D02*
Y256842D01*
X170843D01*
X144858D02*
X177142D01*
X144858Y217472D02*
X177142D01*
Y256842D01*
X144858Y217472D02*
Y256842D01*
D16*
X330118Y325721D02*
X330774Y326377D01*
X332086D01*
X332742Y325721D01*
Y325065D01*
X332086Y324409D01*
X331430D01*
X332086D01*
X332742Y323753D01*
Y323097D01*
X332086Y322441D01*
X330774D01*
X330118Y323097D01*
X334054Y322441D02*
Y323097D01*
X334710D01*
Y322441D01*
X334054D01*
X337334Y325721D02*
X337990Y326377D01*
X339301D01*
X339957Y325721D01*
Y325065D01*
X339301Y324409D01*
X338646D01*
X339301D01*
X339957Y323753D01*
Y323097D01*
X339301Y322441D01*
X337990D01*
X337334Y323097D01*
X341269Y326377D02*
Y323753D01*
X342581Y322441D01*
X343893Y323753D01*
Y326377D01*
X360301Y218634D02*
X359645Y219290D01*
X358333D01*
X357677Y218634D01*
Y216010D01*
X358333Y215354D01*
X359645D01*
X360301Y216010D01*
Y217322D01*
X358989D01*
X361613Y215354D02*
Y219290D01*
X364237Y215354D01*
Y219290D01*
X365549D02*
Y215354D01*
X367516D01*
X368173Y216010D01*
Y218634D01*
X367516Y219290D01*
X365549D01*
X352427Y228870D02*
X351771Y229526D01*
X350459D01*
X349803Y228870D01*
Y228214D01*
X350459Y227558D01*
X351771D01*
X352427Y226903D01*
Y226247D01*
X351771Y225590D01*
X350459D01*
X349803Y226247D01*
X353739Y229526D02*
Y225590D01*
X355051Y226903D01*
X356363Y225590D01*
Y229526D01*
X360298Y228870D02*
X359643Y229526D01*
X358331D01*
X357675Y228870D01*
Y226247D01*
X358331Y225590D01*
X359643D01*
X360298Y226247D01*
X361610Y229526D02*
Y225590D01*
X364234D01*
X365546Y229526D02*
Y225590D01*
Y226903D01*
X368170Y229526D01*
X366202Y227558D01*
X368170Y225590D01*
X353214Y238713D02*
X352558Y239369D01*
X351247D01*
X350590Y238713D01*
Y238057D01*
X351247Y237401D01*
X352558D01*
X353214Y236745D01*
Y236089D01*
X352558Y235433D01*
X351247D01*
X350590Y236089D01*
X354526Y239369D02*
Y235433D01*
X355838Y236745D01*
X357150Y235433D01*
Y239369D01*
X358462D02*
Y235433D01*
X360430D01*
X361086Y236089D01*
Y238713D01*
X360430Y239369D01*
X358462D01*
X362398D02*
X363710D01*
X363054D01*
Y235433D01*
X362398D01*
X363710D01*
X367645Y239369D02*
X366334D01*
X365678Y238713D01*
Y236089D01*
X366334Y235433D01*
X367645D01*
X368301Y236089D01*
Y238713D01*
X367645Y239369D01*
X353740Y245669D02*
Y248293D01*
X355708D01*
X356364Y247637D01*
Y245669D01*
X357676D02*
Y249605D01*
X359644D01*
X360300Y248949D01*
Y247637D01*
X359644Y246981D01*
X357676D01*
X358988D02*
X360300Y245669D01*
X364235Y248949D02*
X363580Y249605D01*
X362268D01*
X361612Y248949D01*
Y248293D01*
X362268Y247637D01*
X363580D01*
X364235Y246981D01*
Y246325D01*
X363580Y245669D01*
X362268D01*
X361612Y246325D01*
X365547Y249605D02*
X368171D01*
X366859D01*
Y245669D01*
X360301Y259185D02*
X359645Y259841D01*
X358333D01*
X357677Y259185D01*
Y258529D01*
X358333Y257873D01*
X359645D01*
X360301Y257217D01*
Y256561D01*
X359645Y255906D01*
X358333D01*
X357677Y256561D01*
X361613Y259841D02*
Y255906D01*
X362925Y257217D01*
X364237Y255906D01*
Y259841D01*
X367516D02*
X366205D01*
X365549Y259185D01*
Y256561D01*
X366205Y255906D01*
X367516D01*
X368173Y256561D01*
Y259185D01*
X367516Y259841D01*
X357677Y269028D02*
X358333Y269684D01*
X359645D01*
X360301Y269028D01*
Y268372D01*
X359645Y267716D01*
X358989D01*
X359645D01*
X360301Y267060D01*
Y266404D01*
X359645Y265748D01*
X358333D01*
X357677Y266404D01*
X361613Y268372D02*
X362925Y265748D01*
X364237Y268372D01*
X365549Y269028D02*
X366205Y269684D01*
X367516D01*
X368173Y269028D01*
Y268372D01*
X367516Y267716D01*
X366861D01*
X367516D01*
X368173Y267060D01*
Y266404D01*
X367516Y265748D01*
X366205D01*
X365549Y266404D01*
X359907Y288516D02*
X359251Y289172D01*
X357939D01*
X357283Y288516D01*
Y285892D01*
X357939Y285236D01*
X359251D01*
X359907Y285892D01*
Y287204D01*
X358595D01*
X361219Y285236D02*
Y289172D01*
X363843Y285236D01*
Y289172D01*
X365155D02*
Y285236D01*
X367123D01*
X367779Y285892D01*
Y288516D01*
X367123Y289172D01*
X365155D01*
X361221Y299999D02*
X363844D01*
X362532D01*
Y296063D01*
X365156Y298687D02*
X367780Y296063D01*
X366468Y297375D01*
X367780Y298687D01*
X365156Y296063D01*
X361221Y305906D02*
Y309841D01*
X363188D01*
X363844Y309185D01*
Y307873D01*
X363188Y307217D01*
X361221D01*
X362532D02*
X363844Y305906D01*
X365156Y308529D02*
X367780Y305906D01*
X366468Y307217D01*
X367780Y308529D01*
X365156Y305906D01*
X357283Y319028D02*
X357939Y319684D01*
X359251D01*
X359907Y319028D01*
Y318372D01*
X359251Y317716D01*
X358595D01*
X359251D01*
X359907Y317060D01*
Y316404D01*
X359251Y315748D01*
X357939D01*
X357283Y316404D01*
X361219Y318372D02*
X362531Y315748D01*
X363843Y318372D01*
X365155Y319028D02*
X365811Y319684D01*
X367123D01*
X367779Y319028D01*
Y318372D01*
X367123Y317716D01*
X366467D01*
X367123D01*
X367779Y317060D01*
Y316404D01*
X367123Y315748D01*
X365811D01*
X365155Y316404D01*
X170382Y316718D02*
X169716Y317385D01*
X168383D01*
X167717Y316718D01*
Y314052D01*
X168383Y313386D01*
X169716D01*
X170382Y314052D01*
X174381Y313386D02*
X171715D01*
X174381Y316052D01*
Y316718D01*
X173715Y317385D01*
X172382D01*
X171715Y316718D01*
X177713Y313386D02*
Y317385D01*
X175714Y315385D01*
X178380D01*
X208329Y343307D02*
X204997D01*
X204331Y342641D01*
Y341308D01*
X204997Y340641D01*
X208329D01*
X207663Y339308D02*
X208329Y338642D01*
Y337309D01*
X207663Y336643D01*
X206996D01*
X206330Y337309D01*
Y337976D01*
Y337309D01*
X205664Y336643D01*
X204997D01*
X204331Y337309D01*
Y338642D01*
X204997Y339308D01*
X329331Y328937D02*
X325332D01*
Y330936D01*
X325998Y331603D01*
X327331D01*
X327998Y330936D01*
Y328937D01*
Y330270D02*
X329331Y331603D01*
Y335601D02*
Y332936D01*
X326665Y335601D01*
X325998D01*
X325332Y334935D01*
Y333602D01*
X325998Y332936D01*
X328664Y336934D02*
X329331Y337601D01*
Y338934D01*
X328664Y339600D01*
X325998D01*
X325332Y338934D01*
Y337601D01*
X325998Y336934D01*
X326665D01*
X327331Y337601D01*
Y339600D01*
X348881Y338976D02*
X344882D01*
Y336977D01*
X345548Y336311D01*
X348214D01*
X348881Y336977D01*
Y338976D01*
X345548Y334978D02*
X344882Y334311D01*
Y332978D01*
X345548Y332312D01*
X348214D01*
X348881Y332978D01*
Y334311D01*
X348214Y334978D01*
X347548D01*
X346881Y334311D01*
Y332312D01*
X171865Y337705D02*
X171198Y337039D01*
Y335706D01*
X171865Y335039D01*
X174530D01*
X175197Y335706D01*
Y337039D01*
X174530Y337705D01*
X175197Y341704D02*
Y339038D01*
X172531Y341704D01*
X171865D01*
X171198Y341037D01*
Y339704D01*
X171865Y339038D01*
X171198Y345703D02*
Y343037D01*
X173197D01*
X172531Y344370D01*
Y345036D01*
X173197Y345703D01*
X174530D01*
X175197Y345036D01*
Y343703D01*
X174530Y343037D01*
X229750Y114750D02*
X225751D01*
Y116749D01*
X226418Y117416D01*
X227751D01*
X228417Y116749D01*
Y114750D01*
X229750Y120748D02*
X225751D01*
X227751Y118749D01*
Y121414D01*
X145235Y259643D02*
Y263642D01*
X147234D01*
X147900Y262976D01*
Y261643D01*
X147234Y260976D01*
X145235D01*
X149233Y262976D02*
X149900Y263642D01*
X151233D01*
X151899Y262976D01*
Y262309D01*
X151233Y261643D01*
X150566D01*
X151233D01*
X151899Y260976D01*
Y260310D01*
X151233Y259643D01*
X149900D01*
X149233Y260310D01*
X222000Y304850D02*
X225999D01*
Y302851D01*
X225332Y302185D01*
X223999D01*
X223333Y302851D01*
Y304850D01*
Y303518D02*
X222000Y302185D01*
Y298186D02*
Y300852D01*
X224666Y298186D01*
X225332D01*
X225999Y298852D01*
Y300185D01*
X225332Y300852D01*
X225999Y294187D02*
Y296853D01*
X223999D01*
X224666Y295520D01*
Y294854D01*
X223999Y294187D01*
X222666D01*
X222000Y294854D01*
Y296186D01*
X222666Y296853D01*
X210000Y305000D02*
X213999D01*
Y303001D01*
X213332Y302334D01*
X211999D01*
X211333Y303001D01*
Y305000D01*
Y303667D02*
X210000Y302334D01*
Y298336D02*
Y301001D01*
X212666Y298336D01*
X213332D01*
X213999Y299002D01*
Y300335D01*
X213332Y301001D01*
X210000Y295003D02*
X213999D01*
X211999Y297003D01*
Y294337D01*
X198000Y305000D02*
X201999D01*
Y303001D01*
X201332Y302334D01*
X199999D01*
X199333Y303001D01*
Y305000D01*
Y303667D02*
X198000Y302334D01*
Y298336D02*
Y301001D01*
X200666Y298336D01*
X201332D01*
X201999Y299002D01*
Y300335D01*
X201332Y301001D01*
Y297003D02*
X201999Y296336D01*
Y295003D01*
X201332Y294337D01*
X200666D01*
X199999Y295003D01*
Y295670D01*
Y295003D01*
X199333Y294337D01*
X198667D01*
X198000Y295003D01*
Y296336D01*
X198667Y297003D01*
X222000Y267000D02*
X225999D01*
Y265001D01*
X225332Y264334D01*
X223999D01*
X223333Y265001D01*
Y267000D01*
Y265667D02*
X222000Y264334D01*
Y260335D02*
Y263001D01*
X224666Y260335D01*
X225332D01*
X225999Y261002D01*
Y262335D01*
X225332Y263001D01*
X222000Y256337D02*
Y259003D01*
X224666Y256337D01*
X225332D01*
X225999Y257003D01*
Y258336D01*
X225332Y259003D01*
X210000Y268000D02*
X213999D01*
Y266001D01*
X213332Y265334D01*
X211999D01*
X211333Y266001D01*
Y268000D01*
Y266667D02*
X210000Y265334D01*
Y261335D02*
Y264001D01*
X212666Y261335D01*
X213332D01*
X213999Y262002D01*
Y263335D01*
X213332Y264001D01*
X210000Y260003D02*
Y258670D01*
Y259336D01*
X213999D01*
X213332Y260003D01*
X198000Y268000D02*
X201999D01*
Y266001D01*
X201332Y265334D01*
X199999D01*
X199333Y266001D01*
Y268000D01*
Y266667D02*
X198000Y265334D01*
Y261335D02*
Y264001D01*
X200666Y261335D01*
X201332D01*
X201999Y262002D01*
Y263335D01*
X201332Y264001D01*
Y260003D02*
X201999Y259336D01*
Y258003D01*
X201332Y257337D01*
X198667D01*
X198000Y258003D01*
Y259336D01*
X198667Y260003D01*
X201332D01*
X219999Y268000D02*
X216000D01*
Y266001D01*
X216666Y265334D01*
X219332D01*
X219999Y266001D01*
Y268000D01*
X219332Y264001D02*
X219999Y263335D01*
Y262002D01*
X219332Y261335D01*
X218666D01*
X217999Y262002D01*
X217333Y261335D01*
X216666D01*
X216000Y262002D01*
Y263335D01*
X216666Y264001D01*
X217333D01*
X217999Y263335D01*
X218666Y264001D01*
X219332D01*
X217999Y263335D02*
Y262002D01*
X208133Y268000D02*
X204134D01*
Y266001D01*
X204800Y265334D01*
X207466D01*
X208133Y266001D01*
Y268000D01*
Y264001D02*
Y261335D01*
X207466D01*
X204800Y264001D01*
X204134D01*
X196125Y268000D02*
X192126D01*
Y266001D01*
X192792Y265334D01*
X195458D01*
X196125Y266001D01*
Y268000D01*
Y261335D02*
X195458Y262668D01*
X194125Y264001D01*
X192792D01*
X192126Y263335D01*
Y262002D01*
X192792Y261335D01*
X193459D01*
X194125Y262002D01*
Y264001D01*
X219332Y302334D02*
X219999Y303001D01*
Y304334D01*
X219332Y305000D01*
X216666D01*
X216000Y304334D01*
Y303001D01*
X216666Y302334D01*
X216000Y298336D02*
Y301001D01*
X218666Y298336D01*
X219332D01*
X219999Y299002D01*
Y300335D01*
X219332Y301001D01*
Y297003D02*
X219999Y296336D01*
Y295003D01*
X219332Y294337D01*
X218666D01*
X217999Y295003D01*
Y295670D01*
Y295003D01*
X217333Y294337D01*
X216666D01*
X216000Y295003D01*
Y296336D01*
X216666Y297003D01*
X207332Y302334D02*
X207999Y303001D01*
Y304334D01*
X207332Y305000D01*
X204666D01*
X204000Y304334D01*
Y303001D01*
X204666Y302334D01*
X204000Y298336D02*
Y301001D01*
X206666Y298336D01*
X207332D01*
X207999Y299002D01*
Y300335D01*
X207332Y301001D01*
X204000Y294337D02*
Y297003D01*
X206666Y294337D01*
X207332D01*
X207999Y295003D01*
Y296336D01*
X207332Y297003D01*
X195332Y302334D02*
X195999Y303001D01*
Y304334D01*
X195332Y305000D01*
X192666D01*
X192000Y304334D01*
Y303001D01*
X192666Y302334D01*
X192000Y298336D02*
Y301001D01*
X194666Y298336D01*
X195332D01*
X195999Y299002D01*
Y300335D01*
X195332Y301001D01*
X192000Y297003D02*
Y295670D01*
Y296336D01*
X195999D01*
X195332Y297003D01*
X285249Y338250D02*
X281916D01*
X281250Y337584D01*
Y336251D01*
X281916Y335584D01*
X285249D01*
X281250Y331586D02*
Y334251D01*
X283916Y331586D01*
X284582D01*
X285249Y332252D01*
Y333585D01*
X284582Y334251D01*
X295999Y226500D02*
X292666D01*
X292000Y225834D01*
Y224501D01*
X292666Y223834D01*
X295999D01*
X292000Y222501D02*
Y221168D01*
Y221835D01*
X295999D01*
X295332Y222501D01*
X303750Y321500D02*
X307749D01*
Y319501D01*
X307082Y318834D01*
X305749D01*
X305083Y319501D01*
Y321500D01*
Y320167D02*
X303750Y318834D01*
Y317501D02*
Y316168D01*
Y316835D01*
X307749D01*
X307082Y317501D01*
X304416Y314169D02*
X303750Y313503D01*
Y312170D01*
X304416Y311503D01*
X307082D01*
X307749Y312170D01*
Y313503D01*
X307082Y314169D01*
X306416D01*
X305749Y313503D01*
Y311503D01*
X300952Y272697D02*
Y276696D01*
X302952D01*
X303618Y276029D01*
Y274696D01*
X302952Y274030D01*
X300952D01*
X302285D02*
X303618Y272697D01*
X304951D02*
X306284D01*
X305617D01*
Y276696D01*
X304951Y276029D01*
X308283D02*
X308950Y276696D01*
X310283D01*
X310949Y276029D01*
Y275363D01*
X310283Y274696D01*
X310949Y274030D01*
Y273363D01*
X310283Y272697D01*
X308950D01*
X308283Y273363D01*
Y274030D01*
X308950Y274696D01*
X308283Y275363D01*
Y276029D01*
X308950Y274696D02*
X310283D01*
X300952Y279697D02*
Y283696D01*
X302952D01*
X303618Y283029D01*
Y281696D01*
X302952Y281030D01*
X300952D01*
X302285D02*
X303618Y279697D01*
X304951D02*
X306284D01*
X305617D01*
Y283696D01*
X304951Y283029D01*
X308283Y283696D02*
X310949D01*
Y283029D01*
X308283Y280363D01*
Y279697D01*
X300952Y286697D02*
Y290696D01*
X302952D01*
X303618Y290029D01*
Y288696D01*
X302952Y288030D01*
X300952D01*
X302285D02*
X303618Y286697D01*
X304951D02*
X306284D01*
X305617D01*
Y290696D01*
X304951Y290029D01*
X310949Y290696D02*
X309616Y290029D01*
X308283Y288696D01*
Y287363D01*
X308950Y286697D01*
X310283D01*
X310949Y287363D01*
Y288030D01*
X310283Y288696D01*
X308283D01*
X300952Y258658D02*
Y262656D01*
X302952D01*
X303618Y261990D01*
Y260657D01*
X302952Y259990D01*
X300952D01*
X302285D02*
X303618Y258658D01*
X304951D02*
X306284D01*
X305617D01*
Y262656D01*
X304951Y261990D01*
X310949Y262656D02*
X308283D01*
Y260657D01*
X309616Y261323D01*
X310283D01*
X310949Y260657D01*
Y259324D01*
X310283Y258658D01*
X308950D01*
X308283Y259324D01*
X300952Y265657D02*
Y269656D01*
X302952D01*
X303618Y268990D01*
Y267657D01*
X302952Y266990D01*
X300952D01*
X302285D02*
X303618Y265657D01*
X304951D02*
X306284D01*
X305617D01*
Y269656D01*
X304951Y268990D01*
X310283Y265657D02*
Y269656D01*
X308283Y267657D01*
X310949D01*
X227750Y282500D02*
Y286499D01*
X229749D01*
X230416Y285832D01*
Y284499D01*
X229749Y283833D01*
X227750D01*
X229083D02*
X230416Y282500D01*
X231749D02*
X233082D01*
X232415D01*
Y286499D01*
X231749Y285832D01*
X235081D02*
X235747Y286499D01*
X237080D01*
X237747Y285832D01*
Y285166D01*
X237080Y284499D01*
X236414D01*
X237080D01*
X237747Y283833D01*
Y283166D01*
X237080Y282500D01*
X235747D01*
X235081Y283166D01*
X227750Y288000D02*
Y291999D01*
X229749D01*
X230416Y291332D01*
Y289999D01*
X229749Y289333D01*
X227750D01*
X229083D02*
X230416Y288000D01*
X231749D02*
X233082D01*
X232415D01*
Y291999D01*
X231749Y291332D01*
X237747Y288000D02*
X235081D01*
X237747Y290666D01*
Y291332D01*
X237080Y291999D01*
X235747D01*
X235081Y291332D01*
X211750Y313000D02*
Y316999D01*
X213749D01*
X214416Y316332D01*
Y314999D01*
X213749Y314333D01*
X211750D01*
X213083D02*
X214416Y313000D01*
X215749D02*
X217082D01*
X216415D01*
Y316999D01*
X215749Y316332D01*
X219081Y313000D02*
X220414D01*
X219747D01*
Y316999D01*
X219081Y316332D01*
X210500Y319250D02*
Y323249D01*
X212499D01*
X213166Y322582D01*
Y321249D01*
X212499Y320583D01*
X210500D01*
X211833D02*
X213166Y319250D01*
X214499D02*
X215832D01*
X215165D01*
Y323249D01*
X214499Y322582D01*
X217831D02*
X218497Y323249D01*
X219830D01*
X220497Y322582D01*
Y319916D01*
X219830Y319250D01*
X218497D01*
X217831Y319916D01*
Y322582D01*
X181250Y176250D02*
X177251D01*
Y178249D01*
X177918Y178916D01*
X179251D01*
X179917Y178249D01*
Y176250D01*
Y177583D02*
X181250Y178916D01*
X180584Y180249D02*
X181250Y180915D01*
Y182248D01*
X180584Y182914D01*
X177918D01*
X177251Y182248D01*
Y180915D01*
X177918Y180249D01*
X178584D01*
X179251Y180915D01*
Y182914D01*
X211250Y176250D02*
X207251D01*
Y178249D01*
X207918Y178916D01*
X209251D01*
X209917Y178249D01*
Y176250D01*
Y177583D02*
X211250Y178916D01*
X207918Y180249D02*
X207251Y180915D01*
Y182248D01*
X207918Y182914D01*
X208584D01*
X209251Y182248D01*
X209917Y182914D01*
X210584D01*
X211250Y182248D01*
Y180915D01*
X210584Y180249D01*
X209917D01*
X209251Y180915D01*
X208584Y180249D01*
X207918D01*
X209251Y180915D02*
Y182248D01*
X227250Y160750D02*
Y164749D01*
X229249D01*
X229916Y164082D01*
Y162749D01*
X229249Y162083D01*
X227250D01*
X228583D02*
X229916Y160750D01*
X231249Y164749D02*
X233914D01*
Y164082D01*
X231249Y161416D01*
Y160750D01*
X252250Y176250D02*
X248251D01*
Y178249D01*
X248918Y178916D01*
X250251D01*
X250917Y178249D01*
Y176250D01*
Y177583D02*
X252250Y178916D01*
X248251Y182914D02*
X248918Y181582D01*
X250251Y180249D01*
X251584D01*
X252250Y180915D01*
Y182248D01*
X251584Y182914D01*
X250917D01*
X250251Y182248D01*
Y180249D01*
X282250Y176250D02*
X278251D01*
Y178249D01*
X278918Y178916D01*
X280251D01*
X280917Y178249D01*
Y176250D01*
Y177583D02*
X282250Y178916D01*
X278251Y182914D02*
Y180249D01*
X280251D01*
X279584Y181582D01*
Y182248D01*
X280251Y182914D01*
X281584D01*
X282250Y182248D01*
Y180915D01*
X281584Y180249D01*
X298000Y160648D02*
Y164646D01*
X299999D01*
X300666Y163980D01*
Y162647D01*
X299999Y161980D01*
X298000D01*
X299333D02*
X300666Y160648D01*
X303998D02*
Y164646D01*
X301999Y162647D01*
X304664D01*
X323250Y176250D02*
X319251D01*
Y178249D01*
X319918Y178916D01*
X321251D01*
X321917Y178249D01*
Y176250D01*
Y177583D02*
X323250Y178916D01*
X319918Y180249D02*
X319251Y180915D01*
Y182248D01*
X319918Y182914D01*
X320584D01*
X321251Y182248D01*
Y181582D01*
Y182248D01*
X321917Y182914D01*
X322584D01*
X323250Y182248D01*
Y180915D01*
X322584Y180249D01*
X353250Y176250D02*
X349251D01*
Y178249D01*
X349918Y178916D01*
X351251D01*
X351917Y178249D01*
Y176250D01*
Y177583D02*
X353250Y178916D01*
Y182914D02*
Y180249D01*
X350584Y182914D01*
X349918D01*
X349251Y182248D01*
Y180915D01*
X349918Y180249D01*
X282350Y279950D02*
Y283949D01*
X284349D01*
X285016Y283282D01*
Y281949D01*
X284349Y281283D01*
X282350D01*
X283683D02*
X285016Y279950D01*
X286349D02*
X287682D01*
X287015D01*
Y283949D01*
X286349Y283282D01*
X185737Y175076D02*
Y177742D01*
X185070Y178408D01*
X183737D01*
X183071Y177742D01*
Y175076D01*
X183737Y174409D01*
X185070D01*
X184404Y175742D02*
X185737Y174409D01*
X185070D02*
X185737Y175076D01*
X187070Y174409D02*
X188402D01*
X187736D01*
Y178408D01*
X187070Y177742D01*
X193068Y174409D02*
X190402D01*
X193068Y177075D01*
Y177742D01*
X192401Y178408D01*
X191068D01*
X190402Y177742D01*
X215916Y174917D02*
Y177582D01*
X215249Y178249D01*
X213916D01*
X213250Y177582D01*
Y174917D01*
X213916Y174250D01*
X215249D01*
X214583Y175583D02*
X215916Y174250D01*
X215249D02*
X215916Y174917D01*
X217249Y174250D02*
X218582D01*
X217915D01*
Y178249D01*
X217249Y177582D01*
X220581Y174250D02*
X221914D01*
X221247D01*
Y178249D01*
X220581Y177582D01*
X169916Y125917D02*
Y128582D01*
X169249Y129249D01*
X167917D01*
X167250Y128582D01*
Y125917D01*
X167917Y125250D01*
X169249D01*
X168583Y126583D02*
X169916Y125250D01*
X169249D02*
X169916Y125917D01*
X171249Y125250D02*
X172582D01*
X171915D01*
Y129249D01*
X171249Y128582D01*
X174581D02*
X175247Y129249D01*
X176580D01*
X177247Y128582D01*
Y125917D01*
X176580Y125250D01*
X175247D01*
X174581Y125917D01*
Y128582D01*
X199916Y125917D02*
Y128582D01*
X199249Y129249D01*
X197916D01*
X197250Y128582D01*
Y125917D01*
X197916Y125250D01*
X199249D01*
X198583Y126583D02*
X199916Y125250D01*
X199249D02*
X199916Y125917D01*
X201249D02*
X201915Y125250D01*
X203248D01*
X203914Y125917D01*
Y128582D01*
X203248Y129249D01*
X201915D01*
X201249Y128582D01*
Y127916D01*
X201915Y127249D01*
X203914D01*
X259916Y174917D02*
Y177582D01*
X259249Y178249D01*
X257916D01*
X257250Y177582D01*
Y174917D01*
X257916Y174250D01*
X259249D01*
X258583Y175583D02*
X259916Y174250D01*
X259249D02*
X259916Y174917D01*
X261249Y177582D02*
X261915Y178249D01*
X263248D01*
X263914Y177582D01*
Y176916D01*
X263248Y176249D01*
X263914Y175583D01*
Y174917D01*
X263248Y174250D01*
X261915D01*
X261249Y174917D01*
Y175583D01*
X261915Y176249D01*
X261249Y176916D01*
Y177582D01*
X261915Y176249D02*
X263248D01*
X289916Y174917D02*
Y177582D01*
X289249Y178249D01*
X287916D01*
X287250Y177582D01*
Y174917D01*
X287916Y174250D01*
X289249D01*
X288583Y175583D02*
X289916Y174250D01*
X289249D02*
X289916Y174917D01*
X291249Y178249D02*
X293915D01*
Y177582D01*
X291249Y174917D01*
Y174250D01*
X241316Y125817D02*
Y128482D01*
X240649Y129149D01*
X239316D01*
X238650Y128482D01*
Y125817D01*
X239316Y125150D01*
X240649D01*
X239983Y126483D02*
X241316Y125150D01*
X240649D02*
X241316Y125817D01*
X245315Y129149D02*
X243982Y128482D01*
X242649Y127149D01*
Y125817D01*
X243315Y125150D01*
X244648D01*
X245315Y125817D01*
Y126483D01*
X244648Y127149D01*
X242649D01*
X271317Y125817D02*
Y128482D01*
X270651Y129149D01*
X269318D01*
X268652Y128482D01*
Y125817D01*
X269318Y125150D01*
X270651D01*
X269985Y126483D02*
X271317Y125150D01*
X270651D02*
X271317Y125817D01*
X275316Y129149D02*
X272650D01*
Y127149D01*
X273983Y127816D01*
X274650D01*
X275316Y127149D01*
Y125817D01*
X274650Y125150D01*
X273317D01*
X272650Y125817D01*
X330916Y174917D02*
Y177582D01*
X330249Y178249D01*
X328916D01*
X328250Y177582D01*
Y174917D01*
X328916Y174250D01*
X330249D01*
X329583Y175583D02*
X330916Y174250D01*
X330249D02*
X330916Y174917D01*
X334248Y174250D02*
Y178249D01*
X332249Y176249D01*
X334914D01*
X360916Y174917D02*
Y177582D01*
X360249Y178249D01*
X358916D01*
X358250Y177582D01*
Y174917D01*
X358916Y174250D01*
X360249D01*
X359583Y175583D02*
X360916Y174250D01*
X360249D02*
X360916Y174917D01*
X362249Y177582D02*
X362915Y178249D01*
X364248D01*
X364914Y177582D01*
Y176916D01*
X364248Y176249D01*
X363582D01*
X364248D01*
X364914Y175583D01*
Y174917D01*
X364248Y174250D01*
X362915D01*
X362249Y174917D01*
X312329Y125817D02*
Y128482D01*
X311663Y129149D01*
X310330D01*
X309663Y128482D01*
Y125817D01*
X310330Y125150D01*
X311663D01*
X310996Y126483D02*
X312329Y125150D01*
X311663D02*
X312329Y125817D01*
X316328Y125150D02*
X313662D01*
X316328Y127816D01*
Y128482D01*
X315661Y129149D01*
X314329D01*
X313662Y128482D01*
X342316Y125817D02*
Y128482D01*
X341649Y129149D01*
X340316D01*
X339650Y128482D01*
Y125817D01*
X340316Y125150D01*
X341649D01*
X340983Y126483D02*
X342316Y125150D01*
X341649D02*
X342316Y125817D01*
X343649Y125150D02*
X344982D01*
X344315D01*
Y129149D01*
X343649Y128482D01*
X373425Y323386D02*
Y327384D01*
X375425D01*
X376091Y326718D01*
Y325385D01*
X375425Y324719D01*
X373425D01*
X380090Y323386D02*
X377424D01*
X380090Y326052D01*
Y326718D01*
X379423Y327384D01*
X378090D01*
X377424Y326718D01*
X374606Y206260D02*
Y210259D01*
X376606D01*
X377272Y209592D01*
Y208259D01*
X376606Y207593D01*
X374606D01*
X378605Y206260D02*
X379938D01*
X379272D01*
Y210259D01*
X378605Y209592D01*
X341268Y276499D02*
Y272500D01*
X343267D01*
X343934Y273166D01*
Y275832D01*
X343267Y276499D01*
X341268D01*
X347932D02*
X345266D01*
Y274499D01*
X346599Y275166D01*
X347266D01*
X347932Y274499D01*
Y273166D01*
X347266Y272500D01*
X345933D01*
X345266Y273166D01*
X341268Y283499D02*
Y279500D01*
X343267D01*
X343934Y280166D01*
Y282832D01*
X343267Y283499D01*
X341268D01*
X347266Y279500D02*
Y283499D01*
X345266Y281499D01*
X347932D01*
X341268Y290499D02*
Y286500D01*
X343267D01*
X343934Y287166D01*
Y289832D01*
X343267Y290499D01*
X341268D01*
X345266Y289832D02*
X345933Y290499D01*
X347266D01*
X347932Y289832D01*
Y289166D01*
X347266Y288499D01*
X346599D01*
X347266D01*
X347932Y287833D01*
Y287166D01*
X347266Y286500D01*
X345933D01*
X345266Y287166D01*
X341268Y262459D02*
Y258461D01*
X343267D01*
X343934Y259127D01*
Y261793D01*
X343267Y262459D01*
X341268D01*
X347932Y258461D02*
X345266D01*
X347932Y261126D01*
Y261793D01*
X347266Y262459D01*
X345933D01*
X345266Y261793D01*
X341268Y269459D02*
Y265461D01*
X343267D01*
X343934Y266127D01*
Y268793D01*
X343267Y269459D01*
X341268D01*
X345266Y265461D02*
X346599D01*
X345933D01*
Y269459D01*
X345266Y268793D01*
X277916Y351582D02*
X277249Y352249D01*
X275916D01*
X275250Y351582D01*
Y348916D01*
X275916Y348250D01*
X277249D01*
X277916Y348916D01*
X281914Y348250D02*
X279249D01*
X281914Y350916D01*
Y351582D01*
X281248Y352249D01*
X279915D01*
X279249Y351582D01*
X283247D02*
X283914Y352249D01*
X285247D01*
X285913Y351582D01*
Y348916D01*
X285247Y348250D01*
X283914D01*
X283247Y348916D01*
Y351582D01*
X301082Y342584D02*
X301749Y343251D01*
Y344584D01*
X301082Y345250D01*
X298416D01*
X297750Y344584D01*
Y343251D01*
X298416Y342584D01*
X297750Y341251D02*
Y339918D01*
Y340585D01*
X301749D01*
X301082Y341251D01*
X298416Y337919D02*
X297750Y337253D01*
Y335920D01*
X298416Y335253D01*
X301082D01*
X301749Y335920D01*
Y337253D01*
X301082Y337919D01*
X300416D01*
X299749Y337253D01*
Y335253D01*
X295082Y342584D02*
X295749Y343251D01*
Y344584D01*
X295082Y345250D01*
X292416D01*
X291750Y344584D01*
Y343251D01*
X292416Y342584D01*
X291750Y341251D02*
Y339918D01*
Y340585D01*
X295749D01*
X295082Y341251D01*
Y337919D02*
X295749Y337253D01*
Y335920D01*
X295082Y335253D01*
X294416D01*
X293749Y335920D01*
X293083Y335253D01*
X292416D01*
X291750Y335920D01*
Y337253D01*
X292416Y337919D01*
X293083D01*
X293749Y337253D01*
X294416Y337919D01*
X295082D01*
X293749Y337253D02*
Y335920D01*
X289106Y295377D02*
X288439Y296044D01*
X287106D01*
X286440Y295377D01*
Y292712D01*
X287106Y292045D01*
X288439D01*
X289106Y292712D01*
X290439Y292045D02*
X291771D01*
X291105D01*
Y296044D01*
X290439Y295377D01*
X293771Y296044D02*
X296437D01*
Y295377D01*
X293771Y292712D01*
Y292045D01*
X238332Y324084D02*
X238999Y324751D01*
Y326084D01*
X238332Y326750D01*
X235666D01*
X235000Y326084D01*
Y324751D01*
X235666Y324084D01*
X235000Y322751D02*
Y321418D01*
Y322085D01*
X238999D01*
X238332Y322751D01*
X238999Y316753D02*
X238332Y318086D01*
X236999Y319419D01*
X235666D01*
X235000Y318753D01*
Y317420D01*
X235666Y316753D01*
X236333D01*
X236999Y317420D01*
Y319419D01*
X267899Y350484D02*
X268566Y351150D01*
Y352483D01*
X267899Y353150D01*
X265233D01*
X264567Y352483D01*
Y351150D01*
X265233Y350484D01*
X264567Y349151D02*
Y347818D01*
Y348484D01*
X268566D01*
X267899Y349151D01*
X268566Y343153D02*
Y345819D01*
X266566D01*
X267233Y344486D01*
Y343819D01*
X266566Y343153D01*
X265233D01*
X264567Y343819D01*
Y345152D01*
X265233Y345819D01*
X249395Y350090D02*
X250062Y350757D01*
Y352090D01*
X249395Y352756D01*
X246729D01*
X246063Y352090D01*
Y350757D01*
X246729Y350090D01*
X246063Y348757D02*
Y347424D01*
Y348091D01*
X250062D01*
X249395Y348757D01*
X246063Y343426D02*
X250062D01*
X248062Y345425D01*
Y342759D01*
X213166Y328582D02*
X212499Y329249D01*
X211166D01*
X210500Y328582D01*
Y325916D01*
X211166Y325250D01*
X212499D01*
X213166Y325916D01*
X214499Y325250D02*
X215832D01*
X215165D01*
Y329249D01*
X214499Y328582D01*
X217831D02*
X218497Y329249D01*
X219830D01*
X220497Y328582D01*
Y327916D01*
X219830Y327249D01*
X219164D01*
X219830D01*
X220497Y326583D01*
Y325916D01*
X219830Y325250D01*
X218497D01*
X217831Y325916D01*
X212916Y310582D02*
X212249Y311249D01*
X210916D01*
X210250Y310582D01*
Y307916D01*
X210916Y307250D01*
X212249D01*
X212916Y307916D01*
X214249Y307250D02*
X215582D01*
X214915D01*
Y311249D01*
X214249Y310582D01*
X220247Y307250D02*
X217581D01*
X220247Y309916D01*
Y310582D01*
X219580Y311249D01*
X218247D01*
X217581Y310582D01*
X220416Y212082D02*
X219749Y212749D01*
X218416D01*
X217750Y212082D01*
Y209416D01*
X218416Y208750D01*
X219749D01*
X220416Y209416D01*
X221749Y208750D02*
X223082D01*
X222415D01*
Y212749D01*
X221749Y212082D01*
X225081Y208750D02*
X226414D01*
X225747D01*
Y212749D01*
X225081Y212082D01*
X220416Y218332D02*
X219749Y218999D01*
X218416D01*
X217750Y218332D01*
Y215666D01*
X218416Y215000D01*
X219749D01*
X220416Y215666D01*
X221749Y215000D02*
X223082D01*
X222415D01*
Y218999D01*
X221749Y218332D01*
X225081D02*
X225747Y218999D01*
X227080D01*
X227747Y218332D01*
Y215666D01*
X227080Y215000D01*
X225747D01*
X225081Y215666D01*
Y218332D01*
X261582Y199734D02*
X262249Y200400D01*
Y201733D01*
X261582Y202400D01*
X258916D01*
X258250Y201733D01*
Y200400D01*
X258916Y199734D01*
Y198401D02*
X258250Y197734D01*
Y196402D01*
X258916Y195735D01*
X261582D01*
X262249Y196402D01*
Y197734D01*
X261582Y198401D01*
X260916D01*
X260249Y197734D01*
Y195735D01*
X271582Y199584D02*
X272249Y200251D01*
Y201584D01*
X271582Y202250D01*
X268916D01*
X268250Y201584D01*
Y200251D01*
X268916Y199584D01*
X271582Y198251D02*
X272249Y197585D01*
Y196252D01*
X271582Y195586D01*
X270916D01*
X270249Y196252D01*
X269583Y195586D01*
X268916D01*
X268250Y196252D01*
Y197585D01*
X268916Y198251D01*
X269583D01*
X270249Y197585D01*
X270916Y198251D01*
X271582D01*
X270249Y197585D02*
Y196252D01*
X281582Y199584D02*
X282249Y200251D01*
Y201584D01*
X281582Y202250D01*
X278916D01*
X278250Y201584D01*
Y200251D01*
X278916Y199584D01*
X282249Y198251D02*
Y195586D01*
X281582D01*
X278916Y198251D01*
X278250D01*
X227168Y239666D02*
X226501Y238999D01*
Y237666D01*
X227168Y237000D01*
X229834D01*
X230500Y237666D01*
Y238999D01*
X229834Y239666D01*
X226501Y243665D02*
X227168Y242332D01*
X228501Y240999D01*
X229834D01*
X230500Y241665D01*
Y242998D01*
X229834Y243665D01*
X229167D01*
X228501Y242998D01*
Y240999D01*
X232918Y239666D02*
X232251Y238999D01*
Y237666D01*
X232918Y237000D01*
X235584D01*
X236250Y237666D01*
Y238999D01*
X235584Y239666D01*
X232251Y243665D02*
Y240999D01*
X234251D01*
X233584Y242332D01*
Y242998D01*
X234251Y243665D01*
X235584D01*
X236250Y242998D01*
Y241665D01*
X235584Y240999D01*
X259416Y282082D02*
X258749Y282749D01*
X257416D01*
X256750Y282082D01*
Y279416D01*
X257416Y278750D01*
X258749D01*
X259416Y279416D01*
X262748Y278750D02*
Y282749D01*
X260749Y280749D01*
X263415D01*
X229936Y261327D02*
X229269Y260661D01*
Y259328D01*
X229936Y258661D01*
X232601D01*
X233268Y259328D01*
Y260661D01*
X232601Y261327D01*
X229936Y262660D02*
X229269Y263327D01*
Y264660D01*
X229936Y265326D01*
X230602D01*
X231268Y264660D01*
Y263993D01*
Y264660D01*
X231935Y265326D01*
X232601D01*
X233268Y264660D01*
Y263327D01*
X232601Y262660D01*
X233916Y279582D02*
X233249Y280249D01*
X231916D01*
X231250Y279582D01*
Y276916D01*
X231916Y276250D01*
X233249D01*
X233916Y276916D01*
X237914Y276250D02*
X235249D01*
X237914Y278916D01*
Y279582D01*
X237248Y280249D01*
X235915D01*
X235249Y279582D01*
X260416Y275582D02*
X259749Y276249D01*
X258416D01*
X257750Y275582D01*
Y272916D01*
X258416Y272250D01*
X259749D01*
X260416Y272916D01*
X261749Y272250D02*
X263082D01*
X262415D01*
Y276249D01*
X261749Y275582D01*
M02*
