G04*
G04 #@! TF.GenerationSoftware,Altium Limited,Altium Designer,18.1.9 (240)*
G04*
G04 Layer_Color=16711935*
%FSLAX25Y25*%
%MOIN*%
G70*
G01*
G75*
%ADD13C,0.00492*%
%ADD14C,0.00394*%
%ADD69C,0.01968*%
%ADD70C,0.00300*%
D13*
X163854Y269079D02*
Y271079D01*
X162854Y270079D02*
X163854Y271079D01*
X162854Y270079D02*
X163854Y269079D01*
X162854D02*
Y271079D01*
X330118Y273500D02*
Y275500D01*
Y274500D02*
X331118Y273500D01*
X330118Y274500D02*
X331118Y275500D01*
Y273500D02*
Y275500D01*
X330118Y280500D02*
Y282500D01*
Y281500D02*
X331118Y280500D01*
X330118Y281500D02*
X331118Y282500D01*
Y280500D02*
Y282500D01*
X330118Y287500D02*
Y289500D01*
Y288500D02*
X331118Y287500D01*
X330118Y288500D02*
X331118Y289500D01*
Y287500D02*
Y289500D01*
X330118Y259461D02*
Y261461D01*
Y260461D02*
X331118Y259461D01*
X330118Y260461D02*
X331118Y261461D01*
Y259461D02*
Y261461D01*
X330118Y266461D02*
Y268461D01*
Y267461D02*
X331118Y266461D01*
X330118Y267461D02*
X331118Y268461D01*
Y266461D02*
Y268461D01*
X340142Y336161D02*
X342142D01*
X340142Y335161D02*
X341142Y336161D01*
X342142Y335161D01*
X340142D02*
X342142D01*
D14*
X202362Y190157D02*
X204331Y188976D01*
X202362Y187795D02*
Y190157D01*
Y187795D02*
X204331Y188976D01*
Y187795D02*
Y190157D01*
X273622D02*
X275590Y188976D01*
X273622Y187795D02*
Y190157D01*
Y187795D02*
X275590Y188976D01*
Y187795D02*
Y190157D01*
X344488D02*
X346457Y188976D01*
X344488Y187795D02*
Y190157D01*
Y187795D02*
X346457Y188976D01*
Y187795D02*
Y190157D01*
X172441D02*
X174409Y188976D01*
X172441Y187795D02*
Y190157D01*
Y187795D02*
X174409Y188976D01*
Y187795D02*
Y190157D01*
X242913D02*
X244882Y188976D01*
X242913Y187795D02*
Y190157D01*
Y187795D02*
X244882Y188976D01*
Y187795D02*
Y190157D01*
X314567D02*
X316535Y188976D01*
X314567Y187795D02*
Y190157D01*
Y187795D02*
X316535Y188976D01*
Y187795D02*
Y190157D01*
X216819Y273819D02*
X219181D01*
X216819Y275787D02*
X218000Y273819D01*
X216819Y275787D02*
X219181D01*
X218000Y273819D02*
X219181Y275787D01*
X204819Y273819D02*
X207181D01*
X204819Y275787D02*
X206000Y273819D01*
X204819Y275787D02*
X207181D01*
X206000Y273819D02*
X207181Y275787D01*
X192913Y273819D02*
X195276D01*
X192913Y275787D02*
X194095Y273819D01*
X192913Y275787D02*
X195276D01*
X194095Y273819D02*
X195276Y275787D01*
D69*
X145669Y110236D02*
G03*
X165354Y90551I19707J22D01*
G01*
X362205D02*
G03*
X381890Y110236I2J19683D01*
G01*
X381890Y338583D02*
G03*
X362205Y358268I-19684J1D01*
G01*
X165354Y358268D02*
G03*
X145669Y338583I-522J-19163D01*
G01*
Y110236D02*
Y338583D01*
X165354Y90551D02*
X362205D01*
X381890Y110236D02*
Y338583D01*
X165354Y358268D02*
X362205Y358268D01*
D70*
X173272Y311598D02*
Y309932D01*
X173605Y309598D01*
X174271D01*
X174604Y309932D01*
Y311598D01*
X175271Y311265D02*
X175604Y311598D01*
X176271D01*
X176604Y311265D01*
Y310931D01*
X176271Y310598D01*
X175937D01*
X176271D01*
X176604Y310265D01*
Y309932D01*
X176271Y309598D01*
X175604D01*
X175271Y309932D01*
M02*
