M48
;Layer_Color=9474304
;FILE_FORMAT=2:5
INCH,TZ
;TYPE=PLATED
T1F00S00C0.01181
T2F00S00C0.01575
T3F00S00C0.03543
T4F00S00C0.05118
;TYPE=NON_PLATED
T5F00S00C0.11811
%
T01
X345250Y187250
X339768Y260461
Y267461
Y274250
Y281250
Y288250
X312518Y288500
Y281500
Y274500
Y267461
Y260461
X288600Y266300
X287000Y269500
X282400Y268200
X280700Y266100
X276500Y266000
X278100Y268100
X277750Y279750
X277165Y285433
X266800Y289500
X264750Y292750
X250394Y284252
X241500Y274500
X240750Y263750
X242719Y249927
Y244809
X247837
Y249927
X252955
Y244809
X258073
Y249927
X263191
Y244809
Y239691
X258073
X252955
X247837
X242719
Y234573
X247837
X252955
X258073
X263191
X268309
Y239691
X273427
Y234573
X278545
X283663
X288781
Y239691
X283663
X278545
Y244809
X283663
X288781
Y249927
X283663
X278545
X273427
X268309
Y244809
X273427
X276500Y229500
X278740Y217717
X272834Y217519
X268503Y216338
X262598Y218503
X258661Y216535
X253740Y216339
X240750Y217000
X241000Y213750
X227417Y213356
X228346Y198031
X230000Y196000
X230315Y189370
X227559
X224803
X226181Y187402
X228937
X227559Y185433
X230315
X224803
X236750Y192500
X244250Y193250
X241000Y188250
X240250Y174250
X254000Y185750
X256250Y187250
X258250Y202250
X251100Y203100
X250787Y229528
X247000Y229500
X256750
X231354Y236978
X224016Y235236
X212008
X200000
X212008Y217520
X199250Y174250
X278250Y182250
X274250Y187250
X285250Y179250
X297835Y185630
X300984
X303937
X302559Y187598
X299410
X300984Y189567
X304134
X297638
X311250Y174250
X294094Y274016
X260629Y267126
X256299Y267913
X255750Y309500
X243701Y311417
X232661Y305159
Y302797
X230299
Y305159
X227937
X227953Y302756
X224000Y305750
X221000Y293250
X209000
X197000Y293500
X177165Y284842
X274250Y309500
X289250Y312000
Y315250
X287402Y324016
X287400Y327100
X283500Y340000
X262500Y340500
X260100Y326800
X260000Y321250
X258100Y323000
X256000Y325100
X254750Y313250
X264600Y313500
X266700Y316200
X272000Y313200
X273000Y319000
Y323000
X303250Y325000
X257250Y354000
X232661Y346892
Y344530
X230299
X227937
Y346892
X230299
X224000Y330750
X236750Y315000
X167520Y344094
X314567Y338189
T02
X225000Y132000
Y135000
Y138000
X228000
X231000
Y135000
X234000
Y132000
X231000
X228000
Y135000
Y141000
X225000
Y144000
X296000
Y141000
Y138000
X299000
X302000
Y135000
X305000
Y132000
X302000
X299000
Y135000
X296000
Y132000
X299000Y141000
X367000
X370000
Y138000
Y135000
Y132000
X373000
Y135000
Y138000
X367000
Y135000
Y132000
X376000
Y135000
X367000Y144000
X280708Y274803
X283858Y278740
T03
X376378Y272835
Y282835
Y292835
Y302835
X112205Y300866
Y310866
Y290866
Y320866
X376378Y322835
Y312835
T04
X241565Y106000
X261250
X280935
X122835Y226772
Y246457
T05
X120079Y104331
X368110
X120079Y344488
X368110
M30
