M48
;Layer_Color=9474304
;FILE_FORMAT=2:5
INCH,TZ
;TYPE=PLATED
T1F00S00C0.00787
T2F00S00C0.01181
T3F00S00C0.01575
T4F00S00C0.03543
T5F00S00C0.05118
;TYPE=NON_PLATED
T6F00S00C0.11811
%
T01
X176772Y310961
Y314236
T02
X345250Y187250
X339768Y260461
Y267461
Y274250
Y281250
Y288250
X312518Y260461
X307100Y278000
X309055Y284252
X299300Y278800
X297600Y274000
X294094Y274016
X288600Y266300
X286600Y268000
X282400Y268200
X281100Y270800
X278232Y267801
X276400Y266000
X260629Y267126
X256400Y268800
X258073Y249927
X252955
X247837
X242719
Y244809
X247837
X252955
X258073
X263191
Y249927
X268309
Y244809
X273427
Y249927
X278545
X283663
X288781
Y244809
X283663
X278545
Y239691
X283663
X288781
Y234573
X283663
X278545
X273427
X268309
Y239691
X273427
X263191
X258073
X252955
X247837
X242719
Y234573
X247837
X252955
X258073
X263191
X256750Y229500
X250787Y229528
X247000Y229500
X240750Y217000
X241000Y213750
X227417Y213356
X220276Y217520
X220000Y235000
X223500
X216500
X231354Y236978
X240945Y261024
X241500Y274500
X250394Y284252
X252362Y296850
X266200Y293000
X264700Y288900
X266700Y284400
X276600Y289900
X288583Y308661
X243701Y311417
X230709Y301969
X224000Y305750
X221000Y293250
X209000
X197000Y293500
X203150Y301969
X228346Y198031
X230000Y196000
X230315Y189370
X227559
X224803
X226181Y187402
X228937
X227559Y185433
X230315
X224803
X219685Y179528
X199250Y174250
X240250
X247638Y172835
X251969Y194488
X254330Y196063
X258250Y202250
X258661Y216535
X253740Y216339
X262598Y218503
X268503Y216338
X272834Y217519
X278740Y217717
X276500Y229500
X274250Y187250
X284646Y182283
X285250Y179250
X297835Y185630
X300984
X303937
X302559Y187598
X299410
X300984Y189567
X304134
X297638
X311250Y174250
X312205Y314961
X302800Y325100
X287402Y323622
X283500Y340000
X262500Y340500
X263386Y350787
X260100Y326800
X260000Y321250
X258100Y323000
X256000Y325100
X273300Y316500
X274400Y313400
X236750Y315000
X224000Y330750
X204724Y335433
X173228Y337008
X168898Y325984
X166142
Y323228
X168898
X163386
Y325984
X180709Y318898
X184646Y312598
X240158Y341732
X314567Y338189
X314961Y313386
X345669Y330315
X364961Y324410
X362598Y322047
T03
X225000Y132000
Y135000
Y138000
X228000
X231000
Y135000
X234000
Y132000
X231000
X228000
Y135000
Y141000
X225000
Y144000
X296000
Y141000
Y138000
X299000
X302000
Y135000
X305000
Y132000
X302000
X299000
Y135000
X296000
Y132000
X299000Y141000
X367000
X370000
Y138000
Y135000
Y132000
X373000
Y135000
Y138000
X367000
Y135000
Y132000
X376000
Y135000
X367000Y144000
T04
X366950Y287000
Y297000
Y307000
X376950
Y297000
Y287000
X240079Y352756
X230079
X220079
X210079
X200079
X366950Y317000
X376950
T05
X241565Y106000
X261250
X280935
X161000Y227315
Y247000
T06
X161417Y106299
X366142
X161417Y342520
X366142
M30
