G04*
G04 #@! TF.GenerationSoftware,Altium Limited,Altium Designer,18.1.9 (240)*
G04*
G04 Layer_Color=8388736*
%FSLAX25Y25*%
%MOIN*%
G70*
G01*
G75*
%ADD32R,0.17402X0.13701*%
%ADD33R,0.15571X0.20079*%
%ADD34R,0.04343X0.04737*%
%ADD35R,0.15367X0.05524*%
%ADD36R,0.04737X0.04343*%
G04:AMPARAMS|DCode=37|XSize=31.62mil|YSize=47.37mil|CornerRadius=6.01mil|HoleSize=0mil|Usage=FLASHONLY|Rotation=90.000|XOffset=0mil|YOffset=0mil|HoleType=Round|Shape=RoundedRectangle|*
%AMROUNDEDRECTD37*
21,1,0.03162,0.03535,0,0,90.0*
21,1,0.01961,0.04737,0,0,90.0*
1,1,0.01202,0.01768,0.00980*
1,1,0.01202,0.01768,-0.00980*
1,1,0.01202,-0.01768,-0.00980*
1,1,0.01202,-0.01768,0.00980*
%
%ADD37ROUNDEDRECTD37*%
G04:AMPARAMS|DCode=38|XSize=17.84mil|YSize=27.69mil|CornerRadius=5.97mil|HoleSize=0mil|Usage=FLASHONLY|Rotation=90.000|XOffset=0mil|YOffset=0mil|HoleType=Round|Shape=RoundedRectangle|*
%AMROUNDEDRECTD38*
21,1,0.01784,0.01575,0,0,90.0*
21,1,0.00591,0.02769,0,0,90.0*
1,1,0.01194,0.00787,0.00295*
1,1,0.01194,0.00787,-0.00295*
1,1,0.01194,-0.00787,-0.00295*
1,1,0.01194,-0.00787,0.00295*
%
%ADD38ROUNDEDRECTD38*%
G04:AMPARAMS|DCode=39|XSize=41.07mil|YSize=102.49mil|CornerRadius=5.98mil|HoleSize=0mil|Usage=FLASHONLY|Rotation=0.000|XOffset=0mil|YOffset=0mil|HoleType=Round|Shape=RoundedRectangle|*
%AMROUNDEDRECTD39*
21,1,0.04107,0.09052,0,0,0.0*
21,1,0.02910,0.10249,0,0,0.0*
1,1,0.01197,0.01455,-0.04526*
1,1,0.01197,-0.01455,-0.04526*
1,1,0.01197,-0.01455,0.04526*
1,1,0.01197,0.01455,0.04526*
%
%ADD39ROUNDEDRECTD39*%
%ADD40R,0.03162X0.03556*%
%ADD41R,0.03556X0.03162*%
%ADD42R,0.01981X0.06902*%
%ADD43R,0.08280X0.06115*%
%ADD44O,0.01981X0.07887*%
%ADD45O,0.07887X0.01981*%
%ADD46R,0.05800X0.03202*%
%ADD47R,0.15564X0.16194*%
%ADD48C,0.06706*%
%ADD49R,0.06706X0.06706*%
%ADD50R,0.06706X0.06706*%
%ADD51C,0.15748*%
%ADD52C,0.08674*%
%ADD53C,0.02769*%
%ADD54C,0.01181*%
D32*
X265750Y242250D02*
D03*
D33*
X212240Y163250D02*
D03*
X182240D02*
D03*
X253240Y163250D02*
D03*
X283240D02*
D03*
X324240Y163250D02*
D03*
X354240Y163250D02*
D03*
Y141250D02*
D03*
X324240Y141250D02*
D03*
X283240Y141250D02*
D03*
X253240Y141250D02*
D03*
X212240Y141250D02*
D03*
X182240D02*
D03*
D34*
X162205Y270079D02*
D03*
X168504D02*
D03*
X188976Y302756D02*
D03*
X195276D02*
D03*
X179921Y296063D02*
D03*
X173622D02*
D03*
X173622Y290158D02*
D03*
X179921D02*
D03*
X162205Y277559D02*
D03*
X168504D02*
D03*
X335767Y274500D02*
D03*
X329468D02*
D03*
X335767Y281500D02*
D03*
X329468D02*
D03*
X335767Y288500D02*
D03*
X329468D02*
D03*
X335767Y260461D02*
D03*
X329468D02*
D03*
X335767Y267461D02*
D03*
X329468D02*
D03*
X175984Y322835D02*
D03*
X182283D02*
D03*
X276650Y294000D02*
D03*
X282950D02*
D03*
X241100Y290250D02*
D03*
X247400D02*
D03*
X247400Y284250D02*
D03*
X241100D02*
D03*
X230150Y327250D02*
D03*
X223850D02*
D03*
X230150Y309250D02*
D03*
X223850D02*
D03*
X230150Y321250D02*
D03*
X223850D02*
D03*
X230150Y315250D02*
D03*
X223850D02*
D03*
X237400Y217000D02*
D03*
X231100D02*
D03*
X283400Y344250D02*
D03*
X277100D02*
D03*
X266600Y280750D02*
D03*
X272900D02*
D03*
X241100Y278250D02*
D03*
X247400D02*
D03*
X266600Y274250D02*
D03*
X272900D02*
D03*
X237400Y211000D02*
D03*
X231100D02*
D03*
X323417Y267461D02*
D03*
X317118D02*
D03*
X323417Y260461D02*
D03*
X317118D02*
D03*
X323417Y288500D02*
D03*
X317118D02*
D03*
X323417Y281500D02*
D03*
X317118D02*
D03*
X323417Y274500D02*
D03*
X317118D02*
D03*
X284600Y274250D02*
D03*
X290900D02*
D03*
D35*
X194882Y309842D02*
D03*
Y320866D02*
D03*
D36*
X201181Y333858D02*
D03*
Y340158D02*
D03*
X176772Y336614D02*
D03*
Y342913D02*
D03*
X165748Y318898D02*
D03*
Y312598D02*
D03*
X341142Y330512D02*
D03*
Y336811D02*
D03*
X333465Y337205D02*
D03*
Y330906D02*
D03*
X305750Y331400D02*
D03*
Y325100D02*
D03*
X173250Y183400D02*
D03*
Y177100D02*
D03*
X203250Y183400D02*
D03*
Y177100D02*
D03*
X244250Y183400D02*
D03*
Y177100D02*
D03*
X274250Y183400D02*
D03*
Y177100D02*
D03*
X315250Y183400D02*
D03*
Y177100D02*
D03*
X345250Y183402D02*
D03*
Y177102D02*
D03*
X237000Y259100D02*
D03*
Y265400D02*
D03*
X228500Y226850D02*
D03*
Y233150D02*
D03*
X234250Y226850D02*
D03*
Y233150D02*
D03*
X218000Y290150D02*
D03*
Y283850D02*
D03*
X224000Y271850D02*
D03*
Y278150D02*
D03*
Y283850D02*
D03*
Y290150D02*
D03*
X212000Y271850D02*
D03*
Y278150D02*
D03*
Y283850D02*
D03*
Y290150D02*
D03*
X206000Y290150D02*
D03*
Y283850D02*
D03*
X200000Y283850D02*
D03*
Y290150D02*
D03*
Y271850D02*
D03*
Y278150D02*
D03*
X194000Y290150D02*
D03*
Y283850D02*
D03*
X299750Y325100D02*
D03*
Y331400D02*
D03*
X293750Y325100D02*
D03*
Y331400D02*
D03*
X236750Y311400D02*
D03*
Y305100D02*
D03*
X260250Y350900D02*
D03*
Y344600D02*
D03*
X254250Y350900D02*
D03*
Y344600D02*
D03*
X260250Y212400D02*
D03*
Y206100D02*
D03*
X270250Y212400D02*
D03*
Y206100D02*
D03*
X280250Y212400D02*
D03*
Y206100D02*
D03*
D37*
X194783Y340748D02*
D03*
Y333268D02*
D03*
X183957D02*
D03*
Y337008D02*
D03*
Y340748D02*
D03*
D38*
X173031Y316535D02*
D03*
Y314567D02*
D03*
Y312598D02*
D03*
Y310630D02*
D03*
Y308661D02*
D03*
X180512D02*
D03*
Y310630D02*
D03*
Y312598D02*
D03*
Y314567D02*
D03*
Y316535D02*
D03*
D39*
X176772Y312598D02*
D03*
D40*
X199213Y188976D02*
D03*
X207087D02*
D03*
X270472D02*
D03*
X278346D02*
D03*
X341339D02*
D03*
X349213D02*
D03*
X169291D02*
D03*
X177165D02*
D03*
X239764D02*
D03*
X247638D02*
D03*
X311417D02*
D03*
X319291D02*
D03*
D41*
X218000Y271063D02*
D03*
Y278937D02*
D03*
X206000Y271063D02*
D03*
Y278937D02*
D03*
X194095Y271063D02*
D03*
Y278937D02*
D03*
D42*
X288388Y224435D02*
D03*
X286419D02*
D03*
X284451D02*
D03*
X282482D02*
D03*
X280514D02*
D03*
X278545D02*
D03*
X276577D02*
D03*
X274608D02*
D03*
X272640D02*
D03*
X270671D02*
D03*
X268703D02*
D03*
X266734D02*
D03*
X264766D02*
D03*
X262797D02*
D03*
X260829D02*
D03*
X258860D02*
D03*
X256892D02*
D03*
X254923D02*
D03*
X252955D02*
D03*
X250986D02*
D03*
X249018D02*
D03*
X247049D02*
D03*
X245081D02*
D03*
X243112D02*
D03*
Y260065D02*
D03*
X245081D02*
D03*
X247049D02*
D03*
X249018D02*
D03*
X250986D02*
D03*
X252955D02*
D03*
X254923D02*
D03*
X256892D02*
D03*
X258860D02*
D03*
X260829D02*
D03*
X262797D02*
D03*
X264766D02*
D03*
X266734D02*
D03*
X268703D02*
D03*
X270671D02*
D03*
X272640D02*
D03*
X274608D02*
D03*
X276577D02*
D03*
X278545D02*
D03*
X280514D02*
D03*
X282482D02*
D03*
X284451D02*
D03*
X286419D02*
D03*
X288388D02*
D03*
D43*
X230250Y181852D02*
D03*
Y169648D02*
D03*
X301000Y181852D02*
D03*
Y169648D02*
D03*
D44*
X276077Y334195D02*
D03*
X274108D02*
D03*
X272140D02*
D03*
X270171D02*
D03*
X268203D02*
D03*
X266234D02*
D03*
X264266D02*
D03*
X262297D02*
D03*
X260329D02*
D03*
X258360D02*
D03*
X256392D02*
D03*
X254423D02*
D03*
Y302305D02*
D03*
X256392D02*
D03*
X258360D02*
D03*
X260329D02*
D03*
X262297D02*
D03*
X264266D02*
D03*
X266234D02*
D03*
X268203D02*
D03*
X270171D02*
D03*
X272140D02*
D03*
X274108D02*
D03*
X276077D02*
D03*
D45*
X249305Y329077D02*
D03*
Y327108D02*
D03*
Y325140D02*
D03*
Y323171D02*
D03*
Y321203D02*
D03*
Y319234D02*
D03*
Y317266D02*
D03*
Y315297D02*
D03*
Y313329D02*
D03*
Y311360D02*
D03*
Y309392D02*
D03*
Y307423D02*
D03*
X281195D02*
D03*
Y309392D02*
D03*
Y311360D02*
D03*
Y313329D02*
D03*
Y315297D02*
D03*
Y317266D02*
D03*
Y319234D02*
D03*
Y321203D02*
D03*
Y323171D02*
D03*
Y325140D02*
D03*
Y327108D02*
D03*
Y329077D02*
D03*
D46*
X199140Y170750D02*
D03*
Y165750D02*
D03*
Y160750D02*
D03*
Y155750D02*
D03*
X220163D02*
D03*
Y160750D02*
D03*
Y165750D02*
D03*
Y170750D02*
D03*
X169140D02*
D03*
Y165750D02*
D03*
Y160750D02*
D03*
Y155750D02*
D03*
X190163D02*
D03*
Y160750D02*
D03*
Y165750D02*
D03*
Y170750D02*
D03*
X240140D02*
D03*
Y165750D02*
D03*
Y160750D02*
D03*
Y155750D02*
D03*
X261163D02*
D03*
Y160750D02*
D03*
Y165750D02*
D03*
Y170750D02*
D03*
X270140D02*
D03*
Y165750D02*
D03*
Y160750D02*
D03*
Y155750D02*
D03*
X291163D02*
D03*
Y160750D02*
D03*
Y165750D02*
D03*
Y170750D02*
D03*
X311140D02*
D03*
Y165750D02*
D03*
Y160750D02*
D03*
Y155750D02*
D03*
X332163D02*
D03*
Y160750D02*
D03*
Y165750D02*
D03*
Y170750D02*
D03*
X341140D02*
D03*
Y165750D02*
D03*
Y160750D02*
D03*
Y155750D02*
D03*
X362163D02*
D03*
Y160750D02*
D03*
Y165750D02*
D03*
Y170750D02*
D03*
X341140Y148750D02*
D03*
Y143750D02*
D03*
Y138750D02*
D03*
Y133750D02*
D03*
X362163D02*
D03*
Y138750D02*
D03*
Y143750D02*
D03*
Y148750D02*
D03*
X311140D02*
D03*
Y143750D02*
D03*
Y138750D02*
D03*
Y133750D02*
D03*
X332163D02*
D03*
Y138750D02*
D03*
Y143750D02*
D03*
Y148750D02*
D03*
X270140D02*
D03*
Y143750D02*
D03*
Y138750D02*
D03*
Y133750D02*
D03*
X291163D02*
D03*
Y138750D02*
D03*
Y143750D02*
D03*
Y148750D02*
D03*
X240140D02*
D03*
Y143750D02*
D03*
Y138750D02*
D03*
Y133750D02*
D03*
X261163D02*
D03*
Y138750D02*
D03*
Y143750D02*
D03*
Y148750D02*
D03*
X199140D02*
D03*
Y143750D02*
D03*
Y138750D02*
D03*
Y133750D02*
D03*
X220163D02*
D03*
Y138750D02*
D03*
Y143750D02*
D03*
Y148750D02*
D03*
X169140D02*
D03*
Y143750D02*
D03*
Y138750D02*
D03*
Y133750D02*
D03*
X190163D02*
D03*
Y138750D02*
D03*
Y143750D02*
D03*
Y148750D02*
D03*
D47*
X212250Y163250D02*
D03*
X182250D02*
D03*
X253250D02*
D03*
X283250D02*
D03*
X324250D02*
D03*
X354250D02*
D03*
Y141250D02*
D03*
X324250D02*
D03*
X283250D02*
D03*
X253250D02*
D03*
X212250D02*
D03*
X182250D02*
D03*
D48*
X366950Y287000D02*
D03*
Y297000D02*
D03*
Y307000D02*
D03*
X240079Y352756D02*
D03*
X230079D02*
D03*
X220079D02*
D03*
X210079D02*
D03*
X376950Y307000D02*
D03*
Y297000D02*
D03*
Y287000D02*
D03*
D49*
X366950Y317000D02*
D03*
X376950D02*
D03*
D50*
X200079Y352756D02*
D03*
D51*
X161417Y106299D02*
D03*
Y342520D02*
D03*
X366142D02*
D03*
Y106299D02*
D03*
D52*
X280935Y106000D02*
D03*
X261250D02*
D03*
X241565D02*
D03*
X161000Y247000D02*
D03*
Y227315D02*
D03*
D53*
X176772Y314236D02*
D03*
Y310961D02*
D03*
D54*
X242719Y234573D02*
D03*
Y239691D02*
D03*
Y244809D02*
D03*
Y249927D02*
D03*
X247837Y234573D02*
D03*
Y239691D02*
D03*
Y244809D02*
D03*
Y249927D02*
D03*
X252955Y234573D02*
D03*
Y239691D02*
D03*
Y244809D02*
D03*
Y249927D02*
D03*
X258073Y234573D02*
D03*
Y239691D02*
D03*
Y244809D02*
D03*
Y249927D02*
D03*
X263191Y234573D02*
D03*
Y239691D02*
D03*
Y244809D02*
D03*
Y249927D02*
D03*
X268309Y234573D02*
D03*
Y239691D02*
D03*
Y244809D02*
D03*
Y249927D02*
D03*
X288781Y234573D02*
D03*
Y239691D02*
D03*
Y244809D02*
D03*
Y249927D02*
D03*
X283663Y234573D02*
D03*
Y239691D02*
D03*
Y244809D02*
D03*
Y249927D02*
D03*
X273427Y234573D02*
D03*
Y239691D02*
D03*
Y244809D02*
D03*
Y249927D02*
D03*
X278545D02*
D03*
Y244809D02*
D03*
Y239691D02*
D03*
Y234573D02*
D03*
M02*
