G04*
G04 #@! TF.GenerationSoftware,Altium Limited,Altium Designer,19.1.7 (138)*
G04*
G04 Layer_Color=32896*
%FSLAX25Y25*%
%MOIN*%
G70*
G01*
G75*
%ADD10C,0.00600*%
D10*
X192430Y192247D02*
Y189581D01*
X191763Y188915D01*
X190430D01*
X189764Y189581D01*
Y192247D01*
X190430Y192913D01*
X191763D01*
X191097Y191580D02*
X192430Y192913D01*
X191763D02*
X192430Y192247D01*
X196428Y192913D02*
X193763D01*
X196428Y190248D01*
Y189581D01*
X195762Y188915D01*
X194429D01*
X193763Y189581D01*
X240461Y191853D02*
Y189187D01*
X239795Y188521D01*
X238462D01*
X237795Y189187D01*
Y191853D01*
X238462Y192520D01*
X239795D01*
X239128Y191187D02*
X240461Y192520D01*
X239795D02*
X240461Y191853D01*
X244460Y188521D02*
X243127Y189187D01*
X241794Y190520D01*
Y191853D01*
X242460Y192520D01*
X243793D01*
X244460Y191853D01*
Y191187D01*
X243793Y190520D01*
X241794D01*
X286130Y191460D02*
Y188794D01*
X285464Y188127D01*
X284131D01*
X283465Y188794D01*
Y191460D01*
X284131Y192126D01*
X285464D01*
X284798Y190793D02*
X286130Y192126D01*
X285464D02*
X286130Y191460D01*
X287463Y192126D02*
X288796D01*
X288130D01*
Y188127D01*
X287463Y188794D01*
X290795D02*
X291462Y188127D01*
X292795D01*
X293461Y188794D01*
Y191460D01*
X292795Y192126D01*
X291462D01*
X290795Y191460D01*
Y188794D01*
X214083Y192247D02*
Y189581D01*
X213417Y188915D01*
X212084D01*
X211417Y189581D01*
Y192247D01*
X212084Y192913D01*
X213417D01*
X212750Y191580D02*
X214083Y192913D01*
X213417D02*
X214083Y192247D01*
X215416Y189581D02*
X216083Y188915D01*
X217415D01*
X218082Y189581D01*
Y190248D01*
X217415Y190914D01*
X216749D01*
X217415D01*
X218082Y191580D01*
Y192247D01*
X217415Y192913D01*
X216083D01*
X215416Y192247D01*
X263870Y224682D02*
Y227348D01*
X264536Y228014D01*
X265869D01*
X266535Y227348D01*
Y224682D01*
X265869Y224016D01*
X264536D01*
X265202Y225349D02*
X263870Y224016D01*
X264536D02*
X263870Y224682D01*
X262537Y227348D02*
X261870Y228014D01*
X260537D01*
X259871Y227348D01*
Y226682D01*
X260537Y226015D01*
X259871Y225349D01*
Y224682D01*
X260537Y224016D01*
X261870D01*
X262537Y224682D01*
Y225349D01*
X261870Y226015D01*
X262537Y226682D01*
Y227348D01*
X261870Y226015D02*
X260537D01*
X308965Y191460D02*
Y188794D01*
X308299Y188127D01*
X306966D01*
X306299Y188794D01*
Y191460D01*
X306966Y192126D01*
X308299D01*
X307632Y190793D02*
X308965Y192126D01*
X308299D02*
X308965Y191460D01*
X310298Y192126D02*
X311631D01*
X310964D01*
Y188127D01*
X310298Y188794D01*
X316296Y192126D02*
X313630D01*
X316296Y189460D01*
Y188794D01*
X315630Y188127D01*
X314297D01*
X313630Y188794D01*
M02*
