G04*
G04 #@! TF.GenerationSoftware,Altium Limited,Altium Designer,18.1.9 (240)*
G04*
G04 Layer_Physical_Order=1*
G04 Layer_Color=255*
%FSLAX25Y25*%
%MOIN*%
G70*
G01*
G75*
%ADD10C,0.00984*%
%ADD17R,0.02756X0.02362*%
%ADD18R,0.49213X0.20079*%
%ADD19R,0.01181X0.06102*%
%ADD20R,0.04724X0.04331*%
%ADD21R,0.03937X0.03543*%
%ADD22R,0.04724X0.08661*%
%ADD23R,0.13780X0.08661*%
%ADD24R,0.03543X0.03937*%
%ADD25R,0.07480X0.05315*%
%ADD26O,0.01181X0.07087*%
%ADD27O,0.07087X0.01181*%
%ADD28R,0.05000X0.02402*%
%ADD29R,0.14764X0.15394*%
%ADD30R,0.04331X0.04724*%
%ADD50C,0.01181*%
%ADD51C,0.01000*%
%ADD52C,0.01968*%
%ADD53C,0.01181*%
%ADD54C,0.03000*%
%ADD55C,0.00800*%
%ADD56R,0.03000X0.05000*%
%ADD57C,0.03937*%
%ADD58C,0.07874*%
%ADD59R,0.05906X0.05906*%
%ADD60C,0.05906*%
%ADD61C,0.01968*%
%ADD62C,0.02362*%
G36*
X125984Y358268D02*
X362205Y358268D01*
X362205Y358268D01*
X362205Y358268D01*
X363495Y358268D01*
X366053Y357931D01*
X368546Y357263D01*
X370930Y356276D01*
X373165Y354985D01*
X375212Y353415D01*
X377036Y351590D01*
X378607Y349543D01*
X379898Y347308D01*
X380885Y344924D01*
X381553Y342431D01*
X381890Y339873D01*
X381890Y338583D01*
X381890Y255906D01*
X225137D01*
Y269479D01*
X226569D01*
Y274222D01*
X221431D01*
Y269479D01*
X222894D01*
Y255906D01*
X219122D01*
Y269282D01*
X219978D01*
Y272844D01*
X216022D01*
Y269282D01*
X216879D01*
Y255906D01*
X213129D01*
Y269479D01*
X214568D01*
Y274222D01*
X209432D01*
Y269479D01*
X210886D01*
Y255906D01*
X207121D01*
Y269282D01*
X207978D01*
Y272844D01*
X204022D01*
Y269282D01*
X204878D01*
Y255906D01*
X201122D01*
Y269479D01*
X202569D01*
Y274222D01*
X197432D01*
Y269479D01*
X198878D01*
Y255906D01*
X195122D01*
Y269282D01*
X196072D01*
Y272844D01*
X192116D01*
Y269282D01*
X192878D01*
Y255906D01*
X171432D01*
Y270660D01*
X172254D01*
Y280521D01*
X170505D01*
Y281496D01*
X170413Y281961D01*
X170150Y282354D01*
X170150Y282354D01*
X166213Y286291D01*
X165819Y286555D01*
X165354Y286647D01*
X165354Y286647D01*
X147244D01*
X147244Y286647D01*
X146780Y286555D01*
X146386Y286291D01*
X146386Y286291D01*
X144356Y284261D01*
X141132D01*
Y279518D01*
X146269D01*
Y282742D01*
X147747Y284219D01*
X164851D01*
X168050Y281021D01*
X168010Y280521D01*
X166329D01*
Y270660D01*
X167150D01*
Y255906D01*
X152796D01*
Y270660D01*
X154143D01*
Y280521D01*
X148219D01*
Y277206D01*
X146269D01*
Y277962D01*
X141132D01*
Y273219D01*
X146269D01*
Y273975D01*
X148219D01*
Y270660D01*
X149566D01*
Y255906D01*
X106328D01*
X106299Y338583D01*
X106299Y339873D01*
X106636Y342431D01*
X107304Y344924D01*
X108291Y347308D01*
X109581Y349543D01*
X111152Y351590D01*
X112977Y353415D01*
X115024Y354985D01*
X117259Y356276D01*
X119643Y357263D01*
X122136Y357931D01*
X124694Y358268D01*
X125984Y358268D01*
D02*
G37*
G36*
X301634Y218575D02*
X297173Y214114D01*
X288653D01*
X283604Y219163D01*
Y220784D01*
X283673D01*
Y228086D01*
X278062D01*
X277795Y228586D01*
X277992Y228882D01*
X278115Y229500D01*
X277992Y230118D01*
X277642Y230642D01*
X277118Y230992D01*
X276500Y231115D01*
X275882Y230992D01*
X275358Y230642D01*
X275008Y230118D01*
X274885Y229500D01*
X275008Y228882D01*
X275205Y228586D01*
X274938Y228086D01*
X258167D01*
X258045Y228586D01*
X258242Y228882D01*
X258365Y229500D01*
X258242Y230118D01*
X257892Y230642D01*
X257368Y230992D01*
X256750Y231115D01*
X256132Y230992D01*
X255608Y230642D01*
X255258Y230118D01*
X255135Y229500D01*
X255258Y228882D01*
X255455Y228586D01*
X255188Y228086D01*
X253733D01*
Y220784D01*
X253800D01*
Y218437D01*
X253740Y217954D01*
X253122Y217831D01*
X252608Y217487D01*
X252544Y217499D01*
X252108Y217647D01*
Y220784D01*
X252177D01*
Y228086D01*
X252108D01*
Y228652D01*
X252280Y228909D01*
X252403Y229528D01*
X252280Y230146D01*
X251930Y230670D01*
X251406Y231020D01*
X250787Y231143D01*
X250169Y231020D01*
X249645Y230670D01*
X249295Y230146D01*
X249172Y229528D01*
X249295Y228909D01*
X249573Y228494D01*
X249796Y228086D01*
Y220784D01*
X249865D01*
Y204103D01*
X249608Y203718D01*
X249485Y203100D01*
X249608Y202482D01*
X249958Y201958D01*
X250482Y201608D01*
X251100Y201485D01*
X251718Y201608D01*
X252242Y201958D01*
X252592Y202482D01*
X252715Y203100D01*
X252592Y203718D01*
X252242Y204242D01*
X252108Y204332D01*
Y215030D01*
X252544Y215178D01*
X252608Y215190D01*
X253122Y214846D01*
X253740Y214723D01*
X254358Y214846D01*
X254882Y215196D01*
X254956Y215306D01*
X255456Y215154D01*
Y209773D01*
X255456Y209773D01*
X255541Y209344D01*
X255784Y208980D01*
X257681Y207083D01*
Y203752D01*
X257632Y203742D01*
X257108Y203392D01*
X256758Y202868D01*
X256635Y202250D01*
X256758Y201632D01*
X257108Y201108D01*
X257632Y200758D01*
X258250Y200635D01*
X258868Y200758D01*
X259392Y201108D01*
X259742Y201632D01*
X259865Y202250D01*
X259860Y202274D01*
X261043Y203457D01*
X261043Y203457D01*
X261225Y203729D01*
X262819D01*
Y208472D01*
X259465D01*
X258370Y209566D01*
X258562Y210028D01*
X262819D01*
Y214771D01*
X261962D01*
Y216505D01*
X262462Y216915D01*
X262598Y216888D01*
X263194Y217007D01*
X263283Y217014D01*
X263694Y216754D01*
Y200000D01*
X248171D01*
Y220784D01*
X248240D01*
Y228086D01*
X248240D01*
X248283Y228568D01*
X248492Y228882D01*
X248615Y229500D01*
X248492Y230118D01*
X248142Y230642D01*
X247618Y230992D01*
X247000Y231115D01*
X246382Y230992D01*
X245858Y230642D01*
X245508Y230118D01*
X245385Y229500D01*
X245508Y228882D01*
X245739Y228536D01*
X245859Y228086D01*
X245859Y228086D01*
X245859D01*
X245859Y228086D01*
Y220784D01*
X245928D01*
Y200000D01*
X230912D01*
X213585Y217327D01*
X213623Y217520D01*
X213500Y218138D01*
X213150Y218662D01*
X212626Y219012D01*
X212008Y219135D01*
X211390Y219012D01*
X210866Y218662D01*
X210515Y218138D01*
X210393Y217520D01*
X210515Y216901D01*
X210866Y216377D01*
X211390Y216027D01*
X211792Y215947D01*
X227277Y200462D01*
X227086Y200000D01*
X180315D01*
X172835Y192520D01*
Y185771D01*
X170682D01*
Y181028D01*
X172835D01*
Y179472D01*
X170682D01*
Y174729D01*
X172128D01*
Y159715D01*
X169965Y157551D01*
X166040D01*
Y153949D01*
X172128D01*
Y137715D01*
X169965Y135551D01*
X166040D01*
Y131949D01*
X165564Y131890D01*
X116142D01*
X106328Y141703D01*
X106328Y202756D01*
X106328D01*
Y244124D01*
X116142Y253937D01*
X167150Y253937D01*
Y235139D01*
X160837Y228826D01*
X126894D01*
X126798Y229060D01*
X126070Y230008D01*
X125123Y230735D01*
X124019Y231192D01*
X122835Y231348D01*
X121650Y231192D01*
X120547Y230735D01*
X119599Y230008D01*
X118872Y229060D01*
X118414Y227956D01*
X118259Y226772D01*
X118414Y225587D01*
X118872Y224484D01*
X119599Y223536D01*
X120547Y222809D01*
X121650Y222351D01*
X122835Y222196D01*
X124019Y222351D01*
X125123Y222809D01*
X126070Y223536D01*
X126798Y224484D01*
X126823Y224544D01*
X225932D01*
Y224479D01*
X231068D01*
Y224709D01*
X231681D01*
Y224479D01*
X236819D01*
Y224709D01*
X238263D01*
X239351Y223621D01*
Y222000D01*
X239541Y221541D01*
X240000Y221351D01*
X241922D01*
Y220784D01*
X244303D01*
Y228086D01*
X241922D01*
Y227649D01*
X241379D01*
X240664Y228364D01*
X239969Y228829D01*
X239150Y228992D01*
X236819D01*
Y229222D01*
X231681D01*
Y228992D01*
X231068D01*
Y229222D01*
X225932D01*
Y228826D01*
X217066D01*
X216874Y229288D01*
X218793Y231207D01*
X218793Y231207D01*
X219036Y231571D01*
X219122Y232000D01*
X219122Y232000D01*
Y253937D01*
X222894D01*
Y236392D01*
X222874Y236378D01*
X222523Y235854D01*
X222400Y235236D01*
X222523Y234618D01*
X222874Y234094D01*
X223398Y233744D01*
X224016Y233621D01*
X224634Y233744D01*
X225031Y234010D01*
X225456Y233850D01*
X225532Y233788D01*
Y233650D01*
X228000D01*
Y235921D01*
X225532D01*
X225217Y236291D01*
X225158Y236378D01*
X225137Y236392D01*
Y253937D01*
X301634Y253937D01*
Y218575D01*
D02*
G37*
G36*
X216879Y232465D02*
X213240Y228826D01*
X205066D01*
X204874Y229288D01*
X206793Y231207D01*
X206793Y231207D01*
X207036Y231571D01*
X207122Y232000D01*
X207121Y232000D01*
Y253937D01*
X210886D01*
Y236392D01*
X210866Y236378D01*
X210515Y235854D01*
X210393Y235236D01*
X210515Y234618D01*
X210866Y234094D01*
X211390Y233744D01*
X212008Y233621D01*
X212626Y233744D01*
X213150Y234094D01*
X213500Y234618D01*
X213623Y235236D01*
X213500Y235854D01*
X213150Y236378D01*
X213129Y236392D01*
Y253937D01*
X216879D01*
Y232465D01*
D02*
G37*
G36*
X204878D02*
X201240Y228826D01*
X193066D01*
X192874Y229288D01*
X194793Y231207D01*
X194793Y231207D01*
X195036Y231571D01*
X195122Y232000D01*
X195122Y232000D01*
Y253937D01*
X198878D01*
Y236392D01*
X198858Y236378D01*
X198508Y235854D01*
X198385Y235236D01*
X198508Y234618D01*
X198858Y234094D01*
X199382Y233744D01*
X200000Y233621D01*
X200618Y233744D01*
X201142Y234094D01*
X201492Y234618D01*
X201615Y235236D01*
X201492Y235854D01*
X201142Y236378D01*
X201122Y236392D01*
Y253937D01*
X204878D01*
Y232465D01*
D02*
G37*
G36*
X192878D02*
X189240Y228826D01*
X167547D01*
X167356Y229288D01*
X170805Y232738D01*
X171270Y233433D01*
X171432Y234252D01*
Y253937D01*
X192878D01*
Y232465D01*
D02*
G37*
G36*
X334646Y205906D02*
X328740Y200000D01*
X314086D01*
X307193Y206893D01*
X306829Y207137D01*
X306400Y207222D01*
X306400Y207222D01*
X282819D01*
Y208472D01*
X279465D01*
X278370Y209566D01*
X278562Y210028D01*
X282819D01*
Y214771D01*
X281946D01*
Y216996D01*
X282408Y217187D01*
X287396Y212199D01*
X287396Y212199D01*
X287760Y211956D01*
X288189Y211871D01*
X297638D01*
X297638Y211871D01*
X298067Y211956D01*
X298431Y212199D01*
X303549Y217317D01*
X303792Y217681D01*
X303877Y218110D01*
X303877Y218110D01*
Y253937D01*
X334646D01*
X334646Y205906D01*
D02*
G37*
G36*
X310452Y200462D02*
X310261Y200000D01*
X306704D01*
X305124Y201581D01*
X304760Y201824D01*
X304331Y201909D01*
X304331Y201909D01*
X280177D01*
X278819Y203267D01*
X279011Y203729D01*
X282819D01*
Y204979D01*
X305935D01*
X310452Y200462D01*
D02*
G37*
G36*
X272834Y215904D02*
X273297Y215996D01*
X273797Y215702D01*
Y205582D01*
X273797Y205582D01*
X273882Y205152D01*
X274125Y204789D01*
X278452Y200462D01*
X278261Y200000D01*
X271372D01*
Y203729D01*
X272818D01*
Y208472D01*
X269464D01*
X268371Y209566D01*
X268562Y210028D01*
X272818D01*
Y214771D01*
X271805D01*
Y215746D01*
X272305Y216009D01*
X272834Y215904D01*
D02*
G37*
G36*
X234055Y188189D02*
Y179134D01*
X231371D01*
Y181455D01*
X231286Y181884D01*
X231043Y182248D01*
X230679Y182491D01*
X230250Y182576D01*
X229821Y182491D01*
X229457Y182248D01*
X229214Y181884D01*
X229129Y181455D01*
Y179134D01*
X226378D01*
X223228Y182283D01*
Y189764D01*
X224410Y190945D01*
X231299D01*
X234055Y188189D01*
D02*
G37*
G36*
X305709Y189961D02*
X305709Y180118D01*
X304724Y179134D01*
X302303D01*
Y180118D01*
X302217Y180547D01*
X302126Y180684D01*
X302286Y180923D01*
X302372Y181352D01*
X302286Y181782D01*
X302043Y182145D01*
X301679Y182388D01*
X301250Y182474D01*
X301000D01*
X300571Y182388D01*
X300207Y182145D01*
X299964Y181782D01*
X299879Y181352D01*
X299964Y180923D01*
X300180Y180600D01*
X300145Y180547D01*
X300060Y180118D01*
Y179134D01*
X297244D01*
X296260Y180118D01*
Y189961D01*
X297244Y190945D01*
X304724Y190945D01*
X305709Y189961D01*
D02*
G37*
G36*
X343750Y159336D02*
X341965Y157551D01*
X338040D01*
Y153949D01*
X343750D01*
Y137336D01*
X341965Y135551D01*
X338040D01*
Y131949D01*
X342546D01*
X342737Y131487D01*
X311250Y100000D01*
X278431D01*
X275000Y103015D01*
X275000Y108750D01*
X282500Y116250D01*
X300500Y116250D01*
X316750Y132500D01*
Y172000D01*
X338914D01*
X340457Y170457D01*
X340821Y170214D01*
X341250Y170128D01*
X341679Y170214D01*
X342043Y170457D01*
X342286Y170821D01*
X342372Y171250D01*
X342322Y171500D01*
X342627Y172000D01*
X343750D01*
Y159336D01*
D02*
G37*
G36*
X313750D02*
X311965Y157551D01*
X308040D01*
Y153949D01*
X313750D01*
Y137500D01*
X308500D01*
X297000Y149000D01*
Y171158D01*
X297462Y171350D01*
X300457Y168355D01*
X300821Y168112D01*
X301250Y168026D01*
X301679Y168112D01*
X302043Y168355D01*
X302286Y168718D01*
X302372Y169148D01*
X302286Y169577D01*
X302043Y169941D01*
X299946Y172038D01*
X300137Y172500D01*
X310128D01*
Y171250D01*
X310214Y170821D01*
X310457Y170457D01*
X310821Y170214D01*
X311250Y170128D01*
X311679Y170214D01*
X312043Y170457D01*
X312286Y170821D01*
X312371Y171250D01*
Y172500D01*
X313750D01*
Y159336D01*
D02*
G37*
G36*
X272748Y171646D02*
X272694Y159281D01*
X270965Y157551D01*
X267040D01*
Y153949D01*
X272317D01*
X272670Y153595D01*
X272598Y137184D01*
X270965Y135551D01*
X267040D01*
Y131949D01*
X272221D01*
X272574Y131595D01*
X272474Y108724D01*
X264281Y100531D01*
X257969Y100531D01*
X255000Y103500D01*
X255000Y112500D01*
X245750Y121750D01*
X245750Y172000D01*
X252129D01*
Y163250D01*
X252214Y162821D01*
X252457Y162457D01*
X252821Y162214D01*
X253250Y162128D01*
X253679Y162214D01*
X254043Y162457D01*
X254286Y162821D01*
X254372Y163250D01*
Y172000D01*
X269128D01*
Y171250D01*
X269214Y170821D01*
X269457Y170457D01*
X269821Y170214D01*
X270250Y170128D01*
X270679Y170214D01*
X271043Y170457D01*
X271286Y170821D01*
X271372Y171250D01*
Y172000D01*
X272396D01*
X272748Y171646D01*
D02*
G37*
G36*
X242750Y159336D02*
X240965Y157551D01*
X237040D01*
Y153949D01*
X242750D01*
Y137500D01*
X237500D01*
X226000Y149000D01*
Y172500D01*
X230011D01*
X230202Y172038D01*
X229707Y171543D01*
X229464Y171179D01*
X229378Y170750D01*
X229379Y170750D01*
Y170323D01*
X229214Y170077D01*
X229128Y169648D01*
X229214Y169218D01*
X229457Y168855D01*
X229821Y168612D01*
X230250Y168526D01*
X230679Y168612D01*
X231043Y168855D01*
X231293Y169105D01*
X231293Y169105D01*
X231536Y169468D01*
X231622Y169898D01*
Y170285D01*
X233836Y172500D01*
X239128D01*
Y171250D01*
X239214Y170821D01*
X239457Y170457D01*
X239821Y170214D01*
X240250Y170128D01*
X240679Y170214D01*
X241043Y170457D01*
X241286Y170821D01*
X241371Y171250D01*
Y172500D01*
X242750D01*
Y159336D01*
D02*
G37*
G36*
X201750D02*
X199965Y157551D01*
X196040D01*
Y153949D01*
X201750D01*
Y137336D01*
X199965Y135551D01*
X196040D01*
Y131949D01*
X201750D01*
Y130250D01*
X215750Y116250D01*
X240000Y116250D01*
X247500Y108750D01*
X247500Y103000D01*
X245000Y100500D01*
X206750D01*
X174750Y132500D01*
Y172000D01*
X198128D01*
Y171250D01*
X198214Y170821D01*
X198457Y170457D01*
X198821Y170214D01*
X199250Y170128D01*
X199679Y170214D01*
X200043Y170457D01*
X200286Y170821D01*
X200372Y171250D01*
Y172000D01*
X201750D01*
Y159336D01*
D02*
G37*
G36*
X365000Y149000D02*
X378000Y136000D01*
Y130000D01*
X349000D01*
X347000Y132000D01*
Y172000D01*
X365000D01*
Y149000D01*
D02*
G37*
G36*
X294000D02*
X307000Y136000D01*
Y130000D01*
X278000D01*
X276000Y132000D01*
Y172000D01*
X294000D01*
Y149000D01*
D02*
G37*
G36*
X223000D02*
X236000Y136000D01*
Y130000D01*
X207000D01*
X205000Y132000D01*
Y172000D01*
X223000D01*
Y149000D01*
D02*
G37*
%LPC*%
G36*
X166545Y353553D02*
X160620D01*
Y351901D01*
X158474D01*
Y353356D01*
X153337D01*
Y348613D01*
X158474D01*
Y349674D01*
X160620D01*
Y348022D01*
X166545D01*
Y353553D01*
D02*
G37*
G36*
X257250Y355615D02*
X256632Y355492D01*
X256108Y355142D01*
X255758Y354618D01*
X255635Y354000D01*
X255680Y353771D01*
X255276Y353271D01*
X251681D01*
Y348528D01*
X256819D01*
Y349778D01*
X257681D01*
Y348528D01*
X262819D01*
Y353271D01*
X259224D01*
X258820Y353771D01*
X258865Y354000D01*
X258742Y354618D01*
X258392Y355142D01*
X257868Y355492D01*
X257250Y355615D01*
D02*
G37*
G36*
X305437Y348440D02*
X305437Y348440D01*
X274014D01*
X274014Y348440D01*
X273585Y348355D01*
X273221Y348112D01*
X273221Y348112D01*
X264237Y339127D01*
X264225Y339125D01*
X263711Y339309D01*
X263698Y339442D01*
X263992Y339882D01*
X264115Y340500D01*
X263992Y341118D01*
X263642Y341642D01*
X263218Y341925D01*
Y344100D01*
X260750D01*
Y341829D01*
X260881D01*
X261148Y341329D01*
X261008Y341118D01*
X260885Y340500D01*
X261008Y339882D01*
X261176Y339630D01*
Y339050D01*
X260829Y338807D01*
Y334195D01*
Y329720D01*
X260949Y329744D01*
X261475Y330095D01*
X261597Y330278D01*
X261833Y330121D01*
X262297Y330028D01*
X262762Y330121D01*
X263156Y330384D01*
X263407D01*
X263801Y330121D01*
X264266Y330028D01*
X264730Y330121D01*
X265124Y330384D01*
X265376D01*
X265770Y330121D01*
X266234Y330028D01*
X266699Y330121D01*
X267093Y330384D01*
X267344D01*
X267738Y330121D01*
X268203Y330028D01*
X268667Y330121D01*
X269061Y330384D01*
X269313D01*
X269707Y330121D01*
X270171Y330028D01*
X270636Y330121D01*
X271030Y330384D01*
X271281D01*
X271675Y330121D01*
X272140Y330028D01*
X272604Y330121D01*
X272998Y330384D01*
X273250D01*
X273644Y330121D01*
X274108Y330028D01*
X274573Y330121D01*
X274808Y330278D01*
X274930Y330095D01*
X275456Y329744D01*
X275577Y329720D01*
Y334195D01*
Y338670D01*
X275456Y338646D01*
X274930Y338294D01*
X274808Y338112D01*
X274573Y338269D01*
X274108Y338362D01*
X273644Y338269D01*
X273250Y338006D01*
X272998D01*
X272604Y338269D01*
X272140Y338362D01*
X271675Y338269D01*
X271281Y338006D01*
X271030D01*
X270636Y338269D01*
X270171Y338362D01*
X269707Y338269D01*
X269555Y338167D01*
X269187Y338047D01*
X268819Y338167D01*
X268667Y338269D01*
X268203Y338362D01*
X267738Y338269D01*
X267586Y338167D01*
X267520Y338146D01*
X267254Y338305D01*
X267182Y338900D01*
X273867Y345585D01*
X274329Y345393D01*
Y344750D01*
X277100D01*
X279872D01*
Y346197D01*
X281028D01*
Y341682D01*
X282278D01*
Y341023D01*
X282008Y340618D01*
X281885Y340000D01*
X282008Y339382D01*
X282358Y338858D01*
X282882Y338508D01*
X283500Y338385D01*
X284118Y338508D01*
X284642Y338858D01*
X284992Y339382D01*
X285115Y340000D01*
X284992Y340618D01*
X284642Y341142D01*
X284583Y341181D01*
X284584Y341682D01*
X285771D01*
Y346197D01*
X304973D01*
X312957Y338213D01*
X312952Y338189D01*
X313075Y337571D01*
X313425Y337047D01*
X313949Y336697D01*
X314567Y336574D01*
X315185Y336697D01*
X315709Y337047D01*
X316059Y337571D01*
X316182Y338189D01*
X316059Y338807D01*
X315709Y339331D01*
X315185Y339681D01*
X314567Y339804D01*
X314543Y339799D01*
X306230Y348112D01*
X305867Y348355D01*
X305437Y348440D01*
D02*
G37*
G36*
X158874Y347457D02*
X156405D01*
Y345185D01*
X158874D01*
Y347457D01*
D02*
G37*
G36*
X155405D02*
X152937D01*
Y345185D01*
X155405D01*
Y347457D01*
D02*
G37*
G36*
X260750Y347372D02*
Y345100D01*
X263218D01*
Y347372D01*
X260750D01*
D02*
G37*
G36*
X253750D02*
X251281D01*
Y345100D01*
X253750D01*
Y347372D01*
D02*
G37*
G36*
X166545Y346860D02*
X160620D01*
Y341329D01*
X166545D01*
Y342285D01*
X167045Y342574D01*
X167520Y342479D01*
X168138Y342602D01*
X168662Y342952D01*
X169012Y343476D01*
X169135Y344094D01*
X169012Y344713D01*
X168662Y345237D01*
X168138Y345587D01*
X167520Y345710D01*
X167045Y345615D01*
X166545Y345904D01*
Y346860D01*
D02*
G37*
G36*
X158874Y344185D02*
X156405D01*
Y341913D01*
X158874D01*
Y344185D01*
D02*
G37*
G36*
X155405D02*
X152937D01*
Y341913D01*
X155405D01*
Y344185D01*
D02*
G37*
G36*
X253750Y344100D02*
X251281D01*
Y341829D01*
X253750D01*
Y344100D01*
D02*
G37*
G36*
X257281Y347372D02*
X256782Y347372D01*
X254750D01*
Y344600D01*
Y341829D01*
X256782D01*
X257219Y341829D01*
X257718Y341829D01*
X259750D01*
Y344600D01*
Y347372D01*
X257718D01*
X257281Y347372D01*
D02*
G37*
G36*
X279872Y343750D02*
X277600D01*
Y341282D01*
X279872D01*
Y343750D01*
D02*
G37*
G36*
X276600D02*
X274329D01*
Y341282D01*
X276600D01*
Y343750D01*
D02*
G37*
G36*
X255000Y341122D02*
X255000Y341122D01*
X222284D01*
X222284Y341122D01*
X221854Y341036D01*
X221490Y340793D01*
X221490Y340793D01*
X189207Y308510D01*
X188964Y308146D01*
X188878Y307716D01*
X188878Y307716D01*
Y287850D01*
X188878Y287850D01*
X188964Y287421D01*
X189207Y287057D01*
X191431Y284833D01*
Y281479D01*
X192878D01*
Y280718D01*
X192116D01*
Y277156D01*
X196072D01*
Y280718D01*
X195122D01*
Y281479D01*
X196569D01*
Y282729D01*
X197432D01*
Y281479D01*
X198878D01*
Y280521D01*
X197432D01*
Y275778D01*
X202569D01*
Y280521D01*
X201122D01*
Y281479D01*
X202569D01*
Y284942D01*
X203030Y285133D01*
X203432Y284732D01*
Y281479D01*
X204784D01*
Y280718D01*
X204022D01*
Y277156D01*
X207978D01*
Y280718D01*
X207027D01*
Y281479D01*
X208569D01*
Y282729D01*
X209432D01*
Y281479D01*
X210878D01*
Y280521D01*
X209432D01*
Y275778D01*
X214568D01*
Y280521D01*
X213122D01*
Y281479D01*
X214568D01*
Y286222D01*
X209432D01*
Y284972D01*
X208569D01*
Y286222D01*
X205114D01*
X204058Y287278D01*
X204113Y287778D01*
X208569D01*
Y291078D01*
X208987Y291197D01*
X209101Y291187D01*
X209432Y290857D01*
Y287778D01*
X214568D01*
Y292521D01*
X211315D01*
X210610Y293226D01*
X210615Y293250D01*
X210492Y293868D01*
X210142Y294392D01*
X209618Y294742D01*
X209000Y294865D01*
X208382Y294742D01*
X207858Y294392D01*
X207508Y293868D01*
X207385Y293250D01*
X207390Y293226D01*
X206685Y292521D01*
X204020D01*
Y317434D01*
X214808Y328222D01*
X215214Y327929D01*
X215128Y327500D01*
X215128Y327500D01*
Y304222D01*
X215128Y304222D01*
X215214Y303793D01*
X215457Y303429D01*
X225903Y292983D01*
X225712Y292521D01*
X223315D01*
X222610Y293226D01*
X222615Y293250D01*
X222492Y293868D01*
X222142Y294392D01*
X221618Y294742D01*
X221000Y294865D01*
X220382Y294742D01*
X219858Y294392D01*
X219508Y293868D01*
X219385Y293250D01*
X219431Y293017D01*
X218935Y292521D01*
X215431D01*
Y287778D01*
X220568D01*
Y290982D01*
X221011Y291425D01*
X221431Y291138D01*
Y287778D01*
X225688D01*
X225880Y287316D01*
X224785Y286222D01*
X221431D01*
Y284972D01*
X220568D01*
Y286222D01*
X215431D01*
Y281479D01*
X216879D01*
Y280718D01*
X216022D01*
Y277156D01*
X219978D01*
Y280718D01*
X219122D01*
Y281479D01*
X220568D01*
Y282729D01*
X221431D01*
Y281479D01*
X222879D01*
Y280521D01*
X221431D01*
Y275778D01*
X226569D01*
Y280521D01*
X225121D01*
Y281479D01*
X226569D01*
Y284833D01*
X227517Y285781D01*
X227978Y285589D01*
Y279387D01*
X227978Y279387D01*
X228064Y278958D01*
X228307Y278594D01*
X238668Y268233D01*
X238477Y267771D01*
X234432D01*
Y263028D01*
X239327D01*
X239608Y262608D01*
X240132Y262258D01*
X240750Y262135D01*
X241368Y262258D01*
X241422Y262294D01*
X241922Y262026D01*
Y260758D01*
X241386Y260222D01*
X239568D01*
Y261472D01*
X234432D01*
Y256729D01*
X239568D01*
Y257979D01*
X241850D01*
X241850Y257979D01*
X241922Y257920D01*
Y256414D01*
X289578D01*
Y263716D01*
X289509D01*
Y265002D01*
X289742Y265158D01*
X290092Y265682D01*
X290215Y266300D01*
X290092Y266918D01*
X289742Y267442D01*
X289218Y267792D01*
X288600Y267915D01*
X288286Y267853D01*
X288091Y268324D01*
X288142Y268358D01*
X288492Y268882D01*
X288615Y269500D01*
X288492Y270118D01*
X288142Y270642D01*
X287618Y270992D01*
X287000Y271115D01*
X286382Y270992D01*
X286072Y270785D01*
X285572Y271046D01*
Y271681D01*
X286972D01*
Y276818D01*
X285153D01*
X284997Y277281D01*
X285288Y277619D01*
X292449D01*
X292787Y277280D01*
X292596Y276818D01*
X288528D01*
Y271681D01*
X293271D01*
Y272105D01*
X293771Y272465D01*
X294094Y272400D01*
X294713Y272523D01*
X295237Y272874D01*
X295587Y273398D01*
X295649Y273711D01*
X296192Y273876D01*
X303538Y266530D01*
X303538Y266530D01*
X303902Y266287D01*
X304331Y266201D01*
X311551D01*
X311900Y265968D01*
X312518Y265845D01*
X313136Y265968D01*
X313660Y266318D01*
X313674Y266339D01*
X314746D01*
Y264892D01*
X319489D01*
Y270029D01*
X314746D01*
Y268582D01*
X313674D01*
X313660Y268603D01*
X313136Y268953D01*
X312518Y269076D01*
X311900Y268953D01*
X311375Y268603D01*
X311270Y268444D01*
X304795D01*
X293706Y279533D01*
X293343Y279776D01*
X292913Y279862D01*
X292913Y279862D01*
X285251D01*
X285142Y280024D01*
X284553Y280418D01*
X283858Y280556D01*
X283163Y280418D01*
X282574Y280024D01*
X282395Y279756D01*
X281908Y279905D01*
X281864Y280277D01*
X283929Y282343D01*
X294811D01*
X303538Y273616D01*
X303538Y273616D01*
X303902Y273373D01*
X304331Y273288D01*
X311480D01*
X311900Y273008D01*
X312518Y272885D01*
X313136Y273008D01*
X313660Y273358D01*
X313674Y273378D01*
X314746D01*
Y271932D01*
X319489D01*
Y277068D01*
X314746D01*
Y275622D01*
X313674D01*
X313660Y275642D01*
X313136Y275992D01*
X312518Y276115D01*
X311900Y275992D01*
X311375Y275642D01*
X311301Y275531D01*
X304795D01*
X296069Y284258D01*
X295705Y284501D01*
X295276Y284586D01*
X295275Y284586D01*
X283465D01*
X283465Y284586D01*
X283035Y284501D01*
X282671Y284258D01*
X282671Y284258D01*
X279915Y281501D01*
X279672Y281137D01*
X279593Y280743D01*
X279501Y280690D01*
X279086Y280601D01*
X278892Y280892D01*
X278368Y281242D01*
X277750Y281365D01*
X277132Y281242D01*
X276608Y280892D01*
X276258Y280368D01*
X276203Y280091D01*
X275660Y279926D01*
X275271Y280315D01*
Y283318D01*
X270528D01*
Y278182D01*
X274232D01*
X275028Y277385D01*
Y276818D01*
X270528D01*
Y272322D01*
X270249Y272097D01*
X269812Y272208D01*
X269719Y272256D01*
X269496Y272590D01*
X269496Y272590D01*
X268972Y273114D01*
Y276818D01*
X264850D01*
Y278182D01*
X268972D01*
Y283318D01*
X267722D01*
Y283852D01*
X271051Y287181D01*
X272256D01*
X274798Y284640D01*
X274798Y284640D01*
X275161Y284397D01*
X275590Y284312D01*
X275591Y284312D01*
X276009D01*
X276023Y284291D01*
X276547Y283941D01*
X277165Y283818D01*
X277783Y283941D01*
X278308Y284291D01*
X278658Y284815D01*
X278781Y285433D01*
X278658Y286051D01*
X278504Y286281D01*
X278771Y286782D01*
X281171D01*
Y289250D01*
X278400D01*
Y289750D01*
X277900D01*
Y292719D01*
X275628D01*
X275230Y292964D01*
Y297450D01*
X275577Y297693D01*
Y302305D01*
Y306780D01*
X275456Y306756D01*
X274930Y306405D01*
X274808Y306222D01*
X274573Y306379D01*
X274108Y306472D01*
X273979Y306446D01*
X273496Y306781D01*
X273458Y307122D01*
X274226Y307890D01*
X274250Y307885D01*
X274868Y308008D01*
X275392Y308358D01*
X275742Y308882D01*
X275865Y309500D01*
X275742Y310118D01*
X275392Y310642D01*
X274868Y310992D01*
X274250Y311115D01*
X273632Y310992D01*
X273108Y310642D01*
X272758Y310118D01*
X272635Y309500D01*
X272640Y309476D01*
X271347Y308183D01*
X271104Y307819D01*
X271018Y307390D01*
X271018Y307390D01*
Y306679D01*
X270518Y306403D01*
X270171Y306472D01*
X269707Y306379D01*
X269313Y306116D01*
X269061D01*
X268667Y306379D01*
X268203Y306472D01*
X267856Y306403D01*
X267356Y306679D01*
Y311722D01*
X267477Y311844D01*
X267477Y311844D01*
X267720Y312208D01*
X267806Y312637D01*
X267806Y312637D01*
Y315034D01*
X267842Y315058D01*
X268192Y315582D01*
X268315Y316200D01*
X268192Y316818D01*
X267842Y317342D01*
X267318Y317692D01*
X266700Y317815D01*
X266274Y317730D01*
X266027Y318191D01*
X270901Y323065D01*
X271039Y323046D01*
X271411Y322868D01*
X271508Y322382D01*
X271858Y321858D01*
X272382Y321508D01*
X273000Y321385D01*
X273618Y321508D01*
X274142Y321858D01*
X274270Y322050D01*
X276821D01*
X277097Y321550D01*
X277028Y321203D01*
X277097Y320856D01*
X276821Y320356D01*
X273822D01*
X273618Y320492D01*
X273000Y320615D01*
X272382Y320492D01*
X271858Y320142D01*
X271508Y319618D01*
X271385Y319000D01*
X271508Y318382D01*
X271858Y317858D01*
X272382Y317508D01*
X273000Y317385D01*
X273618Y317508D01*
X274142Y317858D01*
X274168Y317896D01*
X274383Y317877D01*
X274571Y317358D01*
X272024Y314810D01*
X272000Y314815D01*
X271382Y314692D01*
X270858Y314342D01*
X270508Y313818D01*
X270385Y313200D01*
X270508Y312582D01*
X270858Y312058D01*
X271382Y311708D01*
X272000Y311585D01*
X272618Y311708D01*
X273142Y312058D01*
X273492Y312582D01*
X273615Y313200D01*
X273610Y313224D01*
X276374Y315987D01*
X276745Y315948D01*
X277065Y315483D01*
X277028Y315297D01*
X277121Y314833D01*
X277384Y314439D01*
Y314187D01*
X277121Y313793D01*
X277028Y313329D01*
X277121Y312864D01*
X277384Y312470D01*
Y312219D01*
X277121Y311825D01*
X277028Y311360D01*
X277121Y310896D01*
X277384Y310502D01*
Y310250D01*
X277121Y309856D01*
X277028Y309392D01*
X277121Y308927D01*
X277384Y308533D01*
Y308282D01*
X277121Y307888D01*
X277028Y307423D01*
X277094Y307092D01*
X276731Y306777D01*
X276690Y306758D01*
X276577Y306780D01*
Y302805D01*
X277698D01*
Y305258D01*
X277577Y305871D01*
X277596Y305912D01*
X277911Y306275D01*
X278242Y306209D01*
X284148D01*
X284612Y306302D01*
X330301D01*
X349994Y286609D01*
X349994Y286609D01*
X350358Y286365D01*
X350787Y286280D01*
X370402D01*
X372918Y283764D01*
X372917Y283762D01*
X372795Y282835D01*
X372917Y281907D01*
X373275Y281043D01*
X373844Y280301D01*
X374586Y279731D01*
X375450Y279373D01*
X376378Y279251D01*
X377305Y279373D01*
X378170Y279731D01*
X378912Y280301D01*
X379481Y281043D01*
X379839Y281907D01*
X379961Y282835D01*
X379839Y283762D01*
X379481Y284626D01*
X378912Y285368D01*
X378170Y285938D01*
X377305Y286296D01*
X376378Y286418D01*
X375450Y286296D01*
X374586Y285938D01*
X374207Y285647D01*
X371659Y288195D01*
X371295Y288438D01*
X370866Y288523D01*
X370866Y288523D01*
X351252D01*
X331997Y307779D01*
X332204Y308278D01*
X373573D01*
X373573Y308278D01*
X374002Y308364D01*
X374366Y308607D01*
X375226Y309466D01*
X375450Y309373D01*
X376378Y309251D01*
X377305Y309373D01*
X378170Y309731D01*
X378912Y310301D01*
X379481Y311043D01*
X379839Y311907D01*
X379961Y312835D01*
X379839Y313762D01*
X379481Y314626D01*
X378912Y315369D01*
X378170Y315938D01*
X377305Y316296D01*
X376378Y316418D01*
X375450Y316296D01*
X374586Y315938D01*
X373844Y315369D01*
X373275Y314626D01*
X372917Y313762D01*
X372795Y312835D01*
X372917Y311907D01*
X373275Y311043D01*
X373376Y310911D01*
X373060Y310522D01*
X290720D01*
X290502Y311021D01*
X290742Y311382D01*
X290865Y312000D01*
X290742Y312618D01*
X290392Y313142D01*
X290105Y313334D01*
Y313916D01*
X290392Y314108D01*
X290742Y314632D01*
X290865Y315250D01*
X290742Y315868D01*
X290392Y316392D01*
X289868Y316742D01*
X289250Y316865D01*
X288632Y316742D01*
X288148Y316419D01*
X285569D01*
X285293Y316919D01*
X285362Y317266D01*
X285269Y317730D01*
X285006Y318124D01*
Y318376D01*
X285269Y318770D01*
X285362Y319234D01*
X285293Y319581D01*
X285569Y320081D01*
X290583D01*
X291229Y319435D01*
Y316682D01*
X295972D01*
Y321818D01*
X292018D01*
X291840Y321996D01*
X291492Y322229D01*
X291483Y322269D01*
X291575Y322723D01*
X291614Y322729D01*
X291614Y322729D01*
X291656Y322729D01*
X296319D01*
Y323979D01*
X297182D01*
Y322729D01*
X298778D01*
Y321818D01*
X297528D01*
Y316682D01*
X302271D01*
Y321818D01*
X301021D01*
Y322729D01*
X302319D01*
Y323162D01*
X302818Y323470D01*
X303250Y323385D01*
X303868Y323508D01*
X304392Y323858D01*
X304742Y324382D01*
X304865Y325000D01*
X304742Y325618D01*
X304392Y326142D01*
X303868Y326492D01*
X303250Y326615D01*
X302818Y326530D01*
X302319Y326838D01*
Y327472D01*
X297182D01*
Y326222D01*
X296319D01*
Y327472D01*
X291181D01*
X291181Y322807D01*
X291139Y322654D01*
X291001Y322413D01*
X290546Y322324D01*
X288622D01*
X288470Y322824D01*
X288544Y322874D01*
X288894Y323398D01*
X289017Y324016D01*
X288894Y324634D01*
X288544Y325158D01*
X288394Y325258D01*
Y325859D01*
X288542Y325958D01*
X288892Y326482D01*
X289015Y327100D01*
X288892Y327718D01*
X288542Y328242D01*
X288018Y328592D01*
X287400Y328715D01*
X286782Y328592D01*
X286258Y328242D01*
X285846Y328522D01*
X285807Y328577D01*
X281195D01*
X276720D01*
X276744Y328456D01*
X277095Y327930D01*
X277278Y327808D01*
X277121Y327573D01*
X277028Y327108D01*
X277097Y326761D01*
X276821Y326261D01*
X271390D01*
X271390Y326261D01*
X270961Y326176D01*
X270597Y325933D01*
X255774Y311110D01*
X255750Y311115D01*
X255132Y310992D01*
X254608Y310642D01*
X254258Y310118D01*
X254135Y309500D01*
X254258Y308882D01*
X254608Y308358D01*
X255132Y308008D01*
X255750Y307885D01*
X256368Y308008D01*
X256892Y308358D01*
X257242Y308882D01*
X257365Y309500D01*
X257360Y309524D01*
X264709Y316873D01*
X265170Y316626D01*
X265085Y316200D01*
X265208Y315582D01*
X265267Y315492D01*
X264967Y315042D01*
X264600Y315115D01*
X263982Y314992D01*
X263458Y314642D01*
X263108Y314118D01*
X262985Y313500D01*
X263108Y312882D01*
X263144Y312827D01*
Y306679D01*
X262644Y306403D01*
X262297Y306472D01*
X261833Y306379D01*
X261439Y306116D01*
X261187D01*
X260793Y306379D01*
X260329Y306472D01*
X259864Y306379D01*
X259470Y306116D01*
X259219D01*
X258825Y306379D01*
X258360Y306472D01*
X257896Y306379D01*
X257502Y306116D01*
X257250D01*
X256856Y306379D01*
X256392Y306472D01*
X255927Y306379D01*
X255533Y306116D01*
X255282D01*
X254888Y306379D01*
X254423Y306472D01*
X254092Y306406D01*
X253777Y306769D01*
X253758Y306810D01*
X253780Y306923D01*
X249805D01*
Y305802D01*
X252258D01*
X252871Y305923D01*
X252912Y305904D01*
X253275Y305589D01*
X253209Y305258D01*
Y299352D01*
X253302Y298888D01*
X253565Y298494D01*
X253959Y298231D01*
X254423Y298138D01*
X254770Y298207D01*
X255270Y297931D01*
Y272408D01*
X254199Y271336D01*
X253736Y271527D01*
Y273385D01*
X253651Y273814D01*
X253408Y274178D01*
X253408Y274178D01*
X249771Y277815D01*
Y280819D01*
X246207D01*
X246016Y281280D01*
X246417Y281681D01*
X249771D01*
Y282251D01*
X250271Y282661D01*
X250394Y282637D01*
X251012Y282760D01*
X251536Y283110D01*
X251886Y283634D01*
X252009Y284252D01*
X251886Y284870D01*
X251536Y285394D01*
X251012Y285744D01*
X250394Y285867D01*
X250271Y285843D01*
X249771Y286253D01*
Y286782D01*
X249771Y286819D01*
X249861Y287281D01*
X250171D01*
Y289750D01*
X247400D01*
X244628D01*
Y287281D01*
X244939D01*
X245028Y286819D01*
X245028Y286782D01*
Y283465D01*
X243934Y282370D01*
X243472Y282562D01*
Y286819D01*
X240808D01*
X240617Y287280D01*
X241018Y287682D01*
X243472D01*
Y292818D01*
X238729D01*
Y288565D01*
X236707Y286543D01*
X236707Y286543D01*
X236207Y286043D01*
X235964Y285679D01*
X235878Y285250D01*
X235878Y285250D01*
Y277111D01*
X235417Y276920D01*
X231821Y280515D01*
Y295800D01*
X231736Y296229D01*
X231493Y296593D01*
X231493Y296593D01*
X224385Y303701D01*
X224549Y304244D01*
X224618Y304258D01*
X225142Y304608D01*
X225492Y305132D01*
X225615Y305750D01*
X225530Y306182D01*
X225838Y306681D01*
X226222D01*
Y311819D01*
X222658D01*
X222467Y312280D01*
X222868Y312682D01*
X226222D01*
Y317818D01*
X222855D01*
X222664Y318280D01*
X223065Y318682D01*
X226222D01*
Y323818D01*
X221479D01*
Y320268D01*
X217871Y316660D01*
X217809Y316663D01*
X217372Y316819D01*
Y327035D01*
X222313Y331977D01*
X222702Y331658D01*
X222508Y331368D01*
X222385Y330750D01*
X222470Y330318D01*
X222162Y329819D01*
X221479D01*
Y324681D01*
X226222D01*
Y329819D01*
X225838D01*
X225530Y330318D01*
X225615Y330750D01*
X225492Y331368D01*
X225192Y331818D01*
X225276Y332109D01*
X225405Y332318D01*
X231096D01*
X235130Y328284D01*
X235130Y328284D01*
X235494Y328041D01*
X235923Y327955D01*
X235923Y327955D01*
X244931D01*
X245208Y327455D01*
X245139Y327108D01*
X245231Y326644D01*
X245494Y326250D01*
Y325998D01*
X245231Y325604D01*
X245139Y325140D01*
X245231Y324675D01*
X245494Y324281D01*
Y324030D01*
X245231Y323636D01*
X245139Y323171D01*
X245231Y322707D01*
X245494Y322313D01*
Y322061D01*
X245231Y321667D01*
X245139Y321203D01*
X245208Y320856D01*
X244931Y320356D01*
X232980D01*
X232521Y320815D01*
Y323818D01*
X231271D01*
Y324681D01*
X232521D01*
Y329819D01*
X227778D01*
Y324681D01*
X229028D01*
Y323818D01*
X227778D01*
Y318682D01*
X231463D01*
X231630Y318243D01*
X231263Y317818D01*
X227778D01*
Y312682D01*
X229028D01*
Y311819D01*
X227778D01*
Y306681D01*
X232521D01*
Y311819D01*
X231271D01*
Y312682D01*
X232521D01*
Y315685D01*
X232980Y316144D01*
X235008D01*
X235275Y315644D01*
X235258Y315618D01*
X235135Y315000D01*
X235258Y314382D01*
X235332Y314271D01*
X235064Y313771D01*
X234181D01*
Y309028D01*
X238136D01*
X238691Y308473D01*
X238691Y308473D01*
X238842Y308372D01*
X238690Y307872D01*
X237250D01*
Y305600D01*
X239719D01*
Y307644D01*
X239719Y307872D01*
X240106Y308144D01*
X244366D01*
X244546Y307923D01*
X249305D01*
X253780D01*
X253756Y308044D01*
X253405Y308570D01*
X253222Y308692D01*
X253379Y308927D01*
X253472Y309392D01*
X253379Y309856D01*
X253116Y310250D01*
Y310502D01*
X253379Y310896D01*
X253472Y311360D01*
X253417Y311634D01*
X253857Y311941D01*
X254132Y311758D01*
X254750Y311635D01*
X255368Y311758D01*
X255892Y312108D01*
X256242Y312632D01*
X256365Y313250D01*
X256242Y313868D01*
X255892Y314392D01*
X255368Y314742D01*
X254750Y314865D01*
X254132Y314742D01*
X254101Y314721D01*
X253441Y314882D01*
X253403Y314950D01*
X253472Y315297D01*
X253379Y315762D01*
X253116Y316156D01*
Y316407D01*
X253379Y316801D01*
X253472Y317266D01*
X253379Y317730D01*
X253116Y318124D01*
Y318376D01*
X253379Y318770D01*
X253472Y319234D01*
X253440Y319394D01*
X253804Y319894D01*
X256686D01*
X256708Y319880D01*
X257137Y319794D01*
X257137Y319794D01*
X259327D01*
X259382Y319758D01*
X260000Y319635D01*
X260618Y319758D01*
X261142Y320108D01*
X261492Y320632D01*
X261615Y321250D01*
X261492Y321868D01*
X261142Y322392D01*
X260618Y322742D01*
X260191Y322827D01*
X259966Y322909D01*
X259654Y323306D01*
X259592Y323618D01*
X259242Y324142D01*
X258718Y324492D01*
X258100Y324615D01*
X257936Y324583D01*
X257583Y324936D01*
X257615Y325100D01*
X257523Y325563D01*
X257818Y326063D01*
X258687D01*
X258958Y325658D01*
X259482Y325308D01*
X260100Y325185D01*
X260718Y325308D01*
X261242Y325658D01*
X261592Y326182D01*
X261715Y326800D01*
X261592Y327418D01*
X261242Y327942D01*
X260718Y328292D01*
X260100Y328415D01*
X259550Y328306D01*
X253730D01*
X253418Y328806D01*
X253472Y329077D01*
X253379Y329541D01*
X253116Y329935D01*
X252722Y330198D01*
X252258Y330291D01*
X246352D01*
X245888Y330198D01*
X236388D01*
X233130Y333456D01*
X233322Y333918D01*
X253114D01*
X253209Y333823D01*
Y331242D01*
X253302Y330778D01*
X253565Y330384D01*
X253959Y330121D01*
X254423Y330028D01*
X254888Y330121D01*
X255282Y330384D01*
X255533D01*
X255927Y330121D01*
X256392Y330028D01*
X256856Y330121D01*
X257250Y330384D01*
X257502D01*
X257896Y330121D01*
X258360Y330028D01*
X258825Y330121D01*
X259060Y330278D01*
X259182Y330095D01*
X259708Y329744D01*
X259829Y329720D01*
Y334195D01*
Y338670D01*
X259708Y338646D01*
X259182Y338294D01*
X259060Y338112D01*
X258825Y338269D01*
X258360Y338362D01*
X258013Y338293D01*
X257513Y338569D01*
Y338608D01*
X257428Y339037D01*
X257185Y339401D01*
X257185Y339401D01*
X255793Y340793D01*
X255429Y341036D01*
X255000Y341122D01*
D02*
G37*
G36*
X368110Y351025D02*
X366835Y350900D01*
X365609Y350528D01*
X364478Y349923D01*
X363488Y349111D01*
X362675Y348120D01*
X362071Y346990D01*
X361699Y345763D01*
X361573Y344488D01*
X361699Y343213D01*
X362071Y341987D01*
X362675Y340856D01*
X363488Y339866D01*
X364478Y339053D01*
X365609Y338449D01*
X366835Y338077D01*
X368110Y337951D01*
X369386Y338077D01*
X370612Y338449D01*
X371742Y339053D01*
X372733Y339866D01*
X373546Y340856D01*
X374150Y341987D01*
X374522Y343213D01*
X374647Y344488D01*
X374522Y345763D01*
X374150Y346990D01*
X373546Y348120D01*
X372733Y349111D01*
X371742Y349923D01*
X370612Y350528D01*
X369386Y350900D01*
X368110Y351025D01*
D02*
G37*
G36*
X120079D02*
X118803Y350900D01*
X117577Y350528D01*
X116447Y349923D01*
X115456Y349111D01*
X114643Y348120D01*
X114039Y346990D01*
X113667Y345763D01*
X113542Y344488D01*
X113667Y343213D01*
X114039Y341987D01*
X114643Y340856D01*
X115456Y339866D01*
X116447Y339053D01*
X117577Y338449D01*
X118803Y338077D01*
X120079Y337951D01*
X121354Y338077D01*
X122580Y338449D01*
X123711Y339053D01*
X124701Y339866D01*
X125514Y340856D01*
X126118Y341987D01*
X126490Y343213D01*
X126616Y344488D01*
X126490Y345763D01*
X126118Y346990D01*
X125514Y348120D01*
X124701Y349111D01*
X123711Y349923D01*
X122580Y350528D01*
X121354Y350900D01*
X120079Y351025D01*
D02*
G37*
G36*
X276577Y338670D02*
Y334695D01*
X277698D01*
Y337148D01*
X277575Y337768D01*
X277223Y338294D01*
X276697Y338646D01*
X276577Y338670D01*
D02*
G37*
G36*
X300250Y334171D02*
Y331900D01*
X302718D01*
Y334171D01*
X300250D01*
D02*
G37*
G36*
X293250D02*
X290781D01*
Y331900D01*
X293250D01*
Y334171D01*
D02*
G37*
G36*
X284148Y330698D02*
X281695D01*
Y329577D01*
X285670D01*
X285646Y329697D01*
X285294Y330223D01*
X284768Y330575D01*
X284148Y330698D01*
D02*
G37*
G36*
X277698Y333695D02*
X276577D01*
Y329577D01*
X280695D01*
Y330698D01*
X278242D01*
X278094Y330669D01*
X277669Y331094D01*
X277698Y331242D01*
Y333695D01*
D02*
G37*
G36*
X302718Y330900D02*
X300250D01*
Y328628D01*
X302718D01*
Y330900D01*
D02*
G37*
G36*
X293250D02*
X290781D01*
Y328628D01*
X293250D01*
Y330900D01*
D02*
G37*
G36*
X296781Y334171D02*
X296282Y334171D01*
X294250D01*
Y331400D01*
Y328628D01*
X296282D01*
X296719Y328628D01*
X297218Y328628D01*
X299250D01*
Y331400D01*
Y334171D01*
X297218D01*
X296781Y334171D01*
D02*
G37*
G36*
X380331Y326787D02*
X376878D01*
Y323335D01*
X380331D01*
Y326787D01*
D02*
G37*
G36*
X375878D02*
X372425D01*
Y323335D01*
X375878D01*
Y326787D01*
D02*
G37*
G36*
X116157Y324819D02*
X112705D01*
Y321366D01*
X116157D01*
Y324819D01*
D02*
G37*
G36*
X111705D02*
X108252D01*
Y321366D01*
X111705D01*
Y324819D01*
D02*
G37*
G36*
X380331Y322335D02*
X376878D01*
Y318882D01*
X380331D01*
Y322335D01*
D02*
G37*
G36*
X375878D02*
X372425D01*
Y318882D01*
X375878D01*
Y322335D01*
D02*
G37*
G36*
X116157Y320366D02*
X112705D01*
Y316913D01*
X116157D01*
Y320366D01*
D02*
G37*
G36*
X111705D02*
X108252D01*
Y316913D01*
X111705D01*
Y320366D01*
D02*
G37*
G36*
X112205Y314450D02*
X111277Y314327D01*
X110413Y313969D01*
X109671Y313400D01*
X109101Y312658D01*
X108743Y311794D01*
X108621Y310866D01*
X108743Y309939D01*
X109101Y309074D01*
X109671Y308332D01*
X110413Y307763D01*
X111277Y307405D01*
X112205Y307283D01*
X113132Y307405D01*
X113996Y307763D01*
X114739Y308332D01*
X115308Y309074D01*
X115666Y309939D01*
X115788Y310866D01*
X115666Y311794D01*
X115308Y312658D01*
X114739Y313400D01*
X113996Y313969D01*
X113132Y314327D01*
X112205Y314450D01*
D02*
G37*
G36*
X248805Y306923D02*
X244830D01*
X244854Y306803D01*
X245206Y306276D01*
X245732Y305925D01*
X246352Y305802D01*
X248805D01*
Y306923D01*
D02*
G37*
G36*
X236250Y307872D02*
X233782D01*
Y305600D01*
X236250D01*
Y307872D01*
D02*
G37*
G36*
X239719Y304600D02*
X237250D01*
Y302329D01*
X239719D01*
Y304600D01*
D02*
G37*
G36*
X236250D02*
X233782D01*
Y302329D01*
X236250D01*
Y304600D01*
D02*
G37*
G36*
X168126Y305331D02*
X160736D01*
Y300500D01*
X168126D01*
Y305331D01*
D02*
G37*
G36*
X159736D02*
X152347D01*
Y300500D01*
X159736D01*
Y305331D01*
D02*
G37*
G36*
X376378Y306418D02*
X375450Y306296D01*
X374586Y305938D01*
X373844Y305368D01*
X373275Y304626D01*
X372917Y303762D01*
X372795Y302835D01*
X372917Y301907D01*
X373275Y301043D01*
X373844Y300301D01*
X374586Y299731D01*
X375450Y299373D01*
X376378Y299251D01*
X377305Y299373D01*
X378170Y299731D01*
X378912Y300301D01*
X379481Y301043D01*
X379839Y301907D01*
X379961Y302835D01*
X379839Y303762D01*
X379481Y304626D01*
X378912Y305368D01*
X378170Y305938D01*
X377305Y306296D01*
X376378Y306418D01*
D02*
G37*
G36*
X277698Y301805D02*
X276577D01*
Y297830D01*
X276697Y297854D01*
X277223Y298206D01*
X277575Y298732D01*
X277698Y299352D01*
Y301805D01*
D02*
G37*
G36*
X112205Y304450D02*
X111277Y304327D01*
X110413Y303970D01*
X109671Y303400D01*
X109101Y302658D01*
X108743Y301794D01*
X108621Y300866D01*
X108743Y299939D01*
X109101Y299074D01*
X109671Y298332D01*
X110413Y297763D01*
X111277Y297405D01*
X112205Y297283D01*
X113132Y297405D01*
X113996Y297763D01*
X114739Y298332D01*
X115308Y299074D01*
X115666Y299939D01*
X115788Y300866D01*
X115666Y301794D01*
X115308Y302658D01*
X114739Y303400D01*
X113996Y303970D01*
X113132Y304327D01*
X112205Y304450D01*
D02*
G37*
G36*
X168126Y299500D02*
X160736D01*
Y294669D01*
X168126D01*
Y299500D01*
D02*
G37*
G36*
X159736D02*
X152347D01*
Y294669D01*
X159736D01*
Y299500D01*
D02*
G37*
G36*
X250171Y293218D02*
X247900D01*
Y290750D01*
X250171D01*
Y293218D01*
D02*
G37*
G36*
X246900D02*
X244628D01*
Y290750D01*
X246900D01*
Y293218D01*
D02*
G37*
G36*
X278900Y292719D02*
Y290250D01*
X281171D01*
Y292719D01*
X278900D01*
D02*
G37*
G36*
X332037Y291462D02*
X326506D01*
Y289621D01*
X325789D01*
Y291069D01*
X321045D01*
Y285931D01*
X325789D01*
Y287379D01*
X326506D01*
Y285538D01*
X332037D01*
Y291462D01*
D02*
G37*
G36*
X319489Y291069D02*
X314746D01*
Y289621D01*
X313674D01*
X313660Y289642D01*
X313136Y289992D01*
X312518Y290115D01*
X311900Y289992D01*
X311375Y289642D01*
X311025Y289118D01*
X310902Y288500D01*
X311025Y287882D01*
X311375Y287358D01*
X311900Y287008D01*
X312518Y286885D01*
X313136Y287008D01*
X313660Y287358D01*
X313674Y287379D01*
X314746D01*
Y285931D01*
X319489D01*
Y291069D01*
D02*
G37*
G36*
X376378Y296418D02*
X375450Y296296D01*
X374586Y295938D01*
X373844Y295369D01*
X373275Y294626D01*
X372917Y293762D01*
X372795Y292835D01*
X372917Y291907D01*
X373275Y291043D01*
X373844Y290301D01*
X374586Y289731D01*
X375450Y289373D01*
X376378Y289251D01*
X377305Y289373D01*
X378170Y289731D01*
X378912Y290301D01*
X379481Y291043D01*
X379839Y291907D01*
X379961Y292835D01*
X379839Y293762D01*
X379481Y294626D01*
X378912Y295369D01*
X378170Y295938D01*
X377305Y296296D01*
X376378Y296418D01*
D02*
G37*
G36*
X112205Y294449D02*
X111277Y294327D01*
X110413Y293969D01*
X109671Y293400D01*
X109101Y292658D01*
X108743Y291794D01*
X108621Y290866D01*
X108743Y289939D01*
X109101Y289074D01*
X109671Y288332D01*
X110413Y287763D01*
X111277Y287405D01*
X112205Y287283D01*
X113132Y287405D01*
X113996Y287763D01*
X114739Y288332D01*
X115308Y289074D01*
X115666Y289939D01*
X115788Y290866D01*
X115666Y291794D01*
X115308Y292658D01*
X114739Y293400D01*
X113996Y293969D01*
X113132Y294327D01*
X112205Y294449D01*
D02*
G37*
G36*
X338730Y291462D02*
X333199D01*
Y285538D01*
X338730D01*
Y286502D01*
X339229Y286742D01*
X339768Y286635D01*
X340386Y286758D01*
X340910Y287108D01*
X341260Y287632D01*
X341383Y288250D01*
X341260Y288868D01*
X340910Y289392D01*
X340386Y289742D01*
X339768Y289865D01*
X339229Y289758D01*
X338958Y289889D01*
X338730Y290063D01*
Y291462D01*
D02*
G37*
G36*
X332037Y284462D02*
X326506D01*
Y282622D01*
X325789D01*
Y284068D01*
X321045D01*
Y278931D01*
X325789D01*
Y280379D01*
X326506D01*
Y278538D01*
X332037D01*
Y284462D01*
D02*
G37*
G36*
X319489Y284068D02*
X314746D01*
Y282622D01*
X313674D01*
X313660Y282642D01*
X313136Y282992D01*
X312518Y283115D01*
X311900Y282992D01*
X311375Y282642D01*
X311025Y282118D01*
X310902Y281500D01*
X311025Y280882D01*
X311375Y280358D01*
X311900Y280008D01*
X312518Y279885D01*
X313136Y280008D01*
X313660Y280358D01*
X313674Y280379D01*
X314746D01*
Y278931D01*
X319489D01*
Y284068D01*
D02*
G37*
G36*
X338730Y284462D02*
X333199D01*
Y278538D01*
X338730D01*
Y279502D01*
X339229Y279742D01*
X339768Y279635D01*
X340386Y279758D01*
X340910Y280108D01*
X341260Y280632D01*
X341383Y281250D01*
X341260Y281868D01*
X340910Y282392D01*
X340386Y282742D01*
X339768Y282865D01*
X339229Y282758D01*
X338958Y282889D01*
X338730Y283063D01*
Y284462D01*
D02*
G37*
G36*
X177165Y286458D02*
X176547Y286335D01*
X176023Y285985D01*
X175673Y285461D01*
X175550Y284842D01*
X175589Y284648D01*
X175272Y284261D01*
X174597D01*
Y279518D01*
X179734D01*
Y284261D01*
X179059D01*
X178742Y284648D01*
X178781Y284842D01*
X178658Y285461D01*
X178307Y285985D01*
X177784Y286335D01*
X177165Y286458D01*
D02*
G37*
G36*
X180134Y278362D02*
X177665D01*
Y276091D01*
X180134D01*
Y278362D01*
D02*
G37*
G36*
X176665D02*
X174197D01*
Y276091D01*
X176665D01*
Y278362D01*
D02*
G37*
G36*
X163598Y280921D02*
X160736D01*
Y276091D01*
X163598D01*
Y280921D01*
D02*
G37*
G36*
X159736D02*
X156874D01*
Y276091D01*
X159736D01*
Y280921D01*
D02*
G37*
G36*
X332037Y277462D02*
X326506D01*
Y275622D01*
X325789D01*
Y277068D01*
X321045D01*
Y271932D01*
X325789D01*
Y273378D01*
X326506D01*
Y271538D01*
X332037D01*
Y277462D01*
D02*
G37*
G36*
X180134Y275091D02*
X177665D01*
Y272819D01*
X180134D01*
Y275091D01*
D02*
G37*
G36*
X176665D02*
X174197D01*
Y272819D01*
X176665D01*
Y275091D01*
D02*
G37*
G36*
X338730Y277462D02*
X333199D01*
Y271538D01*
X338730D01*
Y272502D01*
X339229Y272742D01*
X339768Y272635D01*
X340386Y272758D01*
X340910Y273108D01*
X341260Y273632D01*
X341383Y274250D01*
X341260Y274868D01*
X340910Y275392D01*
X340386Y275742D01*
X339768Y275865D01*
X339229Y275758D01*
X338958Y275889D01*
X338730Y276063D01*
Y277462D01*
D02*
G37*
G36*
X163598Y275091D02*
X160736D01*
Y270260D01*
X163598D01*
Y275091D01*
D02*
G37*
G36*
X159736D02*
X156874D01*
Y270260D01*
X159736D01*
Y275091D01*
D02*
G37*
G36*
X376378Y276418D02*
X375450Y276296D01*
X374586Y275938D01*
X373844Y275368D01*
X373275Y274626D01*
X372917Y273762D01*
X372795Y272835D01*
X372917Y271907D01*
X373275Y271043D01*
X373844Y270301D01*
X374586Y269731D01*
X375450Y269373D01*
X376378Y269251D01*
X377305Y269373D01*
X378170Y269731D01*
X378912Y270301D01*
X379481Y271043D01*
X379839Y271907D01*
X379961Y272835D01*
X379839Y273762D01*
X379481Y274626D01*
X378912Y275368D01*
X378170Y275938D01*
X377305Y276296D01*
X376378Y276418D01*
D02*
G37*
G36*
X332037Y270423D02*
X326506D01*
Y268582D01*
X325789D01*
Y270029D01*
X321045D01*
Y264892D01*
X325789D01*
Y266339D01*
X326506D01*
Y264498D01*
X332037D01*
Y270423D01*
D02*
G37*
G36*
X338730D02*
X333199D01*
Y264498D01*
X338730D01*
Y265712D01*
X339229Y265952D01*
X339768Y265845D01*
X340386Y265968D01*
X340910Y266318D01*
X341260Y266843D01*
X341383Y267461D01*
X341260Y268079D01*
X340910Y268603D01*
X340386Y268953D01*
X339768Y269076D01*
X339229Y268969D01*
X338730Y269209D01*
Y270423D01*
D02*
G37*
G36*
X332037Y263423D02*
X326506D01*
Y261582D01*
X325789D01*
Y263029D01*
X321045D01*
Y257892D01*
X325789D01*
Y259339D01*
X326506D01*
Y257498D01*
X332037D01*
Y263423D01*
D02*
G37*
G36*
X319489Y263029D02*
X314746D01*
Y261582D01*
X313674D01*
X313660Y261603D01*
X313136Y261953D01*
X312518Y262076D01*
X311900Y261953D01*
X311375Y261603D01*
X311025Y261079D01*
X310902Y260461D01*
X311025Y259842D01*
X311375Y259318D01*
X311900Y258968D01*
X312518Y258845D01*
X313136Y258968D01*
X313660Y259318D01*
X313674Y259339D01*
X314746D01*
Y257892D01*
X319489D01*
Y263029D01*
D02*
G37*
G36*
X338730Y263423D02*
X333199D01*
Y257498D01*
X338730D01*
Y258712D01*
X339229Y258952D01*
X339768Y258845D01*
X340386Y258968D01*
X340910Y259318D01*
X341260Y259842D01*
X341383Y260461D01*
X341260Y261079D01*
X340910Y261603D01*
X340386Y261953D01*
X339768Y262076D01*
X339229Y261969D01*
X338730Y262209D01*
Y263423D01*
D02*
G37*
%LPD*%
G36*
X254146Y338816D02*
X254152Y338744D01*
X253959Y338269D01*
X253565Y338006D01*
X253302Y337612D01*
X253209Y337148D01*
Y336161D01*
X220738D01*
X220531Y336661D01*
X222748Y338878D01*
X254060D01*
X254146Y338816D01*
D02*
G37*
G36*
X245208Y315644D02*
X245139Y315297D01*
X245231Y314833D01*
X245494Y314439D01*
Y314187D01*
X245231Y313793D01*
X245139Y313329D01*
X245208Y312982D01*
X245166Y312907D01*
X244598Y312723D01*
X244319Y312910D01*
X243701Y313033D01*
X243083Y312910D01*
X242559Y312560D01*
X242209Y312035D01*
X242086Y311417D01*
X242191Y310887D01*
X241928Y310387D01*
X239949D01*
X239318Y311018D01*
Y313771D01*
X238436D01*
X238168Y314271D01*
X238242Y314382D01*
X238365Y315000D01*
X238242Y315618D01*
X238225Y315644D01*
X238492Y316144D01*
X244931D01*
X245208Y315644D01*
D02*
G37*
G36*
X271675Y298231D02*
X272140Y298138D01*
X272487Y298207D01*
X272987Y297931D01*
Y292319D01*
X269729D01*
Y289031D01*
X265807Y285110D01*
X265564Y284746D01*
X265479Y284317D01*
X265479Y284317D01*
Y283318D01*
X264850D01*
Y285964D01*
X266776Y287890D01*
X266800Y287885D01*
X267418Y288008D01*
X267942Y288358D01*
X268292Y288882D01*
X268415Y289500D01*
X268292Y290118D01*
X267942Y290642D01*
X267418Y290992D01*
X266800Y291115D01*
X266182Y290992D01*
X265658Y290642D01*
X265308Y290118D01*
X265185Y289500D01*
X265190Y289476D01*
X263712Y287998D01*
X263250Y288190D01*
Y289664D01*
X264726Y291140D01*
X264750Y291135D01*
X265368Y291258D01*
X265892Y291608D01*
X266242Y292132D01*
X266365Y292750D01*
X266242Y293368D01*
X265892Y293892D01*
X265368Y294242D01*
X264750Y294365D01*
X264132Y294242D01*
X263608Y293892D01*
X263258Y293368D01*
X263135Y292750D01*
X263140Y292726D01*
X261912Y291498D01*
X261450Y291690D01*
Y297931D01*
X261950Y298207D01*
X262297Y298138D01*
X262762Y298231D01*
X263156Y298494D01*
X263407D01*
X263801Y298231D01*
X264266Y298138D01*
X264730Y298231D01*
X265124Y298494D01*
X265376D01*
X265770Y298231D01*
X266234Y298138D01*
X266699Y298231D01*
X267093Y298494D01*
X267344D01*
X267738Y298231D01*
X268203Y298138D01*
X268667Y298231D01*
X269061Y298494D01*
X269313D01*
X269707Y298231D01*
X270171Y298138D01*
X270636Y298231D01*
X271030Y298494D01*
X271281D01*
X271675Y298231D01*
D02*
G37*
G36*
X201669Y317577D02*
X201980Y317404D01*
Y292521D01*
X199065D01*
X198528Y293059D01*
X198615Y293500D01*
X198492Y294118D01*
X198142Y294642D01*
X197618Y294992D01*
X197000Y295115D01*
X196382Y294992D01*
X195858Y294642D01*
X195508Y294118D01*
X195385Y293500D01*
X195390Y293476D01*
X194435Y292521D01*
X191431D01*
X191122Y292893D01*
Y307252D01*
X201452Y317582D01*
X201669Y317577D01*
D02*
G37*
G36*
X245028Y279639D02*
Y275681D01*
X248732D01*
X251493Y272920D01*
Y268246D01*
X251031Y268055D01*
X247293Y271793D01*
X246929Y272036D01*
X246500Y272122D01*
X246500Y272122D01*
X242517D01*
X242105Y272534D01*
X242250Y273096D01*
X242642Y273358D01*
X242992Y273882D01*
X243115Y274500D01*
X242992Y275118D01*
X242950Y275182D01*
X243217Y275681D01*
X243472D01*
Y278736D01*
X244566Y279830D01*
X245028Y279639D01*
D02*
G37*
%LPC*%
G36*
X234750Y235921D02*
Y233650D01*
X237218D01*
Y235921D01*
X234750D01*
D02*
G37*
G36*
X237218Y232650D02*
X234750D01*
Y230378D01*
X237218D01*
Y232650D01*
D02*
G37*
G36*
X229000Y235921D02*
Y233150D01*
Y230378D01*
X233750D01*
Y233150D01*
Y235921D01*
X229000D01*
D02*
G37*
G36*
X228000Y232650D02*
X225532D01*
Y230378D01*
X228000D01*
Y232650D01*
D02*
G37*
G36*
X233872Y219969D02*
X231600D01*
Y217500D01*
X233872D01*
Y219969D01*
D02*
G37*
G36*
X230600D02*
X228329D01*
Y217500D01*
X230600D01*
Y219969D01*
D02*
G37*
G36*
X239771Y219568D02*
X235028D01*
Y214432D01*
X238442D01*
X238633Y213970D01*
X238232Y213568D01*
X235028D01*
Y208432D01*
X239771D01*
Y211935D01*
X240209Y212373D01*
X240382Y212258D01*
X241000Y212135D01*
X241618Y212258D01*
X242142Y212608D01*
X242492Y213132D01*
X242615Y213750D01*
X242492Y214368D01*
X242142Y214892D01*
X241745Y215158D01*
X241681Y215586D01*
X241707Y215734D01*
X241892Y215858D01*
X242242Y216382D01*
X242365Y217000D01*
X242242Y217618D01*
X241892Y218142D01*
X241368Y218492D01*
X240750Y218615D01*
X240271Y218520D01*
X239771Y218807D01*
Y219568D01*
D02*
G37*
G36*
X233872Y216500D02*
X231100D01*
X228329D01*
Y214469D01*
X228329Y214032D01*
X228329Y213531D01*
Y211500D01*
X231100D01*
X233872D01*
Y213531D01*
X233872Y213968D01*
X233872Y214469D01*
Y216500D01*
D02*
G37*
G36*
Y210500D02*
X231600D01*
Y208032D01*
X233872D01*
Y210500D01*
D02*
G37*
G36*
X230600D02*
X228329D01*
Y208032D01*
X230600D01*
Y210500D01*
D02*
G37*
%LPD*%
D10*
X156102Y350787D02*
X163583D01*
X163583Y344094D02*
X167520D01*
X177165Y282087D02*
Y284842D01*
D17*
X218000Y271063D02*
D03*
Y278937D02*
D03*
X206000Y271063D02*
D03*
Y278937D02*
D03*
X194095Y271063D02*
D03*
Y278937D02*
D03*
D18*
X265750Y242250D02*
D03*
D19*
X288388Y224435D02*
D03*
X286419D02*
D03*
X284451D02*
D03*
X282482D02*
D03*
X280514D02*
D03*
X278545D02*
D03*
X276577D02*
D03*
X274608D02*
D03*
X272640D02*
D03*
X270671D02*
D03*
X268703D02*
D03*
X266734D02*
D03*
X264766D02*
D03*
X262797D02*
D03*
X260829D02*
D03*
X258860D02*
D03*
X256892D02*
D03*
X254923D02*
D03*
X252955D02*
D03*
X250986D02*
D03*
X249018D02*
D03*
X247049D02*
D03*
X245081D02*
D03*
X243112D02*
D03*
Y260065D02*
D03*
X245081D02*
D03*
X247049D02*
D03*
X249018D02*
D03*
X250986D02*
D03*
X252955D02*
D03*
X254923D02*
D03*
X256892D02*
D03*
X258860D02*
D03*
X260829D02*
D03*
X262797D02*
D03*
X264766D02*
D03*
X266734D02*
D03*
X268703D02*
D03*
X270671D02*
D03*
X272640D02*
D03*
X274608D02*
D03*
X276577D02*
D03*
X278545D02*
D03*
X280514D02*
D03*
X282482D02*
D03*
X284451D02*
D03*
X286419D02*
D03*
X288388D02*
D03*
D20*
X163583Y350787D02*
D03*
Y344094D02*
D03*
D21*
X155905Y350984D02*
D03*
Y344685D02*
D03*
X177165Y281890D02*
D03*
Y275590D02*
D03*
X143701D02*
D03*
Y281890D02*
D03*
X173250Y183400D02*
D03*
Y177100D02*
D03*
X203250Y183400D02*
D03*
Y177100D02*
D03*
X244250Y183400D02*
D03*
Y177100D02*
D03*
X274250Y183400D02*
D03*
Y177100D02*
D03*
X315250Y183400D02*
D03*
Y177100D02*
D03*
X345250Y183250D02*
D03*
Y176951D02*
D03*
X237000Y265400D02*
D03*
Y259100D02*
D03*
X228500Y226850D02*
D03*
Y233150D02*
D03*
X234250Y226850D02*
D03*
Y233150D02*
D03*
X218000Y290150D02*
D03*
Y283850D02*
D03*
X224000Y271850D02*
D03*
Y278150D02*
D03*
Y283850D02*
D03*
Y290150D02*
D03*
X212000Y271850D02*
D03*
Y278150D02*
D03*
Y283850D02*
D03*
Y290150D02*
D03*
X206000Y290150D02*
D03*
Y283850D02*
D03*
X200000Y283850D02*
D03*
Y290150D02*
D03*
Y271850D02*
D03*
Y278150D02*
D03*
X194000Y290150D02*
D03*
Y283850D02*
D03*
X299750Y325100D02*
D03*
Y331400D02*
D03*
X293750Y325100D02*
D03*
Y331400D02*
D03*
X236750Y311400D02*
D03*
Y305100D02*
D03*
X260250Y350900D02*
D03*
Y344600D02*
D03*
X254250Y350900D02*
D03*
Y344600D02*
D03*
X260250Y212400D02*
D03*
Y206100D02*
D03*
X270250Y212400D02*
D03*
Y206100D02*
D03*
X280250Y212400D02*
D03*
Y206100D02*
D03*
D22*
X169291Y275590D02*
D03*
X160236D02*
D03*
X151181D02*
D03*
D23*
X160236Y300000D02*
D03*
D24*
X272100Y289750D02*
D03*
X278400D02*
D03*
X293600Y319250D02*
D03*
X299900D02*
D03*
X241100Y290250D02*
D03*
X247400D02*
D03*
X247400Y284250D02*
D03*
X241100D02*
D03*
X230150Y327250D02*
D03*
X223850D02*
D03*
X230150Y309250D02*
D03*
X223850D02*
D03*
X230150Y321250D02*
D03*
X223850D02*
D03*
X230150Y315250D02*
D03*
X223850D02*
D03*
X237400Y217000D02*
D03*
X231100D02*
D03*
X283400Y344250D02*
D03*
X277100D02*
D03*
X266600Y280750D02*
D03*
X272900D02*
D03*
X241100Y278250D02*
D03*
X247400D02*
D03*
X266600Y274250D02*
D03*
X272900D02*
D03*
X237400Y211000D02*
D03*
X231100D02*
D03*
X323417Y267461D02*
D03*
X317118D02*
D03*
X323417Y260461D02*
D03*
X317118D02*
D03*
X323417Y288500D02*
D03*
X317118D02*
D03*
X323417Y281500D02*
D03*
X317118D02*
D03*
X323417Y274500D02*
D03*
X317118D02*
D03*
X284600Y274250D02*
D03*
X290900D02*
D03*
D25*
X230250Y181852D02*
D03*
Y169648D02*
D03*
X301000Y181852D02*
D03*
Y169648D02*
D03*
D26*
X276077Y334195D02*
D03*
X274108D02*
D03*
X272140D02*
D03*
X270171D02*
D03*
X268203D02*
D03*
X266234D02*
D03*
X264266D02*
D03*
X262297D02*
D03*
X260329D02*
D03*
X258360D02*
D03*
X256392D02*
D03*
X254423D02*
D03*
Y302305D02*
D03*
X256392D02*
D03*
X258360D02*
D03*
X260329D02*
D03*
X262297D02*
D03*
X264266D02*
D03*
X266234D02*
D03*
X268203D02*
D03*
X270171D02*
D03*
X272140D02*
D03*
X274108D02*
D03*
X276077D02*
D03*
D27*
X249305Y329077D02*
D03*
Y327108D02*
D03*
Y325140D02*
D03*
Y323171D02*
D03*
Y321203D02*
D03*
Y319234D02*
D03*
Y317266D02*
D03*
Y315297D02*
D03*
Y313329D02*
D03*
Y311360D02*
D03*
Y309392D02*
D03*
Y307423D02*
D03*
X281195D02*
D03*
Y309392D02*
D03*
Y311360D02*
D03*
Y313329D02*
D03*
Y315297D02*
D03*
Y317266D02*
D03*
Y319234D02*
D03*
Y321203D02*
D03*
Y323171D02*
D03*
Y325140D02*
D03*
Y327108D02*
D03*
Y329077D02*
D03*
D28*
X199140Y170750D02*
D03*
Y165750D02*
D03*
Y160750D02*
D03*
Y155750D02*
D03*
X220163D02*
D03*
Y160750D02*
D03*
Y165750D02*
D03*
Y170750D02*
D03*
X169140D02*
D03*
Y165750D02*
D03*
Y160750D02*
D03*
Y155750D02*
D03*
X190163D02*
D03*
Y160750D02*
D03*
Y165750D02*
D03*
Y170750D02*
D03*
X240140D02*
D03*
Y165750D02*
D03*
Y160750D02*
D03*
Y155750D02*
D03*
X261163D02*
D03*
Y160750D02*
D03*
Y165750D02*
D03*
Y170750D02*
D03*
X270140D02*
D03*
Y165750D02*
D03*
Y160750D02*
D03*
Y155750D02*
D03*
X291163D02*
D03*
Y160750D02*
D03*
Y165750D02*
D03*
Y170750D02*
D03*
X311140D02*
D03*
Y165750D02*
D03*
Y160750D02*
D03*
Y155750D02*
D03*
X332163D02*
D03*
Y160750D02*
D03*
Y165750D02*
D03*
Y170750D02*
D03*
X341140D02*
D03*
Y165750D02*
D03*
Y160750D02*
D03*
Y155750D02*
D03*
X362163D02*
D03*
Y160750D02*
D03*
Y165750D02*
D03*
Y170750D02*
D03*
X341140Y148750D02*
D03*
Y143750D02*
D03*
Y138750D02*
D03*
Y133750D02*
D03*
X362163D02*
D03*
Y138750D02*
D03*
Y143750D02*
D03*
Y148750D02*
D03*
X311140D02*
D03*
Y143750D02*
D03*
Y138750D02*
D03*
Y133750D02*
D03*
X332163D02*
D03*
Y138750D02*
D03*
Y143750D02*
D03*
Y148750D02*
D03*
X270140D02*
D03*
Y143750D02*
D03*
Y138750D02*
D03*
Y133750D02*
D03*
X291163D02*
D03*
Y138750D02*
D03*
Y143750D02*
D03*
Y148750D02*
D03*
X240140D02*
D03*
Y143750D02*
D03*
Y138750D02*
D03*
Y133750D02*
D03*
X261163D02*
D03*
Y138750D02*
D03*
Y143750D02*
D03*
Y148750D02*
D03*
X199140D02*
D03*
Y143750D02*
D03*
Y138750D02*
D03*
Y133750D02*
D03*
X220163D02*
D03*
Y138750D02*
D03*
Y143750D02*
D03*
Y148750D02*
D03*
X169140D02*
D03*
Y143750D02*
D03*
Y138750D02*
D03*
Y133750D02*
D03*
X190163D02*
D03*
Y138750D02*
D03*
Y143750D02*
D03*
Y148750D02*
D03*
D29*
X212250Y163250D02*
D03*
X182250D02*
D03*
X253250D02*
D03*
X283250D02*
D03*
X324250D02*
D03*
X354250D02*
D03*
Y141250D02*
D03*
X324250D02*
D03*
X283250D02*
D03*
X253250D02*
D03*
X212250D02*
D03*
X182250D02*
D03*
D30*
X335964Y274500D02*
D03*
X329271D02*
D03*
X335964Y281500D02*
D03*
X329271D02*
D03*
X335964Y288500D02*
D03*
X329271D02*
D03*
X335964Y260461D02*
D03*
X329271D02*
D03*
X335964Y267461D02*
D03*
X329271D02*
D03*
D50*
X242719Y234573D02*
D03*
Y239691D02*
D03*
Y244809D02*
D03*
Y249927D02*
D03*
X247837Y234573D02*
D03*
Y239691D02*
D03*
Y244809D02*
D03*
Y249927D02*
D03*
X252955Y234573D02*
D03*
Y239691D02*
D03*
Y244809D02*
D03*
Y249927D02*
D03*
X258073Y234573D02*
D03*
Y239691D02*
D03*
Y244809D02*
D03*
Y249927D02*
D03*
X263191Y234573D02*
D03*
Y239691D02*
D03*
Y244809D02*
D03*
Y249927D02*
D03*
X268309Y234573D02*
D03*
Y239691D02*
D03*
Y244809D02*
D03*
Y249927D02*
D03*
X288781Y234573D02*
D03*
Y239691D02*
D03*
Y244809D02*
D03*
Y249927D02*
D03*
X283663Y234573D02*
D03*
Y239691D02*
D03*
Y244809D02*
D03*
Y249927D02*
D03*
X273427Y234573D02*
D03*
Y239691D02*
D03*
Y244809D02*
D03*
Y249927D02*
D03*
X278545D02*
D03*
Y244809D02*
D03*
Y239691D02*
D03*
Y234573D02*
D03*
D51*
X212000Y284252D02*
X212205D01*
X211900Y283850D02*
X212000Y283750D01*
Y283850D02*
Y284252D01*
Y283750D02*
Y283850D01*
Y278150D02*
Y283750D01*
X194000Y279134D02*
X194095D01*
X194000D02*
Y283850D01*
X205906Y278740D02*
Y283850D01*
X205900D02*
X205906D01*
X206000D01*
X217913Y279134D02*
X218000D01*
Y283850D01*
Y232000D02*
Y271063D01*
X218110D01*
X206000Y232000D02*
Y271063D01*
X206102D01*
X194000Y232000D02*
Y271063D01*
X194095D01*
X223750Y271500D02*
X224016Y271234D01*
Y235236D02*
Y271234D01*
X212008Y235236D02*
Y271843D01*
X212000Y271850D02*
X212008Y271843D01*
X200000Y235236D02*
Y271750D01*
X276518Y209832D02*
Y229232D01*
X206000Y283850D02*
X211900D01*
X262797Y218581D02*
Y224435D01*
X262402Y218185D02*
X262797Y218581D01*
X260514Y217631D02*
X260841Y217304D01*
Y213340D02*
Y217304D01*
X260514Y219367D02*
X260841Y219694D01*
X260514Y217631D02*
Y219367D01*
X262598Y218381D02*
Y218503D01*
X262402Y218185D02*
X262598Y218381D01*
X260841Y219694D02*
Y224423D01*
X264816Y192816D02*
Y224385D01*
X266419Y217201D02*
X266715Y217497D01*
X266419Y209931D02*
Y217201D01*
X268503Y216338D02*
X268701Y216535D01*
X270683Y212683D02*
Y224423D01*
X272640Y217713D02*
X272834Y217519D01*
X274758Y218543D02*
Y224285D01*
Y218543D02*
X274918Y218383D01*
Y205582D02*
Y218383D01*
X280514Y218891D02*
Y224435D01*
Y218891D02*
X280824Y218580D01*
Y214324D02*
Y218580D01*
X282482Y218699D02*
X288189Y212992D01*
X282482Y218699D02*
Y224435D01*
X255250Y183250D02*
X264816Y192816D01*
X264766Y224435D02*
X264816Y224385D01*
X270250Y212250D02*
X270683Y212683D01*
X270671Y224435D02*
X270683Y224423D01*
X276518Y209832D02*
X280250Y206100D01*
X276500Y229250D02*
X276518Y229232D01*
X288189Y212992D02*
X297638D01*
X279250Y212750D02*
X280824Y214324D01*
X258661Y216535D02*
Y224236D01*
X268703Y216734D02*
Y224435D01*
X266715Y217497D02*
Y224415D01*
X256577Y209773D02*
Y217399D01*
Y209773D02*
X260250Y206100D01*
X258661Y224236D02*
X258860Y224435D01*
X256872Y217694D02*
Y224415D01*
X256577Y217399D02*
X256872Y217694D01*
X254921Y217520D02*
Y222638D01*
X253740Y216339D02*
X254921Y217520D01*
X244250Y183250D02*
X255250D01*
X260250Y212750D02*
X260841Y213340D01*
X260829Y224435D02*
X260841Y224423D01*
X268307Y216339D02*
X268703Y216734D01*
X272640Y217713D02*
Y224435D01*
X274918Y205582D02*
X279713Y200787D01*
X266419Y209931D02*
X270250Y206100D01*
X274608Y224435D02*
X274758Y224285D01*
X278545Y218045D02*
Y224435D01*
X256392Y271943D02*
Y302305D01*
X254215Y269766D02*
X256392Y271943D01*
X254215Y267050D02*
Y269766D01*
X263729Y271826D02*
X266834Y268720D01*
Y260165D02*
Y268720D01*
X262129Y271163D02*
X264766Y268526D01*
X262850Y260118D02*
Y268179D01*
X260329Y270700D02*
X262850Y268179D01*
X260329Y270700D02*
Y302305D01*
X258545Y266262D02*
Y301935D01*
X258268Y302213D02*
X258545Y301935D01*
X262129Y271163D02*
Y290129D01*
X263729Y271826D02*
Y286429D01*
X258545Y266262D02*
X258750Y266057D01*
Y260175D02*
Y266057D01*
X254215Y267050D02*
X254950Y266315D01*
Y260092D02*
Y266315D01*
X252615Y266387D02*
Y273385D01*
X247750Y278250D02*
X252615Y273385D01*
Y266387D02*
X252955Y266048D01*
Y260065D02*
Y266048D01*
X246500Y271000D02*
X250986Y266514D01*
Y260065D02*
Y266514D01*
X245750Y269250D02*
X249018Y265982D01*
Y260065D02*
Y265982D01*
X244613Y267650D02*
X247049Y265213D01*
Y260065D02*
Y265213D01*
X244500Y265500D02*
X245081Y264919D01*
Y260065D02*
Y264919D01*
X264766Y260065D02*
Y268526D01*
X260829Y260065D02*
Y267029D01*
X258750Y260175D02*
X258860Y260065D01*
X258250Y302195D02*
X258268Y302213D01*
X258360Y302305D01*
X242052Y271000D02*
X246500D01*
X241500Y269250D02*
X245750D01*
X240750Y265500D02*
X244500D01*
X262797Y260065D02*
X262850Y260118D01*
X240837Y267650D02*
X244613D01*
X256892Y260065D02*
Y267008D01*
X256872Y224415D02*
X256892Y224435D01*
X312518Y267461D02*
X317018D01*
X292913Y278740D02*
X304331Y267323D01*
X312598D01*
X312518Y274500D02*
X317118D01*
X295276Y283465D02*
X304331Y274410D01*
X312598D01*
X212008Y217318D02*
Y217520D01*
Y217318D02*
X236750Y192576D01*
X189000Y227000D02*
X194000Y232000D01*
X201500Y227500D02*
X206000Y232000D01*
X213000Y227000D02*
X218000Y232000D01*
X370866Y287402D02*
X375984Y282283D01*
X350787Y287402D02*
X370866D01*
X330766Y307423D02*
X350787Y287402D01*
X281195Y307423D02*
X330766D01*
X278250Y182250D02*
X292323D01*
X301000Y181352D02*
X301250D01*
X301181Y177362D02*
Y180118D01*
X297211Y177362D02*
X301181D01*
X292323Y182250D02*
X297211Y177362D01*
X263729Y286429D02*
X266800Y289500D01*
X281195Y327108D02*
X287392D01*
X287400Y327100D01*
X281302Y329184D02*
X291184D01*
X281195Y329077D02*
X281302Y329184D01*
X291184D02*
X293250Y331250D01*
X286278Y325140D02*
X287402Y324016D01*
X281195Y325140D02*
X286278D01*
X373573Y309400D02*
X376772Y312598D01*
X287850Y309400D02*
X373573D01*
X285890Y311360D02*
X287850Y309400D01*
X274014Y347319D02*
X305437D01*
X314567Y338189D01*
X264300Y334229D02*
Y337605D01*
X274014Y347319D01*
X264266Y334195D02*
X264300Y334229D01*
X249476Y323000D02*
X258100D01*
X255916Y325016D02*
X256000Y325100D01*
X249429Y325016D02*
X255916D01*
X264266Y302305D02*
Y313166D01*
X264600Y313500D01*
X266684Y316184D02*
X266700Y316200D01*
X266684Y312637D02*
Y316184D01*
X276066Y317266D02*
X281195D01*
X272000Y313200D02*
X276066Y317266D01*
X259716Y327184D02*
X260100Y326800D01*
X249381Y327184D02*
X259716D01*
X249305Y327108D02*
X249381Y327184D01*
X284484Y260098D02*
Y269063D01*
X284451Y260065D02*
X284484Y260098D01*
X259666Y320916D02*
X260000Y321250D01*
X257137Y320916D02*
X259666D01*
X257037Y321016D02*
X257137Y320916D01*
X249492Y321016D02*
X257037D01*
X284451Y269097D02*
Y273451D01*
Y269097D02*
X284484Y269063D01*
X266234Y312187D02*
X266684Y312637D01*
X266234Y302305D02*
Y312187D01*
X220250Y306250D02*
X230700Y295800D01*
Y280050D02*
Y295800D01*
Y280050D02*
X241500Y269250D01*
X229100Y279387D02*
Y293635D01*
X218650Y304085D02*
Y315853D01*
Y304085D02*
X229100Y293635D01*
X218650Y315853D02*
X223750Y320953D01*
X229100Y279387D02*
X240837Y267650D01*
X223750Y320953D02*
Y321000D01*
X237000Y276052D02*
X242052Y271000D01*
X241500Y274500D02*
Y278000D01*
X262129Y290129D02*
X264750Y292750D01*
X273250Y280750D02*
X276150Y277850D01*
Y272205D02*
Y277850D01*
X272640Y268694D02*
X276150Y272205D01*
X280600Y266100D02*
X280700D01*
X278584Y265137D02*
Y268084D01*
X278516Y265068D02*
X278584Y265137D01*
X255750Y309500D02*
X271390Y325140D01*
X280500Y266000D02*
X280600Y266100D01*
X272640Y260065D02*
Y268694D01*
X278584Y268084D02*
X278750Y268250D01*
X282784Y265237D02*
Y267966D01*
X282500Y268250D02*
X282784Y267966D01*
X274416Y268208D02*
X277750Y271542D01*
X274416Y260258D02*
Y268208D01*
Y260258D02*
X274608Y260065D01*
X277750Y271542D02*
Y279750D01*
X282484Y264937D02*
X282784Y265237D01*
X282484Y260067D02*
Y264937D01*
X278516Y260094D02*
Y265068D01*
X280500Y266000D02*
X280514Y265986D01*
X288388Y266088D02*
X288600Y266300D01*
X288388Y260065D02*
Y266088D01*
X286419Y260065D02*
Y268919D01*
X287000Y269500D01*
X293750Y331250D02*
X293900Y331400D01*
X276077Y343077D02*
X277250Y344250D01*
X260250Y344750D02*
X260329Y344671D01*
Y334195D02*
Y344671D01*
X302756Y218110D02*
Y256700D01*
X250986Y203214D02*
Y224435D01*
Y203214D02*
X251100Y203100D01*
X249016Y194484D02*
Y224433D01*
Y194484D02*
X256250Y187250D01*
X249016Y224433D02*
X249018Y224435D01*
X299650Y325100D02*
X299700Y325050D01*
X299500Y325000D02*
X303250D01*
X335964Y274500D02*
X339768D01*
X340018Y274250D01*
X260150Y350900D02*
X260250Y351000D01*
X339518Y260461D02*
X339768Y260211D01*
X237000Y265500D02*
X240750D01*
X224000Y327250D02*
Y330750D01*
X223750Y309250D02*
X224000Y309000D01*
X193750Y290250D02*
X197000Y293500D01*
X218000Y290000D02*
X221000Y293000D01*
X206000Y290500D02*
X206250D01*
X230250Y177250D02*
Y181455D01*
X245081Y197881D02*
Y224435D01*
X235750Y188550D02*
X245081Y197881D01*
X235750Y178750D02*
Y188550D01*
X215798Y195947D02*
X229947D01*
X230000Y196000D01*
X203250Y183400D02*
X215798Y195947D01*
X236750Y192500D02*
Y192576D01*
X187795Y198031D02*
X228346D01*
X258250Y202250D02*
X260250Y204250D01*
X237000Y276052D02*
Y285250D01*
X227500Y287350D02*
Y292972D01*
X216250Y304222D02*
X227500Y292972D01*
X216250Y304222D02*
Y327500D01*
X231561Y333439D02*
X235923Y329077D01*
X222189Y333439D02*
X231561D01*
X216250Y327500D02*
X222189Y333439D01*
X253579Y335039D02*
X254423Y334195D01*
X220039Y335039D02*
X253579D01*
X203000Y318000D02*
X220039Y335039D01*
X200000Y283750D02*
X200250Y284000D01*
X199900Y283850D02*
X199950Y283800D01*
X222284Y340000D02*
X255000D01*
X190000Y307716D02*
X222284Y340000D01*
X190000Y287850D02*
Y307716D01*
X248031Y284252D02*
X250394D01*
X272100Y289100D02*
Y289750D01*
X266600Y284317D02*
X271654Y289370D01*
X266600Y280750D02*
Y284317D01*
X272047Y288976D02*
X275590Y285433D01*
X277165D01*
X283858Y278740D02*
X292913D01*
X283465Y283465D02*
X295276D01*
X280708Y280708D02*
X283465Y283465D01*
X280708Y274803D02*
Y280708D01*
X291339Y274410D02*
X291732Y274016D01*
X294094D01*
X297638Y212992D02*
X302756Y218110D01*
X243701Y311417D02*
X243758Y311360D01*
X249305D01*
X173228Y183465D02*
X187795Y198031D01*
X278250Y217750D02*
X278545Y218045D01*
X315250Y183400D02*
Y189868D01*
X304331Y200787D02*
X315250Y189868D01*
X279713Y200787D02*
X304331D01*
X315250Y183250D02*
Y183400D01*
X345250Y183490D02*
X345276Y183465D01*
X345250Y183490D02*
Y187250D01*
X274250Y183400D02*
Y187250D01*
Y183250D02*
Y183400D01*
X274000Y183000D02*
X274250Y183250D01*
X291148Y179250D02*
X301250Y169148D01*
X212000Y271850D02*
Y272000D01*
X223750Y271500D02*
X224000Y271750D01*
X237750Y211500D02*
X240000Y213750D01*
X241000D01*
X256750Y229500D02*
X256892Y229358D01*
Y224435D02*
Y229358D01*
X200000Y278150D02*
Y283750D01*
X194000Y283850D02*
X199900D01*
X218000D02*
X223650D01*
X224000Y278150D02*
Y283750D01*
X223650Y283850D02*
X223750Y283750D01*
X197000Y293000D02*
X199500Y290500D01*
X197000Y293000D02*
Y293500D01*
X206250Y290500D02*
X209000Y293250D01*
X212000Y290250D01*
X221000Y293000D02*
Y293250D01*
X224000Y290250D01*
X255000Y340000D02*
X256392Y338608D01*
Y334195D02*
Y338608D01*
X190000Y287850D02*
X194000Y283850D01*
X203000Y286750D02*
X205900Y283850D01*
X235923Y329077D02*
X249305D01*
X224000Y283850D02*
X227500Y287350D01*
X272250Y289750D02*
X274108Y291608D01*
Y302305D01*
X254250Y344600D02*
X259650D01*
X220250Y306250D02*
Y311650D01*
X339268Y281500D02*
X339518Y281250D01*
X335964Y281500D02*
X339268D01*
Y288500D02*
X339518Y288250D01*
X335964Y288500D02*
X339268D01*
X335964Y260461D02*
X339518D01*
X335964Y267461D02*
X339268D01*
X323417Y274500D02*
X327518D01*
X323417Y281500D02*
X327518D01*
X323417Y288500D02*
X327518D01*
X323417Y260461D02*
X327518D01*
X323417Y267461D02*
X328768D01*
X283400Y340350D02*
X283500Y340250D01*
X283400Y340350D02*
Y344250D01*
X254250Y350900D02*
X260150D01*
X257250Y351000D02*
Y354000D01*
X262297Y340047D02*
X262500Y340250D01*
X262297Y334195D02*
Y340047D01*
X276077Y334195D02*
Y343077D01*
X293750Y325100D02*
X299650D01*
X299750Y324750D02*
X299900Y324600D01*
Y319250D02*
Y324600D01*
X293900Y331400D02*
X299750D01*
X293000Y319250D02*
X293500D01*
X291047Y321203D02*
X293000Y319250D01*
X281195Y321203D02*
X291047D01*
X243000Y193250D02*
X244250D01*
X238000Y188250D02*
X243000Y193250D01*
X238000Y178250D02*
Y188250D01*
X230500Y170750D02*
X238000Y178250D01*
X230500Y169898D02*
Y170750D01*
X234250Y177250D02*
X235750Y178750D01*
X230250Y177250D02*
X234250D01*
X230250Y169648D02*
X230500Y169898D01*
X247049Y192701D02*
X254000Y185750D01*
X247049Y192701D02*
Y224435D01*
X240500Y187500D02*
X241000Y188250D01*
X240500Y181750D02*
Y187500D01*
Y181750D02*
X242000Y180250D01*
X248000D01*
X253250Y175000D01*
Y163250D02*
Y175000D01*
X270250Y171250D02*
Y206100D01*
X237500Y311250D02*
X239484Y309266D01*
X249179D01*
X249305Y309392D01*
X236750Y311500D02*
Y315000D01*
X224000Y305750D02*
Y309000D01*
X230150Y327150D02*
X230250Y327250D01*
X230150Y321250D02*
Y327150D01*
Y314900D02*
X230250Y315000D01*
X230150Y309250D02*
Y314900D01*
X241500Y278500D02*
X241650D01*
X247400Y284250D01*
X237000Y285250D02*
X237500Y285750D01*
X241250Y289500D01*
X237500Y285750D02*
X239600D01*
X241100Y284250D01*
X241250Y289500D02*
Y289750D01*
X220250Y311650D02*
X223850Y315250D01*
X230750Y321000D02*
X232516Y319234D01*
X249305D01*
X230500Y315250D02*
X232516Y317266D01*
X249305D01*
X240750Y263750D02*
Y265500D01*
X271390Y325140D02*
X281195D01*
X273000Y323000D02*
X273171Y323171D01*
X281195D01*
X273000Y319000D02*
X273234Y319234D01*
X281195D01*
X266734Y260065D02*
X266834Y260165D01*
X272140Y307390D02*
X274250Y309500D01*
X272140Y302305D02*
Y307390D01*
X276077Y302305D02*
X278500Y299882D01*
Y290500D02*
Y299882D01*
X278250Y290250D02*
X278500Y290500D01*
X287921Y313329D02*
X289250Y312000D01*
X281195Y313329D02*
X287921D01*
X281195Y311360D02*
X285890D01*
X281195Y315297D02*
X289203D01*
X289250Y315250D01*
X249305Y321203D02*
X249492Y321016D01*
X249305Y323171D02*
X249476Y323000D01*
X249305Y325140D02*
X249429Y325016D01*
X254421Y313329D02*
X254500Y313250D01*
X249305Y313329D02*
X254421D01*
X241850Y259100D02*
X243000Y260250D01*
X237000Y259100D02*
X241850D01*
X237400Y217000D02*
X240750D01*
X250986Y229236D02*
X251000Y229250D01*
X250986Y224435D02*
Y229236D01*
X247000Y229500D02*
X247049Y229451D01*
Y224435D02*
Y229451D01*
X276500Y260142D02*
Y266000D01*
Y260142D02*
X276577Y260065D01*
X282482D02*
X282484Y260067D01*
X280514Y260065D02*
Y265986D01*
X278516Y260094D02*
X278545Y260065D01*
X272900Y272900D02*
Y274250D01*
X270671Y270671D02*
X272900Y272900D01*
X270671Y260065D02*
Y270671D01*
X317118Y274500D02*
X317518D01*
X312518Y281500D02*
X316518D01*
X312518Y288500D02*
X317118D01*
X312518Y260461D02*
X317018D01*
X260829Y267029D02*
X260850Y267050D01*
X256750Y267150D02*
X256892Y267008D01*
X268703Y260065D02*
Y271797D01*
X266750Y273750D02*
X268703Y271797D01*
X254923Y260065D02*
X254950Y260092D01*
X285250Y179250D02*
X291148D01*
X341250Y155250D02*
X345250Y159250D01*
X341250Y133250D02*
X345250Y137250D01*
Y159250D01*
X311250Y155250D02*
X315250Y159250D01*
X311250Y133250D02*
X315250Y137250D01*
Y159250D01*
X270250Y133250D02*
X274250Y137250D01*
Y159250D01*
X241250Y134250D02*
X244250Y137250D01*
Y159250D01*
X169250Y133250D02*
X173250Y137250D01*
Y159250D01*
X199250Y133250D02*
X203250Y137250D01*
Y159250D01*
X271250Y155250D02*
Y156250D01*
X274250Y159250D02*
Y177100D01*
X271250Y156250D02*
X274250Y159250D01*
X345250D02*
Y176951D01*
X315250Y159250D02*
Y177100D01*
X241250Y156250D02*
X244250Y159250D01*
Y177100D01*
X170250Y156250D02*
X173250Y159250D01*
Y177100D01*
X200250Y156250D02*
X203250Y159250D01*
Y177100D01*
Y183250D02*
Y183400D01*
X199250Y171250D02*
Y174250D01*
X240250Y171250D02*
Y174250D01*
X311250Y171250D02*
Y174250D01*
X306400Y206100D02*
X341250Y171250D01*
X280250Y206100D02*
X306400D01*
X260250D02*
Y206250D01*
Y204250D02*
Y206100D01*
X266715Y224415D02*
X266734Y224435D01*
X284451Y273451D02*
X284750Y273750D01*
D52*
X122835Y246260D02*
X143701D01*
X151181Y253740D02*
Y275590D01*
X143701Y246260D02*
X151181Y253740D01*
X143701Y275590D02*
X151181D01*
D53*
X169291D02*
Y281496D01*
X165354Y285433D02*
X169291Y281496D01*
X147244Y285433D02*
X165354D01*
X143701Y281890D02*
X147244Y285433D01*
D54*
X161724Y226685D02*
X228685D01*
X122921D02*
X161724D01*
X169291Y234252D02*
Y275590D01*
X161724Y226685D02*
X169291Y234252D01*
X122835Y226772D02*
X122921Y226685D01*
X228685D02*
X228850Y226850D01*
X239150D02*
X241000Y225000D01*
X234250Y226850D02*
X239150D01*
X228850D02*
X229000Y227000D01*
X228850Y226850D02*
X233850D01*
X228500D02*
X228850D01*
X233850D02*
X234000Y227000D01*
D55*
X203000Y286750D02*
Y318000D01*
D56*
X241500Y224500D02*
D03*
D57*
X120079Y104331D02*
D03*
Y344488D02*
D03*
X368110D02*
D03*
Y104331D02*
D03*
D58*
X280935Y106000D02*
D03*
X261250D02*
D03*
X241565D02*
D03*
X122835Y246457D02*
D03*
Y226772D02*
D03*
D59*
X112205Y320866D02*
D03*
X376378Y322835D02*
D03*
D60*
X112205Y310866D02*
D03*
Y300866D02*
D03*
Y290866D02*
D03*
X376378Y272835D02*
D03*
Y282835D02*
D03*
Y292835D02*
D03*
Y302835D02*
D03*
Y312835D02*
D03*
D61*
X224016Y235236D02*
D03*
X212008D02*
D03*
X200000D02*
D03*
X262598Y218503D02*
D03*
X268503Y216338D02*
D03*
X272834Y217519D02*
D03*
X278740Y217717D02*
D03*
X258661Y216535D02*
D03*
X253740Y216339D02*
D03*
X276500Y229500D02*
D03*
X260629Y267126D02*
D03*
X256299Y267913D02*
D03*
X167520Y344094D02*
D03*
X177165Y284842D02*
D03*
X227417Y213356D02*
D03*
X231354Y236978D02*
D03*
X212008Y217520D02*
D03*
X250787Y229528D02*
D03*
X297638Y189567D02*
D03*
X304134D02*
D03*
X300984D02*
D03*
X297835Y185630D02*
D03*
X299410Y187598D02*
D03*
X302559D02*
D03*
X303937Y185630D02*
D03*
X300984D02*
D03*
X224803Y185433D02*
D03*
Y189370D02*
D03*
X230315D02*
D03*
X227559D02*
D03*
Y185433D02*
D03*
X230315D02*
D03*
X226181Y187402D02*
D03*
X228937D02*
D03*
X266800Y289500D02*
D03*
X287400Y327100D02*
D03*
X258100Y323000D02*
D03*
X278100Y268100D02*
D03*
X282400Y268200D02*
D03*
X260100Y326800D02*
D03*
X272000Y313200D02*
D03*
X266700Y316200D02*
D03*
X264600Y313500D02*
D03*
X260000Y321250D02*
D03*
X256000Y325100D02*
D03*
X241500Y274500D02*
D03*
X280700Y266100D02*
D03*
X255750Y309500D02*
D03*
X288600Y266300D02*
D03*
X251100Y203100D02*
D03*
X230000Y196000D02*
D03*
X228346Y198031D02*
D03*
X258250Y202250D02*
D03*
X227937Y344530D02*
D03*
Y346892D02*
D03*
X230299Y344530D02*
D03*
Y346892D02*
D03*
X232661Y344530D02*
D03*
Y346892D02*
D03*
X224000Y330750D02*
D03*
X314567Y338189D02*
D03*
X250394Y284252D02*
D03*
X277165Y285433D02*
D03*
X287402Y324016D02*
D03*
X294094Y274016D02*
D03*
X230299Y302797D02*
D03*
Y305159D02*
D03*
X232661D02*
D03*
X227937D02*
D03*
X232661Y302797D02*
D03*
X227953Y302756D02*
D03*
X243701Y311417D02*
D03*
X241000Y213750D02*
D03*
X256750Y229500D02*
D03*
X221000Y293250D02*
D03*
X209000D02*
D03*
X197000Y293500D02*
D03*
X339768Y267461D02*
D03*
Y260461D02*
D03*
Y288250D02*
D03*
Y281250D02*
D03*
Y274250D02*
D03*
X257250Y354000D02*
D03*
X262500Y340500D02*
D03*
X283500Y340000D02*
D03*
X303250Y325000D02*
D03*
X244250Y193250D02*
D03*
X254000Y185750D02*
D03*
X256250Y187250D02*
D03*
X236750Y192500D02*
D03*
X241000Y188250D02*
D03*
X236750Y315000D02*
D03*
X224000Y305750D02*
D03*
X240750Y263750D02*
D03*
X254750Y313250D02*
D03*
X273000Y323000D02*
D03*
X264750Y292750D02*
D03*
X273000Y319000D02*
D03*
X277750Y279750D02*
D03*
X274250Y309500D02*
D03*
X289250Y312000D02*
D03*
Y315250D02*
D03*
X287000Y269500D02*
D03*
X312518Y267461D02*
D03*
X240750Y217000D02*
D03*
X247000Y229500D02*
D03*
X276500Y266000D02*
D03*
X312518Y260461D02*
D03*
Y274500D02*
D03*
Y281500D02*
D03*
Y288500D02*
D03*
X285250Y179250D02*
D03*
X278250Y182250D02*
D03*
X274250Y187250D02*
D03*
X199250Y174250D02*
D03*
X311250D02*
D03*
X240250D02*
D03*
X345250Y187250D02*
D03*
D62*
X280708Y274803D02*
D03*
X283858Y278740D02*
D03*
X234000Y135000D02*
D03*
Y132000D02*
D03*
X231000Y135000D02*
D03*
Y138000D02*
D03*
X228000D02*
D03*
X225000Y141000D02*
D03*
Y144000D02*
D03*
Y138000D02*
D03*
Y135000D02*
D03*
X228000D02*
D03*
Y132000D02*
D03*
X225000D02*
D03*
X231000D02*
D03*
X228000Y141000D02*
D03*
X305000Y135000D02*
D03*
Y132000D02*
D03*
X302000Y135000D02*
D03*
Y138000D02*
D03*
X299000D02*
D03*
X296000Y141000D02*
D03*
Y144000D02*
D03*
Y138000D02*
D03*
Y135000D02*
D03*
X299000D02*
D03*
Y132000D02*
D03*
X296000D02*
D03*
X302000D02*
D03*
X299000Y141000D02*
D03*
X370000D02*
D03*
X373000Y132000D02*
D03*
X367000D02*
D03*
X370000D02*
D03*
Y135000D02*
D03*
X367000D02*
D03*
Y138000D02*
D03*
Y144000D02*
D03*
Y141000D02*
D03*
X370000Y138000D02*
D03*
X373000D02*
D03*
Y135000D02*
D03*
X376000Y132000D02*
D03*
Y135000D02*
D03*
M02*
