G04*
G04 #@! TF.GenerationSoftware,Altium Limited,Altium Designer,19.1.7 (138)*
G04*
G04 Layer_Color=16711935*
%FSLAX25Y25*%
%MOIN*%
G70*
G01*
G75*
%ADD17C,0.00394*%
D17*
X277455Y328486D02*
G03*
X277455Y328486I-1969J0D01*
G01*
X302461Y234154D02*
Y238287D01*
X304626Y234154D02*
Y238287D01*
X302461Y234154D02*
X304626D01*
X302461Y238287D02*
X304626D01*
X254429Y234154D02*
Y238287D01*
X256594Y234154D02*
Y238287D01*
X254429Y234154D02*
X256594D01*
X254429Y238287D02*
X256594D01*
X222146Y234154D02*
Y238287D01*
X224311Y234154D02*
Y238287D01*
X222146Y234154D02*
X224311D01*
X222146Y238287D02*
X224311D01*
X203839Y305610D02*
Y307776D01*
X207972Y305610D02*
Y307776D01*
X203839D02*
X207972D01*
X203839Y305610D02*
X207972D01*
X223327Y341043D02*
X225492D01*
X223327Y336909D02*
X225492D01*
Y341043D01*
X223327Y336909D02*
Y341043D01*
Y329232D02*
X225492D01*
X223327Y325098D02*
X225492D01*
Y329232D01*
X223327Y325098D02*
Y329232D01*
X292421Y321161D02*
Y323327D01*
X296555Y321161D02*
Y323327D01*
X292421D02*
X296555D01*
X292421Y321161D02*
X296555D01*
X217421Y341043D02*
X219587D01*
X217421Y336909D02*
X219587D01*
Y341043D01*
X217421Y336909D02*
Y341043D01*
X211516Y329232D02*
X213681D01*
X211516Y325098D02*
X213681D01*
Y329232D01*
X211516Y325098D02*
Y329232D01*
X199705Y341043D02*
X201870D01*
X199705Y336909D02*
X201870D01*
Y341043D01*
X199705Y336909D02*
Y341043D01*
X203839Y293799D02*
Y295965D01*
X207972Y293799D02*
Y295965D01*
X203839D02*
X207972D01*
X203839Y293799D02*
X207972D01*
X203839Y299705D02*
Y301870D01*
X207972Y299705D02*
Y301870D01*
X203839D02*
X207972D01*
X203839Y299705D02*
X207972D01*
X199705Y329232D02*
X201870D01*
X199705Y325098D02*
X201870D01*
Y329232D01*
X199705Y325098D02*
Y329232D01*
X290650Y282382D02*
X292815D01*
X290650Y278248D02*
X292815D01*
Y282382D01*
X290650Y278248D02*
Y282382D01*
X296555Y278248D02*
X298721D01*
X296555Y282382D02*
X298721D01*
X296555Y278248D02*
Y282382D01*
X298721Y278248D02*
Y282382D01*
X229232Y336909D02*
Y341043D01*
X231398Y336909D02*
Y341043D01*
X229232Y336909D02*
X231398D01*
X229232Y341043D02*
X231398D01*
X211516Y336910D02*
Y341043D01*
X213681Y336910D02*
Y341043D01*
X211516Y336910D02*
X213681D01*
X211516Y341043D02*
X213681D01*
X205610Y336909D02*
Y341043D01*
X207776Y336909D02*
Y341043D01*
X205610Y336909D02*
X207776D01*
X205610Y341043D02*
X207776D01*
X278248Y345571D02*
X282382D01*
X278248Y343406D02*
X282382D01*
X278248D02*
Y345571D01*
X282382Y343406D02*
Y345571D01*
X298721Y329232D02*
Y333366D01*
X296555Y329232D02*
Y333366D01*
X298721D01*
X296555Y329232D02*
X298721D01*
X292815D02*
Y333366D01*
X290650Y329232D02*
Y333366D01*
X292815D01*
X290650Y329232D02*
X292815D01*
X282972Y294390D02*
Y298524D01*
X280807Y294390D02*
Y298524D01*
X282972D01*
X280807Y294390D02*
X282972D01*
X242421Y300886D02*
X246555D01*
X242421Y303051D02*
X246555D01*
Y300886D02*
Y303051D01*
X242421Y300886D02*
Y303051D01*
X259069Y347526D02*
X263203D01*
X259069Y345360D02*
X263203D01*
X259069D02*
Y347526D01*
X263203Y345360D02*
Y347526D01*
X259069Y353526D02*
X263203D01*
X259069Y351360D02*
X263203D01*
X259069D02*
Y353526D01*
X263203Y351360D02*
Y353526D01*
X307972Y229626D02*
X314862D01*
X307972Y242815D02*
X314862D01*
X307972Y229626D02*
Y242815D01*
X314862Y229626D02*
Y242815D01*
X244980Y285138D02*
X247146D01*
X244980Y281004D02*
X247146D01*
Y285138D01*
X244980Y281004D02*
Y285138D01*
X276083Y289862D02*
Y292027D01*
X271949Y289862D02*
Y292027D01*
Y289862D02*
X276083D01*
X271949Y292027D02*
X276083D01*
X241043Y280807D02*
X243209D01*
X241043Y276673D02*
X243209D01*
Y280807D01*
X241043Y276673D02*
Y280807D01*
X233169D02*
X235335D01*
X233169Y276673D02*
X235335D01*
Y280807D01*
X233169Y276673D02*
Y280807D01*
X237106D02*
X239272D01*
X237106Y276673D02*
X239272D01*
Y280807D01*
X237106Y276673D02*
Y280807D01*
X190748Y304823D02*
Y308563D01*
X197441Y304823D02*
Y308563D01*
X190748D02*
X197441D01*
X190748Y304823D02*
X197441D01*
X266831Y229626D02*
Y242815D01*
X259941Y229626D02*
Y242815D01*
X266831D01*
X259941Y229626D02*
X266831D01*
X218799D02*
Y242815D01*
X211909Y229626D02*
Y242815D01*
X218799D01*
X211909Y229626D02*
X218799D01*
X190748Y293012D02*
Y296752D01*
X197441Y293012D02*
Y296752D01*
X190748D02*
X197441D01*
X190748Y293012D02*
X197441D01*
X190748Y298917D02*
Y302658D01*
X197441Y298917D02*
Y302658D01*
X190748D02*
X197441D01*
X190748Y298917D02*
X197441D01*
X251470Y332030D02*
X279029D01*
X251470Y304470D02*
X279029D01*
Y332030D01*
X251470Y304470D02*
Y332030D01*
M02*
