G04*
G04 #@! TF.GenerationSoftware,Altium Limited,Altium Designer,19.1.7 (138)*
G04*
G04 Layer_Color=32768*
%FSLAX25Y25*%
%MOIN*%
G70*
G01*
G75*
%ADD14C,0.00390*%
%ADD16C,0.00492*%
%ADD17C,0.00394*%
%ADD60C,0.00197*%
D14*
X169291Y247244D02*
Y286614D01*
Y247244D02*
X201575D01*
Y286614D01*
X169291D02*
X201575D01*
X231722Y148913D02*
Y181197D01*
X290778D01*
Y148913D02*
Y181197D01*
X231722Y148913D02*
X290778D01*
D16*
X301378Y194882D02*
X320472D01*
X321457D01*
Y221654D01*
X301378D02*
X321457D01*
X301378Y194882D02*
Y221654D01*
X311417Y206299D02*
Y210236D01*
X309449Y208268D02*
X313386D01*
X279528Y221654D02*
X298622D01*
X278543D02*
X279528D01*
X278543Y194882D02*
Y221654D01*
Y194882D02*
X298622D01*
Y221654D01*
X288583Y206299D02*
Y210236D01*
X286614Y208268D02*
X290551D01*
X253346Y194882D02*
X272441D01*
X273425D01*
Y221654D01*
X253346D02*
X273425D01*
X253346Y194882D02*
Y221654D01*
X263386Y206299D02*
Y210236D01*
X261417Y208268D02*
X265354D01*
X231496Y221654D02*
X250590D01*
X230512D02*
X231496D01*
X230512Y194882D02*
Y221654D01*
Y194882D02*
X250590D01*
Y221654D01*
X240551Y206299D02*
Y210236D01*
X238583Y208268D02*
X242520D01*
X213386D02*
X217323D01*
X215354Y206299D02*
Y210236D01*
X205315Y194882D02*
Y221654D01*
X225394D01*
Y194882D02*
Y221654D01*
X224410Y194882D02*
X225394D01*
X205315D02*
X224410D01*
X183465Y221654D02*
X202559D01*
X182480D02*
X183465D01*
X182480Y194882D02*
Y221654D01*
Y194882D02*
X202559D01*
Y221654D01*
X192520Y206299D02*
Y210236D01*
X190551Y208268D02*
X194488D01*
X206299Y194882D02*
X225394D01*
X205315D02*
X206299D01*
X205315D02*
Y221654D01*
X225394D01*
Y194882D02*
Y221654D01*
X215354Y206299D02*
Y210236D01*
X213386Y208268D02*
X217323D01*
X182480Y221654D02*
X201575D01*
X202559D01*
Y194882D02*
Y221654D01*
X182480Y194882D02*
X202559D01*
X182480D02*
Y221654D01*
X192520Y206299D02*
Y210236D01*
X190551Y208268D02*
X194488D01*
X230512Y221654D02*
X249606D01*
X250590D01*
Y194882D02*
Y221654D01*
X230512Y194882D02*
X250590D01*
X230512D02*
Y221654D01*
X240551Y206299D02*
Y210236D01*
X238583Y208268D02*
X242520D01*
X278543Y221654D02*
X297638D01*
X298622D01*
Y194882D02*
Y221654D01*
X278543Y194882D02*
X298622D01*
X278543D02*
Y221654D01*
X288583Y206299D02*
Y210236D01*
X286614Y208268D02*
X290551D01*
X254331Y194882D02*
X273425D01*
X253346D02*
X254331D01*
X253346D02*
Y221654D01*
X273425D01*
Y194882D02*
Y221654D01*
X263386Y206299D02*
Y210236D01*
X261417Y208268D02*
X265354D01*
X302362Y194882D02*
X321457D01*
X301378D02*
X302362D01*
X301378D02*
Y221654D01*
X321457D01*
Y194882D02*
Y221654D01*
X311417Y206299D02*
Y210236D01*
X309449Y208268D02*
X313386D01*
D17*
X311417Y234252D02*
Y238189D01*
X309449Y236221D02*
X313386D01*
X206693Y326378D02*
Y327953D01*
X205906Y327165D02*
X207480D01*
X204724Y321260D02*
X208661D01*
Y333071D01*
X204724D02*
X208661D01*
X204724Y321260D02*
Y333071D01*
X261417Y236221D02*
X265354D01*
X263386Y234252D02*
Y238189D01*
X213386Y236221D02*
X217323D01*
X215354Y234252D02*
Y238189D01*
X216535Y321260D02*
Y333071D01*
X220472D01*
Y321260D02*
Y333071D01*
X216535Y321260D02*
X220472D01*
X217717Y327165D02*
X219291D01*
X218504Y326378D02*
Y327953D01*
X228346Y321260D02*
Y333071D01*
X232283D01*
Y321260D02*
Y333071D01*
X228346Y321260D02*
X232283D01*
X229528Y327165D02*
X231102D01*
X230315Y326378D02*
Y327953D01*
X265250Y316282D02*
Y320218D01*
X263281Y318250D02*
X267218D01*
D60*
X302461Y236221D02*
X304626D01*
X303543Y235138D02*
Y237303D01*
X301575Y232480D02*
Y239961D01*
X305512Y232480D02*
Y239961D01*
X301575Y232480D02*
X305512D01*
X301575Y239961D02*
X305512D01*
X254429Y236221D02*
X256594D01*
X255512Y235138D02*
Y237303D01*
X253543Y232480D02*
Y239961D01*
X257480Y232480D02*
Y239961D01*
X253543Y232480D02*
X257480D01*
X253543Y239961D02*
X257480D01*
X222146Y236221D02*
X224311D01*
X223228Y235138D02*
Y237303D01*
X221260Y232480D02*
Y239961D01*
X225197Y232480D02*
Y239961D01*
X221260Y232480D02*
X225197D01*
X221260Y239961D02*
X225197D01*
X202165Y304724D02*
Y308661D01*
X209646Y304724D02*
Y308661D01*
X202165D02*
X209646D01*
X202165Y304724D02*
X209646D01*
X204823Y306693D02*
X206988D01*
X205906Y305610D02*
Y307776D01*
X222441Y342717D02*
X226378D01*
X222441Y335236D02*
X226378D01*
Y342717D01*
X222441Y335236D02*
Y342717D01*
X224410Y337894D02*
Y340059D01*
X223327Y338976D02*
X225492D01*
X222441Y330906D02*
X226378D01*
X222441Y323425D02*
X226378D01*
Y330906D01*
X222441Y323425D02*
Y330906D01*
X224410Y326083D02*
Y328248D01*
X223327Y327165D02*
X225492D01*
X290748Y320276D02*
Y324213D01*
X298228Y320276D02*
Y324213D01*
X290748D02*
X298228D01*
X290748Y320276D02*
X298228D01*
X293406Y322244D02*
X295571D01*
X294488Y321161D02*
Y323327D01*
X216535Y342717D02*
X220473D01*
X216535Y335236D02*
X220473D01*
Y342717D01*
X216535Y335236D02*
Y342717D01*
X218504Y337894D02*
Y340059D01*
X217421Y338976D02*
X219587D01*
X210630Y330906D02*
X214567D01*
X210630Y323425D02*
X214567D01*
Y330906D01*
X210630Y323425D02*
Y330906D01*
X212598Y326083D02*
Y328248D01*
X211516Y327165D02*
X213681D01*
X198819Y342717D02*
X202756D01*
X198819Y335236D02*
X202756D01*
Y342717D01*
X198819Y335236D02*
Y342717D01*
X200787Y337894D02*
Y340059D01*
X199705Y338976D02*
X201870D01*
X202165Y292913D02*
Y296850D01*
X209646Y292913D02*
Y296850D01*
X202165D02*
X209646D01*
X202165Y292913D02*
X209646D01*
X204823Y294882D02*
X206988D01*
X205906Y293799D02*
Y295965D01*
X202165Y298819D02*
Y302756D01*
X209646Y298819D02*
Y302756D01*
X202165D02*
X209646D01*
X202165Y298819D02*
X209646D01*
X204823Y300787D02*
X206988D01*
X205906Y299705D02*
Y301870D01*
X198819Y330906D02*
X202756D01*
X198819Y323425D02*
X202756D01*
Y330906D01*
X198819Y323425D02*
Y330906D01*
X200787Y326083D02*
Y328248D01*
X199705Y327165D02*
X201870D01*
X289764Y284055D02*
X293701D01*
X289764Y276575D02*
X293701D01*
Y284055D01*
X289764Y276575D02*
Y284055D01*
X291732Y279232D02*
Y281398D01*
X290650Y280315D02*
X292815D01*
X295669Y276575D02*
X299606D01*
X295669Y284055D02*
X299606D01*
X295669Y276575D02*
Y284055D01*
X299606Y276575D02*
Y284055D01*
X297638Y279232D02*
Y281398D01*
X296555Y280315D02*
X298721D01*
X229232Y338976D02*
X231398D01*
X230315Y337894D02*
Y340059D01*
X228346Y335236D02*
Y342717D01*
X232283Y335236D02*
Y342717D01*
X228346Y335236D02*
X232283D01*
X228346Y342717D02*
X232283D01*
X211516Y338976D02*
X213681D01*
X212598Y337894D02*
Y340059D01*
X210630Y335236D02*
Y342717D01*
X214567Y335236D02*
Y342717D01*
X210630Y335236D02*
X214567D01*
X210630Y342717D02*
X214567D01*
X205610Y338976D02*
X207776D01*
X206693Y337894D02*
Y340059D01*
X204724Y335236D02*
Y342717D01*
X208661Y335236D02*
Y342717D01*
X204724Y335236D02*
X208661D01*
X204724Y342717D02*
X208661D01*
X280315Y343406D02*
Y345571D01*
X279232Y344488D02*
X281398D01*
X276575Y346457D02*
X284055D01*
X276575Y342520D02*
X284055D01*
X276575D02*
Y346457D01*
X284055Y342520D02*
Y346457D01*
X296555Y331299D02*
X298721D01*
X297638Y330217D02*
Y332382D01*
X299606Y327559D02*
Y335039D01*
X295669Y327559D02*
Y335039D01*
X299606D01*
X295669Y327559D02*
X299606D01*
X290650Y331299D02*
X292815D01*
X291732Y330217D02*
Y332382D01*
X293701Y327559D02*
Y335039D01*
X289764Y327559D02*
Y335039D01*
X293701D01*
X289764Y327559D02*
X293701D01*
X280807Y296457D02*
X282972D01*
X281890Y295374D02*
Y297539D01*
X283858Y292717D02*
Y300197D01*
X279921Y292717D02*
Y300197D01*
X283858D01*
X279921Y292717D02*
X283858D01*
X244488Y300886D02*
Y303051D01*
X243406Y301969D02*
X245571D01*
X240748Y300000D02*
X248228D01*
X240748Y303937D02*
X248228D01*
Y300000D02*
Y303937D01*
X240748Y300000D02*
Y303937D01*
X261136Y345360D02*
Y347526D01*
X260053Y346443D02*
X262218D01*
X257396Y348411D02*
X264876D01*
X257396Y344474D02*
X264876D01*
X257396D02*
Y348411D01*
X264876Y344474D02*
Y348411D01*
X261136Y351360D02*
Y353526D01*
X260053Y352443D02*
X262218D01*
X257396Y354411D02*
X264876D01*
X257396Y350474D02*
X264876D01*
X257396D02*
Y354411D01*
X264876Y350474D02*
Y354411D01*
X306890Y227165D02*
X315945D01*
X306890Y245276D02*
X315945D01*
X306890Y227165D02*
Y245276D01*
X315945Y227165D02*
Y245276D01*
X244094Y286811D02*
X248031D01*
X244094Y279331D02*
X248031D01*
Y286811D01*
X244094Y279331D02*
Y286811D01*
X246063Y281988D02*
Y284154D01*
X244980Y283071D02*
X247146D01*
X277756Y288976D02*
Y292913D01*
X270276Y288976D02*
Y292913D01*
Y288976D02*
X277756D01*
X270276Y292913D02*
X277756D01*
X272933Y290945D02*
X275098D01*
X274016Y289862D02*
Y292027D01*
X240158Y282480D02*
X244094D01*
X240158Y275000D02*
X244094D01*
Y282480D01*
X240158Y275000D02*
Y282480D01*
X242126Y277658D02*
Y279823D01*
X241043Y278740D02*
X243209D01*
X232283Y282480D02*
X236221D01*
X232283Y275000D02*
X236221D01*
Y282480D01*
X232283Y275000D02*
Y282480D01*
X234252Y277658D02*
Y279823D01*
X233169Y278740D02*
X235335D01*
X236221Y282480D02*
X240158D01*
X236221Y275000D02*
X240158D01*
Y282480D01*
X236221Y275000D02*
Y282480D01*
X238189Y277658D02*
Y279823D01*
X237106Y278740D02*
X239272D01*
X188189Y303740D02*
Y309646D01*
X200000Y303740D02*
Y309646D01*
X188189D02*
X200000D01*
X188189Y303740D02*
X200000D01*
X192224Y306693D02*
X195965D01*
X194095Y304823D02*
Y308563D01*
X267913Y227165D02*
Y245276D01*
X258858Y227165D02*
Y245276D01*
X267913D01*
X258858Y227165D02*
X267913D01*
X219882D02*
Y245276D01*
X210827Y227165D02*
Y245276D01*
X219882D01*
X210827Y227165D02*
X219882D01*
X188189Y291929D02*
Y297835D01*
X200000Y291929D02*
Y297835D01*
X188189D02*
X200000D01*
X188189Y291929D02*
X200000D01*
X192224Y294882D02*
X195965D01*
X194095Y293012D02*
Y296752D01*
X188189Y297835D02*
Y303740D01*
X200000Y297835D02*
Y303740D01*
X188189D02*
X200000D01*
X188189Y297835D02*
X200000D01*
X192224Y300787D02*
X195965D01*
X194095Y298917D02*
Y302658D01*
X244778Y338722D02*
X285722D01*
X244778Y297778D02*
X285722D01*
Y338722D01*
X244778Y297778D02*
Y338722D01*
M02*
