G04*
G04 #@! TF.GenerationSoftware,Altium Limited,Altium Designer,18.1.9 (240)*
G04*
G04 Layer_Color=16711935*
%FSLAX25Y25*%
%MOIN*%
G70*
G01*
G75*
%ADD12C,0.00394*%
D12*
X106299Y110236D02*
G03*
X125984Y90551I19707J22D01*
G01*
X362205D02*
G03*
X381890Y110236I2J19683D01*
G01*
X381890Y338583D02*
G03*
X362205Y358268I-19684J0D01*
G01*
X125984Y358267D02*
G03*
X106328Y337511I0J-19685D01*
G01*
X216819Y273819D02*
X219181D01*
X216819Y275787D02*
X218000Y273819D01*
X216819Y275787D02*
X219181D01*
X218000Y273819D02*
X219181Y275787D01*
X204819Y273819D02*
X207181D01*
X204819Y275787D02*
X206000Y273819D01*
X204819Y275787D02*
X207181D01*
X206000Y273819D02*
X207181Y275787D01*
X192913Y273819D02*
X195276D01*
X192913Y275787D02*
X194095Y273819D01*
X192913Y275787D02*
X195276D01*
X194095Y273819D02*
X195276Y275787D01*
X106299Y110236D02*
X106328Y337511D01*
X125984Y90551D02*
X362205D01*
X381890Y110236D02*
Y338583D01*
X125984Y358267D02*
X362205Y358268D01*
M02*
