G04*
G04 #@! TF.GenerationSoftware,Altium Limited,Altium Designer,19.1.7 (138)*
G04*
G04 Layer_Color=8388736*
%FSLAX25Y25*%
%MOIN*%
G70*
G01*
G75*
%ADD32R,0.20079X0.15571*%
%ADD33R,0.03359X0.02965*%
%ADD34R,0.02965X0.03359*%
%ADD35R,0.07887X0.05328*%
%ADD36R,0.01784X0.01784*%
%ADD37R,0.17139X0.17139*%
%ADD38R,0.01502X0.03747*%
%ADD39R,0.03747X0.01502*%
%ADD40R,0.04343X0.04737*%
%ADD41R,0.03556X0.03162*%
%ADD42R,0.16194X0.15564*%
%ADD43R,0.03202X0.05800*%
%ADD44O,0.01981X0.07887*%
%ADD45O,0.07887X0.01981*%
%ADD46C,0.08674*%
%ADD47C,0.06706*%
%ADD48R,0.06706X0.06706*%
%ADD49C,0.15748*%
%ADD50C,0.02670*%
%ADD51C,0.02769*%
D32*
X215354Y205679D02*
D03*
X192520Y210856D02*
D03*
X240551Y210856D02*
D03*
X288583Y210856D02*
D03*
X263386Y205679D02*
D03*
X311417Y205679D02*
D03*
D33*
X303543Y234252D02*
D03*
Y238189D02*
D03*
X255512Y234252D02*
D03*
Y238189D02*
D03*
X223228Y234252D02*
D03*
Y238189D02*
D03*
X224410Y340945D02*
D03*
Y337008D02*
D03*
Y329134D02*
D03*
Y325197D02*
D03*
X218504Y340945D02*
D03*
Y337008D02*
D03*
X212598Y329134D02*
D03*
Y325197D02*
D03*
X200787Y340945D02*
D03*
Y337008D02*
D03*
Y329134D02*
D03*
Y325197D02*
D03*
X291732Y282283D02*
D03*
Y278346D02*
D03*
X297638Y278346D02*
D03*
Y282283D02*
D03*
X230315Y337008D02*
D03*
Y340945D02*
D03*
X212598Y337008D02*
D03*
Y340945D02*
D03*
X206693Y337008D02*
D03*
Y340945D02*
D03*
X297638Y333268D02*
D03*
Y329331D02*
D03*
X291732Y333268D02*
D03*
Y329331D02*
D03*
X281890Y298425D02*
D03*
Y294488D02*
D03*
X246063Y285039D02*
D03*
Y281102D02*
D03*
X242126Y280709D02*
D03*
Y276772D02*
D03*
X234252Y280709D02*
D03*
Y276772D02*
D03*
X238189Y280709D02*
D03*
Y276772D02*
D03*
D34*
X203937Y306693D02*
D03*
X207874D02*
D03*
X292520Y322244D02*
D03*
X296457D02*
D03*
X203937Y294882D02*
D03*
X207874D02*
D03*
X203937Y300787D02*
D03*
X207874D02*
D03*
X278346Y344488D02*
D03*
X282283D02*
D03*
X246457Y301969D02*
D03*
X242520D02*
D03*
X259167Y346443D02*
D03*
X263104D02*
D03*
X259167Y352443D02*
D03*
X263104D02*
D03*
X275984Y290945D02*
D03*
X272047D02*
D03*
D35*
X311417Y230512D02*
D03*
Y241929D02*
D03*
X263386D02*
D03*
Y230512D02*
D03*
X215354Y241929D02*
D03*
Y230512D02*
D03*
D36*
X311417Y231720D02*
D03*
Y240721D02*
D03*
X263386D02*
D03*
Y231720D02*
D03*
X215354Y240721D02*
D03*
Y231720D02*
D03*
D37*
X264961Y272835D02*
D03*
D38*
X256102Y284547D02*
D03*
X258071D02*
D03*
X260039D02*
D03*
X262008D02*
D03*
X263976D02*
D03*
X265945D02*
D03*
X267913D02*
D03*
X269882D02*
D03*
X271850D02*
D03*
X273819D02*
D03*
Y261122D02*
D03*
X271850D02*
D03*
X269882D02*
D03*
X267913D02*
D03*
X265945D02*
D03*
X263976D02*
D03*
X262008D02*
D03*
X260039D02*
D03*
X258071D02*
D03*
X256102D02*
D03*
D39*
X276673Y281693D02*
D03*
Y279724D02*
D03*
Y277756D02*
D03*
Y275787D02*
D03*
Y273819D02*
D03*
Y271850D02*
D03*
Y269882D02*
D03*
Y267913D02*
D03*
Y265945D02*
D03*
Y263976D02*
D03*
X253248D02*
D03*
Y265945D02*
D03*
Y267913D02*
D03*
Y269882D02*
D03*
Y271850D02*
D03*
Y273819D02*
D03*
Y275787D02*
D03*
Y277756D02*
D03*
Y279724D02*
D03*
Y281693D02*
D03*
D40*
X190945Y306693D02*
D03*
X197244D02*
D03*
X190945Y294882D02*
D03*
X197244D02*
D03*
X190945Y300787D02*
D03*
X197244D02*
D03*
D41*
X206693Y323228D02*
D03*
Y331102D02*
D03*
X218504D02*
D03*
Y323228D02*
D03*
X230315Y331102D02*
D03*
Y323228D02*
D03*
D42*
X215354Y205669D02*
D03*
X192520Y210866D02*
D03*
X240551D02*
D03*
X288583D02*
D03*
X263386Y205669D02*
D03*
X311417D02*
D03*
D43*
X222854Y197756D02*
D03*
X217854D02*
D03*
X212854D02*
D03*
X207854D02*
D03*
Y218779D02*
D03*
X212854D02*
D03*
X217854D02*
D03*
X222854D02*
D03*
X185020D02*
D03*
X190020D02*
D03*
X195020D02*
D03*
X200020D02*
D03*
Y197756D02*
D03*
X195020D02*
D03*
X190020D02*
D03*
X185020D02*
D03*
X233051Y218779D02*
D03*
X238051D02*
D03*
X243051D02*
D03*
X248051D02*
D03*
Y197756D02*
D03*
X243051D02*
D03*
X238051D02*
D03*
X233051D02*
D03*
X281083Y218779D02*
D03*
X286083D02*
D03*
X291083D02*
D03*
X296083D02*
D03*
Y197756D02*
D03*
X291083D02*
D03*
X286083D02*
D03*
X281083D02*
D03*
X270886D02*
D03*
X265886D02*
D03*
X260886D02*
D03*
X255886D02*
D03*
Y218779D02*
D03*
X260886D02*
D03*
X265886D02*
D03*
X270886D02*
D03*
X318917Y197756D02*
D03*
X313917D02*
D03*
X308917D02*
D03*
X303917D02*
D03*
Y218779D02*
D03*
X308917D02*
D03*
X313917D02*
D03*
X318917D02*
D03*
D44*
X276077Y334195D02*
D03*
X274108D02*
D03*
X272140D02*
D03*
X270171D02*
D03*
X268203D02*
D03*
X266234D02*
D03*
X264266D02*
D03*
X262297D02*
D03*
X260329D02*
D03*
X258360D02*
D03*
X256392D02*
D03*
X254423D02*
D03*
Y302305D02*
D03*
X256392D02*
D03*
X258360D02*
D03*
X260329D02*
D03*
X262297D02*
D03*
X264266D02*
D03*
X266234D02*
D03*
X268203D02*
D03*
X270171D02*
D03*
X272140D02*
D03*
X274108D02*
D03*
X276077D02*
D03*
D45*
X249305Y329077D02*
D03*
Y327108D02*
D03*
Y325140D02*
D03*
Y323171D02*
D03*
Y321203D02*
D03*
Y319234D02*
D03*
Y317266D02*
D03*
Y315297D02*
D03*
Y313329D02*
D03*
Y311360D02*
D03*
Y309392D02*
D03*
Y307423D02*
D03*
X281195D02*
D03*
Y309392D02*
D03*
Y311360D02*
D03*
Y313329D02*
D03*
Y315297D02*
D03*
Y317266D02*
D03*
Y319234D02*
D03*
Y321203D02*
D03*
Y323171D02*
D03*
Y325140D02*
D03*
Y327108D02*
D03*
Y329077D02*
D03*
D46*
X185433Y257087D02*
D03*
Y276772D02*
D03*
X280935Y165055D02*
D03*
X261250D02*
D03*
X241565D02*
D03*
D47*
X340709Y287244D02*
D03*
X330709D02*
D03*
X340709Y297244D02*
D03*
X330709D02*
D03*
X340709Y307244D02*
D03*
X330709D02*
D03*
X340709Y317244D02*
D03*
D48*
X330709D02*
D03*
D49*
X185039Y165354D02*
D03*
Y342520D02*
D03*
X330709D02*
D03*
Y165354D02*
D03*
D50*
X308661Y224016D02*
D03*
X313779D02*
D03*
X260630D02*
D03*
X265748D02*
D03*
X217717D02*
D03*
X212598D02*
D03*
X305118Y201181D02*
D03*
X317717D02*
D03*
Y211811D02*
D03*
X305118D02*
D03*
Y207087D02*
D03*
X317717D02*
D03*
X311417Y201181D02*
D03*
Y211811D02*
D03*
Y207087D02*
D03*
X308268Y209449D02*
D03*
X314567D02*
D03*
Y203937D02*
D03*
X308268D02*
D03*
X282283Y204724D02*
D03*
X294882D02*
D03*
Y215354D02*
D03*
X282283D02*
D03*
Y210630D02*
D03*
X294882D02*
D03*
X288583Y204724D02*
D03*
Y215354D02*
D03*
Y210630D02*
D03*
X285433Y212992D02*
D03*
X291732D02*
D03*
Y207480D02*
D03*
X285433D02*
D03*
X257087Y201181D02*
D03*
X269685D02*
D03*
Y211811D02*
D03*
X257087D02*
D03*
Y207087D02*
D03*
X269685D02*
D03*
X263386Y201181D02*
D03*
Y211811D02*
D03*
Y207087D02*
D03*
X260236Y209449D02*
D03*
X266535D02*
D03*
Y203937D02*
D03*
X260236D02*
D03*
X234252Y204724D02*
D03*
X246850D02*
D03*
Y215354D02*
D03*
X234252D02*
D03*
Y210630D02*
D03*
X246850D02*
D03*
X240551Y204724D02*
D03*
Y215354D02*
D03*
Y210630D02*
D03*
X237402Y212992D02*
D03*
X243701D02*
D03*
Y207480D02*
D03*
X237402D02*
D03*
X209055Y201181D02*
D03*
X221654D02*
D03*
Y211811D02*
D03*
X209055D02*
D03*
Y207087D02*
D03*
X221654D02*
D03*
X215354Y201181D02*
D03*
Y211811D02*
D03*
Y207087D02*
D03*
X212205Y209449D02*
D03*
X218504D02*
D03*
Y203937D02*
D03*
X212205D02*
D03*
X192520Y210630D02*
D03*
X186221D02*
D03*
X189370Y207480D02*
D03*
X195669D02*
D03*
Y212992D02*
D03*
X189370D02*
D03*
X192520Y215354D02*
D03*
Y204724D02*
D03*
X198819Y210630D02*
D03*
X186221Y215354D02*
D03*
X198819D02*
D03*
Y204724D02*
D03*
X186221D02*
D03*
D51*
X270866Y278740D02*
D03*
Y274803D02*
D03*
Y270866D02*
D03*
Y266929D02*
D03*
X266929D02*
D03*
Y270866D02*
D03*
Y274803D02*
D03*
Y278740D02*
D03*
X262992D02*
D03*
Y274803D02*
D03*
Y270866D02*
D03*
Y266929D02*
D03*
X259055D02*
D03*
Y270866D02*
D03*
Y274803D02*
D03*
Y278740D02*
D03*
M02*
