M48
;Layer_Color=9474304
;FILE_FORMAT=2:5
INCH,TZ
;TYPE=PLATED
T1F00S00C0.01181
T2F00S00C0.01575
T3F00S00C0.03543
T4F00S00C0.05118
;TYPE=NON_PLATED
T5F00S00C0.11811
%
T01
X345250Y187250
X339768Y260461
Y267461
Y274250
Y281250
Y288250
X312800Y285600
X314400Y292700
X312518Y260461
X307100Y278000
X299300Y278800
X297600Y274000
X294094Y274016
X288600Y266300
X286600Y268000
X282400Y268200
X281100Y270800
X278232Y267801
X276400Y266000
X260629Y267126
X256400Y268800
X258073Y249927
X252955
X247837
X242719
Y244809
X247837
X252955
X258073
X263191
Y249927
X268309
Y244809
X273427
Y249927
X278545
X283663
X288781
Y244809
X283663
X278545
Y239691
X283663
X288781
Y234573
X283663
X278545
X273427
X268309
Y239691
X273427
X263191
X258073
X252955
X247837
X242719
Y234573
X247837
X252955
X258073
X263191
X256750Y229500
X250787Y229528
X247000Y229500
X240750Y217000
X241000Y213750
X227417Y213356
X220276Y217520
X220000Y235000
X223500
X216500
X231354Y236978
X240945Y261024
X241500Y274500
X250394Y284252
X266700Y284400
X264700Y288900
X266200Y293000
X276600Y289900
X243701Y311417
X232661Y305159
Y302797
X230299
Y305159
X227937
X227953Y302756
X224000Y305750
X221000Y293250
X209000
X197000Y293500
X199250Y174250
X224803Y185433
X227559
X230315
X228937Y187402
X226181
X224803Y189370
X227559
X230315
X230000Y196000
X228346Y198031
X236750Y192500
X244250Y193250
X241000Y188250
X240250Y174250
X254000Y185750
X256250Y187250
X258250Y202250
X251100Y203100
X253740Y216339
X258661Y216535
X262598Y218503
X268503Y216338
X272834Y217519
X278740Y217717
X276500Y229500
X274250Y187250
X278250Y182250
X285250Y179250
X297835Y185630
X300984
X303937
X302559Y187598
X299410
X300984Y189567
X304134
X297638
X311250Y174250
X302800Y325100
X291200Y315000
X287900Y313200
X274400Y313400
X273300Y316500
X260000Y321250
X258100Y323000
X256000Y325100
X260100Y326800
X262500Y340500
X257250Y354000
X232661Y346892
Y344530
X230299
X227937
Y346892
X230299
X224000Y330750
X236750Y315000
X176378Y320472
X283500Y340000
X314567Y338189
X345079Y330315
X350500Y319300
T02
X225000Y132000
Y135000
Y138000
X228000
X231000
Y135000
X234000
Y132000
X231000
X228000
Y135000
Y141000
X225000
Y144000
X296000
Y141000
Y138000
X299000
X302000
Y135000
X305000
Y132000
X302000
X299000
Y135000
X296000
Y132000
X299000Y141000
X367000
X370000
Y138000
Y135000
Y132000
X373000
Y135000
Y138000
X367000
Y135000
Y132000
X376000
Y135000
X367000Y144000
T03
X376969Y216890
Y226890
Y236890
Y246890
Y256890
Y266890
Y287087
Y297087
Y307087
Y317087
T04
X241565Y106000
X261250
X280935
X161000Y227315
Y247000
T05
X161417Y106299
X366142
X161417Y342520
X366142
M30
