G04*
G04 #@! TF.GenerationSoftware,Altium Limited,Altium Designer,18.1.9 (240)*
G04*
G04 Layer_Color=8421504*
%FSLAX25Y25*%
%MOIN*%
G70*
G01*
G75*
%ADD17R,0.02756X0.02362*%
%ADD18R,0.49213X0.20079*%
%ADD19R,0.01181X0.06102*%
%ADD20R,0.04724X0.04331*%
%ADD21R,0.03937X0.03543*%
%ADD22R,0.04724X0.08661*%
%ADD23R,0.13780X0.08661*%
%ADD24R,0.03543X0.03937*%
%ADD25R,0.07480X0.05315*%
%ADD26O,0.01181X0.07087*%
%ADD27O,0.07087X0.01181*%
%ADD28R,0.05000X0.02402*%
%ADD29R,0.14764X0.15394*%
%ADD30R,0.04331X0.04724*%
D17*
X218000Y271063D02*
D03*
Y278937D02*
D03*
X206000Y271063D02*
D03*
Y278937D02*
D03*
X194095Y271063D02*
D03*
Y278937D02*
D03*
D18*
X265750Y242250D02*
D03*
D19*
X288388Y224435D02*
D03*
X286419D02*
D03*
X284451D02*
D03*
X282482D02*
D03*
X280514D02*
D03*
X278545D02*
D03*
X276577D02*
D03*
X274608D02*
D03*
X272640D02*
D03*
X270671D02*
D03*
X268703D02*
D03*
X266734D02*
D03*
X264766D02*
D03*
X262797D02*
D03*
X260829D02*
D03*
X258860D02*
D03*
X256892D02*
D03*
X254923D02*
D03*
X252955D02*
D03*
X250986D02*
D03*
X249018D02*
D03*
X247049D02*
D03*
X245081D02*
D03*
X243112D02*
D03*
Y260065D02*
D03*
X245081D02*
D03*
X247049D02*
D03*
X249018D02*
D03*
X250986D02*
D03*
X252955D02*
D03*
X254923D02*
D03*
X256892D02*
D03*
X258860D02*
D03*
X260829D02*
D03*
X262797D02*
D03*
X264766D02*
D03*
X266734D02*
D03*
X268703D02*
D03*
X270671D02*
D03*
X272640D02*
D03*
X274608D02*
D03*
X276577D02*
D03*
X278545D02*
D03*
X280514D02*
D03*
X282482D02*
D03*
X284451D02*
D03*
X286419D02*
D03*
X288388D02*
D03*
D20*
X163583Y350787D02*
D03*
Y344094D02*
D03*
D21*
X155905Y350984D02*
D03*
Y344685D02*
D03*
X177165Y281890D02*
D03*
Y275590D02*
D03*
X143701D02*
D03*
Y281890D02*
D03*
X173250Y183400D02*
D03*
Y177100D02*
D03*
X203250Y183400D02*
D03*
Y177100D02*
D03*
X244250Y183400D02*
D03*
Y177100D02*
D03*
X274250Y183400D02*
D03*
Y177100D02*
D03*
X315250Y183400D02*
D03*
Y177100D02*
D03*
X345250Y183250D02*
D03*
Y176951D02*
D03*
X237000Y265400D02*
D03*
Y259100D02*
D03*
X228500Y226850D02*
D03*
Y233150D02*
D03*
X234250Y226850D02*
D03*
Y233150D02*
D03*
X218000Y290150D02*
D03*
Y283850D02*
D03*
X224000Y271850D02*
D03*
Y278150D02*
D03*
Y283850D02*
D03*
Y290150D02*
D03*
X212000Y271850D02*
D03*
Y278150D02*
D03*
Y283850D02*
D03*
Y290150D02*
D03*
X206000Y290150D02*
D03*
Y283850D02*
D03*
X200000Y283850D02*
D03*
Y290150D02*
D03*
Y271850D02*
D03*
Y278150D02*
D03*
X194000Y290150D02*
D03*
Y283850D02*
D03*
X299750Y325100D02*
D03*
Y331400D02*
D03*
X293750Y325100D02*
D03*
Y331400D02*
D03*
X236750Y311400D02*
D03*
Y305100D02*
D03*
X260250Y350900D02*
D03*
Y344600D02*
D03*
X254250Y350900D02*
D03*
Y344600D02*
D03*
X260250Y212400D02*
D03*
Y206100D02*
D03*
X270250Y212400D02*
D03*
Y206100D02*
D03*
X280250Y212400D02*
D03*
Y206100D02*
D03*
D22*
X169291Y275590D02*
D03*
X160236D02*
D03*
X151181D02*
D03*
D23*
X160236Y300000D02*
D03*
D24*
X272100Y289750D02*
D03*
X278400D02*
D03*
X293600Y319250D02*
D03*
X299900D02*
D03*
X241100Y290250D02*
D03*
X247400D02*
D03*
X247400Y284250D02*
D03*
X241100D02*
D03*
X230150Y327250D02*
D03*
X223850D02*
D03*
X230150Y309250D02*
D03*
X223850D02*
D03*
X230150Y321250D02*
D03*
X223850D02*
D03*
X230150Y315250D02*
D03*
X223850D02*
D03*
X237400Y217000D02*
D03*
X231100D02*
D03*
X283400Y344250D02*
D03*
X277100D02*
D03*
X266600Y280750D02*
D03*
X272900D02*
D03*
X241100Y278250D02*
D03*
X247400D02*
D03*
X266600Y274250D02*
D03*
X272900D02*
D03*
X237400Y211000D02*
D03*
X231100D02*
D03*
X323417Y267461D02*
D03*
X317118D02*
D03*
X323417Y260461D02*
D03*
X317118D02*
D03*
X323417Y288500D02*
D03*
X317118D02*
D03*
X323417Y281500D02*
D03*
X317118D02*
D03*
X323417Y274500D02*
D03*
X317118D02*
D03*
X284600Y274250D02*
D03*
X290900D02*
D03*
D25*
X230250Y181852D02*
D03*
Y169648D02*
D03*
X301000Y181852D02*
D03*
Y169648D02*
D03*
D26*
X276077Y334195D02*
D03*
X274108D02*
D03*
X272140D02*
D03*
X270171D02*
D03*
X268203D02*
D03*
X266234D02*
D03*
X264266D02*
D03*
X262297D02*
D03*
X260329D02*
D03*
X258360D02*
D03*
X256392D02*
D03*
X254423D02*
D03*
Y302305D02*
D03*
X256392D02*
D03*
X258360D02*
D03*
X260329D02*
D03*
X262297D02*
D03*
X264266D02*
D03*
X266234D02*
D03*
X268203D02*
D03*
X270171D02*
D03*
X272140D02*
D03*
X274108D02*
D03*
X276077D02*
D03*
D27*
X249305Y329077D02*
D03*
Y327108D02*
D03*
Y325140D02*
D03*
Y323171D02*
D03*
Y321203D02*
D03*
Y319234D02*
D03*
Y317266D02*
D03*
Y315297D02*
D03*
Y313329D02*
D03*
Y311360D02*
D03*
Y309392D02*
D03*
Y307423D02*
D03*
X281195D02*
D03*
Y309392D02*
D03*
Y311360D02*
D03*
Y313329D02*
D03*
Y315297D02*
D03*
Y317266D02*
D03*
Y319234D02*
D03*
Y321203D02*
D03*
Y323171D02*
D03*
Y325140D02*
D03*
Y327108D02*
D03*
Y329077D02*
D03*
D28*
X199140Y170750D02*
D03*
Y165750D02*
D03*
Y160750D02*
D03*
Y155750D02*
D03*
X220163D02*
D03*
Y160750D02*
D03*
Y165750D02*
D03*
Y170750D02*
D03*
X169140D02*
D03*
Y165750D02*
D03*
Y160750D02*
D03*
Y155750D02*
D03*
X190163D02*
D03*
Y160750D02*
D03*
Y165750D02*
D03*
Y170750D02*
D03*
X240140D02*
D03*
Y165750D02*
D03*
Y160750D02*
D03*
Y155750D02*
D03*
X261163D02*
D03*
Y160750D02*
D03*
Y165750D02*
D03*
Y170750D02*
D03*
X270140D02*
D03*
Y165750D02*
D03*
Y160750D02*
D03*
Y155750D02*
D03*
X291163D02*
D03*
Y160750D02*
D03*
Y165750D02*
D03*
Y170750D02*
D03*
X311140D02*
D03*
Y165750D02*
D03*
Y160750D02*
D03*
Y155750D02*
D03*
X332163D02*
D03*
Y160750D02*
D03*
Y165750D02*
D03*
Y170750D02*
D03*
X341140D02*
D03*
Y165750D02*
D03*
Y160750D02*
D03*
Y155750D02*
D03*
X362163D02*
D03*
Y160750D02*
D03*
Y165750D02*
D03*
Y170750D02*
D03*
X341140Y148750D02*
D03*
Y143750D02*
D03*
Y138750D02*
D03*
Y133750D02*
D03*
X362163D02*
D03*
Y138750D02*
D03*
Y143750D02*
D03*
Y148750D02*
D03*
X311140D02*
D03*
Y143750D02*
D03*
Y138750D02*
D03*
Y133750D02*
D03*
X332163D02*
D03*
Y138750D02*
D03*
Y143750D02*
D03*
Y148750D02*
D03*
X270140D02*
D03*
Y143750D02*
D03*
Y138750D02*
D03*
Y133750D02*
D03*
X291163D02*
D03*
Y138750D02*
D03*
Y143750D02*
D03*
Y148750D02*
D03*
X240140D02*
D03*
Y143750D02*
D03*
Y138750D02*
D03*
Y133750D02*
D03*
X261163D02*
D03*
Y138750D02*
D03*
Y143750D02*
D03*
Y148750D02*
D03*
X199140D02*
D03*
Y143750D02*
D03*
Y138750D02*
D03*
Y133750D02*
D03*
X220163D02*
D03*
Y138750D02*
D03*
Y143750D02*
D03*
Y148750D02*
D03*
X169140D02*
D03*
Y143750D02*
D03*
Y138750D02*
D03*
Y133750D02*
D03*
X190163D02*
D03*
Y138750D02*
D03*
Y143750D02*
D03*
Y148750D02*
D03*
D29*
X212250Y163250D02*
D03*
X182250D02*
D03*
X253250D02*
D03*
X283250D02*
D03*
X324250D02*
D03*
X354250D02*
D03*
Y141250D02*
D03*
X324250D02*
D03*
X283250D02*
D03*
X253250D02*
D03*
X212250D02*
D03*
X182250D02*
D03*
D30*
X335964Y274500D02*
D03*
X329271D02*
D03*
X335964Y281500D02*
D03*
X329271D02*
D03*
X335964Y288500D02*
D03*
X329271D02*
D03*
X335964Y260461D02*
D03*
X329271D02*
D03*
X335964Y267461D02*
D03*
X329271D02*
D03*
M02*
