G04*
G04 #@! TF.GenerationSoftware,Altium Limited,Altium Designer,19.1.7 (138)*
G04*
G04 Layer_Color=8421504*
%FSLAX25Y25*%
%MOIN*%
G70*
G01*
G75*
%ADD19R,0.02559X0.02165*%
%ADD20R,0.02165X0.02559*%
%ADD21R,0.07087X0.04528*%
%ADD22R,0.00984X0.00984*%
%ADD23R,0.16339X0.16339*%
%ADD24R,0.01102X0.03347*%
%ADD25R,0.03347X0.01102*%
%ADD26R,0.03543X0.03937*%
%ADD27R,0.02756X0.02362*%
%ADD28R,0.15394X0.14764*%
%ADD29R,0.02402X0.05000*%
%ADD30O,0.01181X0.07087*%
%ADD31O,0.07087X0.01181*%
D19*
X303543Y234252D02*
D03*
Y238189D02*
D03*
X255512Y234252D02*
D03*
Y238189D02*
D03*
X223228Y234252D02*
D03*
Y238189D02*
D03*
X224410Y340945D02*
D03*
Y337008D02*
D03*
Y329134D02*
D03*
Y325197D02*
D03*
X218504Y340945D02*
D03*
Y337008D02*
D03*
X212598Y329134D02*
D03*
Y325197D02*
D03*
X200787Y340945D02*
D03*
Y337008D02*
D03*
Y329134D02*
D03*
Y325197D02*
D03*
X291732Y282283D02*
D03*
Y278346D02*
D03*
X297638Y278346D02*
D03*
Y282283D02*
D03*
X230315Y337008D02*
D03*
Y340945D02*
D03*
X212598Y337008D02*
D03*
Y340945D02*
D03*
X206693Y337008D02*
D03*
Y340945D02*
D03*
X297638Y333268D02*
D03*
Y329331D02*
D03*
X291732Y333268D02*
D03*
Y329331D02*
D03*
X281890Y298425D02*
D03*
Y294488D02*
D03*
X246063Y285039D02*
D03*
Y281102D02*
D03*
X242126Y280709D02*
D03*
Y276772D02*
D03*
X234252Y280709D02*
D03*
Y276772D02*
D03*
X238189Y280709D02*
D03*
Y276772D02*
D03*
D20*
X203937Y306693D02*
D03*
X207874D02*
D03*
X292520Y322244D02*
D03*
X296457D02*
D03*
X203937Y294882D02*
D03*
X207874D02*
D03*
X203937Y300787D02*
D03*
X207874D02*
D03*
X278346Y344488D02*
D03*
X282283D02*
D03*
X246457Y301969D02*
D03*
X242520D02*
D03*
X259167Y346443D02*
D03*
X263104D02*
D03*
X259167Y352443D02*
D03*
X263104D02*
D03*
X275984Y290945D02*
D03*
X272047D02*
D03*
D21*
X311417Y230512D02*
D03*
Y241929D02*
D03*
X263386D02*
D03*
Y230512D02*
D03*
X215354Y241929D02*
D03*
Y230512D02*
D03*
D22*
X311417Y231720D02*
D03*
Y240721D02*
D03*
X263386D02*
D03*
Y231720D02*
D03*
X215354Y240721D02*
D03*
Y231720D02*
D03*
D23*
X264961Y272835D02*
D03*
D24*
X256102Y284547D02*
D03*
X258071D02*
D03*
X260039D02*
D03*
X262008D02*
D03*
X263976D02*
D03*
X265945D02*
D03*
X267913D02*
D03*
X269882D02*
D03*
X271850D02*
D03*
X273819D02*
D03*
Y261122D02*
D03*
X271850D02*
D03*
X269882D02*
D03*
X267913D02*
D03*
X265945D02*
D03*
X263976D02*
D03*
X262008D02*
D03*
X260039D02*
D03*
X258071D02*
D03*
X256102D02*
D03*
D25*
X276673Y281693D02*
D03*
Y279724D02*
D03*
Y277756D02*
D03*
Y275787D02*
D03*
Y273819D02*
D03*
Y271850D02*
D03*
Y269882D02*
D03*
Y267913D02*
D03*
Y265945D02*
D03*
Y263976D02*
D03*
X253248D02*
D03*
Y265945D02*
D03*
Y267913D02*
D03*
Y269882D02*
D03*
Y271850D02*
D03*
Y273819D02*
D03*
Y275787D02*
D03*
Y277756D02*
D03*
Y279724D02*
D03*
Y281693D02*
D03*
D26*
X190945Y306693D02*
D03*
X197244D02*
D03*
X190945Y294882D02*
D03*
X197244D02*
D03*
X190945Y300787D02*
D03*
X197244D02*
D03*
D27*
X206693Y323228D02*
D03*
Y331102D02*
D03*
X218504D02*
D03*
Y323228D02*
D03*
X230315Y331102D02*
D03*
Y323228D02*
D03*
D28*
X215354Y205669D02*
D03*
X192520Y210866D02*
D03*
X240551D02*
D03*
X288583D02*
D03*
X263386Y205669D02*
D03*
X311417D02*
D03*
D29*
X222854Y197756D02*
D03*
X217854D02*
D03*
X212854D02*
D03*
X207854D02*
D03*
Y218779D02*
D03*
X212854D02*
D03*
X217854D02*
D03*
X222854D02*
D03*
X185020D02*
D03*
X190020D02*
D03*
X195020D02*
D03*
X200020D02*
D03*
Y197756D02*
D03*
X195020D02*
D03*
X190020D02*
D03*
X185020D02*
D03*
X233051Y218779D02*
D03*
X238051D02*
D03*
X243051D02*
D03*
X248051D02*
D03*
Y197756D02*
D03*
X243051D02*
D03*
X238051D02*
D03*
X233051D02*
D03*
X281083Y218779D02*
D03*
X286083D02*
D03*
X291083D02*
D03*
X296083D02*
D03*
Y197756D02*
D03*
X291083D02*
D03*
X286083D02*
D03*
X281083D02*
D03*
X270886D02*
D03*
X265886D02*
D03*
X260886D02*
D03*
X255886D02*
D03*
Y218779D02*
D03*
X260886D02*
D03*
X265886D02*
D03*
X270886D02*
D03*
X318917Y197756D02*
D03*
X313917D02*
D03*
X308917D02*
D03*
X303917D02*
D03*
Y218779D02*
D03*
X308917D02*
D03*
X313917D02*
D03*
X318917D02*
D03*
D30*
X276077Y334195D02*
D03*
X274108D02*
D03*
X272140D02*
D03*
X270171D02*
D03*
X268203D02*
D03*
X266234D02*
D03*
X264266D02*
D03*
X262297D02*
D03*
X260329D02*
D03*
X258360D02*
D03*
X256392D02*
D03*
X254423D02*
D03*
Y302305D02*
D03*
X256392D02*
D03*
X258360D02*
D03*
X260329D02*
D03*
X262297D02*
D03*
X264266D02*
D03*
X266234D02*
D03*
X268203D02*
D03*
X270171D02*
D03*
X272140D02*
D03*
X274108D02*
D03*
X276077D02*
D03*
D31*
X249305Y329077D02*
D03*
Y327108D02*
D03*
Y325140D02*
D03*
Y323171D02*
D03*
Y321203D02*
D03*
Y319234D02*
D03*
Y317266D02*
D03*
Y315297D02*
D03*
Y313329D02*
D03*
Y311360D02*
D03*
Y309392D02*
D03*
Y307423D02*
D03*
X281195D02*
D03*
Y309392D02*
D03*
Y311360D02*
D03*
Y313329D02*
D03*
Y315297D02*
D03*
Y317266D02*
D03*
Y319234D02*
D03*
Y321203D02*
D03*
Y323171D02*
D03*
Y325140D02*
D03*
Y327108D02*
D03*
Y329077D02*
D03*
M02*
