G04*
G04 #@! TF.GenerationSoftware,Altium Limited,Altium Designer,18.1.9 (240)*
G04*
G04 Layer_Physical_Order=2*
G04 Layer_Color=16711680*
%FSLAX25Y25*%
%MOIN*%
G70*
G01*
G75*
%ADD50C,0.01181*%
%ADD51C,0.01000*%
%ADD57C,0.03937*%
%ADD58C,0.07874*%
%ADD59R,0.05906X0.05906*%
%ADD60C,0.05906*%
%ADD61C,0.01968*%
%ADD62C,0.02362*%
G36*
X366053Y357931D02*
X368546Y357263D01*
X370930Y356276D01*
X373165Y354986D01*
X375212Y353415D01*
X377037Y351590D01*
X378608Y349543D01*
X379898Y347308D01*
X380885Y344924D01*
X381553Y342431D01*
X381890Y339873D01*
X381890Y338583D01*
X381890Y338583D01*
X381890Y338583D01*
X381890Y214567D01*
X372047Y204724D01*
X311614Y204724D01*
X305709Y198819D01*
X305709Y185039D01*
X304528Y183858D01*
X297244Y183858D01*
X296063Y185039D01*
X296063Y198819D01*
X290158Y204724D01*
X279862D01*
Y216561D01*
X279882Y216574D01*
X280233Y217098D01*
X280356Y217717D01*
X280233Y218335D01*
X279882Y218859D01*
X279358Y219209D01*
X278740Y219332D01*
X278122Y219209D01*
X277598Y218859D01*
X277248Y218335D01*
X277125Y217717D01*
X277248Y217098D01*
X277598Y216574D01*
X277619Y216561D01*
Y204724D01*
X273956D01*
Y216363D01*
X273976Y216377D01*
X274326Y216901D01*
X274449Y217519D01*
X274326Y218137D01*
X273976Y218661D01*
X273452Y219012D01*
X272834Y219134D01*
X272216Y219012D01*
X271692Y218661D01*
X271342Y218137D01*
X271219Y217519D01*
X271342Y216901D01*
X271692Y216377D01*
X271713Y216363D01*
Y204724D01*
X269625D01*
Y215182D01*
X269646Y215196D01*
X269996Y215720D01*
X270119Y216338D01*
X269996Y216956D01*
X269646Y217480D01*
X269122Y217830D01*
X268503Y217953D01*
X267885Y217830D01*
X267361Y217480D01*
X267011Y216956D01*
X266888Y216338D01*
X267011Y215720D01*
X267361Y215196D01*
X267382Y215182D01*
Y204724D01*
X263720D01*
Y217348D01*
X263740Y217361D01*
X264090Y217885D01*
X264213Y218503D01*
X264090Y219122D01*
X263740Y219646D01*
X263216Y219996D01*
X262598Y220119D01*
X261980Y219996D01*
X261456Y219646D01*
X261106Y219122D01*
X260983Y218503D01*
X261106Y217885D01*
X261456Y217361D01*
X261476Y217348D01*
Y204724D01*
X248200D01*
X248009Y205186D01*
X257937Y215114D01*
X258043Y215043D01*
X258661Y214920D01*
X259280Y215043D01*
X259804Y215393D01*
X260154Y215917D01*
X260277Y216535D01*
X260154Y217154D01*
X259804Y217678D01*
X259280Y218028D01*
X258661Y218151D01*
X258043Y218028D01*
X257519Y217678D01*
X257465Y217596D01*
X257343Y217572D01*
X256979Y217329D01*
X256979Y217329D01*
X255835Y216184D01*
X255553Y216275D01*
X255343Y216400D01*
X255233Y216957D01*
X254882Y217481D01*
X254372Y217822D01*
X254300Y217876D01*
X254203Y218360D01*
X264222Y228379D01*
X275344D01*
X275358Y228358D01*
X275882Y228008D01*
X276500Y227885D01*
X277118Y228008D01*
X277642Y228358D01*
X277992Y228882D01*
X278115Y229500D01*
X277992Y230118D01*
X277642Y230642D01*
X277118Y230992D01*
X276500Y231115D01*
X275882Y230992D01*
X275358Y230642D01*
X275344Y230622D01*
X263757D01*
X263757Y230622D01*
X263328Y230536D01*
X262964Y230293D01*
X254222Y221550D01*
X253721Y221758D01*
Y224885D01*
X256726Y227890D01*
X256750Y227885D01*
X257368Y228008D01*
X257892Y228358D01*
X258242Y228882D01*
X258365Y229500D01*
X258242Y230118D01*
X257892Y230642D01*
X257368Y230992D01*
X256750Y231115D01*
X256132Y230992D01*
X255608Y230642D01*
X255258Y230118D01*
X255135Y229500D01*
X255140Y229476D01*
X252371Y226707D01*
X251909Y226898D01*
Y228372D01*
X251930Y228385D01*
X252280Y228909D01*
X252403Y229528D01*
X252280Y230146D01*
X251930Y230670D01*
X251406Y231020D01*
X250787Y231143D01*
X250169Y231020D01*
X249645Y230670D01*
X249295Y230146D01*
X249172Y229528D01*
X249295Y228909D01*
X249645Y228385D01*
X249666Y228372D01*
Y224002D01*
X248561Y222897D01*
X248100Y223144D01*
X248122Y223250D01*
Y228344D01*
X248142Y228358D01*
X248492Y228882D01*
X248615Y229500D01*
X248492Y230118D01*
X248142Y230642D01*
X247618Y230992D01*
X247000Y231115D01*
X246382Y230992D01*
X245858Y230642D01*
X245508Y230118D01*
X245385Y229500D01*
X245508Y228882D01*
X245858Y228358D01*
X245879Y228344D01*
Y223715D01*
X240774Y218610D01*
X240750Y218615D01*
X240132Y218492D01*
X239608Y218142D01*
X239258Y217618D01*
X239135Y217000D01*
X239258Y216382D01*
X239608Y215858D01*
X240005Y215592D01*
X240070Y215164D01*
X240043Y215016D01*
X239858Y214892D01*
X239508Y214368D01*
X239385Y213750D01*
X239508Y213132D01*
X239858Y212608D01*
X240382Y212258D01*
X241000Y212135D01*
X241426Y212220D01*
X241673Y211759D01*
X239882Y209968D01*
X229118D01*
X225137Y213949D01*
Y234080D01*
X225158Y234094D01*
X225508Y234618D01*
X225631Y235236D01*
X225508Y235854D01*
X225158Y236378D01*
X224634Y236729D01*
X224016Y236852D01*
X223398Y236729D01*
X222874Y236378D01*
X222523Y235854D01*
X222400Y235236D01*
X222523Y234618D01*
X222874Y234094D01*
X222894Y234080D01*
Y213484D01*
X222894Y213484D01*
X222980Y213055D01*
X223223Y212691D01*
X227860Y208054D01*
X227860Y208054D01*
X228224Y207811D01*
X228653Y207725D01*
X239689D01*
X239896Y207225D01*
X239543Y206872D01*
X220699D01*
X212148Y215423D01*
X212313Y215965D01*
X212626Y216027D01*
X213150Y216377D01*
X213500Y216901D01*
X213623Y217520D01*
X213500Y218138D01*
X213150Y218662D01*
X213129Y218676D01*
Y234080D01*
X213150Y234094D01*
X213500Y234618D01*
X213623Y235236D01*
X213500Y235854D01*
X213150Y236378D01*
X212626Y236729D01*
X212008Y236852D01*
X211390Y236729D01*
X210866Y236378D01*
X210515Y235854D01*
X210393Y235236D01*
X210515Y234618D01*
X210866Y234094D01*
X210886Y234080D01*
Y218676D01*
X210866Y218662D01*
X210515Y218138D01*
X210453Y217824D01*
X209911Y217660D01*
X201122Y226449D01*
Y234080D01*
X201142Y234094D01*
X201492Y234618D01*
X201615Y235236D01*
X201492Y235854D01*
X201142Y236378D01*
X200618Y236729D01*
X200000Y236852D01*
X199382Y236729D01*
X198858Y236378D01*
X198508Y235854D01*
X198385Y235236D01*
X198508Y234618D01*
X198858Y234094D01*
X198878Y234080D01*
Y225984D01*
X198878Y225984D01*
X198964Y225555D01*
X199207Y225191D01*
X219174Y205224D01*
D01*
X219441Y204957D01*
X219441Y204957D01*
X219805Y204714D01*
X220234Y204628D01*
X221260D01*
X221260Y201181D01*
X232283Y190157D01*
X232283Y184843D01*
X231102Y183661D01*
X220275Y183661D01*
X199213Y204724D01*
X179528D01*
X106299Y277953D01*
X106299Y338583D01*
X106299Y339873D01*
X106636Y342431D01*
X107304Y344924D01*
X108291Y347308D01*
X109581Y349542D01*
X111152Y351589D01*
X112977Y353414D01*
X115024Y354985D01*
X117259Y356275D01*
X119642Y357263D01*
X122135Y357930D01*
X124693Y358267D01*
X125983Y358267D01*
X125983Y358267D01*
X362205Y358268D01*
X363495Y358268D01*
X366053Y357931D01*
D02*
G37*
G36*
X133858Y227165D02*
X133858Y194094D01*
X174409Y153543D01*
X360276Y153543D01*
X377953Y135866D01*
X377953Y125984D01*
X374016Y122047D01*
X165436D01*
X111417Y176901D01*
Y227953D01*
X117716Y234252D01*
X126772Y234252D01*
X133858Y227165D01*
D02*
G37*
%LPC*%
G36*
X240644Y352796D02*
X240644Y352796D01*
X192384D01*
X192384Y352796D01*
X191954Y352711D01*
X191590Y352468D01*
X151110Y311988D01*
X115586D01*
X115308Y312658D01*
X114739Y313400D01*
X113996Y313969D01*
X113132Y314327D01*
X112205Y314450D01*
X111277Y314327D01*
X110413Y313969D01*
X109671Y313400D01*
X109101Y312658D01*
X108743Y311794D01*
X108621Y310866D01*
X108743Y309939D01*
X109101Y309074D01*
X109671Y308332D01*
X110413Y307763D01*
X111277Y307405D01*
X112205Y307283D01*
X113132Y307405D01*
X113996Y307763D01*
X114739Y308332D01*
X115308Y309074D01*
X115586Y309745D01*
X151575D01*
X151575Y309745D01*
X152004Y309830D01*
X152368Y310073D01*
X192848Y350553D01*
X203432D01*
X203623Y350091D01*
X155520Y301988D01*
X115586D01*
X115308Y302658D01*
X114739Y303400D01*
X113996Y303970D01*
X113132Y304327D01*
X112205Y304450D01*
X111277Y304327D01*
X110413Y303970D01*
X109671Y303400D01*
X109101Y302658D01*
X108743Y301794D01*
X108621Y300866D01*
X108743Y299939D01*
X109101Y299074D01*
X109671Y298332D01*
X110413Y297763D01*
X111277Y297405D01*
X112205Y297283D01*
X113132Y297405D01*
X113996Y297763D01*
X114739Y298332D01*
X115308Y299074D01*
X115586Y299745D01*
X155984D01*
X155984Y299745D01*
X156413Y299830D01*
X156777Y300073D01*
X205658Y348953D01*
X225406D01*
X225740Y348453D01*
X225729Y348425D01*
Y301181D01*
X225919Y300722D01*
X226378Y300532D01*
X234252D01*
X234711Y300722D01*
X234901Y301181D01*
Y348425D01*
X234890Y348453D01*
X235224Y348953D01*
X239375D01*
X259552Y328777D01*
X259390Y328231D01*
X258958Y327942D01*
X258608Y327418D01*
X258485Y326800D01*
X258608Y326182D01*
X258958Y325658D01*
X258979Y325644D01*
Y324911D01*
X258931Y324835D01*
X258615Y324575D01*
X258503Y324535D01*
X258100Y324615D01*
X257936Y324583D01*
X257583Y324936D01*
X257615Y325100D01*
X257492Y325718D01*
X257142Y326242D01*
X256618Y326592D01*
X256000Y326715D01*
X255382Y326592D01*
X254858Y326242D01*
X254508Y325718D01*
X254385Y325100D01*
X254508Y324482D01*
X254794Y324053D01*
Y317322D01*
X254794Y317321D01*
X254880Y316892D01*
X255123Y316529D01*
X256544Y315107D01*
Y314316D01*
X256044Y314165D01*
X255892Y314392D01*
X255368Y314742D01*
X254750Y314865D01*
X254132Y314742D01*
X253608Y314392D01*
X253258Y313868D01*
X253135Y313250D01*
X253140Y313226D01*
X252873Y312959D01*
X252630Y312595D01*
X252544Y312166D01*
X252544Y312166D01*
Y270547D01*
X252544Y270547D01*
X252630Y270118D01*
X252873Y269754D01*
X254689Y267938D01*
X254684Y267913D01*
X254807Y267295D01*
X255157Y266771D01*
X255681Y266421D01*
X256299Y266298D01*
X256324Y266303D01*
X260375Y262251D01*
X260343Y262035D01*
X260197Y261752D01*
X256764D01*
X244822Y273693D01*
Y310261D01*
X244843Y310275D01*
X245193Y310799D01*
X245316Y311417D01*
X245193Y312035D01*
X244843Y312560D01*
X244319Y312910D01*
X243701Y313033D01*
X243083Y312910D01*
X242559Y312560D01*
X242209Y312035D01*
X242086Y311417D01*
X242209Y310799D01*
X242559Y310275D01*
X242579Y310261D01*
Y273228D01*
X242579Y273228D01*
X242665Y272799D01*
X242908Y272435D01*
X255506Y259837D01*
X255506Y259837D01*
X255870Y259594D01*
X256299Y259508D01*
X256299Y259508D01*
X311249D01*
X311375Y259318D01*
X311900Y258968D01*
X312518Y258845D01*
X313136Y258968D01*
X313660Y259318D01*
X314010Y259842D01*
X314133Y260461D01*
X314010Y261079D01*
X313660Y261603D01*
X313136Y261953D01*
X312518Y262076D01*
X311900Y261953D01*
X311598Y261752D01*
X296692D01*
X296547Y262035D01*
X296515Y262251D01*
X301187Y266923D01*
X301187Y266923D01*
X301430Y267287D01*
X301515Y267717D01*
Y281819D01*
X306961Y287264D01*
X311515D01*
X311900Y287008D01*
X312518Y286885D01*
X313136Y287008D01*
X313660Y287358D01*
X314010Y287882D01*
X314133Y288500D01*
X314010Y289118D01*
X313660Y289642D01*
X313136Y289992D01*
X312518Y290115D01*
X311900Y289992D01*
X311375Y289642D01*
X311285Y289507D01*
X306496D01*
X306067Y289422D01*
X305703Y289179D01*
X305703Y289179D01*
X299601Y283077D01*
X299358Y282713D01*
X299272Y282283D01*
X299272Y282283D01*
Y268181D01*
X295205Y264114D01*
X281398D01*
X281318Y264608D01*
X281842Y264958D01*
X282192Y265482D01*
X282315Y266100D01*
X282315Y266100D01*
X282316Y266104D01*
X282400Y266585D01*
X283018Y266708D01*
X283542Y267058D01*
X283892Y267582D01*
X284015Y268200D01*
X283892Y268818D01*
X283542Y269342D01*
X283442Y269409D01*
X283436Y269440D01*
X283193Y269803D01*
X283193Y269803D01*
X280473Y272524D01*
X280708Y272987D01*
X281403Y273125D01*
X281992Y273518D01*
X282386Y274108D01*
X282524Y274803D01*
X282386Y275498D01*
X282021Y276044D01*
X282070Y276251D01*
X282207Y276544D01*
X282784D01*
X282784Y276544D01*
X283213Y276630D01*
X283577Y276873D01*
X283666Y276962D01*
X283858Y276924D01*
X284553Y277062D01*
X285142Y277456D01*
X285386Y277821D01*
X285886Y277670D01*
Y270661D01*
X285858Y270642D01*
X285508Y270118D01*
X285385Y269500D01*
X285508Y268882D01*
X285858Y268358D01*
X286382Y268008D01*
X287000Y267885D01*
X287314Y267947D01*
X287509Y267476D01*
X287458Y267442D01*
X287108Y266918D01*
X286985Y266300D01*
X287108Y265682D01*
X287458Y265158D01*
X287982Y264808D01*
X288600Y264685D01*
X289218Y264808D01*
X289742Y265158D01*
X290092Y265682D01*
X290215Y266300D01*
X290198Y266388D01*
X290286Y266521D01*
X290372Y266950D01*
X290371Y266950D01*
Y310844D01*
X290392Y310858D01*
X290742Y311382D01*
X290865Y312000D01*
X290742Y312618D01*
X290392Y313142D01*
X290105Y313334D01*
Y313916D01*
X290392Y314108D01*
X290742Y314632D01*
X290865Y315250D01*
X290742Y315868D01*
X290392Y316392D01*
X289868Y316742D01*
X289250Y316865D01*
X288632Y316742D01*
X288108Y316392D01*
X287758Y315868D01*
X287635Y315250D01*
X287640Y315226D01*
X286215Y313801D01*
X285972Y313437D01*
X285886Y313008D01*
X285886Y313008D01*
Y279811D01*
X285386Y279659D01*
X285142Y280024D01*
X284553Y280418D01*
X283858Y280556D01*
X283163Y280418D01*
X282574Y280024D01*
X282181Y279435D01*
X282052Y278787D01*
X279568D01*
X279273Y279287D01*
X279365Y279750D01*
X279242Y280368D01*
X278892Y280892D01*
X278368Y281242D01*
X277750Y281365D01*
X277726Y281360D01*
X273122Y285965D01*
Y307818D01*
X273563Y308054D01*
X273632Y308008D01*
X274250Y307885D01*
X274868Y308008D01*
X275392Y308358D01*
X275742Y308882D01*
X275865Y309500D01*
X275860Y309524D01*
X283077Y316740D01*
X283077Y316740D01*
X283320Y317104D01*
X283405Y317533D01*
X283405Y317533D01*
Y325126D01*
X290032Y331752D01*
X299142D01*
X339168Y291727D01*
X339531Y291483D01*
X339961Y291398D01*
X339961Y291398D01*
X373128D01*
X373275Y291043D01*
X373844Y290301D01*
X374586Y289731D01*
X375450Y289373D01*
X376378Y289251D01*
X377305Y289373D01*
X378170Y289731D01*
X378912Y290301D01*
X379481Y291043D01*
X379839Y291907D01*
X379961Y292835D01*
X379839Y293762D01*
X379481Y294626D01*
X378912Y295369D01*
X378170Y295938D01*
X377305Y296296D01*
X376378Y296418D01*
X375450Y296296D01*
X374586Y295938D01*
X373844Y295369D01*
X373275Y294626D01*
X372917Y293762D01*
X372901Y293641D01*
X340425D01*
X300399Y333667D01*
X300036Y333910D01*
X299606Y333996D01*
X299606Y333996D01*
X289567D01*
X289138Y333910D01*
X288774Y333667D01*
X288774Y333667D01*
X281490Y326384D01*
X281247Y326020D01*
X281162Y325590D01*
X281162Y325590D01*
Y317998D01*
X274274Y311110D01*
X274250Y311115D01*
X273632Y310992D01*
X273563Y310946D01*
X273122Y311182D01*
Y312044D01*
X273142Y312058D01*
X273492Y312582D01*
X273615Y313200D01*
X273492Y313818D01*
X273142Y314342D01*
X272618Y314692D01*
X272000Y314815D01*
X271892Y314794D01*
X271506Y315111D01*
Y315920D01*
X272976Y317390D01*
X273000Y317385D01*
X273618Y317508D01*
X274142Y317858D01*
X274492Y318382D01*
X274615Y319000D01*
X274492Y319618D01*
X274142Y320142D01*
X273618Y320492D01*
X273000Y320615D01*
X272886Y320593D01*
X272639Y321053D01*
X272976Y321390D01*
X273000Y321385D01*
X273618Y321508D01*
X274142Y321858D01*
X274492Y322382D01*
X274615Y323000D01*
X274492Y323618D01*
X274142Y324142D01*
X273618Y324492D01*
X273000Y324615D01*
X272382Y324492D01*
X271858Y324142D01*
X271508Y323618D01*
X271385Y323000D01*
X271390Y322976D01*
X268321Y319908D01*
X267822Y320115D01*
Y325619D01*
X267822Y325619D01*
X267736Y326048D01*
X267493Y326412D01*
X267493Y326412D01*
X241437Y352468D01*
X241073Y352711D01*
X240644Y352796D01*
D02*
G37*
G36*
X368110Y351025D02*
X366835Y350900D01*
X365609Y350528D01*
X364478Y349923D01*
X363488Y349111D01*
X362675Y348120D01*
X362071Y346990D01*
X361699Y345763D01*
X361573Y344488D01*
X361699Y343213D01*
X362071Y341987D01*
X362675Y340856D01*
X363488Y339866D01*
X364478Y339053D01*
X365609Y338449D01*
X366835Y338077D01*
X368110Y337951D01*
X369386Y338077D01*
X370612Y338449D01*
X371742Y339053D01*
X372733Y339866D01*
X373546Y340856D01*
X374150Y341987D01*
X374522Y343213D01*
X374647Y344488D01*
X374522Y345763D01*
X374150Y346990D01*
X373546Y348120D01*
X372733Y349111D01*
X371742Y349923D01*
X370612Y350528D01*
X369386Y350900D01*
X368110Y351025D01*
D02*
G37*
G36*
X120079D02*
X118803Y350900D01*
X117577Y350528D01*
X116447Y349923D01*
X115456Y349111D01*
X114643Y348120D01*
X114039Y346990D01*
X113667Y345763D01*
X113542Y344488D01*
X113667Y343213D01*
X114039Y341987D01*
X114643Y340856D01*
X115456Y339866D01*
X116447Y339053D01*
X117577Y338449D01*
X118803Y338077D01*
X120079Y337951D01*
X121354Y338077D01*
X122580Y338449D01*
X123711Y339053D01*
X124701Y339866D01*
X125514Y340856D01*
X126118Y341987D01*
X126490Y343213D01*
X126616Y344488D01*
X126490Y345763D01*
X126118Y346990D01*
X125514Y348120D01*
X124701Y349111D01*
X123711Y349923D01*
X122580Y350528D01*
X121354Y350900D01*
X120079Y351025D01*
D02*
G37*
G36*
X379931Y326387D02*
X372825D01*
Y319282D01*
X379931D01*
Y326387D01*
D02*
G37*
G36*
X115758Y324419D02*
X108652D01*
Y317313D01*
X115758D01*
Y324419D01*
D02*
G37*
G36*
X376378Y316418D02*
X375450Y316296D01*
X374586Y315938D01*
X373844Y315369D01*
X373275Y314626D01*
X372917Y313762D01*
X372795Y312835D01*
X372917Y311907D01*
X373275Y311043D01*
X373844Y310301D01*
X374586Y309731D01*
X375450Y309373D01*
X376378Y309251D01*
X377305Y309373D01*
X378170Y309731D01*
X378912Y310301D01*
X379481Y311043D01*
X379839Y311907D01*
X379961Y312835D01*
X379839Y313762D01*
X379481Y314626D01*
X378912Y315369D01*
X378170Y315938D01*
X377305Y316296D01*
X376378Y316418D01*
D02*
G37*
G36*
X314567Y339804D02*
X313949Y339681D01*
X313425Y339331D01*
X313075Y338807D01*
X312952Y338189D01*
X313075Y337571D01*
X313425Y337047D01*
X313445Y337033D01*
Y334252D01*
X313445Y334252D01*
X313531Y333823D01*
X313774Y333459D01*
X345191Y302042D01*
X345555Y301799D01*
X345984Y301713D01*
X345984Y301713D01*
X372997D01*
X373275Y301043D01*
X373844Y300301D01*
X374586Y299731D01*
X375450Y299373D01*
X376378Y299251D01*
X377305Y299373D01*
X378170Y299731D01*
X378912Y300301D01*
X379481Y301043D01*
X379839Y301907D01*
X379961Y302835D01*
X379839Y303762D01*
X379481Y304626D01*
X378912Y305368D01*
X378170Y305938D01*
X377305Y306296D01*
X376378Y306418D01*
X375450Y306296D01*
X374586Y305938D01*
X373844Y305368D01*
X373275Y304626D01*
X372997Y303956D01*
X346449D01*
X315688Y334717D01*
Y337033D01*
X315709Y337047D01*
X316059Y337571D01*
X316182Y338189D01*
X316059Y338807D01*
X315709Y339331D01*
X315185Y339681D01*
X314567Y339804D01*
D02*
G37*
G36*
X112705Y294787D02*
Y291366D01*
X116126D01*
X116056Y291898D01*
X115657Y292860D01*
X115024Y293685D01*
X114198Y294319D01*
X113237Y294717D01*
X112705Y294787D01*
D02*
G37*
G36*
X111705D02*
X111173Y294717D01*
X110211Y294319D01*
X109386Y293685D01*
X108752Y292860D01*
X108354Y291898D01*
X108284Y291366D01*
X111705D01*
Y294787D01*
D02*
G37*
G36*
X116126Y290366D02*
X112705D01*
Y286945D01*
X113237Y287015D01*
X114198Y287413D01*
X115024Y288047D01*
X115657Y288873D01*
X116056Y289834D01*
X116126Y290366D01*
D02*
G37*
G36*
X111705D02*
X108284D01*
X108354Y289834D01*
X108752Y288873D01*
X109386Y288047D01*
X110211Y287413D01*
X111173Y287015D01*
X111705Y286945D01*
Y290366D01*
D02*
G37*
G36*
X287402Y325631D02*
X286783Y325508D01*
X286259Y325158D01*
X285909Y324634D01*
X285786Y324016D01*
X285909Y323398D01*
X286259Y322874D01*
X286783Y322523D01*
X287402Y322400D01*
X287426Y322405D01*
X318760Y291071D01*
Y285307D01*
X316071Y282618D01*
X313676D01*
X313660Y282642D01*
X313136Y282992D01*
X312518Y283115D01*
X311900Y282992D01*
X311375Y282642D01*
X311025Y282118D01*
X310902Y281500D01*
X311025Y280882D01*
X311375Y280358D01*
X311900Y280008D01*
X312518Y279885D01*
X313136Y280008D01*
X313660Y280358D01*
X313671Y280375D01*
X316535D01*
X316535Y280375D01*
X316965Y280460D01*
X317329Y280703D01*
X320675Y284049D01*
X320675Y284050D01*
X320918Y284413D01*
X321004Y284842D01*
X321003Y284843D01*
Y291535D01*
X321004Y291535D01*
X320918Y291965D01*
X320675Y292329D01*
X320675Y292329D01*
X289012Y323991D01*
X289017Y324016D01*
X288894Y324634D01*
X288544Y325158D01*
X288020Y325508D01*
X287402Y325631D01*
D02*
G37*
G36*
X376378Y286418D02*
X375450Y286296D01*
X374586Y285938D01*
X373844Y285368D01*
X373275Y284626D01*
X372917Y283762D01*
X372795Y282835D01*
X372917Y281907D01*
X373275Y281043D01*
X373844Y280301D01*
X374586Y279731D01*
X375450Y279373D01*
X376378Y279251D01*
X377305Y279373D01*
X378170Y279731D01*
X378912Y280301D01*
X379481Y281043D01*
X379839Y281907D01*
X379961Y282835D01*
X379839Y283762D01*
X379481Y284626D01*
X378912Y285368D01*
X378170Y285938D01*
X377305Y286296D01*
X376378Y286418D01*
D02*
G37*
G36*
X376878Y276756D02*
Y273335D01*
X380299D01*
X380229Y273867D01*
X379831Y274828D01*
X379197Y275654D01*
X378371Y276287D01*
X377410Y276686D01*
X376878Y276756D01*
D02*
G37*
G36*
X375878Y276756D02*
X375346Y276686D01*
X374384Y276287D01*
X373559Y275654D01*
X372925Y274828D01*
X372527Y273867D01*
X372457Y273335D01*
X375878D01*
Y276756D01*
D02*
G37*
G36*
X312518Y276115D02*
X311900Y275992D01*
X311375Y275642D01*
X311025Y275118D01*
X310902Y274500D01*
X311025Y273882D01*
X311375Y273358D01*
X311900Y273008D01*
X312518Y272885D01*
X313136Y273008D01*
X313660Y273358D01*
X314010Y273882D01*
X314133Y274500D01*
X314010Y275118D01*
X313660Y275642D01*
X313136Y275992D01*
X312518Y276115D01*
D02*
G37*
G36*
X380299Y272335D02*
X376878D01*
Y268914D01*
X377410Y268984D01*
X378371Y269382D01*
X379197Y270016D01*
X379831Y270841D01*
X380229Y271803D01*
X380299Y272335D01*
D02*
G37*
G36*
X375878D02*
X372457D01*
X372527Y271803D01*
X372925Y270841D01*
X373559Y270016D01*
X374384Y269382D01*
X375346Y268984D01*
X375878Y268914D01*
Y272335D01*
D02*
G37*
G36*
X312518Y269076D02*
X311900Y268953D01*
X311375Y268603D01*
X311025Y268079D01*
X310902Y267461D01*
X311025Y266843D01*
X311375Y266318D01*
X311900Y265968D01*
X312518Y265845D01*
X313136Y265968D01*
X313660Y266318D01*
X314010Y266843D01*
X314133Y267461D01*
X314010Y268079D01*
X313660Y268603D01*
X313136Y268953D01*
X312518Y269076D01*
D02*
G37*
%LPD*%
G36*
X267128Y314210D02*
Y296715D01*
X264774Y294360D01*
X264750Y294365D01*
X264256Y294267D01*
X263756Y294547D01*
Y311603D01*
X264256Y311953D01*
X264600Y311885D01*
X265218Y312008D01*
X265742Y312358D01*
X266092Y312882D01*
X266215Y313500D01*
X266096Y314098D01*
X266221Y314314D01*
X266368Y314539D01*
X266745Y314556D01*
X267128Y314210D01*
D02*
G37*
G36*
X234252Y301181D02*
X226378D01*
Y348425D01*
X234252D01*
Y301181D01*
D02*
G37*
G36*
X271944Y265207D02*
X271944Y265207D01*
X272308Y264964D01*
X272737Y264878D01*
X272737Y264879D01*
X275343D01*
X275346Y264875D01*
X275358Y264858D01*
X275375Y264846D01*
X275632Y264589D01*
X275480Y264114D01*
X261685D01*
X260770Y265028D01*
X260935Y265571D01*
X261247Y265633D01*
X261772Y265983D01*
X262122Y266507D01*
X262245Y267126D01*
X262122Y267744D01*
X261772Y268268D01*
X261247Y268618D01*
X261149Y268637D01*
X256872Y272915D01*
Y279573D01*
X257371Y279780D01*
X271944Y265207D01*
D02*
G37*
D50*
X242719Y234573D02*
D03*
Y239691D02*
D03*
Y244809D02*
D03*
Y249927D02*
D03*
X247837Y234573D02*
D03*
Y239691D02*
D03*
Y244809D02*
D03*
Y249927D02*
D03*
X252955Y234573D02*
D03*
Y239691D02*
D03*
Y244809D02*
D03*
Y249927D02*
D03*
X258073Y234573D02*
D03*
Y239691D02*
D03*
Y244809D02*
D03*
Y249927D02*
D03*
X263191Y234573D02*
D03*
Y239691D02*
D03*
Y244809D02*
D03*
Y249927D02*
D03*
X268309Y234573D02*
D03*
Y239691D02*
D03*
Y244809D02*
D03*
Y249927D02*
D03*
X288781Y234573D02*
D03*
Y239691D02*
D03*
Y244809D02*
D03*
Y249927D02*
D03*
X283663Y234573D02*
D03*
Y239691D02*
D03*
Y244809D02*
D03*
Y249927D02*
D03*
X273427Y234573D02*
D03*
Y239691D02*
D03*
Y244809D02*
D03*
Y249927D02*
D03*
X278545D02*
D03*
Y244809D02*
D03*
Y239691D02*
D03*
Y234573D02*
D03*
D51*
X224016Y213484D02*
Y235236D01*
Y213484D02*
X228653Y208847D01*
X212008Y217520D02*
Y235236D01*
X200000Y225984D02*
X220234Y205750D01*
X200000Y225984D02*
Y235236D01*
X262598Y197598D02*
Y218503D01*
X240250Y175250D02*
X262598Y197598D01*
X268503Y193788D02*
Y216338D01*
X272834Y197344D02*
Y217519D01*
X278740Y193702D02*
Y217717D01*
X278740Y193701D02*
X278740Y193702D01*
X257772Y216535D02*
X258661D01*
X263757Y229500D02*
X276500D01*
X237236Y196000D02*
X257772Y216535D01*
X240007Y205750D02*
X263757Y229500D01*
X253543Y216339D02*
X253740D01*
X235289Y198084D02*
X253543Y216339D01*
X278740Y193701D02*
X296063Y176378D01*
X272834Y197344D02*
X295928Y174250D01*
X311250D01*
X268503Y193788D02*
X274250Y188041D01*
Y187250D02*
Y188041D01*
X228399Y198084D02*
X235289D01*
X220234Y205750D02*
X240007D01*
X260629Y267126D02*
Y267571D01*
X255750Y272450D02*
X260629Y267571D01*
X253666Y270547D02*
X256299Y267913D01*
X253666Y270547D02*
Y312166D01*
X261221Y262992D02*
X295669D01*
X256299Y267913D02*
X261221Y262992D01*
X312348Y260630D02*
X312518Y260461D01*
X256299Y260630D02*
X312348D01*
X312598Y281496D02*
X316535D01*
X319882Y284842D01*
Y291535D01*
X300394Y282283D02*
X306496Y288386D01*
X312402D01*
X287402Y324016D02*
X319882Y291535D01*
X300394Y267717D02*
Y282283D01*
X112205Y310630D02*
X112441Y310866D01*
X151575D01*
X112205Y300787D02*
X112284Y300866D01*
X155984D01*
X345984Y302835D02*
X376378D01*
X314567Y334252D02*
X345984Y302835D01*
X314567Y334252D02*
Y338189D01*
X339961Y292520D02*
X375984D01*
X299606Y332874D02*
X339961Y292520D01*
X289567Y332874D02*
X299606D01*
X250787Y223537D02*
Y229528D01*
X241000Y213750D02*
X250787Y223537D01*
X252600Y221100D02*
Y225350D01*
X252500Y221000D02*
X252600Y221100D01*
Y225350D02*
X256750Y229500D01*
X266800Y287752D02*
X276887Y277666D01*
X282784D01*
X283858Y278740D01*
X266800Y287752D02*
Y289500D01*
X264716Y285284D02*
Y292716D01*
Y285284D02*
X275197Y274803D01*
X264716Y292716D02*
X264750Y292750D01*
X266800Y289500D02*
Y289550D01*
X269850Y292600D01*
Y314140D01*
X257916Y322816D02*
X258100Y323000D01*
X257916Y317584D02*
Y322816D01*
X257834Y280903D02*
Y310363D01*
Y280903D02*
X272737Y266000D01*
X259434Y281566D02*
Y311026D01*
Y281566D02*
X272750Y268250D01*
X272772Y272753D02*
X278657D01*
X282400Y269010D01*
Y268200D02*
Y269010D01*
X268784Y315337D02*
Y318784D01*
X273000Y323000D01*
X272000Y285500D02*
Y313200D01*
Y285500D02*
X277750Y279750D01*
X239840Y350075D02*
X264600Y325315D01*
Y313500D02*
Y325315D01*
X151575Y310866D02*
X192384Y351675D01*
X240644D01*
X266700Y325619D01*
Y316200D02*
Y325619D01*
X280234Y266566D02*
Y268913D01*
X277994Y271153D02*
X280234Y268913D01*
X272110Y271153D02*
X277994D01*
X260866Y311857D02*
Y320384D01*
X260000Y321250D02*
X260866Y320384D01*
X261034Y282228D02*
Y311689D01*
Y282228D02*
X272110Y271153D01*
X260100Y324706D02*
X262466Y322340D01*
Y312520D02*
Y322340D01*
X262634Y282891D02*
Y312351D01*
Y282891D02*
X272772Y272753D01*
X253666Y312166D02*
X254750Y313250D01*
X257916Y317584D02*
X259266Y316234D01*
X255916Y317321D02*
Y325016D01*
Y317321D02*
X257666Y315571D01*
X272737Y266000D02*
X276500D01*
X255916Y325016D02*
X256000Y325100D01*
X262466Y312520D02*
X262634Y312351D01*
X260866Y311857D02*
X261034Y311689D01*
X259266Y311195D02*
Y316234D01*
Y311195D02*
X259434Y311026D01*
X257666Y310532D02*
Y315571D01*
Y310532D02*
X257834Y310363D01*
X272900Y268100D02*
X278100D01*
X272750Y268250D02*
X272900Y268100D01*
X260100Y324706D02*
Y326800D01*
X205193Y350075D02*
X239840D01*
X270384Y316384D02*
X273000Y319000D01*
X270384Y314674D02*
Y316384D01*
X269850Y314140D02*
X270384Y314674D01*
X268250Y314802D02*
X268784Y315337D01*
X268250Y296250D02*
Y314802D01*
X280234Y266566D02*
X280700Y266100D01*
X255750Y272450D02*
Y309500D01*
X289250Y266950D02*
Y312000D01*
X288600Y266300D02*
X289250Y266950D01*
X244250Y193250D02*
X251100Y200100D01*
Y203100D01*
X228346Y198031D02*
X228399Y198084D01*
X230000Y196000D02*
X237236D01*
X258250Y196250D02*
Y202250D01*
X155984Y300866D02*
X205193Y350075D01*
X376378Y302756D02*
Y302835D01*
X282283Y325590D02*
X289567Y332874D01*
X295669Y262992D02*
X300394Y267717D01*
X275197Y274803D02*
X280708D01*
X287008Y313008D02*
X289250Y315250D01*
X287008Y269508D02*
Y313008D01*
X287000Y269500D02*
X287008Y269508D01*
X243701Y273228D02*
X256299Y260630D01*
X243701Y273228D02*
Y311417D01*
X282283Y317533D02*
Y325590D01*
X274250Y309500D02*
X282283Y317533D01*
X334646Y176378D02*
X345276Y187008D01*
X296063Y176378D02*
X334646D01*
X232472Y170472D02*
X258250Y196250D01*
X203028Y170472D02*
X232472D01*
X199250Y174250D02*
X203028Y170472D01*
X240250Y174250D02*
Y175250D01*
X228653Y208847D02*
X240347D01*
X252500Y221000D01*
X254000Y185750D02*
X260500Y179250D01*
X285250D01*
X256250Y187250D02*
X261250Y182250D01*
X278250D01*
X236750Y192500D02*
X241000Y188250D01*
X264750Y292750D02*
X268250Y296250D01*
X247000Y223250D02*
Y229500D01*
X240750Y217000D02*
X247000Y223250D01*
D57*
X120079Y104331D02*
D03*
Y344488D02*
D03*
X368110D02*
D03*
Y104331D02*
D03*
D58*
X280935Y106000D02*
D03*
X261250D02*
D03*
X241565D02*
D03*
X122835Y246457D02*
D03*
Y226772D02*
D03*
D59*
X112205Y320866D02*
D03*
X376378Y322835D02*
D03*
D60*
X112205Y310866D02*
D03*
Y300866D02*
D03*
Y290866D02*
D03*
X376378Y272835D02*
D03*
Y282835D02*
D03*
Y292835D02*
D03*
Y302835D02*
D03*
Y312835D02*
D03*
D61*
X224016Y235236D02*
D03*
X212008D02*
D03*
X200000D02*
D03*
X262598Y218503D02*
D03*
X268503Y216338D02*
D03*
X272834Y217519D02*
D03*
X278740Y217717D02*
D03*
X258661Y216535D02*
D03*
X253740Y216339D02*
D03*
X276500Y229500D02*
D03*
X260629Y267126D02*
D03*
X256299Y267913D02*
D03*
X167520Y344094D02*
D03*
X177165Y284842D02*
D03*
X227417Y213356D02*
D03*
X231354Y236978D02*
D03*
X212008Y217520D02*
D03*
X250787Y229528D02*
D03*
X297638Y189567D02*
D03*
X304134D02*
D03*
X300984D02*
D03*
X297835Y185630D02*
D03*
X299410Y187598D02*
D03*
X302559D02*
D03*
X303937Y185630D02*
D03*
X300984D02*
D03*
X224803Y185433D02*
D03*
Y189370D02*
D03*
X230315D02*
D03*
X227559D02*
D03*
Y185433D02*
D03*
X230315D02*
D03*
X226181Y187402D02*
D03*
X228937D02*
D03*
X266800Y289500D02*
D03*
X287400Y327100D02*
D03*
X258100Y323000D02*
D03*
X278100Y268100D02*
D03*
X282400Y268200D02*
D03*
X260100Y326800D02*
D03*
X272000Y313200D02*
D03*
X266700Y316200D02*
D03*
X264600Y313500D02*
D03*
X260000Y321250D02*
D03*
X256000Y325100D02*
D03*
X241500Y274500D02*
D03*
X280700Y266100D02*
D03*
X255750Y309500D02*
D03*
X288600Y266300D02*
D03*
X251100Y203100D02*
D03*
X230000Y196000D02*
D03*
X228346Y198031D02*
D03*
X258250Y202250D02*
D03*
X227937Y344530D02*
D03*
Y346892D02*
D03*
X230299Y344530D02*
D03*
Y346892D02*
D03*
X232661Y344530D02*
D03*
Y346892D02*
D03*
X224000Y330750D02*
D03*
X314567Y338189D02*
D03*
X250394Y284252D02*
D03*
X277165Y285433D02*
D03*
X287402Y324016D02*
D03*
X294094Y274016D02*
D03*
X230299Y302797D02*
D03*
Y305159D02*
D03*
X232661D02*
D03*
X227937D02*
D03*
X232661Y302797D02*
D03*
X227953Y302756D02*
D03*
X243701Y311417D02*
D03*
X241000Y213750D02*
D03*
X256750Y229500D02*
D03*
X221000Y293250D02*
D03*
X209000D02*
D03*
X197000Y293500D02*
D03*
X339768Y267461D02*
D03*
Y260461D02*
D03*
Y288250D02*
D03*
Y281250D02*
D03*
Y274250D02*
D03*
X257250Y354000D02*
D03*
X262500Y340500D02*
D03*
X283500Y340000D02*
D03*
X303250Y325000D02*
D03*
X244250Y193250D02*
D03*
X254000Y185750D02*
D03*
X256250Y187250D02*
D03*
X236750Y192500D02*
D03*
X241000Y188250D02*
D03*
X236750Y315000D02*
D03*
X224000Y305750D02*
D03*
X240750Y263750D02*
D03*
X254750Y313250D02*
D03*
X273000Y323000D02*
D03*
X264750Y292750D02*
D03*
X273000Y319000D02*
D03*
X277750Y279750D02*
D03*
X274250Y309500D02*
D03*
X289250Y312000D02*
D03*
Y315250D02*
D03*
X287000Y269500D02*
D03*
X312518Y267461D02*
D03*
X240750Y217000D02*
D03*
X247000Y229500D02*
D03*
X276500Y266000D02*
D03*
X312518Y260461D02*
D03*
Y274500D02*
D03*
Y281500D02*
D03*
Y288500D02*
D03*
X285250Y179250D02*
D03*
X278250Y182250D02*
D03*
X274250Y187250D02*
D03*
X199250Y174250D02*
D03*
X311250D02*
D03*
X240250D02*
D03*
X345250Y187250D02*
D03*
D62*
X280708Y274803D02*
D03*
X283858Y278740D02*
D03*
X234000Y135000D02*
D03*
Y132000D02*
D03*
X231000Y135000D02*
D03*
Y138000D02*
D03*
X228000D02*
D03*
X225000Y141000D02*
D03*
Y144000D02*
D03*
Y138000D02*
D03*
Y135000D02*
D03*
X228000D02*
D03*
Y132000D02*
D03*
X225000D02*
D03*
X231000D02*
D03*
X228000Y141000D02*
D03*
X305000Y135000D02*
D03*
Y132000D02*
D03*
X302000Y135000D02*
D03*
Y138000D02*
D03*
X299000D02*
D03*
X296000Y141000D02*
D03*
Y144000D02*
D03*
Y138000D02*
D03*
Y135000D02*
D03*
X299000D02*
D03*
Y132000D02*
D03*
X296000D02*
D03*
X302000D02*
D03*
X299000Y141000D02*
D03*
X370000D02*
D03*
X373000Y132000D02*
D03*
X367000D02*
D03*
X370000D02*
D03*
Y135000D02*
D03*
X367000D02*
D03*
Y138000D02*
D03*
Y144000D02*
D03*
Y141000D02*
D03*
X370000Y138000D02*
D03*
X373000D02*
D03*
Y135000D02*
D03*
X376000Y132000D02*
D03*
Y135000D02*
D03*
M02*
