G04*
G04 #@! TF.GenerationSoftware,Altium Limited,Altium Designer,19.1.7 (138)*
G04*
G04 Layer_Color=65535*
%FSLAX25Y25*%
%MOIN*%
G70*
G01*
G75*
%ADD10C,0.00600*%
%ADD11C,0.00787*%
%ADD12C,0.00984*%
%ADD13C,0.02362*%
%ADD14C,0.00390*%
%ADD15C,0.01181*%
%ADD16C,0.00492*%
%ADD17C,0.00394*%
%ADD18C,0.00800*%
D10*
X215808Y257087D02*
G03*
X215808Y257087I-5178J0D01*
G01*
Y276772D02*
G03*
X215808Y276772I-5178J0D01*
G01*
X198819Y246063D02*
Y242064D01*
X196820D01*
X196153Y242731D01*
Y244064D01*
X196820Y244730D01*
X198819D01*
X192154Y246063D02*
X194820D01*
X192154Y243397D01*
Y242731D01*
X192821Y242064D01*
X194154D01*
X194820Y242731D01*
X252362Y291794D02*
Y288462D01*
X253029Y287795D01*
X254362D01*
X255028Y288462D01*
Y291794D01*
X259027D02*
X257694Y291127D01*
X256361Y289795D01*
Y288462D01*
X257027Y287795D01*
X258360D01*
X259027Y288462D01*
Y289128D01*
X258360Y289795D01*
X256361D01*
X316535Y240158D02*
X320534D01*
Y238158D01*
X319868Y237492D01*
X318535D01*
X317868Y238158D01*
Y240158D01*
Y238825D02*
X316535Y237492D01*
X319868Y236159D02*
X320534Y235492D01*
Y234159D01*
X319868Y233493D01*
X319201D01*
X318535Y234159D01*
Y234826D01*
Y234159D01*
X317868Y233493D01*
X317202D01*
X316535Y234159D01*
Y235492D01*
X317202Y236159D01*
X316535Y232160D02*
Y230827D01*
Y231494D01*
X320534D01*
X319868Y232160D01*
X220472Y348819D02*
X217473D01*
Y350318D01*
X217973Y350818D01*
X218973D01*
X219473Y350318D01*
Y348819D01*
Y349819D02*
X220472Y350818D01*
Y351818D02*
Y352818D01*
Y352318D01*
X217473D01*
X217973Y351818D01*
Y354317D02*
X217473Y354817D01*
Y355817D01*
X217973Y356316D01*
X218473D01*
X218973Y355817D01*
X219473Y356316D01*
X219973D01*
X220472Y355817D01*
Y354817D01*
X219973Y354317D01*
X219473D01*
X218973Y354817D01*
X218473Y354317D01*
X217973D01*
X218973Y354817D02*
Y355817D01*
X210630Y320472D02*
X213629D01*
Y318973D01*
X213129Y318473D01*
X212129D01*
X211630Y318973D01*
Y320472D01*
Y319473D02*
X210630Y318473D01*
Y317473D02*
Y316474D01*
Y316974D01*
X213629D01*
X213129Y317473D01*
X213629Y314974D02*
Y312975D01*
X213129D01*
X211130Y314974D01*
X210630D01*
X202756Y348819D02*
X199757D01*
Y350318D01*
X200257Y350818D01*
X201256D01*
X201756Y350318D01*
Y348819D01*
Y349819D02*
X202756Y350818D01*
Y351818D02*
Y352818D01*
Y352318D01*
X199757D01*
X200257Y351818D01*
X199757Y356316D02*
X200257Y355317D01*
X201256Y354317D01*
X202256D01*
X202756Y354817D01*
Y355817D01*
X202256Y356316D01*
X201756D01*
X201256Y355817D01*
Y354317D01*
X207723Y320079D02*
X204724D01*
Y318579D01*
X205224Y318079D01*
X207224D01*
X207723Y318579D01*
Y320079D01*
Y315080D02*
Y317080D01*
X206224D01*
X206724Y316080D01*
Y315580D01*
X206224Y315080D01*
X205224D01*
X204724Y315580D01*
Y316580D01*
X205224Y317080D01*
X180315Y308723D02*
Y304724D01*
X182314D01*
X182981Y305391D01*
Y308057D01*
X182314Y308723D01*
X180315D01*
X186313Y304724D02*
Y308723D01*
X184314Y306724D01*
X186979D01*
X300998Y244004D02*
X300332Y243338D01*
Y242005D01*
X300998Y241339D01*
X303664D01*
X304331Y242005D01*
Y243338D01*
X303664Y244004D01*
X304331Y247337D02*
X300332D01*
X302331Y245337D01*
Y248003D01*
X304331Y249336D02*
Y250669D01*
Y250002D01*
X300332D01*
X300998Y249336D01*
X254148Y244004D02*
X253482Y243338D01*
Y242005D01*
X254148Y241339D01*
X256814D01*
X257480Y242005D01*
Y243338D01*
X256814Y244004D01*
X257480Y247337D02*
X253482D01*
X255481Y245337D01*
Y248003D01*
X254148Y249336D02*
X253482Y250002D01*
Y251335D01*
X254148Y252002D01*
X256814D01*
X257480Y251335D01*
Y250002D01*
X256814Y249336D01*
X254148D01*
X229710Y239460D02*
X230377Y240127D01*
Y241459D01*
X229710Y242126D01*
X227044D01*
X226378Y241459D01*
Y240127D01*
X227044Y239460D01*
X229710Y238127D02*
X230377Y237461D01*
Y236128D01*
X229710Y235461D01*
X229044D01*
X228377Y236128D01*
Y236794D01*
Y236128D01*
X227711Y235461D01*
X227044D01*
X226378Y236128D01*
Y237461D01*
X227044Y238127D01*
Y234129D02*
X226378Y233462D01*
Y232129D01*
X227044Y231463D01*
X229710D01*
X230377Y232129D01*
Y233462D01*
X229710Y234129D01*
X229044D01*
X228377Y233462D01*
Y231463D01*
X229784Y350818D02*
X229284Y350318D01*
Y349319D01*
X229784Y348819D01*
X231784D01*
X232283Y349319D01*
Y350318D01*
X231784Y350818D01*
X229784Y351818D02*
X229284Y352318D01*
Y353317D01*
X229784Y353817D01*
X230284D01*
X230784Y353317D01*
Y352818D01*
Y353317D01*
X231284Y353817D01*
X231784D01*
X232283Y353317D01*
Y352318D01*
X231784Y351818D01*
X229784Y354817D02*
X229284Y355317D01*
Y356316D01*
X229784Y356816D01*
X230284D01*
X230784Y356316D01*
X231284Y356816D01*
X231784D01*
X232283Y356316D01*
Y355317D01*
X231784Y354817D01*
X231284D01*
X230784Y355317D01*
X230284Y354817D01*
X229784D01*
X230784Y355317D02*
Y356316D01*
X211674Y350818D02*
X211174Y350318D01*
Y349319D01*
X211674Y348819D01*
X213673D01*
X214173Y349319D01*
Y350318D01*
X213673Y350818D01*
X211674Y351818D02*
X211174Y352318D01*
Y353317D01*
X211674Y353817D01*
X212174D01*
X212674Y353317D01*
Y352818D01*
Y353317D01*
X213174Y353817D01*
X213673D01*
X214173Y353317D01*
Y352318D01*
X213673Y351818D01*
X211174Y354817D02*
Y356816D01*
X211674D01*
X213673Y354817D01*
X214173D01*
X206162Y350818D02*
X205662Y350318D01*
Y349319D01*
X206162Y348819D01*
X208162D01*
X208661Y349319D01*
Y350318D01*
X208162Y350818D01*
X206162Y351818D02*
X205662Y352318D01*
Y353317D01*
X206162Y353817D01*
X206662D01*
X207162Y353317D01*
Y352818D01*
Y353317D01*
X207662Y353817D01*
X208162D01*
X208661Y353317D01*
Y352318D01*
X208162Y351818D01*
X205662Y356816D02*
X206162Y355817D01*
X207162Y354817D01*
X208162D01*
X208661Y355317D01*
Y356316D01*
X208162Y356816D01*
X207662D01*
X207162Y356316D01*
Y354817D01*
X281406Y289553D02*
X280739Y290219D01*
X279407D01*
X278740Y289553D01*
Y286887D01*
X279407Y286221D01*
X280739D01*
X281406Y286887D01*
X282739Y289553D02*
X283405Y290219D01*
X284738D01*
X285405Y289553D01*
Y288886D01*
X284738Y288220D01*
X284072D01*
X284738D01*
X285405Y287553D01*
Y286887D01*
X284738Y286221D01*
X283405D01*
X282739Y286887D01*
X289403Y290219D02*
X286738D01*
Y288220D01*
X288071Y288886D01*
X288737D01*
X289403Y288220D01*
Y286887D01*
X288737Y286221D01*
X287404D01*
X286738Y286887D01*
X245926Y290188D02*
X245426Y289688D01*
Y288689D01*
X245926Y288189D01*
X247925D01*
X248425Y288689D01*
Y289688D01*
X247925Y290188D01*
X245926Y291188D02*
X245426Y291688D01*
Y292688D01*
X245926Y293187D01*
X246426D01*
X246926Y292688D01*
Y292188D01*
Y292688D01*
X247426Y293187D01*
X247925D01*
X248425Y292688D01*
Y291688D01*
X247925Y291188D01*
X248425Y295687D02*
X245426D01*
X246926Y294187D01*
Y296186D01*
X243838Y271623D02*
X244338Y272123D01*
Y273122D01*
X243838Y273622D01*
X241838D01*
X241339Y273122D01*
Y272123D01*
X241838Y271623D01*
X243838Y270623D02*
X244338Y270123D01*
Y269124D01*
X243838Y268624D01*
X243338D01*
X242838Y269124D01*
Y269623D01*
Y269124D01*
X242338Y268624D01*
X241838D01*
X241339Y269124D01*
Y270123D01*
X241838Y270623D01*
X243838Y267624D02*
X244338Y267124D01*
Y266125D01*
X243838Y265625D01*
X243338D01*
X242838Y266125D01*
Y266624D01*
Y266125D01*
X242338Y265625D01*
X241838D01*
X241339Y266125D01*
Y267124D01*
X241838Y267624D01*
X234782Y271622D02*
X235282Y272122D01*
Y273122D01*
X234782Y273622D01*
X232783D01*
X232283Y273122D01*
Y272122D01*
X232783Y271622D01*
X234782Y270623D02*
X235282Y270123D01*
Y269123D01*
X234782Y268623D01*
X234282D01*
X233782Y269123D01*
Y269623D01*
Y269123D01*
X233282Y268623D01*
X232783D01*
X232283Y269123D01*
Y270123D01*
X232783Y270623D01*
X232283Y265624D02*
Y267624D01*
X234282Y265624D01*
X234782D01*
X235282Y266124D01*
Y267124D01*
X234782Y267624D01*
X239507Y271623D02*
X240007Y272123D01*
Y273122D01*
X239507Y273622D01*
X237508D01*
X237008Y273122D01*
Y272123D01*
X237508Y271623D01*
X239507Y270623D02*
X240007Y270123D01*
Y269124D01*
X239507Y268624D01*
X239007D01*
X238507Y269124D01*
Y269623D01*
Y269124D01*
X238007Y268624D01*
X237508D01*
X237008Y269124D01*
Y270123D01*
X237508Y270623D01*
X237008Y267624D02*
Y266624D01*
Y267124D01*
X240007D01*
X239507Y267624D01*
X219534Y320079D02*
X216535D01*
Y318579D01*
X217035Y318079D01*
X219035D01*
X219534Y318579D01*
Y320079D01*
Y315080D02*
X219035Y316080D01*
X218035Y317080D01*
X217035D01*
X216535Y316580D01*
Y315580D01*
X217035Y315080D01*
X217535D01*
X218035Y315580D01*
Y317080D01*
X231346Y320079D02*
X228346D01*
Y318579D01*
X228846Y318079D01*
X230846D01*
X231346Y318579D01*
Y320079D01*
Y317080D02*
Y315080D01*
X230846D01*
X228846Y317080D01*
X228346D01*
X229750Y173805D02*
X225751D01*
Y175804D01*
X226418Y176471D01*
X227751D01*
X228417Y175804D01*
Y173805D01*
X229750Y179803D02*
X225751D01*
X227751Y177804D01*
Y180470D01*
X192216Y192641D02*
Y189975D01*
X192883Y189308D01*
X194215D01*
X194882Y189975D01*
Y192641D01*
X194215Y193307D01*
X192883D01*
X193549Y191974D02*
X192216Y193307D01*
X192883D02*
X192216Y192641D01*
X190883Y193307D02*
X189550D01*
X190217D01*
Y189308D01*
X190883Y189975D01*
X241429Y191853D02*
Y189187D01*
X242095Y188521D01*
X243428D01*
X244094Y189187D01*
Y191853D01*
X243428Y192520D01*
X242095D01*
X242762Y191187D02*
X241429Y192520D01*
X242095D02*
X241429Y191853D01*
X237430Y188521D02*
X240096D01*
Y190520D01*
X238763Y189854D01*
X238096D01*
X237430Y190520D01*
Y191853D01*
X238096Y192520D01*
X239429D01*
X240096Y191853D01*
X289460Y191460D02*
Y188794D01*
X290127Y188127D01*
X291459D01*
X292126Y188794D01*
Y191460D01*
X291459Y192126D01*
X290127D01*
X290793Y190793D02*
X289460Y192126D01*
X290127D02*
X289460Y191460D01*
X288127D02*
X287461Y192126D01*
X286128D01*
X285461Y191460D01*
Y188794D01*
X286128Y188127D01*
X287461D01*
X288127Y188794D01*
Y189460D01*
X287461Y190127D01*
X285461D01*
X215444Y191853D02*
Y189187D01*
X216111Y188521D01*
X217444D01*
X218110Y189187D01*
Y191853D01*
X217444Y192520D01*
X216111D01*
X216777Y191187D02*
X215444Y192520D01*
X216111D02*
X215444Y191853D01*
X212112Y192520D02*
Y188521D01*
X214111Y190520D01*
X211446D01*
X264263Y191853D02*
Y189187D01*
X264930Y188521D01*
X266263D01*
X266929Y189187D01*
Y191853D01*
X266263Y192520D01*
X264930D01*
X265596Y191187D02*
X264263Y192520D01*
X264930D02*
X264263Y191853D01*
X262930Y188521D02*
X260265D01*
Y189187D01*
X262930Y191853D01*
Y192520D01*
X312688Y191460D02*
Y188794D01*
X313355Y188127D01*
X314688D01*
X315354Y188794D01*
Y191460D01*
X314688Y192126D01*
X313355D01*
X314021Y190793D02*
X312688Y192126D01*
X313355D02*
X312688Y191460D01*
X311356Y192126D02*
X310023D01*
X310689D01*
Y188127D01*
X311356Y188794D01*
X308023Y192126D02*
X306691D01*
X307357D01*
Y188127D01*
X308023Y188794D01*
X210630Y304724D02*
Y308723D01*
X212629D01*
X213296Y308057D01*
Y306724D01*
X212629Y306057D01*
X210630D01*
X211963D02*
X213296Y304724D01*
X217294D02*
X214629D01*
X217294Y307390D01*
Y308057D01*
X216628Y308723D01*
X215295D01*
X214629Y308057D01*
X295669Y273622D02*
X299668D01*
Y271623D01*
X299002Y270956D01*
X297669D01*
X297002Y271623D01*
Y273622D01*
Y272289D02*
X295669Y270956D01*
Y267624D02*
X299668D01*
X297669Y269623D01*
Y266957D01*
X289764Y273622D02*
X293762D01*
Y271623D01*
X293096Y270956D01*
X291763D01*
X291097Y271623D01*
Y273622D01*
Y272289D02*
X289764Y270956D01*
X293762Y266957D02*
Y269623D01*
X291763D01*
X292430Y268290D01*
Y267624D01*
X291763Y266957D01*
X290430D01*
X289764Y267624D01*
Y268957D01*
X290430Y269623D01*
X198819Y320472D02*
X201818D01*
Y318973D01*
X201318Y318473D01*
X200318D01*
X199819Y318973D01*
Y320472D01*
Y319473D02*
X198819Y318473D01*
X201818Y315474D02*
X201318Y316474D01*
X200318Y317473D01*
X199319D01*
X198819Y316974D01*
Y315974D01*
X199319Y315474D01*
X199819D01*
X200318Y315974D01*
Y317473D01*
X222441Y320472D02*
X225440D01*
Y318973D01*
X224940Y318473D01*
X223940D01*
X223441Y318973D01*
Y320472D01*
Y319473D02*
X222441Y318473D01*
Y315474D02*
Y317473D01*
X224440Y315474D01*
X224940D01*
X225440Y315974D01*
Y316974D01*
X224940Y317473D01*
Y314474D02*
X225440Y313974D01*
Y312975D01*
X224940Y312475D01*
X224440D01*
X223940Y312975D01*
Y313475D01*
Y312975D01*
X223441Y312475D01*
X222941D01*
X222441Y312975D01*
Y313974D01*
X222941Y314474D01*
X226772Y348819D02*
X223773D01*
Y350318D01*
X224272Y350818D01*
X225272D01*
X225772Y350318D01*
Y348819D01*
Y349819D02*
X226772Y350818D01*
Y353817D02*
Y351818D01*
X224772Y353817D01*
X224272D01*
X223773Y353317D01*
Y352318D01*
X224272Y351818D01*
X226772Y356316D02*
X223773D01*
X225272Y354817D01*
Y356816D01*
X210236Y231102D02*
X206238D01*
Y233102D01*
X206904Y233768D01*
X208237D01*
X208903Y233102D01*
Y231102D01*
Y232435D02*
X210236Y233768D01*
Y237767D02*
Y235101D01*
X207570Y237767D01*
X206904D01*
X206238Y237100D01*
Y235768D01*
X206904Y235101D01*
X206238Y241766D02*
Y239100D01*
X208237D01*
X207570Y240433D01*
Y241099D01*
X208237Y241766D01*
X209570D01*
X210236Y241099D01*
Y239766D01*
X209570Y239100D01*
X268504Y240551D02*
X272503D01*
Y238552D01*
X271836Y237885D01*
X270503D01*
X269837Y238552D01*
Y240551D01*
Y239218D02*
X268504Y237885D01*
X271836Y236553D02*
X272503Y235886D01*
Y234553D01*
X271836Y233887D01*
X271170D01*
X270503Y234553D01*
Y235220D01*
Y234553D01*
X269837Y233887D01*
X269170D01*
X268504Y234553D01*
Y235886D01*
X269170Y236553D01*
X271836Y232554D02*
X272503Y231887D01*
Y230554D01*
X271836Y229888D01*
X269170D01*
X268504Y230554D01*
Y231887D01*
X269170Y232554D01*
X271836D01*
X285249Y338250D02*
X281916D01*
X281250Y337584D01*
Y336251D01*
X281916Y335584D01*
X285249D01*
X281250Y331586D02*
Y334251D01*
X283916Y331586D01*
X284582D01*
X285249Y332252D01*
Y333585D01*
X284582Y334251D01*
X301238Y320244D02*
Y324243D01*
X303238D01*
X303904Y323576D01*
Y322243D01*
X303238Y321577D01*
X301238D01*
X302571D02*
X303904Y320244D01*
X305237D02*
X306570D01*
X305903D01*
Y324243D01*
X305237Y323576D01*
X308569Y320911D02*
X309236Y320244D01*
X310568D01*
X311235Y320911D01*
Y323576D01*
X310568Y324243D01*
X309236D01*
X308569Y323576D01*
Y322910D01*
X309236Y322243D01*
X311235D01*
X210630Y292520D02*
Y296518D01*
X212629D01*
X213296Y295852D01*
Y294519D01*
X212629Y293853D01*
X210630D01*
X211963D02*
X213296Y292520D01*
X214629D02*
X215962D01*
X215295D01*
Y296518D01*
X214629Y295852D01*
X220627Y296518D02*
X217961D01*
Y294519D01*
X219294Y295185D01*
X219960D01*
X220627Y294519D01*
Y293186D01*
X219960Y292520D01*
X218627D01*
X217961Y293186D01*
X210630Y298819D02*
Y302818D01*
X212629D01*
X213296Y302151D01*
Y300818D01*
X212629Y300152D01*
X210630D01*
X211963D02*
X213296Y298819D01*
X214629D02*
X215962D01*
X215295D01*
Y302818D01*
X214629Y302151D01*
X219960Y298819D02*
Y302818D01*
X217961Y300818D01*
X220627D01*
X180315Y296912D02*
Y292913D01*
X182314D01*
X182981Y293580D01*
Y296246D01*
X182314Y296912D01*
X180315D01*
X186979Y292913D02*
X184314D01*
X186979Y295579D01*
Y296246D01*
X186313Y296912D01*
X184980D01*
X184314Y296246D01*
X180315Y302818D02*
Y298819D01*
X182314D01*
X182981Y299485D01*
Y302151D01*
X182314Y302818D01*
X180315D01*
X184314Y298819D02*
X185647D01*
X184980D01*
Y302818D01*
X184314Y302151D01*
X277981Y351820D02*
X277314Y352487D01*
X275981D01*
X275315Y351820D01*
Y349155D01*
X275981Y348488D01*
X277314D01*
X277981Y349155D01*
X281979Y348488D02*
X279314D01*
X281979Y351154D01*
Y351820D01*
X281313Y352487D01*
X279980D01*
X279314Y351820D01*
X283312D02*
X283979Y352487D01*
X285312D01*
X285978Y351820D01*
Y349155D01*
X285312Y348488D01*
X283979D01*
X283312Y349155D01*
Y351820D01*
X298970Y345633D02*
X299637Y346300D01*
Y347633D01*
X298970Y348299D01*
X296304D01*
X295638Y347633D01*
Y346300D01*
X296304Y345633D01*
X295638Y344301D02*
Y342968D01*
Y343634D01*
X299637D01*
X298970Y344301D01*
X296304Y340968D02*
X295638Y340302D01*
Y338969D01*
X296304Y338302D01*
X298970D01*
X299637Y338969D01*
Y340302D01*
X298970Y340968D01*
X298304D01*
X297637Y340302D01*
Y338302D01*
X293064Y345633D02*
X293731Y346300D01*
Y347633D01*
X293064Y348299D01*
X290399D01*
X289732Y347633D01*
Y346300D01*
X290399Y345633D01*
X289732Y344301D02*
Y342968D01*
Y343634D01*
X293731D01*
X293064Y344301D01*
Y340968D02*
X293731Y340302D01*
Y338969D01*
X293064Y338302D01*
X292398D01*
X291732Y338969D01*
X291065Y338302D01*
X290399D01*
X289732Y338969D01*
Y340302D01*
X290399Y340968D01*
X291065D01*
X291732Y340302D01*
X292398Y340968D01*
X293064D01*
X291732Y340302D02*
Y338969D01*
X289159Y298515D02*
X289826Y299182D01*
Y300515D01*
X289159Y301181D01*
X286493D01*
X285827Y300515D01*
Y299182D01*
X286493Y298515D01*
X285827Y297182D02*
Y295849D01*
Y296516D01*
X289826D01*
X289159Y297182D01*
X289826Y293850D02*
Y291184D01*
X289159D01*
X286493Y293850D01*
X285827D01*
X232193Y303332D02*
X231527Y303999D01*
X230194D01*
X229528Y303332D01*
Y300666D01*
X230194Y300000D01*
X231527D01*
X232193Y300666D01*
X233526Y300000D02*
X234859D01*
X234193D01*
Y303999D01*
X233526Y303332D01*
X239524Y303999D02*
X238191Y303332D01*
X236859Y301999D01*
Y300666D01*
X237525Y300000D01*
X238858D01*
X239524Y300666D01*
Y301333D01*
X238858Y301999D01*
X236859D01*
X246760Y347820D02*
X246094Y348487D01*
X244761D01*
X244094Y347820D01*
Y345155D01*
X244761Y344488D01*
X246094D01*
X246760Y345155D01*
X248093Y344488D02*
X249426D01*
X248760D01*
Y348487D01*
X248093Y347820D01*
X254091Y348487D02*
X251426D01*
Y346487D01*
X252758Y347154D01*
X253425D01*
X254091Y346487D01*
Y345155D01*
X253425Y344488D01*
X252092D01*
X251426Y345155D01*
X246760Y353726D02*
X246094Y354392D01*
X244761D01*
X244094Y353726D01*
Y351060D01*
X244761Y350394D01*
X246094D01*
X246760Y351060D01*
X248093Y350394D02*
X249426D01*
X248760D01*
Y354392D01*
X248093Y353726D01*
X253425Y350394D02*
Y354392D01*
X251426Y352393D01*
X254091D01*
D11*
X253543Y284646D02*
G03*
X253543Y284646I-394J0D01*
G01*
X308268Y234252D02*
Y238189D01*
X314567Y234252D02*
Y238189D01*
X193898Y305118D02*
X194291D01*
X193898Y308268D02*
X194291D01*
X266535Y234252D02*
Y238189D01*
X260236Y234252D02*
Y238189D01*
X218504Y234252D02*
Y238189D01*
X212205Y234252D02*
Y238189D01*
X325709Y282244D02*
Y322244D01*
X345709Y282244D02*
Y322244D01*
X325709D02*
X345709D01*
X325709Y282244D02*
X345709D01*
X193898Y293307D02*
X194291D01*
X193898Y296457D02*
X194291D01*
X193898Y299213D02*
X194291D01*
X193898Y302362D02*
X194291D01*
X254423Y329077D02*
X276077D01*
X254423Y307423D02*
X276077D01*
Y329077D01*
X254423Y307423D02*
Y329077D01*
D12*
X279325Y334195D02*
G03*
X279325Y334195I-492J0D01*
G01*
X292520Y159449D02*
Y164697D01*
X295144Y167320D01*
X297767Y164697D01*
Y159449D01*
Y163385D01*
X292520D01*
X300391Y167320D02*
Y159449D01*
X304327D01*
X305639Y160761D01*
Y162073D01*
X304327Y163385D01*
X300391D01*
X304327D01*
X305639Y164697D01*
Y166008D01*
X304327Y167320D01*
X300391D01*
X313510Y166008D02*
X312198Y167320D01*
X309575D01*
X308263Y166008D01*
Y160761D01*
X309575Y159449D01*
X312198D01*
X313510Y160761D01*
D13*
X273321Y325140D02*
G03*
X273321Y325140I-1181J0D01*
G01*
D14*
X169291Y247244D02*
Y286614D01*
X201575Y247244D02*
Y286614D01*
X169291Y247244D02*
X201575D01*
X169291Y286614D02*
X201575D01*
X194488D02*
X195276D01*
X194488Y247244D02*
Y286614D01*
X231722Y181197D02*
X290778D01*
X231722Y148913D02*
X290778D01*
X231722D02*
Y181197D01*
X290778Y148913D02*
Y181197D01*
X231722Y176472D02*
X290778D01*
D15*
X207677Y256890D02*
X213583D01*
X210630Y253937D02*
Y259842D01*
Y273622D02*
Y279528D01*
D16*
X188189Y303937D02*
Y309449D01*
Y292126D02*
Y297638D01*
Y298031D02*
Y303543D01*
D17*
X204724Y321260D02*
X208661D01*
X216535D02*
X220472D01*
X228346D02*
X232283D01*
D18*
X338709Y323912D02*
Y327244D01*
X342041Y323912D01*
X342874D01*
X343707Y324745D01*
Y326411D01*
X342874Y327244D01*
X328709Y325244D02*
Y323578D01*
Y324411D01*
X333707D01*
X332874Y325244D01*
X333707Y281244D02*
Y277912D01*
X332874D01*
X329542Y281244D01*
X328709D01*
X342874D02*
X343707Y280411D01*
Y278745D01*
X342874Y277912D01*
X342041D01*
X341208Y278745D01*
X340375Y277912D01*
X339542D01*
X338709Y278745D01*
Y280411D01*
X339542Y281244D01*
X340375D01*
X341208Y280411D01*
X342041Y281244D01*
X342874D01*
X341208Y280411D02*
Y278745D01*
M02*
