G04*
G04 #@! TF.GenerationSoftware,Altium Limited,Altium Designer,18.1.9 (240)*
G04*
G04 Layer_Color=16711935*
%FSLAX25Y25*%
%MOIN*%
G70*
G01*
G75*
%ADD46C,0.15748*%
%ADD47C,0.08674*%
%ADD48R,0.06706X0.06706*%
%ADD49C,0.06706*%
%ADD50C,0.01181*%
D46*
X161417Y106299D02*
D03*
Y342520D02*
D03*
X366142D02*
D03*
Y106299D02*
D03*
D47*
X280935Y106000D02*
D03*
X261250D02*
D03*
X241565D02*
D03*
X161000Y247000D02*
D03*
Y227315D02*
D03*
D48*
X376969Y317087D02*
D03*
Y266890D02*
D03*
D49*
Y307087D02*
D03*
Y297087D02*
D03*
Y287087D02*
D03*
Y216890D02*
D03*
Y226890D02*
D03*
Y236890D02*
D03*
Y246890D02*
D03*
Y256890D02*
D03*
D50*
X242719Y234573D02*
D03*
Y239691D02*
D03*
Y244809D02*
D03*
Y249927D02*
D03*
X247837Y234573D02*
D03*
Y239691D02*
D03*
Y244809D02*
D03*
Y249927D02*
D03*
X252955Y234573D02*
D03*
Y239691D02*
D03*
Y244809D02*
D03*
Y249927D02*
D03*
X258073Y234573D02*
D03*
Y239691D02*
D03*
Y244809D02*
D03*
Y249927D02*
D03*
X263191Y234573D02*
D03*
Y239691D02*
D03*
Y244809D02*
D03*
Y249927D02*
D03*
X268309Y234573D02*
D03*
Y239691D02*
D03*
Y244809D02*
D03*
Y249927D02*
D03*
X288781Y234573D02*
D03*
Y239691D02*
D03*
Y244809D02*
D03*
Y249927D02*
D03*
X283663Y234573D02*
D03*
Y239691D02*
D03*
Y244809D02*
D03*
Y249927D02*
D03*
X273427Y234573D02*
D03*
Y239691D02*
D03*
Y244809D02*
D03*
Y249927D02*
D03*
X278545D02*
D03*
Y244809D02*
D03*
Y239691D02*
D03*
Y234573D02*
D03*
M02*
