G04*
G04 #@! TF.GenerationSoftware,Altium Limited,Altium Designer,18.1.9 (240)*
G04*
G04 Layer_Color=32768*
%FSLAX25Y25*%
%MOIN*%
G70*
G01*
G75*
%ADD13C,0.00492*%
%ADD14C,0.00394*%
%ADD15C,0.00390*%
%ADD71C,0.00197*%
D13*
X209652Y161282D02*
Y165218D01*
X207683Y163250D02*
X211620D01*
X196266Y173289D02*
X223037D01*
X196266Y153211D02*
Y173289D01*
Y153211D02*
X223037D01*
Y154195D01*
Y173289D01*
X179652Y161282D02*
Y165218D01*
X177683Y163250D02*
X181620D01*
X166266Y173289D02*
X193037D01*
X166266Y153211D02*
Y173289D01*
Y153211D02*
X193037D01*
Y154195D01*
Y173289D01*
X250652Y161282D02*
Y165218D01*
X248683Y163250D02*
X252620D01*
X237266Y173289D02*
X264037D01*
X237266Y153211D02*
Y173289D01*
Y153211D02*
X264037D01*
Y154195D01*
Y173289D01*
X280652Y161282D02*
Y165218D01*
X278683Y163250D02*
X282620D01*
X267266Y173289D02*
X294037D01*
X267266Y153211D02*
Y173289D01*
Y153211D02*
X294037D01*
Y154195D01*
Y173289D01*
X321652Y161282D02*
Y165218D01*
X319683Y163250D02*
X323620D01*
X308266Y173289D02*
X335037D01*
X308266Y153211D02*
Y173289D01*
Y153211D02*
X335037D01*
Y154195D01*
Y173289D01*
X351652Y161282D02*
Y165218D01*
X349683Y163250D02*
X353620D01*
X338266Y173289D02*
X365037D01*
X338266Y153211D02*
Y173289D01*
Y153211D02*
X365037D01*
Y154195D01*
Y173289D01*
X351652Y139281D02*
Y143219D01*
X349683Y141250D02*
X353620D01*
X338266Y151289D02*
X365037D01*
X338266Y131211D02*
Y151289D01*
Y131211D02*
X365037D01*
Y132195D01*
Y151289D01*
X321652Y139281D02*
Y143219D01*
X319683Y141250D02*
X323620D01*
X308266Y151289D02*
X335037D01*
X308266Y131211D02*
Y151289D01*
Y131211D02*
X335037D01*
Y132195D01*
Y151289D01*
X280652Y139281D02*
Y143219D01*
X278683Y141250D02*
X282620D01*
X267266Y151289D02*
X294037D01*
X267266Y131211D02*
Y151289D01*
Y131211D02*
X294037D01*
Y132195D01*
Y151289D01*
X250652Y139281D02*
Y143219D01*
X248683Y141250D02*
X252620D01*
X237266Y151289D02*
X264037D01*
X237266Y131211D02*
Y151289D01*
Y131211D02*
X264037D01*
Y132195D01*
Y151289D01*
X209652Y139281D02*
Y143219D01*
X207683Y141250D02*
X211620D01*
X196266Y151289D02*
X223037D01*
X196266Y131211D02*
Y151289D01*
Y131211D02*
X223037D01*
Y132195D01*
Y151289D01*
X179652Y139281D02*
Y143219D01*
X177683Y141250D02*
X181620D01*
X166266Y151289D02*
X193037D01*
X166266Y131211D02*
Y151289D01*
Y131211D02*
X193037D01*
Y132195D01*
Y151289D01*
D14*
X189370Y335039D02*
Y338976D01*
X187402Y337008D02*
X191339D01*
X176772Y310630D02*
Y314567D01*
X174803Y312598D02*
X178740D01*
X197244Y187008D02*
X209055D01*
X197244D02*
Y190945D01*
X209055D01*
Y187008D02*
Y190945D01*
X203150Y188189D02*
Y189764D01*
X202362Y188976D02*
X203937D01*
X268504Y187008D02*
X280315D01*
X268504D02*
Y190945D01*
X280315D01*
Y187008D02*
Y190945D01*
X274410Y188189D02*
Y189764D01*
X273622Y188976D02*
X275197D01*
X339370Y187008D02*
X351181D01*
X339370D02*
Y190945D01*
X351181D01*
Y187008D02*
Y190945D01*
X345276Y188189D02*
Y189764D01*
X344488Y188976D02*
X346063D01*
X167323Y187008D02*
X179134D01*
X167323D02*
Y190945D01*
X179134D01*
Y187008D02*
Y190945D01*
X173228Y188189D02*
Y189764D01*
X172441Y188976D02*
X174016D01*
X237795Y187008D02*
X249606D01*
X237795D02*
Y190945D01*
X249606D01*
Y187008D02*
Y190945D01*
X243701Y188189D02*
Y189764D01*
X242913Y188976D02*
X244488D01*
X309449Y187008D02*
X321260D01*
X309449D02*
Y190945D01*
X321260D01*
Y187008D02*
Y190945D01*
X315354Y188189D02*
Y189764D01*
X314567Y188976D02*
X316142D01*
X218000Y274213D02*
Y275787D01*
X217213Y275000D02*
X218787D01*
X216032Y269094D02*
X219969D01*
Y280906D01*
X216032D02*
X219969D01*
X216032Y269094D02*
Y280906D01*
X206000Y274213D02*
Y275787D01*
X205213Y275000D02*
X206787D01*
X204031Y269094D02*
X207968D01*
Y280906D01*
X204031D02*
X207968D01*
X204031Y269094D02*
Y280906D01*
X194095Y274213D02*
Y275787D01*
X193307Y275000D02*
X194882D01*
X192126Y269094D02*
X196063D01*
Y280906D01*
X192126D02*
X196063D01*
X192126Y269094D02*
Y280906D01*
X263781Y242250D02*
X267719D01*
X265750Y240282D02*
Y244218D01*
X290947Y220597D02*
Y263903D01*
X240553D02*
X290947D01*
X240553Y220597D02*
Y263903D01*
Y220597D02*
X290947D01*
X228281Y175750D02*
X232219D01*
X230250Y173782D02*
Y177718D01*
X299031Y175750D02*
X302969D01*
X301000Y173782D02*
Y177718D01*
X265250Y316282D02*
Y320218D01*
X263281Y318250D02*
X267218D01*
D15*
X231722Y89858D02*
Y122142D01*
X290778D01*
Y89858D02*
Y122142D01*
X231722Y89858D02*
X290778D01*
X144858Y256842D02*
X177142D01*
Y217472D02*
Y256842D01*
X144858Y217472D02*
X177142D01*
X144858D02*
Y256842D01*
D71*
X165354Y268209D02*
Y271949D01*
X163484Y270079D02*
X167224D01*
X159449Y273031D02*
X171260D01*
X159449Y267126D02*
X171260D01*
X159449D02*
Y273031D01*
X171260Y267126D02*
Y273031D01*
X199311Y337008D02*
X203051D01*
X201181Y335138D02*
Y338878D01*
X198228Y331102D02*
Y342913D01*
X204134Y331102D02*
Y342913D01*
X198228Y331102D02*
X204134D01*
X198228Y342913D02*
X204134D01*
X174902Y339764D02*
X178642D01*
X176772Y337894D02*
Y341634D01*
X173819Y333858D02*
Y345669D01*
X179724Y333858D02*
Y345669D01*
X173819Y333858D02*
X179724D01*
X173819Y345669D02*
X179724D01*
X181102Y329921D02*
X197638D01*
X181102Y344094D02*
X197638D01*
Y329921D02*
Y344094D01*
X181102Y329921D02*
Y344094D01*
X171653Y319587D02*
X181890D01*
Y305610D02*
Y319587D01*
X171653Y305610D02*
X181890D01*
X171653D02*
Y319587D01*
X192126Y300886D02*
Y304626D01*
X190256Y302756D02*
X193996D01*
X186221Y305709D02*
X198031D01*
X186221Y299803D02*
X198031D01*
X186221D02*
Y305709D01*
X198031Y299803D02*
Y305709D01*
X176772Y294193D02*
Y297933D01*
X174902Y296063D02*
X178642D01*
X170866Y293110D02*
X182677D01*
X170866Y299016D02*
X182677D01*
Y293110D02*
Y299016D01*
X170866Y293110D02*
Y299016D01*
X176772Y288287D02*
Y292028D01*
X174902Y290158D02*
X178642D01*
X170866Y293110D02*
X182677D01*
X170866Y287205D02*
X182677D01*
X170866D02*
Y293110D01*
X182677Y287205D02*
Y293110D01*
X163878Y315748D02*
X167618D01*
X165748Y313878D02*
Y317618D01*
X168701Y309842D02*
Y321654D01*
X162795Y309842D02*
Y321654D01*
X168701D01*
X162795Y309842D02*
X168701D01*
X165354Y275689D02*
Y279429D01*
X163484Y277559D02*
X167224D01*
X159449Y280512D02*
X171260D01*
X159449Y274606D02*
X171260D01*
X159449D02*
Y280512D01*
X171260Y274606D02*
Y280512D01*
X338523Y271547D02*
Y277453D01*
X326712Y271547D02*
Y277453D01*
Y271547D02*
X338523D01*
X326712Y277453D02*
X338523D01*
X330748Y274500D02*
X334488D01*
X332618Y272630D02*
Y276370D01*
X338523Y278547D02*
Y284453D01*
X326712Y278547D02*
Y284453D01*
Y278547D02*
X338523D01*
X326712Y284453D02*
X338523D01*
X330748Y281500D02*
X334488D01*
X332618Y279630D02*
Y283370D01*
X338523Y285547D02*
Y291453D01*
X326712Y285547D02*
Y291453D01*
Y285547D02*
X338523D01*
X326712Y291453D02*
X338523D01*
X330748Y288500D02*
X334488D01*
X332618Y286630D02*
Y290370D01*
X338523Y257508D02*
Y263413D01*
X326712Y257508D02*
Y263413D01*
Y257508D02*
X338523D01*
X326712Y263413D02*
X338523D01*
X330748Y260461D02*
X334488D01*
X332618Y258591D02*
Y262331D01*
X338523Y264508D02*
Y270413D01*
X326712Y264508D02*
Y270413D01*
Y264508D02*
X338523D01*
X326712Y270413D02*
X338523D01*
X330748Y267461D02*
X334488D01*
X332618Y265591D02*
Y269331D01*
X338189Y327756D02*
X344094D01*
X338189Y339567D02*
X344094D01*
X338189Y327756D02*
Y339567D01*
X344094Y327756D02*
Y339567D01*
X341142Y331791D02*
Y335531D01*
X339272Y333661D02*
X343012D01*
X331594Y334055D02*
X335335D01*
X333465Y332185D02*
Y335925D01*
X336417Y328150D02*
Y339961D01*
X330512Y328150D02*
Y339961D01*
X336417D01*
X330512Y328150D02*
X336417D01*
X179134Y320965D02*
Y324705D01*
X177264Y322835D02*
X181004D01*
X173228Y325787D02*
X185039D01*
X173228Y319882D02*
X185039D01*
X173228D02*
Y325787D01*
X185039Y319882D02*
Y325787D01*
X273895Y291047D02*
Y296953D01*
X285705Y291047D02*
Y296953D01*
X273895D02*
X285705D01*
X273895Y291047D02*
X285705D01*
X277930Y294000D02*
X281670D01*
X279800Y292130D02*
Y295870D01*
X302797Y334156D02*
X308703D01*
X302797Y322344D02*
X308703D01*
Y334156D01*
X302797Y322344D02*
Y334156D01*
X305750Y326380D02*
Y330120D01*
X303880Y328250D02*
X307620D01*
X238345Y287297D02*
Y293203D01*
X250155Y287297D02*
Y293203D01*
X238345D02*
X250155D01*
X238345Y287297D02*
X250155D01*
X242380Y290250D02*
X246120D01*
X244250Y288380D02*
Y292120D01*
X250155Y281297D02*
Y287203D01*
X238345Y281297D02*
Y287203D01*
Y281297D02*
X250155D01*
X238345Y287203D02*
X250155D01*
X242380Y284250D02*
X246120D01*
X244250Y282380D02*
Y286120D01*
X232906Y324297D02*
Y330203D01*
X221094Y324297D02*
Y330203D01*
Y324297D02*
X232906D01*
X221094Y330203D02*
X232906D01*
X225130Y327250D02*
X228870D01*
X227000Y325380D02*
Y329120D01*
X232906Y306297D02*
Y312203D01*
X221094Y306297D02*
Y312203D01*
Y306297D02*
X232906D01*
X221094Y312203D02*
X232906D01*
X225130Y309250D02*
X228870D01*
X227000Y307380D02*
Y311120D01*
X232906Y318297D02*
Y324203D01*
X221094Y318297D02*
Y324203D01*
Y318297D02*
X232906D01*
X221094Y324203D02*
X232906D01*
X225130Y321250D02*
X228870D01*
X227000Y319380D02*
Y323120D01*
X232906Y312297D02*
Y318203D01*
X221094Y312297D02*
Y318203D01*
Y312297D02*
X232906D01*
X221094Y318203D02*
X232906D01*
X225130Y315250D02*
X228870D01*
X227000Y313380D02*
Y317120D01*
X240156Y214047D02*
Y219953D01*
X228344Y214047D02*
Y219953D01*
Y214047D02*
X240156D01*
X228344Y219953D02*
X240156D01*
X232380Y217000D02*
X236120D01*
X234250Y215130D02*
Y218870D01*
X235959Y164923D02*
Y186577D01*
X224541Y164923D02*
Y186577D01*
X235959D01*
X224541Y164923D02*
X235959D01*
X306709D02*
Y186577D01*
X295291Y164923D02*
Y186577D01*
X306709D01*
X295291Y164923D02*
X306709D01*
X170297Y186155D02*
X176203D01*
X170297Y174345D02*
X176203D01*
Y186155D01*
X170297Y174345D02*
Y186155D01*
X173250Y178380D02*
Y182120D01*
X171380Y180250D02*
X175120D01*
X200297Y186155D02*
X206203D01*
X200297Y174345D02*
X206203D01*
Y186155D01*
X200297Y174345D02*
Y186155D01*
X203250Y178380D02*
Y182120D01*
X201380Y180250D02*
X205120D01*
X241297Y186155D02*
X247203D01*
X241297Y174345D02*
X247203D01*
Y186155D01*
X241297Y174345D02*
Y186155D01*
X244250Y178380D02*
Y182120D01*
X242380Y180250D02*
X246120D01*
X271297Y186155D02*
X277203D01*
X271297Y174345D02*
X277203D01*
Y186155D01*
X271297Y174345D02*
Y186155D01*
X274250Y178380D02*
Y182120D01*
X272380Y180250D02*
X276120D01*
X312297Y186155D02*
X318203D01*
X312297Y174345D02*
X318203D01*
Y186155D01*
X312297Y174345D02*
Y186155D01*
X315250Y178380D02*
Y182120D01*
X313380Y180250D02*
X317120D01*
X342297Y186158D02*
X348203D01*
X342297Y174346D02*
X348203D01*
Y186158D01*
X342297Y174346D02*
Y186158D01*
X345250Y178382D02*
Y182122D01*
X343380Y180252D02*
X347120D01*
X234047Y256345D02*
X239953D01*
X234047Y268156D02*
X239953D01*
X234047Y256345D02*
Y268156D01*
X239953Y256345D02*
Y268156D01*
X237000Y260380D02*
Y264120D01*
X235130Y262250D02*
X238870D01*
X225547Y224095D02*
X231453D01*
X225547Y235906D02*
X231453D01*
X225547Y224095D02*
Y235906D01*
X231453Y224095D02*
Y235906D01*
X228500Y228130D02*
Y231870D01*
X226630Y230000D02*
X230370D01*
X231297Y224095D02*
X237203D01*
X231297Y235906D02*
X237203D01*
X231297Y224095D02*
Y235906D01*
X237203Y224095D02*
Y235906D01*
X234250Y228130D02*
Y231870D01*
X232380Y230000D02*
X236120D01*
X216130Y287000D02*
X219870D01*
X218000Y285130D02*
Y288870D01*
X220953Y281095D02*
Y292905D01*
X215047Y281095D02*
Y292905D01*
X220953D01*
X215047Y281095D02*
X220953D01*
X222130Y275000D02*
X225870D01*
X224000Y273130D02*
Y276870D01*
X221047Y269094D02*
Y280906D01*
X226953Y269094D02*
Y280906D01*
X221047Y269094D02*
X226953D01*
X221047Y280906D02*
X226953D01*
X222130Y287000D02*
X225870D01*
X224000Y285130D02*
Y288870D01*
X221047Y281095D02*
Y292905D01*
X226953Y281095D02*
Y292905D01*
X221047Y281095D02*
X226953D01*
X221047Y292905D02*
X226953D01*
X210130Y275000D02*
X213870D01*
X212000Y273130D02*
Y276870D01*
X209047Y269094D02*
Y280906D01*
X214953Y269094D02*
Y280906D01*
X209047Y269094D02*
X214953D01*
X209047Y280906D02*
X214953D01*
X210130Y287000D02*
X213870D01*
X212000Y285130D02*
Y288870D01*
X209047Y281095D02*
Y292905D01*
X214953Y281095D02*
Y292905D01*
X209047Y281095D02*
X214953D01*
X209047Y292905D02*
X214953D01*
X204130Y287000D02*
X207870D01*
X206000Y285130D02*
Y288870D01*
X208953Y281095D02*
Y292905D01*
X203047Y281095D02*
Y292905D01*
X208953D01*
X203047Y281095D02*
X208953D01*
X198130Y287000D02*
X201870D01*
X200000Y285130D02*
Y288870D01*
X197047Y281095D02*
Y292905D01*
X202953Y281095D02*
Y292905D01*
X197047Y281095D02*
X202953D01*
X197047Y292905D02*
X202953D01*
X198130Y275000D02*
X201870D01*
X200000Y273130D02*
Y276870D01*
X197047Y269094D02*
Y280906D01*
X202953Y269094D02*
Y280906D01*
X197047Y269094D02*
X202953D01*
X197047Y280906D02*
X202953D01*
X192130Y287000D02*
X195870D01*
X194000Y285130D02*
Y288870D01*
X196953Y281095D02*
Y292905D01*
X191047Y281095D02*
Y292905D01*
X196953D01*
X191047Y281095D02*
X196953D01*
X286156Y341297D02*
Y347203D01*
X274344Y341297D02*
Y347203D01*
Y341297D02*
X286156D01*
X274344Y347203D02*
X286156D01*
X278380Y344250D02*
X282120D01*
X280250Y342380D02*
Y346120D01*
X296797Y322344D02*
X302703D01*
X296797Y334156D02*
X302703D01*
X296797Y322344D02*
Y334156D01*
X302703Y322344D02*
Y334156D01*
X299750Y326380D02*
Y330120D01*
X297880Y328250D02*
X301620D01*
X290797Y322344D02*
X296703D01*
X290797Y334156D02*
X296703D01*
X290797Y322344D02*
Y334156D01*
X296703Y322344D02*
Y334156D01*
X293750Y326380D02*
Y330120D01*
X291880Y328250D02*
X295620D01*
X233797Y314156D02*
X239703D01*
X233797Y302344D02*
X239703D01*
Y314156D01*
X233797Y302344D02*
Y314156D01*
X236750Y306380D02*
Y310120D01*
X234880Y308250D02*
X238620D01*
X244778Y338722D02*
X285722D01*
X244778Y297778D02*
X285722D01*
Y338722D01*
X244778Y297778D02*
Y338722D01*
X257297Y353656D02*
X263203D01*
X257297Y341845D02*
X263203D01*
Y353656D01*
X257297Y341845D02*
Y353656D01*
X260250Y345880D02*
Y349620D01*
X258380Y347750D02*
X262120D01*
X251297Y353656D02*
X257203D01*
X251297Y341845D02*
X257203D01*
Y353656D01*
X251297Y341845D02*
Y353656D01*
X254250Y345880D02*
Y349620D01*
X252380Y347750D02*
X256120D01*
X263844Y277797D02*
Y283703D01*
X275656Y277797D02*
Y283703D01*
X263844D02*
X275656D01*
X263844Y277797D02*
X275656D01*
X267880Y280750D02*
X271620D01*
X269750Y278880D02*
Y282620D01*
X238345Y275297D02*
Y281203D01*
X250155Y275297D02*
Y281203D01*
X238345D02*
X250155D01*
X238345Y275297D02*
X250155D01*
X242380Y278250D02*
X246120D01*
X244250Y276380D02*
Y280120D01*
X263844Y271297D02*
Y277203D01*
X275656Y271297D02*
Y277203D01*
X263844D02*
X275656D01*
X263844Y271297D02*
X275656D01*
X267880Y274250D02*
X271620D01*
X269750Y272380D02*
Y276120D01*
X257297Y215156D02*
X263203D01*
X257297Y203344D02*
X263203D01*
Y215156D01*
X257297Y203344D02*
Y215156D01*
X260250Y207380D02*
Y211120D01*
X258380Y209250D02*
X262120D01*
X267297Y215156D02*
X273203D01*
X267297Y203344D02*
X273203D01*
Y215156D01*
X267297Y203344D02*
Y215156D01*
X270250Y207380D02*
Y211120D01*
X268380Y209250D02*
X272120D01*
X277297Y215156D02*
X283203D01*
X277297Y203344D02*
X283203D01*
Y215156D01*
X277297Y203344D02*
Y215156D01*
X280250Y207380D02*
Y211120D01*
X278380Y209250D02*
X282120D01*
X240156Y208047D02*
Y213953D01*
X228344Y208047D02*
Y213953D01*
Y208047D02*
X240156D01*
X228344Y213953D02*
X240156D01*
X232380Y211000D02*
X236120D01*
X234250Y209130D02*
Y212870D01*
X320267Y265591D02*
Y269331D01*
X318397Y267461D02*
X322137D01*
X314362Y264508D02*
X326173D01*
Y270413D01*
X314362Y264508D02*
Y270413D01*
X326173D01*
X320267Y258591D02*
Y262331D01*
X318397Y260461D02*
X322137D01*
X314362Y257508D02*
X326173D01*
Y263413D01*
X314362Y257508D02*
Y263413D01*
X326173D01*
X320267Y286630D02*
Y290370D01*
X318397Y288500D02*
X322137D01*
X314362Y285547D02*
X326173D01*
Y291453D01*
X314362Y285547D02*
Y291453D01*
X326173D01*
X320267Y279630D02*
Y283370D01*
X318397Y281500D02*
X322137D01*
X314362Y278547D02*
X326173D01*
Y284453D01*
X314362Y278547D02*
Y284453D01*
X326173D01*
X318397Y274500D02*
X322137D01*
X320267Y272630D02*
Y276370D01*
X326173Y271547D02*
Y277453D01*
X314362D02*
X326173D01*
X314362Y271547D02*
X326173D01*
X314362D02*
Y277453D01*
X287750Y272380D02*
Y276120D01*
X285880Y274250D02*
X289620D01*
X281844Y277203D02*
X293655D01*
X281844Y271297D02*
X293655D01*
X281844D02*
Y277203D01*
X293655Y271297D02*
Y277203D01*
M02*
