M48
;Layer_Color=9474304
;FILE_FORMAT=2:5
INCH,TZ
;TYPE=PLATED
T1F00S00C0.01181
T2F00S00C0.03543
T3F00S00C0.05118
;TYPE=NON_PLATED
T4F00S00C0.11811
%
T01
X314567Y203937
Y209449
X317717Y211811
Y207087
Y201181
X322441Y210630
Y218504
X313779Y224016
X315354Y246063
X311417
X307480
X300000Y238583
Y234252
X308661Y224016
X311417Y211811
Y207087
X308268Y209449
X305118Y211811
Y207087
Y201181
X308268Y203937
X311417Y201181
X294882Y204724
Y210630
Y215354
X291732Y212992
X288583Y215354
Y210630
X285433Y212992
X282283Y215354
Y210630
Y204724
X285433Y207480
X288583Y204724
X291732Y207480
X274410Y210630
X269685Y211811
Y207087
X266535Y209449
X263386Y211811
Y207087
X260236Y209449
X257087Y211811
Y207087
Y201181
X260236Y203937
X263386Y201181
X266535Y203937
X269685Y201181
X277953Y198819
X274410Y218504
X265748Y224016
X260630
X252362Y234252
Y238189
X251181Y251181
X248031Y252756
X259449Y246063
X263386
X267323
X282677Y251575
X281496Y261811
X285433Y263779
X289370Y265748
X287402Y272441
X283478Y273734
X283465Y277756
X280512Y279724
X280708Y275590
X270866Y274803
Y270866
Y266929
X266929
X262992
Y270866
X266929
Y274803
X262992
Y278740
X266929
X270866
X259055
Y274803
Y270866
Y266929
X253937Y284646
X262008Y288878
X265945
X258366Y293799
X260327Y296161
X275984Y294882
X275394Y308169
X275197Y311417
X270079Y311024
X288976Y312205
X289370Y303543
X291732Y296063
Y287008
X298031Y301969
X297244Y307087
X305118Y303150
X292520Y248425
X219291Y246063
X215354
X211417
X212598Y224016
X217717
X226378Y218504
Y210630
X221654Y211811
Y207087
X218504Y209449
X215354Y211811
Y207087
X212205Y209449
X209055Y211811
Y207087
Y201181
X212205Y203937
X215354Y201181
X218504Y203937
X221654Y201181
X229921Y198819
X234252Y204724
Y210630
Y215354
X237402Y212992
X240551Y215354
Y210630
X243701Y212992
X246850Y215354
Y210630
Y204724
X243701Y207480
X240551Y204724
X237402Y207480
X198819Y204724
X195669Y207480
Y212992
X192520Y215354
Y210630
X189370Y212992
X186221Y215354
Y210630
Y204724
X189370Y207480
X192520Y204724
X198819Y210630
Y215354
X181890Y198819
X187402Y294882
Y300787
Y306693
X212598Y305512
X237795Y301969
X240158Y296457
Y292520
X238189Y283465
X234252
X237402Y311811
X243701Y309055
X239764Y314567
X238583Y318110
X241732Y320472
X243307Y323173
Y327110
X240158Y332677
X230315Y327165
X218504
X206693Y327559
X200787Y316929
X212598Y314961
X224410
Y346063
X230315
X218504
X212598
X206693
X200787
X248819Y340551
X253937Y342520
X258358Y340158
X264268
X268504Y352756
X287402Y344488
Y324016
X301969Y328346
X255118Y325138
Y321201
T02
X330709Y287244
X340709
Y297244
X330709
Y307244
X340709
Y317244
X330709
T03
X241565Y165055
X261250
X280935
X185433Y257087
Y276772
T04
X330709Y165354
X185039
Y342520
X330709
M30
