G04*
G04 #@! TF.GenerationSoftware,Altium Limited,Altium Designer,18.1.9 (240)*
G04*
G04 Layer_Physical_Order=2*
G04 Layer_Color=16711680*
%FSLAX25Y25*%
%MOIN*%
G70*
G01*
G75*
%ADD50C,0.01181*%
%ADD52C,0.01000*%
%ADD57C,0.03937*%
%ADD58C,0.07874*%
%ADD59R,0.05906X0.05906*%
%ADD60C,0.05906*%
%ADD61C,0.01968*%
%ADD62C,0.02362*%
G36*
X366053Y357931D02*
X368546Y357263D01*
X370930Y356276D01*
X373165Y354986D01*
X375212Y353415D01*
X377037Y351590D01*
X378608Y349543D01*
X379898Y347308D01*
X380885Y344924D01*
X381553Y342431D01*
X381890Y339873D01*
X381890Y338583D01*
X381890Y338582D01*
X381890Y338582D01*
X381890Y214567D01*
X372047Y204724D01*
X311614D01*
X305709Y198819D01*
X305709Y185039D01*
X304528Y183858D01*
X297244Y183858D01*
X296063Y185039D01*
X296063Y198819D01*
X290158Y204724D01*
X279862D01*
Y216561D01*
X279882Y216574D01*
X280233Y217098D01*
X280356Y217717D01*
X280233Y218335D01*
X279882Y218859D01*
X279358Y219209D01*
X278740Y219332D01*
X278122Y219209D01*
X277598Y218859D01*
X277248Y218335D01*
X277125Y217717D01*
X277248Y217098D01*
X277598Y216574D01*
X277619Y216561D01*
Y204724D01*
X273956D01*
Y216363D01*
X273976Y216377D01*
X274326Y216901D01*
X274449Y217519D01*
X274326Y218137D01*
X273976Y218661D01*
X273452Y219012D01*
X272834Y219134D01*
X272216Y219012D01*
X271692Y218661D01*
X271342Y218137D01*
X271219Y217519D01*
X271342Y216901D01*
X271692Y216377D01*
X271713Y216363D01*
Y204724D01*
X269625D01*
Y215182D01*
X269646Y215196D01*
X269996Y215720D01*
X270119Y216338D01*
X269996Y216956D01*
X269646Y217480D01*
X269122Y217830D01*
X268503Y217953D01*
X267885Y217830D01*
X267361Y217480D01*
X267011Y216956D01*
X266888Y216338D01*
X267011Y215720D01*
X267361Y215196D01*
X267382Y215182D01*
Y204724D01*
X263720D01*
Y217348D01*
X263740Y217361D01*
X264090Y217885D01*
X264213Y218503D01*
X264090Y219122D01*
X263740Y219646D01*
X263216Y219996D01*
X262598Y220119D01*
X261980Y219996D01*
X261456Y219646D01*
X261106Y219122D01*
X260983Y218503D01*
X261106Y217885D01*
X261456Y217361D01*
X261476Y217348D01*
Y204724D01*
X248200D01*
X248009Y205186D01*
X257937Y215114D01*
X258043Y215043D01*
X258661Y214920D01*
X259280Y215043D01*
X259804Y215393D01*
X260154Y215917D01*
X260277Y216535D01*
X260154Y217154D01*
X259804Y217678D01*
X259280Y218028D01*
X258661Y218151D01*
X258043Y218028D01*
X257519Y217678D01*
X257465Y217596D01*
X257343Y217572D01*
X256979Y217329D01*
X256979Y217329D01*
X255835Y216184D01*
X255553Y216275D01*
X255343Y216400D01*
X255233Y216957D01*
X254882Y217481D01*
X254372Y217822D01*
X254300Y217876D01*
X254203Y218360D01*
X264222Y228379D01*
X275344D01*
X275358Y228358D01*
X275882Y228008D01*
X276500Y227885D01*
X277118Y228008D01*
X277642Y228358D01*
X277992Y228882D01*
X278115Y229500D01*
X277992Y230118D01*
X277642Y230642D01*
X277118Y230992D01*
X276500Y231115D01*
X275882Y230992D01*
X275358Y230642D01*
X275344Y230622D01*
X263757D01*
X263328Y230536D01*
X262964Y230293D01*
X262964Y230293D01*
X254222Y221550D01*
X253721Y221758D01*
Y224885D01*
X256726Y227890D01*
X256750Y227885D01*
X257368Y228008D01*
X257892Y228358D01*
X258242Y228882D01*
X258365Y229500D01*
X258242Y230118D01*
X257892Y230642D01*
X257368Y230992D01*
X256750Y231115D01*
X256132Y230992D01*
X255608Y230642D01*
X255258Y230118D01*
X255135Y229500D01*
X255140Y229476D01*
X252371Y226707D01*
X251909Y226898D01*
Y228372D01*
X251930Y228385D01*
X252280Y228909D01*
X252403Y229528D01*
X252280Y230146D01*
X251930Y230670D01*
X251406Y231020D01*
X250787Y231143D01*
X250169Y231020D01*
X249645Y230670D01*
X249295Y230146D01*
X249172Y229528D01*
X249295Y228909D01*
X249645Y228385D01*
X249666Y228372D01*
Y224002D01*
X248561Y222897D01*
X248100Y223144D01*
X248122Y223250D01*
Y228344D01*
X248142Y228358D01*
X248492Y228882D01*
X248615Y229500D01*
X248492Y230118D01*
X248142Y230642D01*
X247618Y230992D01*
X247000Y231115D01*
X246382Y230992D01*
X245858Y230642D01*
X245508Y230118D01*
X245385Y229500D01*
X245508Y228882D01*
X245858Y228358D01*
X245879Y228344D01*
Y223715D01*
X240774Y218610D01*
X240750Y218615D01*
X240132Y218492D01*
X239608Y218142D01*
X239258Y217618D01*
X239135Y217000D01*
X239258Y216382D01*
X239608Y215858D01*
X240005Y215592D01*
X240070Y215164D01*
X240043Y215016D01*
X239858Y214892D01*
X239508Y214368D01*
X239385Y213750D01*
X239508Y213132D01*
X239858Y212608D01*
X240382Y212258D01*
X241000Y212135D01*
X241426Y212220D01*
X241673Y211759D01*
X239882Y209968D01*
X229118D01*
X224622Y214465D01*
Y233844D01*
X224642Y233858D01*
X224992Y234382D01*
X225115Y235000D01*
X224992Y235618D01*
X224642Y236142D01*
X224118Y236492D01*
X223500Y236615D01*
X222882Y236492D01*
X222358Y236142D01*
X222008Y235618D01*
X222005Y235604D01*
X221495D01*
X221492Y235618D01*
X221142Y236142D01*
X220618Y236492D01*
X220000Y236615D01*
X219382Y236492D01*
X218858Y236142D01*
X218508Y235618D01*
X218505Y235604D01*
X217995D01*
X217992Y235618D01*
X217642Y236142D01*
X217118Y236492D01*
X216500Y236615D01*
X215882Y236492D01*
X215358Y236142D01*
X215008Y235618D01*
X214885Y235000D01*
X215008Y234382D01*
X215358Y233858D01*
X215378Y233844D01*
Y213500D01*
X215378Y213500D01*
X215464Y213071D01*
X215707Y212707D01*
X222707Y205707D01*
X222707Y205707D01*
X223071Y205464D01*
X223500Y205379D01*
X239860D01*
X240124Y204878D01*
X240020Y204724D01*
X221260D01*
X221260Y201181D01*
X232283Y190157D01*
X232283Y184843D01*
X231102Y183661D01*
X220275Y183661D01*
X199213Y204724D01*
X196850D01*
X181102Y220472D01*
X181102Y232283D01*
X173228Y240158D01*
X153543Y240158D01*
X145669Y248031D01*
X145669Y251969D01*
Y338583D01*
Y339873D01*
X146006Y342431D01*
X146674Y344924D01*
X147661Y347308D01*
X148952Y349542D01*
X150522Y351590D01*
X152347Y353414D01*
X154394Y354985D01*
X156629Y356275D01*
X159013Y357263D01*
X161505Y357931D01*
X164064Y358267D01*
X165354D01*
X165354Y358268D01*
X362205Y358268D01*
X363495Y358268D01*
X366053Y357931D01*
D02*
G37*
G36*
X218508Y234382D02*
X218858Y233858D01*
X218879Y233844D01*
Y218280D01*
X218783Y218138D01*
X218660Y217520D01*
X218783Y216901D01*
X219133Y216377D01*
X219657Y216027D01*
X220276Y215904D01*
X220894Y216027D01*
X221418Y216377D01*
X221768Y216901D01*
X221879Y217457D01*
X222378Y217408D01*
Y214000D01*
X222378Y214000D01*
X222464Y213571D01*
X222707Y213207D01*
X227792Y208121D01*
X227740Y207849D01*
X227607Y207622D01*
X223965D01*
X217621Y213965D01*
Y233844D01*
X217642Y233858D01*
X217992Y234382D01*
X217995Y234396D01*
X218505D01*
X218508Y234382D01*
D02*
G37*
G36*
X173228Y228346D02*
X173228Y177165D01*
X196850Y153543D01*
X360276Y153543D01*
X377953Y135866D01*
X377953Y125984D01*
X374016Y122047D01*
X165436D01*
X149606Y138122D01*
X149606Y228346D01*
X155512Y234252D01*
X167323Y234252D01*
X173228Y228346D01*
D02*
G37*
%LPC*%
G36*
X366142Y349057D02*
X364866Y348931D01*
X363640Y348559D01*
X362510Y347955D01*
X361519Y347142D01*
X360706Y346151D01*
X360102Y345021D01*
X359730Y343795D01*
X359605Y342520D01*
X359730Y341244D01*
X360102Y340018D01*
X360706Y338888D01*
X361519Y337897D01*
X362510Y337084D01*
X363640Y336480D01*
X364866Y336108D01*
X366142Y335983D01*
X367417Y336108D01*
X368643Y336480D01*
X369774Y337084D01*
X370764Y337897D01*
X371577Y338888D01*
X372181Y340018D01*
X372553Y341244D01*
X372679Y342520D01*
X372553Y343795D01*
X372181Y345021D01*
X371577Y346151D01*
X370764Y347142D01*
X369774Y347955D01*
X368643Y348559D01*
X367417Y348931D01*
X366142Y349057D01*
D02*
G37*
G36*
X161417D02*
X160142Y348931D01*
X158916Y348559D01*
X157786Y347955D01*
X156795Y347142D01*
X155982Y346151D01*
X155378Y345021D01*
X155006Y343795D01*
X154880Y342520D01*
X155006Y341244D01*
X155378Y340018D01*
X155982Y338888D01*
X156795Y337897D01*
X157786Y337084D01*
X158916Y336480D01*
X160142Y336108D01*
X161417Y335983D01*
X162693Y336108D01*
X163919Y336480D01*
X165049Y337084D01*
X166040Y337897D01*
X166853Y338888D01*
X167457Y340018D01*
X167829Y341244D01*
X167954Y342520D01*
X167829Y343795D01*
X167457Y345021D01*
X166853Y346151D01*
X166040Y347142D01*
X165049Y347955D01*
X163919Y348559D01*
X162693Y348931D01*
X161417Y349057D01*
D02*
G37*
G36*
X289441Y330306D02*
X289441Y330306D01*
X257137D01*
X257137Y330306D01*
X256708Y330220D01*
X256344Y329977D01*
X256344Y329977D01*
X242908Y316541D01*
X242665Y316178D01*
X242579Y315748D01*
X242579Y315748D01*
Y312573D01*
X242559Y312560D01*
X242209Y312035D01*
X242086Y311417D01*
X242209Y310799D01*
X242559Y310275D01*
X243083Y309925D01*
X243701Y309802D01*
X244319Y309925D01*
X244843Y310275D01*
X245193Y310799D01*
X245316Y311417D01*
X245193Y312035D01*
X244843Y312560D01*
X244822Y312573D01*
Y315284D01*
X254034Y324495D01*
X254596Y324350D01*
X254858Y323958D01*
X254878Y323944D01*
Y316800D01*
X254878Y316800D01*
X254964Y316371D01*
X255207Y316007D01*
X277563Y293651D01*
Y281218D01*
X275354Y279009D01*
X275111Y278645D01*
X275026Y278216D01*
X275026Y278216D01*
Y266938D01*
X275026Y266938D01*
X275048Y266828D01*
X274908Y266618D01*
X274785Y266000D01*
X274908Y265382D01*
X275258Y264858D01*
X275782Y264508D01*
X276400Y264385D01*
X277018Y264508D01*
X277542Y264858D01*
X277892Y265382D01*
X278015Y266000D01*
X278478Y266235D01*
X278850Y266309D01*
X279374Y266659D01*
X279724Y267183D01*
X279847Y267801D01*
X279724Y268419D01*
X279374Y268943D01*
X279353Y268957D01*
Y269663D01*
X279853Y269815D01*
X279958Y269658D01*
X280482Y269308D01*
X280616Y269281D01*
X280908Y268818D01*
X280785Y268200D01*
X280908Y267582D01*
X281258Y267058D01*
X281782Y266708D01*
X282400Y266585D01*
X283018Y266708D01*
X283542Y267058D01*
X283892Y267582D01*
X284015Y268200D01*
X283967Y268443D01*
X284277Y268753D01*
X284277Y268753D01*
X284520Y269117D01*
X284606Y269546D01*
X284606Y269546D01*
Y300713D01*
X284606Y300713D01*
X284520Y301143D01*
X284277Y301506D01*
X284277Y301506D01*
X274487Y311296D01*
X274655Y311836D01*
X275018Y311908D01*
X275542Y312258D01*
X275892Y312782D01*
X276015Y313400D01*
X276010Y313424D01*
X278549Y315963D01*
X289382D01*
X289677Y315463D01*
X289585Y315000D01*
X289708Y314382D01*
X290058Y313858D01*
X290078Y313844D01*
Y313063D01*
X289987Y313008D01*
X289794Y313087D01*
X289496Y313297D01*
X289392Y313818D01*
X289042Y314342D01*
X288518Y314692D01*
X287900Y314815D01*
X287282Y314692D01*
X286758Y314342D01*
X286408Y313818D01*
X286285Y313200D01*
X286333Y312957D01*
X285807Y312431D01*
X285564Y312067D01*
X285478Y311638D01*
X285478Y311638D01*
Y269156D01*
X285458Y269142D01*
X285108Y268618D01*
X284985Y268000D01*
X285108Y267382D01*
X285458Y266858D01*
X285982Y266508D01*
X286600Y266385D01*
X287043Y266008D01*
X287108Y265682D01*
X287458Y265158D01*
X287982Y264808D01*
X288600Y264685D01*
X289218Y264808D01*
X289742Y265158D01*
X290092Y265682D01*
X290215Y266300D01*
X290092Y266918D01*
X289806Y267347D01*
Y309320D01*
X291993Y311507D01*
X291993Y311507D01*
X292236Y311871D01*
X292322Y312300D01*
X292321Y312300D01*
Y313844D01*
X292342Y313858D01*
X292604Y314250D01*
X293166Y314395D01*
X293618Y313944D01*
Y276861D01*
X293618Y276861D01*
X293703Y276432D01*
X293946Y276068D01*
X295990Y274024D01*
X295985Y274000D01*
X296108Y273382D01*
X296458Y272858D01*
X296982Y272508D01*
X297600Y272385D01*
X298218Y272508D01*
X298742Y272858D01*
X299092Y273382D01*
X299215Y274000D01*
X299092Y274618D01*
X298742Y275142D01*
X298218Y275492D01*
X297600Y275615D01*
X297576Y275610D01*
X295861Y277326D01*
Y314408D01*
X295861Y314409D01*
X295775Y314838D01*
X295532Y315202D01*
X295532Y315202D01*
X293433Y317301D01*
X293624Y317763D01*
X297014D01*
X298179Y316598D01*
Y279956D01*
X298158Y279942D01*
X297808Y279418D01*
X297685Y278800D01*
X297808Y278182D01*
X298158Y277658D01*
X298682Y277308D01*
X299300Y277185D01*
X299918Y277308D01*
X300442Y277658D01*
X300792Y278182D01*
X300915Y278800D01*
X300792Y279418D01*
X300442Y279942D01*
X300422Y279956D01*
Y315965D01*
X300884Y316156D01*
X311194Y305845D01*
Y291837D01*
X311194Y291837D01*
X311280Y291407D01*
X311523Y291044D01*
X313763Y288804D01*
Y287418D01*
X313263Y287123D01*
X312800Y287215D01*
X312182Y287092D01*
X311658Y286742D01*
X311308Y286218D01*
X311185Y285600D01*
X311308Y284982D01*
X311658Y284458D01*
X311679Y284444D01*
Y280765D01*
X309173Y278260D01*
X308631Y278424D01*
X308592Y278618D01*
X308242Y279142D01*
X307718Y279492D01*
X307100Y279615D01*
X306482Y279492D01*
X305958Y279142D01*
X305608Y278618D01*
X305552Y278338D01*
X289778Y262564D01*
X266777D01*
X262240Y267101D01*
X262245Y267126D01*
X262122Y267744D01*
X261772Y268268D01*
X261751Y268281D01*
Y284365D01*
X264676Y287290D01*
X264700Y287285D01*
X265318Y287408D01*
X265842Y287758D01*
X266192Y288282D01*
X266315Y288900D01*
X266192Y289518D01*
X265842Y290042D01*
X265450Y290304D01*
X265305Y290866D01*
X265886Y291447D01*
X266200Y291385D01*
X266818Y291508D01*
X267342Y291858D01*
X267692Y292382D01*
X267815Y293000D01*
X267692Y293618D01*
X267342Y294142D01*
X266818Y294492D01*
X266200Y294615D01*
X265582Y294492D01*
X265058Y294142D01*
X264708Y293618D01*
X264664Y293397D01*
X255607Y284341D01*
X255364Y283977D01*
X255278Y283548D01*
X255278Y283547D01*
Y269956D01*
X255258Y269942D01*
X254908Y269418D01*
X254785Y268800D01*
X254908Y268182D01*
X255258Y267658D01*
X255782Y267308D01*
X256400Y267185D01*
X256424Y267190D01*
X257441Y266172D01*
X257509Y265833D01*
X257752Y265469D01*
X264172Y259050D01*
X264536Y258806D01*
X264965Y258721D01*
X264965Y258721D01*
X292342D01*
X292342Y258721D01*
X292772Y258806D01*
X293136Y259050D01*
X313263Y279177D01*
X313763Y278970D01*
Y263292D01*
X312542Y262071D01*
X312518Y262076D01*
X311900Y261953D01*
X311375Y261603D01*
X311025Y261079D01*
X310902Y260461D01*
X311025Y259842D01*
X311375Y259318D01*
X311900Y258968D01*
X312518Y258845D01*
X313136Y258968D01*
X313660Y259318D01*
X314010Y259842D01*
X314133Y260461D01*
X314128Y260485D01*
X315677Y262034D01*
X315677Y262034D01*
X315920Y262398D01*
X316006Y262827D01*
X316006Y262827D01*
Y289268D01*
X316006Y289268D01*
X315920Y289697D01*
X315677Y290061D01*
X315677Y290061D01*
X315005Y290734D01*
X315150Y291296D01*
X315542Y291558D01*
X315556Y291579D01*
X319835D01*
X334847Y276567D01*
Y261312D01*
X334847Y261312D01*
X334933Y260883D01*
X335176Y260519D01*
X359598Y236097D01*
X359598Y236097D01*
X359962Y235854D01*
X360391Y235768D01*
X373588D01*
X373865Y235098D01*
X374435Y234356D01*
X375177Y233786D01*
X376041Y233429D01*
X376969Y233306D01*
X377896Y233429D01*
X378760Y233786D01*
X379502Y234356D01*
X380072Y235098D01*
X380430Y235962D01*
X380552Y236890D01*
X380430Y237817D01*
X380072Y238682D01*
X379502Y239424D01*
X378760Y239993D01*
X377896Y240351D01*
X376969Y240473D01*
X376041Y240351D01*
X375177Y239993D01*
X374435Y239424D01*
X373865Y238682D01*
X373588Y238011D01*
X360856D01*
X337090Y261776D01*
Y277031D01*
X337090Y277031D01*
X337005Y277460D01*
X336762Y277824D01*
X336762Y277824D01*
X321093Y293493D01*
X320729Y293736D01*
X320300Y293822D01*
X320300Y293822D01*
X315556D01*
X315542Y293842D01*
X315018Y294192D01*
X314400Y294315D01*
X313937Y294223D01*
X313437Y294518D01*
Y306310D01*
X313437Y306310D01*
X313352Y306739D01*
X313109Y307103D01*
X313109Y307103D01*
X290234Y329977D01*
X289870Y330220D01*
X289441Y330306D01*
D02*
G37*
G36*
X380521Y320639D02*
X373416D01*
Y313534D01*
X380521D01*
Y320639D01*
D02*
G37*
G36*
X376969Y310670D02*
X376041Y310548D01*
X375177Y310190D01*
X374435Y309620D01*
X373865Y308878D01*
X373507Y308014D01*
X373385Y307087D01*
X373507Y306159D01*
X373865Y305295D01*
X374435Y304553D01*
X375177Y303983D01*
X376041Y303625D01*
X376969Y303503D01*
X377896Y303625D01*
X378760Y303983D01*
X379502Y304553D01*
X380072Y305295D01*
X380430Y306159D01*
X380552Y307087D01*
X380430Y308014D01*
X380072Y308878D01*
X379502Y309620D01*
X378760Y310190D01*
X377896Y310548D01*
X376969Y310670D01*
D02*
G37*
G36*
X234252Y349075D02*
X226378D01*
X225919Y348884D01*
X225729Y348425D01*
Y301181D01*
X225919Y300722D01*
X226378Y300532D01*
X234252D01*
X234711Y300722D01*
X234901Y301181D01*
Y348425D01*
X234711Y348884D01*
X234252Y349075D01*
D02*
G37*
G36*
X350500Y320915D02*
X349882Y320792D01*
X349358Y320442D01*
X349008Y319918D01*
X348885Y319300D01*
X349008Y318682D01*
X349358Y318158D01*
X349882Y317808D01*
X350500Y317685D01*
X350524Y317690D01*
X371920Y296294D01*
X371920Y296293D01*
X372284Y296050D01*
X372713Y295965D01*
X372713Y295965D01*
X373588D01*
X373865Y295295D01*
X374435Y294553D01*
X375177Y293983D01*
X376041Y293625D01*
X376969Y293503D01*
X377896Y293625D01*
X378760Y293983D01*
X379502Y294553D01*
X380072Y295295D01*
X380430Y296159D01*
X380552Y297087D01*
X380430Y298014D01*
X380072Y298878D01*
X379502Y299620D01*
X378760Y300190D01*
X377896Y300548D01*
X376969Y300670D01*
X376041Y300548D01*
X375177Y300190D01*
X374435Y299620D01*
X373865Y298878D01*
X373633Y298317D01*
X373126Y298260D01*
X352110Y319276D01*
X352115Y319300D01*
X351992Y319918D01*
X351642Y320442D01*
X351118Y320792D01*
X350500Y320915D01*
D02*
G37*
G36*
X377468Y291008D02*
Y287587D01*
X380890D01*
X380820Y288119D01*
X380421Y289080D01*
X379788Y289906D01*
X378962Y290539D01*
X378000Y290938D01*
X377468Y291008D01*
D02*
G37*
G36*
X376468Y291008D02*
X375937Y290938D01*
X374975Y290539D01*
X374149Y289906D01*
X373516Y289080D01*
X373117Y288119D01*
X373047Y287587D01*
X376468D01*
Y291008D01*
D02*
G37*
G36*
Y286587D02*
X373047D01*
X373117Y286055D01*
X373516Y285093D01*
X374149Y284267D01*
X374975Y283634D01*
X375937Y283236D01*
X376468Y283166D01*
Y286587D01*
D02*
G37*
G36*
X380890D02*
X377468D01*
Y283166D01*
X378000Y283236D01*
X378962Y283634D01*
X379788Y284267D01*
X380421Y285093D01*
X380820Y286055D01*
X380890Y286587D01*
D02*
G37*
G36*
X380521Y270443D02*
X373416D01*
Y263337D01*
X380521D01*
Y270443D01*
D02*
G37*
G36*
X376969Y260473D02*
X376041Y260351D01*
X375177Y259993D01*
X374435Y259424D01*
X373865Y258682D01*
X373507Y257817D01*
X373385Y256890D01*
X373507Y255962D01*
X373865Y255098D01*
X374435Y254356D01*
X375177Y253786D01*
X376041Y253429D01*
X376969Y253306D01*
X377896Y253429D01*
X378760Y253786D01*
X379502Y254356D01*
X380072Y255098D01*
X380430Y255962D01*
X380552Y256890D01*
X380430Y257817D01*
X380072Y258682D01*
X379502Y259424D01*
X378760Y259993D01*
X377896Y260351D01*
X376969Y260473D01*
D02*
G37*
G36*
X314567Y339804D02*
X313949Y339681D01*
X313425Y339331D01*
X313075Y338807D01*
X312952Y338189D01*
X313075Y337571D01*
X313425Y337047D01*
X313445Y337033D01*
Y320176D01*
X313445Y320176D01*
X313531Y319747D01*
X313774Y319383D01*
X354022Y279135D01*
Y268479D01*
X354022Y268479D01*
X354107Y268050D01*
X354350Y267686D01*
X373716Y248320D01*
X373507Y247817D01*
X373385Y246890D01*
X373507Y245962D01*
X373865Y245098D01*
X374435Y244356D01*
X375177Y243786D01*
X376041Y243428D01*
X376969Y243306D01*
X377896Y243428D01*
X378760Y243786D01*
X379502Y244356D01*
X380072Y245098D01*
X380430Y245962D01*
X380552Y246890D01*
X380430Y247817D01*
X380072Y248681D01*
X379502Y249424D01*
X378760Y249993D01*
X377896Y250351D01*
X376969Y250473D01*
X376041Y250351D01*
X375204Y250004D01*
X356265Y268943D01*
Y279600D01*
X356265Y279600D01*
X356179Y280029D01*
X355936Y280393D01*
X355936Y280393D01*
X315688Y320641D01*
Y337033D01*
X315709Y337047D01*
X316059Y337571D01*
X316182Y338189D01*
X316059Y338807D01*
X315709Y339331D01*
X315185Y339681D01*
X314567Y339804D01*
D02*
G37*
G36*
X376969Y230473D02*
X376041Y230351D01*
X375177Y229993D01*
X374435Y229424D01*
X373865Y228681D01*
X373507Y227817D01*
X373385Y226890D01*
X373507Y225962D01*
X373865Y225098D01*
X374435Y224356D01*
X375177Y223786D01*
X376041Y223429D01*
X376969Y223306D01*
X377896Y223429D01*
X378760Y223786D01*
X379502Y224356D01*
X380072Y225098D01*
X380430Y225962D01*
X380552Y226890D01*
X380430Y227817D01*
X380072Y228681D01*
X379502Y229424D01*
X378760Y229993D01*
X377896Y230351D01*
X376969Y230473D01*
D02*
G37*
G36*
X377468Y220811D02*
Y217390D01*
X380890D01*
X380820Y217922D01*
X380421Y218883D01*
X379788Y219709D01*
X378962Y220342D01*
X378000Y220741D01*
X377468Y220811D01*
D02*
G37*
G36*
X376468Y220811D02*
X375937Y220741D01*
X374975Y220342D01*
X374149Y219709D01*
X373516Y218883D01*
X373117Y217922D01*
X373047Y217390D01*
X376468D01*
Y220811D01*
D02*
G37*
G36*
Y216390D02*
X373047D01*
X373117Y215858D01*
X373516Y214896D01*
X374149Y214071D01*
X374975Y213437D01*
X375937Y213039D01*
X376468Y212969D01*
Y216390D01*
D02*
G37*
G36*
X380890D02*
X377468D01*
Y212969D01*
X378000Y213039D01*
X378962Y213437D01*
X379788Y214071D01*
X380421Y214896D01*
X380820Y215858D01*
X380890Y216390D01*
D02*
G37*
%LPD*%
G36*
X296572Y320468D02*
X296380Y320006D01*
X275684D01*
X275684Y320006D01*
X275255Y319920D01*
X274891Y319677D01*
X274891Y319677D01*
X273324Y318110D01*
X273300Y318115D01*
X272682Y317992D01*
X272158Y317642D01*
X271808Y317118D01*
X271685Y316500D01*
X271808Y315882D01*
X272158Y315358D01*
X272682Y315008D01*
X272974Y314949D01*
X273047Y314845D01*
X273164Y314402D01*
X272908Y314018D01*
X272835Y313655D01*
X272296Y313487D01*
X261306Y324478D01*
Y325753D01*
X261592Y326182D01*
X261715Y326800D01*
X261592Y327418D01*
X261496Y327563D01*
X261763Y328063D01*
X288977D01*
X296572Y320468D01*
D02*
G37*
G36*
X282363Y300249D02*
Y297202D01*
X281901Y297011D01*
X261122Y317790D01*
Y320094D01*
X261142Y320108D01*
X261404Y320500D01*
X261966Y320645D01*
X282363Y300249D01*
D02*
G37*
G36*
X259508Y284362D02*
Y268281D01*
X259487Y268268D01*
X259382Y268111D01*
X258739Y268047D01*
X258010Y268776D01*
X258015Y268800D01*
X257892Y269418D01*
X257542Y269942D01*
X257522Y269956D01*
Y283083D01*
X259008Y284569D01*
X259508Y284362D01*
D02*
G37*
G36*
X234252Y301181D02*
X226378D01*
Y348425D01*
X234252D01*
Y301181D01*
D02*
G37*
D50*
X242719Y234573D02*
D03*
Y239691D02*
D03*
Y244809D02*
D03*
Y249927D02*
D03*
X247837Y234573D02*
D03*
Y239691D02*
D03*
Y244809D02*
D03*
Y249927D02*
D03*
X252955Y234573D02*
D03*
Y239691D02*
D03*
Y244809D02*
D03*
Y249927D02*
D03*
X258073Y234573D02*
D03*
Y239691D02*
D03*
Y244809D02*
D03*
Y249927D02*
D03*
X263191Y234573D02*
D03*
Y239691D02*
D03*
Y244809D02*
D03*
Y249927D02*
D03*
X268309Y234573D02*
D03*
Y239691D02*
D03*
Y244809D02*
D03*
Y249927D02*
D03*
X288781Y234573D02*
D03*
Y239691D02*
D03*
Y244809D02*
D03*
Y249927D02*
D03*
X283663Y234573D02*
D03*
Y239691D02*
D03*
Y244809D02*
D03*
Y249927D02*
D03*
X273427Y234573D02*
D03*
Y239691D02*
D03*
Y244809D02*
D03*
Y249927D02*
D03*
X278545D02*
D03*
Y244809D02*
D03*
Y239691D02*
D03*
Y234573D02*
D03*
D52*
X290243Y261442D02*
X306800Y278000D01*
X266312Y261442D02*
X290243D01*
X260629Y267126D02*
X266312Y261442D01*
X292342Y259842D02*
X312800Y280300D01*
X264965Y259842D02*
X292342D01*
X258545Y266262D02*
X264965Y259842D01*
X240757Y206500D02*
X263757Y229500D01*
X223500Y206500D02*
X240757D01*
X216500Y213500D02*
X223500Y206500D01*
X216500Y213500D02*
Y235000D01*
X223500Y214000D02*
X228653Y208847D01*
X223500Y214000D02*
Y235000D01*
X220000Y217795D02*
Y235000D01*
Y217795D02*
X220276Y217520D01*
X314884Y262827D02*
Y289268D01*
X312557Y260500D02*
X314884Y262827D01*
X312300Y260500D02*
X312557D01*
X312316Y291837D02*
X314884Y289268D01*
X312316Y291837D02*
Y306310D01*
X243701Y311417D02*
Y315748D01*
X257137Y329184D02*
X289441D01*
X312316Y306310D01*
X243701Y315748D02*
X257137Y329184D01*
X320300Y292700D02*
X335969Y277031D01*
X314400Y292700D02*
X320300D01*
X376969Y236890D02*
X377010D01*
X360391D02*
X376969D01*
X335969Y261312D02*
Y277031D01*
X294739Y276861D02*
X297600Y274000D01*
X274400Y313400D02*
X278084Y317084D01*
X299300Y278800D02*
Y317063D01*
X297479Y318884D02*
X299300Y317063D01*
X306800Y278000D02*
X307100D01*
X312800Y280300D02*
Y285600D01*
X335969Y261312D02*
X360391Y236890D01*
X291200Y312300D02*
Y315000D01*
X288684Y309784D02*
X291200Y312300D01*
X288684Y266384D02*
Y309784D01*
X288600Y266300D02*
X288684Y266384D01*
X286600Y268000D02*
Y311638D01*
X282400Y268200D02*
Y268462D01*
X278232Y267801D02*
Y278038D01*
X276147Y266938D02*
Y278216D01*
Y266938D02*
X276215Y266870D01*
Y266185D02*
Y266870D01*
X287900Y312938D02*
Y313200D01*
X286600Y311638D02*
X287900Y312938D01*
X294739Y276861D02*
Y314409D01*
X278084Y317084D02*
X292063D01*
X275684Y318884D02*
X297479D01*
X292063Y317084D02*
X294739Y314409D01*
X260184Y324013D02*
X283484Y300713D01*
X260184Y324013D02*
Y326716D01*
X283484Y269546D02*
Y300713D01*
X260100Y326800D02*
X260184Y326716D01*
X281884Y279428D02*
Y295441D01*
X260000Y317325D02*
X281884Y295441D01*
X260000Y317325D02*
Y321250D01*
X280284Y280090D02*
Y294778D01*
X257916Y317147D02*
X280284Y294778D01*
X257916Y317147D02*
Y322816D01*
X278684Y280753D02*
Y294116D01*
X256000Y316800D02*
X278684Y294116D01*
X256000Y316800D02*
Y325100D01*
X273300Y316500D02*
X275684Y318884D01*
X266015Y292815D02*
X266200Y293000D01*
X265667Y292815D02*
X266015D01*
X256400Y283548D02*
X265667Y292815D01*
X256400Y268800D02*
Y283548D01*
X260629Y284829D02*
X264700Y288900D01*
X260629Y267171D02*
Y284829D01*
X278232Y278038D02*
X280284Y280090D01*
X281100Y270800D02*
Y278643D01*
X282400Y268462D02*
X283484Y269546D01*
X276215Y266185D02*
X276400Y266000D01*
X276147Y278216D02*
X278684Y280753D01*
X281100Y278643D02*
X281884Y279428D01*
X256400Y268800D02*
X258545Y266655D01*
Y266262D02*
Y266655D01*
X372713Y297087D02*
X376813D01*
X350500Y319300D02*
X372713Y297087D01*
X376813D02*
X376900Y297000D01*
X355143Y268479D02*
X377165Y246457D01*
X314567Y320176D02*
Y338189D01*
X355143Y268479D02*
Y279600D01*
X314567Y320176D02*
X355143Y279600D01*
X262598Y197598D02*
Y218503D01*
X240250Y175250D02*
X262598Y197598D01*
X268503Y193788D02*
Y216338D01*
X272834Y197344D02*
Y217519D01*
X278740Y193702D02*
Y217717D01*
X278740Y193701D02*
X278740Y193702D01*
X257772Y216535D02*
X258661D01*
X263757Y229500D02*
X276500D01*
X237236Y196000D02*
X257772Y216535D01*
X253543Y216339D02*
X253740D01*
X235289Y198084D02*
X253543Y216339D01*
X278740Y193701D02*
X296063Y176378D01*
X272834Y197344D02*
X295928Y174250D01*
X311250D01*
X268503Y193788D02*
X274250Y188041D01*
Y187250D02*
Y188041D01*
X228399Y198084D02*
X235289D01*
X250787Y223537D02*
Y229528D01*
X241000Y213750D02*
X250787Y223537D01*
X252600Y221100D02*
Y225350D01*
X252500Y221000D02*
X252600Y221100D01*
Y225350D02*
X256750Y229500D01*
X257916Y322816D02*
X258100Y323000D01*
X244250Y193250D02*
X251100Y200100D01*
Y203100D01*
X228346Y198031D02*
X228399Y198084D01*
X230000Y196000D02*
X237236D01*
X258250Y196250D02*
Y202250D01*
X334646Y176378D02*
X345276Y187008D01*
X296063Y176378D02*
X334646D01*
X232472Y170472D02*
X258250Y196250D01*
X203028Y170472D02*
X232472D01*
X199250Y174250D02*
X203028Y170472D01*
X240250Y174250D02*
Y175250D01*
X228653Y208847D02*
X240347D01*
X252500Y221000D01*
X254000Y185750D02*
X260500Y179250D01*
X285250D01*
X256250Y187250D02*
X261250Y182250D01*
X278250D01*
X236750Y192500D02*
X241000Y188250D01*
X247000Y223250D02*
Y229500D01*
X240750Y217000D02*
X247000Y223250D01*
D57*
X161417Y106299D02*
D03*
Y342520D02*
D03*
X366142D02*
D03*
Y106299D02*
D03*
D58*
X280935Y106000D02*
D03*
X261250D02*
D03*
X241565D02*
D03*
X161000Y247000D02*
D03*
Y227315D02*
D03*
D59*
X376969Y317087D02*
D03*
Y266890D02*
D03*
D60*
Y307087D02*
D03*
Y297087D02*
D03*
Y287087D02*
D03*
Y216890D02*
D03*
Y226890D02*
D03*
Y236890D02*
D03*
Y246890D02*
D03*
Y256890D02*
D03*
D61*
X223500Y235000D02*
D03*
X220000D02*
D03*
X216500D02*
D03*
X312518Y260461D02*
D03*
X314400Y292700D02*
D03*
X297600Y274000D02*
D03*
X299300Y278800D02*
D03*
X307100Y278000D02*
D03*
X312800Y285600D02*
D03*
X288600Y266300D02*
D03*
X286600Y268000D02*
D03*
X282400Y268200D02*
D03*
X278232Y267801D02*
D03*
X287900Y313200D02*
D03*
X291200Y315000D02*
D03*
X274400Y313400D02*
D03*
X273300Y316500D02*
D03*
X266200Y293000D02*
D03*
X264700Y288900D02*
D03*
X281100Y270800D02*
D03*
X276400Y266000D02*
D03*
X276600Y289900D02*
D03*
X266700Y284400D02*
D03*
X256400Y268800D02*
D03*
X350500Y319300D02*
D03*
X302800Y325100D02*
D03*
X176378Y320472D02*
D03*
X262598Y218503D02*
D03*
X268503Y216338D02*
D03*
X272834Y217519D02*
D03*
X278740Y217717D02*
D03*
X258661Y216535D02*
D03*
X253740Y216339D02*
D03*
X276500Y229500D02*
D03*
X260629Y267126D02*
D03*
X345079Y330315D02*
D03*
X227417Y213356D02*
D03*
X231354Y236978D02*
D03*
X220276Y217520D02*
D03*
X250787Y229528D02*
D03*
X297638Y189567D02*
D03*
X304134D02*
D03*
X300984D02*
D03*
X297835Y185630D02*
D03*
X299410Y187598D02*
D03*
X302559D02*
D03*
X303937Y185630D02*
D03*
X300984D02*
D03*
X224803Y185433D02*
D03*
Y189370D02*
D03*
X230315D02*
D03*
X227559D02*
D03*
Y185433D02*
D03*
X230315D02*
D03*
X226181Y187402D02*
D03*
X228937D02*
D03*
X258100Y323000D02*
D03*
X260100Y326800D02*
D03*
X260000Y321250D02*
D03*
X256000Y325100D02*
D03*
X241500Y274500D02*
D03*
X251100Y203100D02*
D03*
X230000Y196000D02*
D03*
X228346Y198031D02*
D03*
X258250Y202250D02*
D03*
X227937Y344530D02*
D03*
Y346892D02*
D03*
X230299Y344530D02*
D03*
Y346892D02*
D03*
X232661Y344530D02*
D03*
Y346892D02*
D03*
X224000Y330750D02*
D03*
X314567Y338189D02*
D03*
X250394Y284252D02*
D03*
X294094Y274016D02*
D03*
X230299Y302797D02*
D03*
Y305159D02*
D03*
X232661D02*
D03*
X227937D02*
D03*
X232661Y302797D02*
D03*
X227953Y302756D02*
D03*
X243701Y311417D02*
D03*
X241000Y213750D02*
D03*
X256750Y229500D02*
D03*
X221000Y293250D02*
D03*
X209000D02*
D03*
X197000Y293500D02*
D03*
X339768Y267461D02*
D03*
Y260461D02*
D03*
Y288250D02*
D03*
Y281250D02*
D03*
Y274250D02*
D03*
X257250Y354000D02*
D03*
X262500Y340500D02*
D03*
X283500Y340000D02*
D03*
X244250Y193250D02*
D03*
X254000Y185750D02*
D03*
X256250Y187250D02*
D03*
X236750Y192500D02*
D03*
X241000Y188250D02*
D03*
X236750Y315000D02*
D03*
X224000Y305750D02*
D03*
X240945Y261024D02*
D03*
X240750Y217000D02*
D03*
X247000Y229500D02*
D03*
X285250Y179250D02*
D03*
X278250Y182250D02*
D03*
X274250Y187250D02*
D03*
X199250Y174250D02*
D03*
X311250D02*
D03*
X240250D02*
D03*
X345250Y187250D02*
D03*
D62*
X234000Y135000D02*
D03*
Y132000D02*
D03*
X231000Y135000D02*
D03*
Y138000D02*
D03*
X228000D02*
D03*
X225000Y141000D02*
D03*
Y144000D02*
D03*
Y138000D02*
D03*
Y135000D02*
D03*
X228000D02*
D03*
Y132000D02*
D03*
X225000D02*
D03*
X231000D02*
D03*
X228000Y141000D02*
D03*
X305000Y135000D02*
D03*
Y132000D02*
D03*
X302000Y135000D02*
D03*
Y138000D02*
D03*
X299000D02*
D03*
X296000Y141000D02*
D03*
Y144000D02*
D03*
Y138000D02*
D03*
Y135000D02*
D03*
X299000D02*
D03*
Y132000D02*
D03*
X296000D02*
D03*
X302000D02*
D03*
X299000Y141000D02*
D03*
X370000D02*
D03*
X373000Y132000D02*
D03*
X367000D02*
D03*
X370000D02*
D03*
Y135000D02*
D03*
X367000D02*
D03*
Y138000D02*
D03*
Y144000D02*
D03*
Y141000D02*
D03*
X370000Y138000D02*
D03*
X373000D02*
D03*
Y135000D02*
D03*
X376000Y132000D02*
D03*
Y135000D02*
D03*
M02*
