G04*
G04 #@! TF.GenerationSoftware,Altium Limited,Altium Designer,18.1.9 (240)*
G04*
G04 Layer_Physical_Order=1*
G04 Layer_Color=255*
%FSLAX25Y25*%
%MOIN*%
G70*
G01*
G75*
%ADD10C,0.00984*%
%ADD17R,0.02756X0.02362*%
%ADD18R,0.49213X0.20079*%
%ADD19R,0.01181X0.06102*%
%ADD20R,0.04724X0.04331*%
%ADD21R,0.03937X0.03543*%
%ADD22R,0.03543X0.03937*%
%ADD23R,0.04724X0.08661*%
%ADD24R,0.13780X0.08661*%
%ADD25R,0.07480X0.05315*%
%ADD26O,0.01181X0.07087*%
%ADD27O,0.07087X0.01181*%
%ADD28R,0.05000X0.02402*%
%ADD29R,0.14764X0.15394*%
%ADD30R,0.04331X0.04724*%
%ADD50C,0.01181*%
%ADD51C,0.02000*%
%ADD52C,0.01000*%
%ADD53C,0.03000*%
%ADD54C,0.01181*%
%ADD55C,0.00800*%
%ADD56R,0.03000X0.05000*%
%ADD57C,0.03937*%
%ADD58C,0.07874*%
%ADD59R,0.05906X0.05906*%
%ADD60C,0.05906*%
%ADD61C,0.01968*%
%ADD62C,0.02362*%
G36*
X253251Y337355D02*
X253209Y337148D01*
Y335959D01*
X223731D01*
X223540Y336421D01*
X224974Y337855D01*
X252908D01*
X253251Y337355D01*
D02*
G37*
G36*
X165354Y358268D02*
X362205Y358268D01*
X362205Y358268D01*
X362205Y358268D01*
X363495Y358268D01*
X366053Y357931D01*
X368546Y357263D01*
X370930Y356276D01*
X373165Y354985D01*
X375212Y353415D01*
X377037Y351590D01*
X378608Y349543D01*
X379898Y347308D01*
X380885Y344924D01*
X381553Y342431D01*
X381890Y339873D01*
X381890Y338583D01*
X381890Y211614D01*
X341535Y211614D01*
X336614Y216535D01*
X336614Y249016D01*
X329724Y255906D01*
X224622D01*
Y269479D01*
X226569D01*
Y274222D01*
X221431D01*
Y269479D01*
X222378D01*
Y255906D01*
X221122D01*
Y256500D01*
X221122Y256500D01*
X221036Y256929D01*
X220793Y257293D01*
X220793Y257293D01*
X212933Y265154D01*
Y269479D01*
X214568D01*
Y274222D01*
X209432D01*
Y269479D01*
X210689D01*
Y264689D01*
X210689Y264689D01*
X210775Y264260D01*
X211018Y263896D01*
X218508Y256405D01*
X218301Y255906D01*
X214181D01*
X201122Y268965D01*
Y269479D01*
X202569D01*
Y274222D01*
X197432D01*
Y269479D01*
X198878D01*
Y268500D01*
X198878Y268500D01*
X198964Y268071D01*
X199207Y267707D01*
X210546Y256367D01*
X210355Y255906D01*
X190473D01*
Y285138D01*
X190935Y285330D01*
X191431Y284833D01*
Y281479D01*
X192878D01*
Y280718D01*
X192116D01*
Y277156D01*
X196072D01*
Y280718D01*
X195122D01*
Y281479D01*
X196569D01*
Y282729D01*
X197432D01*
Y281479D01*
X198878D01*
Y280521D01*
X197432D01*
Y275778D01*
X202569D01*
Y280521D01*
X201122D01*
Y281479D01*
X202569D01*
Y284990D01*
X203030Y285181D01*
X203432Y284780D01*
Y281479D01*
X204980D01*
Y280718D01*
X204022D01*
Y277156D01*
X207978D01*
Y280718D01*
X207020D01*
Y281479D01*
X208569D01*
Y282831D01*
X209432D01*
Y281479D01*
X210980D01*
Y280521D01*
X209432D01*
Y275778D01*
X214568D01*
Y280521D01*
X213020D01*
Y281479D01*
X214568D01*
Y286222D01*
X209432D01*
Y284870D01*
X208569D01*
Y286222D01*
X204873D01*
X204020Y287076D01*
Y287778D01*
X208569D01*
Y291078D01*
X208987Y291197D01*
X209101Y291187D01*
X209432Y290857D01*
Y287778D01*
X214568D01*
Y292521D01*
X211315D01*
X210610Y293226D01*
X210615Y293250D01*
X210492Y293868D01*
X210142Y294392D01*
X209618Y294742D01*
X209000Y294865D01*
X208382Y294742D01*
X207858Y294392D01*
X207508Y293868D01*
X207385Y293250D01*
X207390Y293226D01*
X206685Y292521D01*
X204020D01*
Y314782D01*
X214767Y325529D01*
X215229Y325338D01*
Y304122D01*
X215228Y304122D01*
X215314Y303693D01*
X215557Y303329D01*
X225903Y292983D01*
X225712Y292521D01*
X223315D01*
X222610Y293226D01*
X222615Y293250D01*
X222492Y293868D01*
X222142Y294392D01*
X221618Y294742D01*
X221000Y294865D01*
X220382Y294742D01*
X219858Y294392D01*
X219508Y293868D01*
X219385Y293250D01*
X219431Y293017D01*
X218935Y292521D01*
X215431D01*
Y287778D01*
X220568D01*
Y290982D01*
X221011Y291425D01*
X221431Y291138D01*
Y287778D01*
X225688D01*
X225880Y287316D01*
X224785Y286222D01*
X221431D01*
Y284972D01*
X220568D01*
Y286222D01*
X215431D01*
Y281479D01*
X216879D01*
Y280718D01*
X216022D01*
Y277156D01*
X219978D01*
Y280718D01*
X219122D01*
Y281479D01*
X220568D01*
Y282729D01*
X221431D01*
Y281479D01*
X222879D01*
Y280521D01*
X221431D01*
Y275778D01*
X226569D01*
Y280521D01*
X225121D01*
Y281479D01*
X226569D01*
Y284833D01*
X227517Y285781D01*
X227978Y285589D01*
Y279387D01*
X227978Y279387D01*
X228064Y278958D01*
X228307Y278594D01*
X238668Y268233D01*
X238477Y267771D01*
X234432D01*
Y263028D01*
X239568D01*
Y264378D01*
X243959D01*
Y263716D01*
X241922D01*
Y262832D01*
X241422Y262544D01*
X240945Y262639D01*
X240327Y262516D01*
X239803Y262166D01*
X239453Y261642D01*
X239419Y261472D01*
X234432D01*
Y256729D01*
X239568D01*
Y257979D01*
X241850D01*
X241850Y257979D01*
X241922Y257920D01*
Y256414D01*
X289578D01*
Y263716D01*
X289509D01*
Y265002D01*
X289742Y265158D01*
X290092Y265682D01*
X290215Y266300D01*
X290092Y266918D01*
X289742Y267442D01*
X289218Y267792D01*
X288600Y267915D01*
X288157Y268292D01*
X288092Y268618D01*
X287742Y269142D01*
X287218Y269492D01*
X286600Y269615D01*
X286037Y269503D01*
X285926Y269530D01*
X285537Y269797D01*
Y271681D01*
X286972D01*
Y276818D01*
X282229D01*
Y272481D01*
X281788Y272246D01*
X281718Y272292D01*
X281100Y272415D01*
X280482Y272292D01*
X279958Y271942D01*
X279608Y271418D01*
X279485Y270800D01*
X279533Y270557D01*
X279523Y270547D01*
X279280Y270183D01*
X279194Y269754D01*
X279194Y269754D01*
Y269619D01*
X278694Y269324D01*
X278232Y269416D01*
X277840Y269338D01*
X277593Y269799D01*
X278543Y270749D01*
X278543Y270749D01*
X278786Y271113D01*
X278871Y271542D01*
Y281633D01*
X278872Y281633D01*
X278786Y282062D01*
X278543Y282426D01*
X278543Y282426D01*
X271465Y289504D01*
X271501Y289758D01*
X272032Y289934D01*
X274944Y287023D01*
X274944Y287023D01*
X275307Y286780D01*
X275737Y286694D01*
X309516D01*
X309516Y286694D01*
X309945Y286780D01*
X310309Y287023D01*
X314119Y290833D01*
X314660Y290753D01*
X314746Y290644D01*
Y289222D01*
X314462D01*
X314033Y289136D01*
X313669Y288893D01*
X313669Y288893D01*
X312007Y287231D01*
X311764Y286867D01*
X311751Y286805D01*
X311658Y286742D01*
X311308Y286218D01*
X311185Y285600D01*
X311308Y284982D01*
X311658Y284458D01*
X312182Y284108D01*
X312800Y283985D01*
X313418Y284108D01*
X313942Y284458D01*
X314292Y284982D01*
X314409Y285571D01*
X314486Y285653D01*
X314859Y285931D01*
X319489D01*
Y291069D01*
X315710D01*
X315562Y291500D01*
X315549Y291568D01*
X315892Y292082D01*
X316015Y292700D01*
X315892Y293318D01*
X315542Y293842D01*
X315018Y294192D01*
X314400Y294315D01*
X313782Y294192D01*
X313258Y293842D01*
X312908Y293318D01*
X312785Y292700D01*
X312790Y292676D01*
X309051Y288937D01*
X278418D01*
X278123Y289437D01*
X278215Y289900D01*
X278092Y290518D01*
X277816Y290932D01*
X277951Y291318D01*
X278038Y291431D01*
X279022D01*
Y296568D01*
X277018D01*
X276317Y297269D01*
X276482Y297811D01*
X276697Y297854D01*
X277223Y298206D01*
X277575Y298732D01*
X277698Y299352D01*
Y301805D01*
X276077D01*
Y302305D01*
X275577D01*
Y306780D01*
X275456Y306756D01*
X274930Y306405D01*
X274808Y306222D01*
X274573Y306379D01*
X274108Y306472D01*
X273686Y306388D01*
X273176Y306387D01*
X273067Y306550D01*
X272933Y306751D01*
X272569Y306994D01*
X272140Y307080D01*
X271711Y306994D01*
X271347Y306751D01*
X271104Y306387D01*
X270594Y306388D01*
X270171Y306472D01*
X269709Y306865D01*
X269680Y307094D01*
X274376Y311790D01*
X274400Y311785D01*
X275018Y311908D01*
X275542Y312258D01*
X275892Y312782D01*
X276015Y313400D01*
X275892Y314018D01*
X275542Y314542D01*
X275018Y314892D01*
X274726Y314950D01*
X274653Y315055D01*
X274536Y315498D01*
X274792Y315882D01*
X274915Y316500D01*
X274792Y317118D01*
X274442Y317642D01*
X273918Y317992D01*
X273300Y318115D01*
X272682Y317992D01*
X272158Y317642D01*
X272144Y317621D01*
X271997D01*
X271997Y317622D01*
X271568Y317536D01*
X271204Y317293D01*
X271204Y317293D01*
X261504Y307593D01*
X261261Y307229D01*
X261176Y306800D01*
X261176Y306800D01*
Y306679D01*
X260676Y306403D01*
X260329Y306472D01*
X259864Y306379D01*
X259470Y306116D01*
X259219D01*
X258825Y306379D01*
X258360Y306472D01*
X257896Y306379D01*
X257502Y306116D01*
X257250D01*
X256856Y306379D01*
X256392Y306472D01*
X255927Y306379D01*
X255533Y306116D01*
X255282D01*
X254888Y306379D01*
X254423Y306472D01*
X254092Y306406D01*
X253777Y306769D01*
X253758Y306810D01*
X253780Y306923D01*
X249805D01*
Y305802D01*
X252258D01*
X252871Y305923D01*
X252912Y305904D01*
X253275Y305589D01*
X253209Y305258D01*
Y299352D01*
X253302Y298888D01*
X253565Y298494D01*
X253959Y298231D01*
X254423Y298138D01*
X254770Y298207D01*
X255270Y297931D01*
Y285123D01*
X253523Y283375D01*
X253280Y283011D01*
X253194Y282582D01*
X253194Y282582D01*
Y275045D01*
X252732Y274854D01*
X249771Y277815D01*
Y280819D01*
X246207D01*
X246016Y281280D01*
X246417Y281681D01*
X249771D01*
Y282251D01*
X250271Y282661D01*
X250394Y282637D01*
X251012Y282760D01*
X251536Y283110D01*
X251886Y283634D01*
X252009Y284252D01*
X251886Y284870D01*
X251536Y285394D01*
X251012Y285744D01*
X250394Y285867D01*
X250271Y285843D01*
X249771Y286253D01*
Y286782D01*
X249771Y286819D01*
X249861Y287281D01*
X250171D01*
Y289750D01*
X247400D01*
X244628D01*
Y287281D01*
X244939D01*
X245028Y286819D01*
X245028Y286782D01*
Y283465D01*
X243934Y282370D01*
X243472Y282562D01*
Y286819D01*
X240159D01*
X239957Y287306D01*
X239958Y287324D01*
X240315Y287682D01*
X243472D01*
Y292818D01*
X238729D01*
Y289268D01*
X236707Y287246D01*
X236464Y286882D01*
X236378Y286453D01*
X236379Y286453D01*
Y285750D01*
Y276611D01*
X235916Y276420D01*
X231821Y280515D01*
Y294298D01*
X231736Y294727D01*
X231493Y295091D01*
X231493Y295091D01*
X221372Y305212D01*
Y306226D01*
X221479Y306681D01*
X222162D01*
X222470Y306182D01*
X222385Y305750D01*
X222508Y305132D01*
X222858Y304608D01*
X223382Y304258D01*
X224000Y304135D01*
X224618Y304258D01*
X225142Y304608D01*
X225492Y305132D01*
X225615Y305750D01*
X225530Y306182D01*
X225838Y306681D01*
X226222D01*
Y311819D01*
X222658D01*
X222467Y312280D01*
X222868Y312682D01*
X226222D01*
Y317818D01*
X222855D01*
X222664Y318280D01*
X223065Y318682D01*
X226222D01*
Y323818D01*
X221479D01*
Y320268D01*
X217971Y316760D01*
X217519Y316907D01*
X217472Y316944D01*
Y325827D01*
X220979Y329335D01*
X221479Y329128D01*
Y324681D01*
X226222D01*
Y329819D01*
X225838D01*
X225530Y330318D01*
X225615Y330750D01*
X225492Y331368D01*
X225259Y331718D01*
X225486Y332218D01*
X231196D01*
X235130Y328284D01*
X235130Y328284D01*
X235494Y328041D01*
X235923Y327955D01*
X235923Y327955D01*
X244931D01*
X245208Y327455D01*
X245139Y327108D01*
X245231Y326644D01*
X245494Y326250D01*
Y325998D01*
X245231Y325604D01*
X245139Y325140D01*
X245231Y324675D01*
X245494Y324281D01*
Y324030D01*
X245231Y323636D01*
X245139Y323171D01*
X245231Y322707D01*
X245494Y322313D01*
Y322061D01*
X245231Y321667D01*
X245139Y321203D01*
X245208Y320856D01*
X244931Y320356D01*
X232980D01*
X232521Y320815D01*
Y323818D01*
X231271D01*
Y324681D01*
X232521D01*
Y329819D01*
X227778D01*
Y324681D01*
X229028D01*
Y323818D01*
X227778D01*
Y318682D01*
X231463D01*
X231630Y318243D01*
X231263Y317818D01*
X227778D01*
Y312682D01*
X229028D01*
Y311819D01*
X227778D01*
Y306681D01*
X232521D01*
Y311819D01*
X231271D01*
Y312682D01*
X232521D01*
Y315685D01*
X232980Y316144D01*
X235008D01*
X235275Y315644D01*
X235258Y315618D01*
X235135Y315000D01*
X235258Y314382D01*
X235332Y314271D01*
X235064Y313771D01*
X234181D01*
Y309028D01*
X238136D01*
X238691Y308473D01*
X238691Y308473D01*
X238842Y308372D01*
X238690Y307872D01*
X237250D01*
Y305600D01*
X239719D01*
Y307644D01*
X239719Y307872D01*
X240106Y308144D01*
X244366D01*
X244546Y307923D01*
X249305D01*
X253780D01*
X253756Y308044D01*
X253405Y308570D01*
X253222Y308692D01*
X253379Y308927D01*
X253472Y309392D01*
X253379Y309856D01*
X253116Y310250D01*
Y310502D01*
X253379Y310896D01*
X253472Y311360D01*
X253379Y311825D01*
X253116Y312219D01*
Y312470D01*
X253379Y312864D01*
X253472Y313329D01*
X253379Y313793D01*
X253116Y314187D01*
Y314439D01*
X253379Y314833D01*
X253472Y315297D01*
X253379Y315762D01*
X253116Y316156D01*
Y316407D01*
X253379Y316801D01*
X253472Y317266D01*
X253379Y317730D01*
X253116Y318124D01*
Y318376D01*
X253379Y318770D01*
X253472Y319234D01*
X253403Y319581D01*
X253679Y320081D01*
X255268D01*
X255570Y319880D01*
X255999Y319794D01*
X255999Y319794D01*
X259327D01*
X259382Y319758D01*
X260000Y319635D01*
X260618Y319758D01*
X261142Y320108D01*
X261492Y320632D01*
X261615Y321250D01*
X261492Y321868D01*
X261142Y322392D01*
X260618Y322742D01*
X260191Y322827D01*
X259966Y322909D01*
X259654Y323306D01*
X259592Y323618D01*
X259242Y324142D01*
X258718Y324492D01*
X258100Y324615D01*
X257936Y324583D01*
X257583Y324936D01*
X257615Y325100D01*
X257523Y325563D01*
X257818Y326063D01*
X258687D01*
X258958Y325658D01*
X259482Y325308D01*
X260100Y325185D01*
X260718Y325308D01*
X261242Y325658D01*
X261592Y326182D01*
X261715Y326800D01*
X261592Y327418D01*
X261242Y327942D01*
X260718Y328292D01*
X260100Y328415D01*
X259550Y328306D01*
X253730D01*
X253418Y328806D01*
X253472Y329077D01*
X253379Y329541D01*
X253116Y329935D01*
X252722Y330198D01*
X252258Y330291D01*
X246352D01*
X245888Y330198D01*
X236388D01*
X233128Y333458D01*
X233320Y333920D01*
X253209D01*
Y331242D01*
X253302Y330778D01*
X253565Y330384D01*
X253959Y330121D01*
X254423Y330028D01*
X254888Y330121D01*
X255282Y330384D01*
X255533D01*
X255927Y330121D01*
X256392Y330028D01*
X256856Y330121D01*
X257250Y330384D01*
X257502D01*
X257896Y330121D01*
X258360Y330028D01*
X258825Y330121D01*
X259060Y330278D01*
X259182Y330095D01*
X259708Y329744D01*
X259829Y329720D01*
Y334195D01*
Y338670D01*
X259708Y338646D01*
X259182Y338294D01*
X259060Y338112D01*
X258825Y338269D01*
X258360Y338362D01*
X257896Y338269D01*
X257893Y338267D01*
X257428Y338132D01*
X257185Y338496D01*
X255911Y339769D01*
X255547Y340013D01*
X255118Y340098D01*
X255118Y340098D01*
X224509D01*
X224509Y340098D01*
X224080Y340013D01*
X223716Y339769D01*
X223716Y339769D01*
X201816Y317869D01*
X201354Y318061D01*
Y319479D01*
X202175D01*
Y329340D01*
X200427D01*
Y330315D01*
X200334Y330780D01*
X200071Y331173D01*
X200071Y331173D01*
X196134Y335110D01*
X195740Y335373D01*
X195276Y335466D01*
X195275Y335466D01*
X177165D01*
X177165Y335466D01*
X176701Y335373D01*
X176307Y335110D01*
X176307Y335110D01*
X174277Y333080D01*
X171054D01*
Y328337D01*
X176191D01*
Y331560D01*
X177668Y333038D01*
X194773D01*
X197971Y329840D01*
X197931Y329340D01*
X196250D01*
Y319479D01*
X197072D01*
Y318244D01*
X191816Y312989D01*
X191354Y313180D01*
Y314854D01*
X189083D01*
Y312386D01*
X190560D01*
X190751Y311924D01*
X186818Y307990D01*
X186353Y307295D01*
X186190Y306476D01*
Y255906D01*
X145669D01*
Y338583D01*
X145669Y339873D01*
X146006Y342431D01*
X146674Y344924D01*
X147661Y347308D01*
X148951Y349543D01*
X150522Y351590D01*
X152347Y353415D01*
X154394Y354986D01*
X156629Y356276D01*
X159013Y357263D01*
X161506Y357931D01*
X164064Y358268D01*
X165354Y358268D01*
D02*
G37*
G36*
X245208Y315644D02*
X245139Y315297D01*
X245231Y314833D01*
X245494Y314439D01*
Y314187D01*
X245231Y313793D01*
X245139Y313329D01*
X245208Y312982D01*
X245166Y312907D01*
X244598Y312723D01*
X244319Y312910D01*
X243701Y313033D01*
X243083Y312910D01*
X242559Y312560D01*
X242209Y312035D01*
X242086Y311417D01*
X242191Y310887D01*
X241928Y310387D01*
X239949D01*
X239318Y311018D01*
Y313771D01*
X238436D01*
X238168Y314271D01*
X238242Y314382D01*
X238365Y315000D01*
X238242Y315618D01*
X238225Y315644D01*
X238492Y316144D01*
X244931D01*
X245208Y315644D01*
D02*
G37*
G36*
X201980Y314209D02*
Y292521D01*
X199065D01*
X198528Y293059D01*
X198615Y293500D01*
X198492Y294118D01*
X198142Y294642D01*
X197618Y294992D01*
X197000Y295115D01*
X196382Y294992D01*
X195858Y294642D01*
X195508Y294118D01*
X195385Y293500D01*
X195390Y293476D01*
X194435Y292521D01*
X192053D01*
Y304934D01*
X201519Y314400D01*
X201980Y314209D01*
D02*
G37*
G36*
X269671Y288127D02*
X274017Y283780D01*
X273825Y283318D01*
X270528D01*
Y278182D01*
X274232D01*
X275028Y277385D01*
Y276818D01*
X270528D01*
Y272322D01*
X270249Y272097D01*
X269812Y272208D01*
X269719Y272256D01*
X269496Y272590D01*
X269496Y272590D01*
X268972Y273114D01*
Y276818D01*
X264850D01*
Y278182D01*
X268972D01*
Y283318D01*
X268413D01*
X268207Y283705D01*
X268200Y283819D01*
X268315Y284400D01*
X268192Y285018D01*
X267842Y285542D01*
X267450Y285804D01*
X267305Y286366D01*
X269033Y288094D01*
X269080Y288139D01*
X269671Y288127D01*
D02*
G37*
G36*
X245028Y279639D02*
Y275681D01*
X248732D01*
X251493Y272920D01*
Y268009D01*
X251031Y267817D01*
X247096Y271753D01*
X246732Y271996D01*
X246303Y272081D01*
X246303Y272081D01*
X242557D01*
X242105Y272534D01*
X242250Y273096D01*
X242642Y273358D01*
X242992Y273882D01*
X243115Y274500D01*
X242992Y275118D01*
X242950Y275182D01*
X243217Y275681D01*
X243472D01*
Y278736D01*
X244566Y279830D01*
X245028Y279639D01*
D02*
G37*
G36*
X301634Y218575D02*
X297173Y214114D01*
X288653D01*
X283604Y219163D01*
Y220784D01*
X283673D01*
Y228086D01*
X278062D01*
X277795Y228586D01*
X277992Y228882D01*
X278115Y229500D01*
X277992Y230118D01*
X277642Y230642D01*
X277118Y230992D01*
X276500Y231115D01*
X275882Y230992D01*
X275358Y230642D01*
X275008Y230118D01*
X274885Y229500D01*
X275008Y228882D01*
X275205Y228586D01*
X274938Y228086D01*
X258167D01*
X258045Y228586D01*
X258242Y228882D01*
X258365Y229500D01*
X258242Y230118D01*
X257892Y230642D01*
X257368Y230992D01*
X256750Y231115D01*
X256132Y230992D01*
X255608Y230642D01*
X255258Y230118D01*
X255135Y229500D01*
X255258Y228882D01*
X255455Y228586D01*
X255188Y228086D01*
X253733D01*
Y220784D01*
X253800D01*
Y218437D01*
X253740Y217954D01*
X253122Y217831D01*
X252608Y217487D01*
X252544Y217499D01*
X252108Y217647D01*
Y220784D01*
X252177D01*
Y228086D01*
X252108D01*
Y228652D01*
X252280Y228909D01*
X252403Y229528D01*
X252280Y230146D01*
X251930Y230670D01*
X251406Y231020D01*
X250787Y231143D01*
X250169Y231020D01*
X249645Y230670D01*
X249295Y230146D01*
X249172Y229528D01*
X249295Y228909D01*
X249573Y228494D01*
X249796Y228086D01*
Y220784D01*
X249865D01*
Y204103D01*
X249608Y203718D01*
X249485Y203100D01*
X249608Y202482D01*
X249958Y201958D01*
X250482Y201608D01*
X251100Y201485D01*
X251718Y201608D01*
X252242Y201958D01*
X252592Y202482D01*
X252715Y203100D01*
X252592Y203718D01*
X252242Y204242D01*
X252108Y204332D01*
Y215030D01*
X252544Y215178D01*
X252608Y215190D01*
X253122Y214846D01*
X253740Y214723D01*
X254358Y214846D01*
X254882Y215196D01*
X254956Y215306D01*
X255456Y215154D01*
Y209773D01*
X255456Y209773D01*
X255541Y209344D01*
X255784Y208980D01*
X257681Y207083D01*
Y203752D01*
X257632Y203742D01*
X257108Y203392D01*
X256758Y202868D01*
X256635Y202250D01*
X256758Y201632D01*
X257108Y201108D01*
X257632Y200758D01*
X258250Y200635D01*
X258868Y200758D01*
X259392Y201108D01*
X259742Y201632D01*
X259865Y202250D01*
X259860Y202274D01*
X261043Y203457D01*
X261043Y203457D01*
X261225Y203729D01*
X262819D01*
Y208472D01*
X259465D01*
X258370Y209566D01*
X258562Y210028D01*
X262819D01*
Y214771D01*
X261962D01*
Y216505D01*
X262462Y216915D01*
X262598Y216888D01*
X263194Y217007D01*
X263283Y217014D01*
X263694Y216754D01*
Y200000D01*
X248171D01*
Y220784D01*
X248240D01*
Y228086D01*
X248240D01*
X248283Y228568D01*
X248492Y228882D01*
X248615Y229500D01*
X248492Y230118D01*
X248142Y230642D01*
X247618Y230992D01*
X247000Y231115D01*
X246382Y230992D01*
X245858Y230642D01*
X245508Y230118D01*
X245385Y229500D01*
X245508Y228882D01*
X245739Y228536D01*
X245859Y228086D01*
X245859Y228086D01*
X245859D01*
X245859Y228086D01*
Y220784D01*
X245928D01*
Y200000D01*
X235586D01*
X221397Y214189D01*
Y216364D01*
X221418Y216377D01*
X221768Y216901D01*
X221891Y217520D01*
X221768Y218138D01*
X221418Y218662D01*
X220894Y219012D01*
X220276Y219135D01*
X219657Y219012D01*
X219133Y218662D01*
X218783Y218138D01*
X218660Y217520D01*
X218783Y216901D01*
X219133Y216377D01*
X219154Y216364D01*
Y213724D01*
X219154Y213724D01*
X219239Y213295D01*
X219482Y212931D01*
X231952Y200462D01*
X231761Y200000D01*
X180315D01*
X172835Y192520D01*
Y185771D01*
X170682D01*
Y181028D01*
X172835D01*
Y179472D01*
X170682D01*
Y174729D01*
X172128D01*
Y159715D01*
X169965Y157551D01*
X166040D01*
Y153949D01*
X172128D01*
Y137715D01*
X169965Y135551D01*
X166040D01*
Y131949D01*
X165564Y131890D01*
X156110Y131890D01*
X145669Y142331D01*
X145669Y200000D01*
X145669D01*
X145669Y245669D01*
X153937Y253937D01*
X186190Y253937D01*
Y234100D01*
X181082Y228992D01*
X165216D01*
X164963Y229603D01*
X164236Y230551D01*
X163288Y231278D01*
X162184Y231735D01*
X161000Y231891D01*
X159816Y231735D01*
X158712Y231278D01*
X157764Y230551D01*
X157037Y229603D01*
X156580Y228499D01*
X156424Y227315D01*
X156580Y226131D01*
X157037Y225027D01*
X157764Y224079D01*
X158712Y223352D01*
X159816Y222895D01*
X161000Y222739D01*
X162184Y222895D01*
X163288Y223352D01*
X164236Y224079D01*
X164719Y224709D01*
X225932D01*
Y224479D01*
X231068D01*
Y224709D01*
X231681D01*
Y224479D01*
X233897D01*
X234500Y224359D01*
X235103Y224479D01*
X236819D01*
Y224709D01*
X238263D01*
X239351Y223621D01*
Y222000D01*
X239541Y221541D01*
X240000Y221351D01*
X241922D01*
Y220784D01*
X244303D01*
Y228086D01*
X241922D01*
Y227649D01*
X241379D01*
X240664Y228364D01*
X239969Y228829D01*
X239150Y228992D01*
X236819D01*
Y229222D01*
X231681D01*
Y228992D01*
X231068D01*
Y229222D01*
X225932D01*
Y228992D01*
X187791D01*
X187600Y229453D01*
X189846Y231699D01*
X190310Y232394D01*
X190473Y233213D01*
Y253937D01*
X212977D01*
X215378Y251535D01*
Y236156D01*
X215358Y236142D01*
X215008Y235618D01*
X214885Y235000D01*
X215008Y234382D01*
X215358Y233858D01*
X215882Y233508D01*
X216500Y233385D01*
X217118Y233508D01*
X217642Y233858D01*
X217992Y234382D01*
X217995Y234396D01*
X218505D01*
X218508Y234382D01*
X218858Y233858D01*
X219382Y233508D01*
X220000Y233385D01*
X220618Y233508D01*
X221142Y233858D01*
X221492Y234382D01*
X221495Y234396D01*
X222005D01*
X222008Y234382D01*
X222358Y233858D01*
X222882Y233508D01*
X223500Y233385D01*
X224118Y233508D01*
X224642Y233858D01*
X224992Y234382D01*
X225031Y234579D01*
X225532Y234529D01*
Y233650D01*
X228000D01*
Y235921D01*
X225532D01*
Y235471D01*
X225031Y235421D01*
X224992Y235618D01*
X224642Y236142D01*
X224622Y236156D01*
Y253937D01*
X301634Y253937D01*
Y218575D01*
D02*
G37*
G36*
X334646Y248031D02*
X334646Y205906D01*
X328740Y200000D01*
X314086D01*
X307193Y206893D01*
X306829Y207137D01*
X306400Y207222D01*
X306400Y207222D01*
X282819D01*
Y208472D01*
X279465D01*
X278370Y209566D01*
X278562Y210028D01*
X282819D01*
Y214771D01*
X281946D01*
Y216996D01*
X282408Y217187D01*
X287396Y212199D01*
X287396Y212199D01*
X287760Y211956D01*
X288189Y211871D01*
X297638D01*
X297638Y211871D01*
X298067Y211956D01*
X298431Y212199D01*
X303549Y217317D01*
X303792Y217681D01*
X303877Y218110D01*
X303877Y218110D01*
Y253937D01*
X328740D01*
X334646Y248031D01*
D02*
G37*
G36*
X310452Y200462D02*
X310261Y200000D01*
X306704D01*
X305124Y201581D01*
X304760Y201824D01*
X304331Y201909D01*
X304331Y201909D01*
X280177D01*
X278819Y203267D01*
X279011Y203729D01*
X282819D01*
Y204979D01*
X305935D01*
X310452Y200462D01*
D02*
G37*
G36*
X272834Y215904D02*
X273297Y215996D01*
X273797Y215702D01*
Y205582D01*
X273797Y205582D01*
X273882Y205152D01*
X274125Y204789D01*
X278452Y200462D01*
X278261Y200000D01*
X271372D01*
Y203729D01*
X272818D01*
Y208472D01*
X269464D01*
X268371Y209566D01*
X268562Y210028D01*
X272818D01*
Y214771D01*
X271805D01*
Y215746D01*
X272305Y216009D01*
X272834Y215904D01*
D02*
G37*
G36*
X234055Y188189D02*
Y179134D01*
X231371D01*
Y181455D01*
X231286Y181884D01*
X231043Y182248D01*
X230679Y182491D01*
X230250Y182576D01*
X229821Y182491D01*
X229457Y182248D01*
X229214Y181884D01*
X229129Y181455D01*
Y179134D01*
X226378D01*
X223228Y182283D01*
Y189764D01*
X224410Y190945D01*
X231299D01*
X234055Y188189D01*
D02*
G37*
G36*
X305709Y189961D02*
X305709Y180118D01*
X304724Y179134D01*
X302303D01*
Y180118D01*
X302217Y180547D01*
X302126Y180684D01*
X302286Y180923D01*
X302372Y181352D01*
X302286Y181782D01*
X302043Y182145D01*
X301679Y182388D01*
X301250Y182474D01*
X301000D01*
X300571Y182388D01*
X300207Y182145D01*
X299964Y181782D01*
X299879Y181352D01*
X299964Y180923D01*
X300180Y180600D01*
X300145Y180547D01*
X300060Y180118D01*
Y179134D01*
X297244D01*
X296260Y180118D01*
Y189961D01*
X297244Y190945D01*
X304724Y190945D01*
X305709Y189961D01*
D02*
G37*
G36*
X343750Y159336D02*
X341965Y157551D01*
X338040D01*
Y153949D01*
X343750D01*
Y137336D01*
X341965Y135551D01*
X338040D01*
Y131949D01*
X342546D01*
X342737Y131487D01*
X311250Y100000D01*
X278431D01*
X275000Y103015D01*
X275000Y108750D01*
X282500Y116250D01*
X300500Y116250D01*
X316750Y132500D01*
Y172000D01*
X338914D01*
X340457Y170457D01*
X340821Y170214D01*
X341250Y170128D01*
X341679Y170214D01*
X342043Y170457D01*
X342286Y170821D01*
X342372Y171250D01*
X342322Y171500D01*
X342627Y172000D01*
X343750D01*
Y159336D01*
D02*
G37*
G36*
X313750D02*
X311965Y157551D01*
X308040D01*
Y153949D01*
X313750D01*
Y137500D01*
X308500D01*
X297000Y149000D01*
Y171158D01*
X297462Y171350D01*
X300457Y168355D01*
X300821Y168112D01*
X301250Y168026D01*
X301679Y168112D01*
X302043Y168355D01*
X302286Y168718D01*
X302372Y169148D01*
X302286Y169577D01*
X302043Y169941D01*
X299946Y172038D01*
X300137Y172500D01*
X310128D01*
Y171250D01*
X310214Y170821D01*
X310457Y170457D01*
X310821Y170214D01*
X311250Y170128D01*
X311679Y170214D01*
X312043Y170457D01*
X312286Y170821D01*
X312371Y171250D01*
Y172500D01*
X313750D01*
Y159336D01*
D02*
G37*
G36*
X272748Y171646D02*
X272694Y159281D01*
X270965Y157551D01*
X267040D01*
Y153949D01*
X272317D01*
X272670Y153595D01*
X272598Y137184D01*
X270965Y135551D01*
X267040D01*
Y131949D01*
X272221D01*
X272574Y131595D01*
X272474Y108724D01*
X264281Y100531D01*
X257969Y100531D01*
X255000Y103500D01*
X255000Y112500D01*
X245750Y121750D01*
X245750Y172000D01*
X252129D01*
Y163250D01*
X252214Y162821D01*
X252457Y162457D01*
X252821Y162214D01*
X253250Y162128D01*
X253679Y162214D01*
X254043Y162457D01*
X254286Y162821D01*
X254372Y163250D01*
Y172000D01*
X269128D01*
Y171250D01*
X269214Y170821D01*
X269457Y170457D01*
X269821Y170214D01*
X270250Y170128D01*
X270679Y170214D01*
X271043Y170457D01*
X271286Y170821D01*
X271372Y171250D01*
Y172000D01*
X272396D01*
X272748Y171646D01*
D02*
G37*
G36*
X242750Y159336D02*
X240965Y157551D01*
X237040D01*
Y153949D01*
X242750D01*
Y137500D01*
X237500D01*
X226000Y149000D01*
Y172500D01*
X230011D01*
X230202Y172038D01*
X229707Y171543D01*
X229464Y171179D01*
X229378Y170750D01*
X229379Y170750D01*
Y170323D01*
X229214Y170077D01*
X229128Y169648D01*
X229214Y169218D01*
X229457Y168855D01*
X229821Y168612D01*
X230250Y168526D01*
X230679Y168612D01*
X231043Y168855D01*
X231293Y169105D01*
X231293Y169105D01*
X231536Y169468D01*
X231622Y169898D01*
Y170285D01*
X233836Y172500D01*
X239128D01*
Y171250D01*
X239214Y170821D01*
X239457Y170457D01*
X239821Y170214D01*
X240250Y170128D01*
X240679Y170214D01*
X241043Y170457D01*
X241286Y170821D01*
X241371Y171250D01*
Y172500D01*
X242750D01*
Y159336D01*
D02*
G37*
G36*
X201750D02*
X199965Y157551D01*
X196040D01*
Y153949D01*
X201750D01*
Y137336D01*
X199965Y135551D01*
X196040D01*
Y131949D01*
X201750D01*
Y130250D01*
X215750Y116250D01*
X240000Y116250D01*
X247500Y108750D01*
X247500Y103000D01*
X245000Y100500D01*
X206750D01*
X174750Y132500D01*
Y172000D01*
X198128D01*
Y171250D01*
X198214Y170821D01*
X198457Y170457D01*
X198821Y170214D01*
X199250Y170128D01*
X199679Y170214D01*
X200043Y170457D01*
X200286Y170821D01*
X200372Y171250D01*
Y172000D01*
X201750D01*
Y159336D01*
D02*
G37*
G36*
X365000Y149000D02*
X378000Y136000D01*
Y130000D01*
X349000D01*
X347000Y132000D01*
Y172000D01*
X365000D01*
Y149000D01*
D02*
G37*
G36*
X294000D02*
X307000Y136000D01*
Y130000D01*
X278000D01*
X276000Y132000D01*
Y172000D01*
X294000D01*
Y149000D01*
D02*
G37*
G36*
X223000D02*
X236000Y136000D01*
Y130000D01*
X207000D01*
X205000Y132000D01*
Y172000D01*
X223000D01*
Y149000D01*
D02*
G37*
%LPC*%
G36*
X198047Y354150D02*
X190657D01*
Y349319D01*
X198047D01*
Y354150D01*
D02*
G37*
G36*
X189657D02*
X182268D01*
Y349319D01*
X189657D01*
Y354150D01*
D02*
G37*
G36*
X257250Y355615D02*
X256632Y355492D01*
X256108Y355142D01*
X255758Y354618D01*
X255635Y354000D01*
X255680Y353771D01*
X255276Y353271D01*
X251681D01*
Y348528D01*
X256819D01*
Y349778D01*
X257681D01*
Y348528D01*
X262819D01*
Y353271D01*
X259224D01*
X258820Y353771D01*
X258865Y354000D01*
X258742Y354618D01*
X258392Y355142D01*
X257868Y355492D01*
X257250Y355615D01*
D02*
G37*
G36*
X305437Y348440D02*
X305437Y348440D01*
X274014D01*
X274014Y348440D01*
X273585Y348355D01*
X273221Y348112D01*
X273221Y348112D01*
X264237Y339127D01*
X264225Y339125D01*
X263711Y339309D01*
X263698Y339442D01*
X263992Y339882D01*
X264115Y340500D01*
X263992Y341118D01*
X263642Y341642D01*
X263218Y341925D01*
Y344100D01*
X260750D01*
Y341829D01*
X260881D01*
X261148Y341329D01*
X261008Y341118D01*
X260885Y340500D01*
X261008Y339882D01*
X261176Y339630D01*
Y339050D01*
X260829Y338807D01*
Y334195D01*
Y329720D01*
X260949Y329744D01*
X261475Y330095D01*
X261597Y330278D01*
X261833Y330121D01*
X262297Y330028D01*
X262762Y330121D01*
X263156Y330384D01*
X263407D01*
X263801Y330121D01*
X264266Y330028D01*
X264730Y330121D01*
X265124Y330384D01*
X265376D01*
X265770Y330121D01*
X266234Y330028D01*
X266699Y330121D01*
X267093Y330384D01*
X267344D01*
X267738Y330121D01*
X268203Y330028D01*
X268667Y330121D01*
X269061Y330384D01*
X269313D01*
X269707Y330121D01*
X270171Y330028D01*
X270636Y330121D01*
X271030Y330384D01*
X271281D01*
X271675Y330121D01*
X272140Y330028D01*
X272604Y330121D01*
X272998Y330384D01*
X273250D01*
X273644Y330121D01*
X274108Y330028D01*
X274573Y330121D01*
X274808Y330278D01*
X274930Y330095D01*
X275456Y329744D01*
X275577Y329720D01*
Y334195D01*
Y338670D01*
X275456Y338646D01*
X274930Y338294D01*
X274808Y338112D01*
X274573Y338269D01*
X274108Y338362D01*
X273644Y338269D01*
X273492Y338167D01*
X273124Y338047D01*
X272757Y338167D01*
X272604Y338269D01*
X272140Y338362D01*
X271675Y338269D01*
X271281Y338006D01*
X271030D01*
X270636Y338269D01*
X270171Y338362D01*
X269707Y338269D01*
X269313Y338006D01*
X269061D01*
X268667Y338269D01*
X268203Y338362D01*
X267738Y338269D01*
X267528Y338129D01*
X267165Y338268D01*
X267075Y338793D01*
X273867Y345585D01*
X274329Y345393D01*
Y344750D01*
X277100D01*
X279872D01*
Y346197D01*
X281028D01*
Y341682D01*
X282278D01*
Y341023D01*
X282008Y340618D01*
X281885Y340000D01*
X282008Y339382D01*
X282358Y338858D01*
X282882Y338508D01*
X283500Y338385D01*
X284118Y338508D01*
X284642Y338858D01*
X284992Y339382D01*
X285115Y340000D01*
X284992Y340618D01*
X284642Y341142D01*
X284583Y341181D01*
X284584Y341682D01*
X285771D01*
Y346197D01*
X304973D01*
X312957Y338213D01*
X312952Y338189D01*
X313075Y337571D01*
X313425Y337047D01*
X313949Y336697D01*
X314567Y336574D01*
X315185Y336697D01*
X315709Y337047D01*
X316059Y337571D01*
X316182Y338189D01*
X316059Y338807D01*
X315709Y339331D01*
X315185Y339681D01*
X314567Y339804D01*
X314543Y339799D01*
X306230Y348112D01*
X305867Y348355D01*
X305437Y348440D01*
D02*
G37*
G36*
X260750Y347372D02*
Y345100D01*
X263218D01*
Y347372D01*
X260750D01*
D02*
G37*
G36*
X253750D02*
X251281D01*
Y345100D01*
X253750D01*
Y347372D01*
D02*
G37*
G36*
X198047Y348319D02*
X190657D01*
Y343488D01*
X198047D01*
Y348319D01*
D02*
G37*
G36*
X189657D02*
X182268D01*
Y343488D01*
X189657D01*
Y348319D01*
D02*
G37*
G36*
X253750Y344100D02*
X251281D01*
Y341829D01*
X253750D01*
Y344100D01*
D02*
G37*
G36*
X257281Y347372D02*
X256782Y347372D01*
X254750D01*
Y344600D01*
Y341829D01*
X256782D01*
X257219Y341829D01*
X257718Y341829D01*
X259750D01*
Y344600D01*
Y347372D01*
X257718D01*
X257281Y347372D01*
D02*
G37*
G36*
X279872Y343750D02*
X277600D01*
Y341282D01*
X279872D01*
Y343750D01*
D02*
G37*
G36*
X276600D02*
X274329D01*
Y341282D01*
X276600D01*
Y343750D01*
D02*
G37*
G36*
X344104Y339773D02*
X338179D01*
Y338121D01*
X336033D01*
Y339576D01*
X330896D01*
Y334833D01*
X336033D01*
Y335894D01*
X338179D01*
Y334243D01*
X344104D01*
Y339773D01*
D02*
G37*
G36*
X366142Y349057D02*
X364866Y348931D01*
X363640Y348559D01*
X362510Y347955D01*
X361519Y347142D01*
X360706Y346151D01*
X360102Y345021D01*
X359730Y343795D01*
X359605Y342520D01*
X359730Y341244D01*
X360102Y340018D01*
X360706Y338888D01*
X361519Y337897D01*
X362510Y337084D01*
X363640Y336480D01*
X364866Y336108D01*
X366142Y335983D01*
X367417Y336108D01*
X368643Y336480D01*
X369774Y337084D01*
X370764Y337897D01*
X371577Y338888D01*
X372181Y340018D01*
X372553Y341244D01*
X372679Y342520D01*
X372553Y343795D01*
X372181Y345021D01*
X371577Y346151D01*
X370764Y347142D01*
X369774Y347955D01*
X368643Y348559D01*
X367417Y348931D01*
X366142Y349057D01*
D02*
G37*
G36*
X161417D02*
X160142Y348931D01*
X158916Y348559D01*
X157786Y347955D01*
X156795Y347142D01*
X155982Y346151D01*
X155378Y345021D01*
X155006Y343795D01*
X154880Y342520D01*
X155006Y341244D01*
X155378Y340018D01*
X155982Y338888D01*
X156795Y337897D01*
X157786Y337084D01*
X158916Y336480D01*
X160142Y336108D01*
X161417Y335983D01*
X162693Y336108D01*
X163919Y336480D01*
X165049Y337084D01*
X166040Y337897D01*
X166853Y338888D01*
X167457Y340018D01*
X167829Y341244D01*
X167954Y342520D01*
X167829Y343795D01*
X167457Y345021D01*
X166853Y346151D01*
X166040Y347142D01*
X165049Y347955D01*
X163919Y348559D01*
X162693Y348931D01*
X161417Y349057D01*
D02*
G37*
G36*
X276577Y338670D02*
Y334695D01*
X277698D01*
Y337148D01*
X277575Y337768D01*
X277223Y338294D01*
X276697Y338646D01*
X276577Y338670D01*
D02*
G37*
G36*
X293250Y334171D02*
X290781D01*
Y331900D01*
X293250D01*
Y334171D01*
D02*
G37*
G36*
X336433Y333677D02*
X333965D01*
Y331405D01*
X336433D01*
Y333677D01*
D02*
G37*
G36*
X332965D02*
X330496D01*
Y331405D01*
X332965D01*
Y333677D01*
D02*
G37*
G36*
X284148Y330698D02*
X281695D01*
Y329577D01*
X285670D01*
X285646Y329697D01*
X285294Y330223D01*
X284768Y330575D01*
X284148Y330698D01*
D02*
G37*
G36*
X277698Y333695D02*
X276577D01*
Y329577D01*
X280695D01*
Y330698D01*
X278242D01*
X278094Y330669D01*
X277669Y331094D01*
X277698Y331242D01*
Y333695D01*
D02*
G37*
G36*
X344104Y333080D02*
X338179D01*
Y327550D01*
X344104D01*
Y328505D01*
X344604Y328794D01*
X345079Y328700D01*
X345697Y328823D01*
X346221Y329173D01*
X346571Y329697D01*
X346694Y330315D01*
X346571Y330933D01*
X346221Y331457D01*
X345697Y331807D01*
X345079Y331930D01*
X344604Y331836D01*
X344104Y332124D01*
Y333080D01*
D02*
G37*
G36*
X293250Y330900D02*
X290781D01*
Y328628D01*
X293250D01*
Y330900D01*
D02*
G37*
G36*
X296781Y334171D02*
X296282Y334171D01*
X294250D01*
Y331400D01*
Y328628D01*
X296282D01*
X296719Y328628D01*
X297218Y328628D01*
X299250D01*
Y331400D01*
Y334171D01*
X297218D01*
X296781Y334171D01*
D02*
G37*
G36*
X336433Y330405D02*
X333965D01*
Y328134D01*
X336433D01*
Y330405D01*
D02*
G37*
G36*
X332965D02*
X330496D01*
Y328134D01*
X332965D01*
Y330405D01*
D02*
G37*
G36*
X300250Y334171D02*
Y331400D01*
Y328628D01*
X302718D01*
Y328939D01*
X303182Y329028D01*
X303219Y329028D01*
X307697D01*
Y327472D01*
X303182D01*
Y326732D01*
X302319D01*
Y327472D01*
X297182D01*
Y326732D01*
X296319D01*
Y327472D01*
X291181D01*
Y326121D01*
X289965D01*
X288185Y327901D01*
X287821Y328145D01*
X287392Y328230D01*
X287392Y328230D01*
X286050D01*
X285807Y328577D01*
X281195D01*
X276720D01*
X276744Y328456D01*
X277095Y327930D01*
X277278Y327808D01*
X277121Y327573D01*
X277028Y327108D01*
X277121Y326644D01*
X277384Y326250D01*
Y325998D01*
X277121Y325604D01*
X277028Y325140D01*
X277121Y324675D01*
X277384Y324281D01*
Y324030D01*
X277121Y323636D01*
X277028Y323171D01*
X277121Y322707D01*
X277384Y322313D01*
Y322061D01*
X277121Y321667D01*
X277028Y321203D01*
X277121Y320738D01*
X277384Y320344D01*
Y320093D01*
X277121Y319699D01*
X277028Y319234D01*
X277121Y318770D01*
X277384Y318376D01*
Y318124D01*
X277121Y317730D01*
X277028Y317266D01*
X277121Y316801D01*
X277384Y316407D01*
Y316156D01*
X277121Y315762D01*
X277028Y315297D01*
X277121Y314833D01*
X277384Y314439D01*
Y314187D01*
X277121Y313793D01*
X277028Y313329D01*
X277121Y312864D01*
X277384Y312470D01*
Y312219D01*
X277121Y311825D01*
X277028Y311360D01*
X277121Y310896D01*
X277384Y310502D01*
Y310250D01*
X277121Y309856D01*
X277028Y309392D01*
X277121Y308927D01*
X277384Y308533D01*
Y308282D01*
X277121Y307888D01*
X277028Y307423D01*
X277094Y307092D01*
X276731Y306777D01*
X276690Y306758D01*
X276577Y306780D01*
Y302805D01*
X277698D01*
Y305258D01*
X277577Y305871D01*
X277596Y305912D01*
X277911Y306275D01*
X278242Y306209D01*
X284148D01*
X284612Y306302D01*
X330301D01*
X349666Y286937D01*
Y253150D01*
X349666Y253150D01*
X349751Y252720D01*
X349994Y252357D01*
X373808Y228543D01*
X373507Y227817D01*
X373385Y226890D01*
X373507Y225962D01*
X373865Y225098D01*
X374435Y224356D01*
X375177Y223786D01*
X376041Y223429D01*
X376969Y223306D01*
X377896Y223429D01*
X378760Y223786D01*
X379502Y224356D01*
X380072Y225098D01*
X380430Y225962D01*
X380552Y226890D01*
X380430Y227817D01*
X380072Y228681D01*
X379502Y229424D01*
X378760Y229993D01*
X377896Y230351D01*
X376969Y230473D01*
X376041Y230351D01*
X375427Y230097D01*
X351909Y253614D01*
Y279316D01*
X352371Y279507D01*
X373670Y258209D01*
X373507Y257817D01*
X373385Y256890D01*
X373507Y255962D01*
X373865Y255098D01*
X374435Y254356D01*
X375177Y253786D01*
X376041Y253429D01*
X376969Y253306D01*
X377896Y253429D01*
X378760Y253786D01*
X379502Y254356D01*
X380072Y255098D01*
X380430Y255962D01*
X380552Y256890D01*
X380430Y257817D01*
X380072Y258682D01*
X379502Y259424D01*
X378760Y259993D01*
X377896Y260351D01*
X376969Y260473D01*
X376041Y260351D01*
X375177Y259993D01*
X375109Y259941D01*
X353509Y281542D01*
Y288064D01*
X353424Y288493D01*
X353181Y288857D01*
X353180Y288857D01*
X331845Y310193D01*
X331481Y310436D01*
X331052Y310522D01*
X331052Y310522D01*
X288315D01*
X287727Y311109D01*
X287839Y311417D01*
X287949Y311594D01*
X288518Y311708D01*
X289042Y312058D01*
X289392Y312582D01*
X289515Y313200D01*
X289491Y313320D01*
X289867Y313839D01*
X290039Y313856D01*
X290090Y313836D01*
X290582Y313508D01*
X291200Y313385D01*
X291818Y313508D01*
X292342Y313858D01*
X292692Y314382D01*
X292815Y315000D01*
X292692Y315618D01*
X292663Y315663D01*
X292930Y316163D01*
X343651D01*
X353520Y306294D01*
X353520Y306294D01*
X353884Y306050D01*
X354313Y305965D01*
X373588D01*
X373865Y305295D01*
X374435Y304553D01*
X375177Y303983D01*
X376041Y303625D01*
X376969Y303503D01*
X377896Y303625D01*
X378760Y303983D01*
X379502Y304553D01*
X380072Y305295D01*
X380430Y306159D01*
X380552Y307087D01*
X380430Y308014D01*
X380072Y308878D01*
X379502Y309620D01*
X378760Y310190D01*
X377896Y310548D01*
X376969Y310670D01*
X376041Y310548D01*
X375177Y310190D01*
X374435Y309620D01*
X373865Y308878D01*
X373588Y308208D01*
X354778D01*
X345308Y317678D01*
X345515Y318179D01*
X349344D01*
X349358Y318158D01*
X349882Y317808D01*
X350500Y317685D01*
X351118Y317808D01*
X351642Y318158D01*
X351992Y318682D01*
X352115Y319300D01*
X351992Y319918D01*
X351642Y320442D01*
X351118Y320792D01*
X350500Y320915D01*
X349882Y320792D01*
X349358Y320442D01*
X349344Y320422D01*
X308606D01*
X308415Y320883D01*
X309612Y322080D01*
X309855Y322444D01*
X309940Y322873D01*
X309940Y322873D01*
Y330182D01*
X309855Y330611D01*
X309612Y330975D01*
X309612Y330975D01*
X308393Y332193D01*
X308318Y332243D01*
Y333771D01*
X303219D01*
X303182Y333771D01*
X302718Y333861D01*
Y334171D01*
X300250D01*
D02*
G37*
G36*
X184065Y329340D02*
X178140D01*
Y326041D01*
X176191D01*
Y326781D01*
X171054D01*
Y322038D01*
X175009D01*
X175165Y321538D01*
X174871Y321097D01*
X174747Y320472D01*
X174871Y319848D01*
X175224Y319319D01*
X175754Y318965D01*
X176378Y318841D01*
X177002Y318965D01*
X177532Y319319D01*
X177823Y319610D01*
X178140Y319479D01*
Y319479D01*
X180652D01*
Y317923D01*
X179912D01*
Y312786D01*
X184655D01*
Y317923D01*
X183915D01*
Y319479D01*
X184065D01*
Y329340D01*
D02*
G37*
G36*
X193520Y329740D02*
X190657D01*
Y324909D01*
X193520D01*
Y329740D01*
D02*
G37*
G36*
X189657D02*
X186795D01*
Y324909D01*
X189657D01*
Y329740D01*
D02*
G37*
G36*
X193520Y323909D02*
X190657D01*
Y319079D01*
X193520D01*
Y323909D01*
D02*
G37*
G36*
X189657D02*
X186795D01*
Y319079D01*
X189657D01*
Y323909D01*
D02*
G37*
G36*
X380921Y321039D02*
X377468D01*
Y317587D01*
X380921D01*
Y321039D01*
D02*
G37*
G36*
X376468D02*
X373016D01*
Y317587D01*
X376468D01*
Y321039D01*
D02*
G37*
G36*
X191354Y318323D02*
X189083D01*
Y315854D01*
X191354D01*
Y318323D01*
D02*
G37*
G36*
X188083D02*
X185811D01*
Y315854D01*
X188083D01*
Y318323D01*
D02*
G37*
G36*
X380921Y316587D02*
X377468D01*
Y313134D01*
X380921D01*
Y316587D01*
D02*
G37*
G36*
X376468D02*
X373016D01*
Y313134D01*
X376468D01*
Y316587D01*
D02*
G37*
G36*
X188083Y314854D02*
X185811D01*
Y312386D01*
X188083D01*
Y314854D01*
D02*
G37*
G36*
X248805Y306923D02*
X244830D01*
X244854Y306803D01*
X245206Y306276D01*
X245732Y305925D01*
X246352Y305802D01*
X248805D01*
Y306923D01*
D02*
G37*
G36*
X236250Y307872D02*
X233782D01*
Y305600D01*
X236250D01*
Y307872D01*
D02*
G37*
G36*
X239719Y304600D02*
X237250D01*
Y302329D01*
X239719D01*
Y304600D01*
D02*
G37*
G36*
X236250D02*
X233782D01*
Y302329D01*
X236250D01*
Y304600D01*
D02*
G37*
G36*
X285721Y296969D02*
X283450D01*
Y294500D01*
X285721D01*
Y296969D01*
D02*
G37*
G36*
X282450D02*
X280178D01*
Y294500D01*
X282450D01*
Y296969D01*
D02*
G37*
G36*
X376969Y300670D02*
X376041Y300548D01*
X375177Y300190D01*
X374435Y299620D01*
X373865Y298878D01*
X373507Y298014D01*
X373385Y297087D01*
X373507Y296159D01*
X373865Y295295D01*
X374435Y294553D01*
X375177Y293983D01*
X376041Y293625D01*
X376969Y293503D01*
X377896Y293625D01*
X378760Y293983D01*
X379502Y294553D01*
X380072Y295295D01*
X380430Y296159D01*
X380552Y297087D01*
X380430Y298014D01*
X380072Y298878D01*
X379502Y299620D01*
X378760Y300190D01*
X377896Y300548D01*
X376969Y300670D01*
D02*
G37*
G36*
X285721Y293500D02*
X283450D01*
Y291032D01*
X285721D01*
Y293500D01*
D02*
G37*
G36*
X282450D02*
X280178D01*
Y291032D01*
X282450D01*
Y293500D01*
D02*
G37*
G36*
X250171Y293218D02*
X247900D01*
Y290750D01*
X250171D01*
Y293218D01*
D02*
G37*
G36*
X246900D02*
X244628D01*
Y290750D01*
X246900D01*
Y293218D01*
D02*
G37*
G36*
X332037Y291462D02*
X326506D01*
Y289621D01*
X325789D01*
Y291069D01*
X321045D01*
Y285931D01*
X325789D01*
Y287379D01*
X326506D01*
Y285538D01*
X332037D01*
Y291462D01*
D02*
G37*
G36*
X338730D02*
X333199D01*
Y285538D01*
X338730D01*
Y286502D01*
X339229Y286742D01*
X339768Y286635D01*
X340386Y286758D01*
X340910Y287108D01*
X341260Y287632D01*
X341383Y288250D01*
X341260Y288868D01*
X340910Y289392D01*
X340386Y289742D01*
X339768Y289865D01*
X339229Y289758D01*
X338958Y289889D01*
X338730Y290063D01*
Y291462D01*
D02*
G37*
G36*
X376969Y290670D02*
X376041Y290548D01*
X375177Y290190D01*
X374435Y289620D01*
X373865Y288878D01*
X373507Y288014D01*
X373385Y287087D01*
X373507Y286159D01*
X373865Y285295D01*
X374435Y284553D01*
X375177Y283983D01*
X376041Y283625D01*
X376969Y283503D01*
X377896Y283625D01*
X378760Y283983D01*
X379502Y284553D01*
X380072Y285295D01*
X380430Y286159D01*
X380552Y287087D01*
X380430Y288014D01*
X380072Y288878D01*
X379502Y289620D01*
X378760Y290190D01*
X377896Y290548D01*
X376969Y290670D01*
D02*
G37*
G36*
X332037Y284462D02*
X326506D01*
Y282622D01*
X325789D01*
Y284068D01*
X321045D01*
Y278931D01*
X325789D01*
Y280379D01*
X326506D01*
Y278538D01*
X332037D01*
Y284462D01*
D02*
G37*
G36*
X338730D02*
X333199D01*
Y278538D01*
X338730D01*
Y279502D01*
X339229Y279742D01*
X339768Y279635D01*
X340386Y279758D01*
X340910Y280108D01*
X341260Y280632D01*
X341383Y281250D01*
X341260Y281868D01*
X340910Y282392D01*
X340386Y282742D01*
X339768Y282865D01*
X339229Y282758D01*
X338958Y282889D01*
X338730Y283063D01*
Y284462D01*
D02*
G37*
G36*
X319489Y284068D02*
X314746D01*
Y282622D01*
X310200D01*
X309771Y282536D01*
X309407Y282293D01*
X309407Y282293D01*
X306637Y279523D01*
X306482Y279492D01*
X305958Y279142D01*
X305608Y278618D01*
X305485Y278000D01*
X305608Y277382D01*
X305958Y276858D01*
X306482Y276508D01*
X307100Y276385D01*
X307718Y276508D01*
X308242Y276858D01*
X308592Y277382D01*
X308715Y278000D01*
X308644Y278358D01*
X310665Y280379D01*
X314746D01*
Y278931D01*
X319489D01*
Y284068D01*
D02*
G37*
G36*
X332037Y277462D02*
X326506D01*
Y275622D01*
X325789D01*
Y277068D01*
X321045D01*
Y271932D01*
X325789D01*
Y273378D01*
X326506D01*
Y271538D01*
X332037D01*
Y277462D01*
D02*
G37*
G36*
X338730D02*
X333199D01*
Y271538D01*
X338730D01*
Y272502D01*
X339229Y272742D01*
X339768Y272635D01*
X340386Y272758D01*
X340910Y273108D01*
X341260Y273632D01*
X341383Y274250D01*
X341260Y274868D01*
X340910Y275392D01*
X340386Y275742D01*
X339768Y275865D01*
X339229Y275758D01*
X338958Y275889D01*
X338730Y276063D01*
Y277462D01*
D02*
G37*
G36*
X299300Y280415D02*
X298682Y280292D01*
X298158Y279942D01*
X297808Y279418D01*
X297685Y278800D01*
X297808Y278182D01*
X298158Y277658D01*
X298682Y277308D01*
X299300Y277185D01*
X299324Y277190D01*
X303107Y273407D01*
X303107Y273407D01*
X303471Y273164D01*
X303900Y273078D01*
X314746D01*
Y271932D01*
X319489D01*
Y277068D01*
X314746D01*
Y275322D01*
X304365D01*
X300910Y278776D01*
X300915Y278800D01*
X300792Y279418D01*
X300442Y279942D01*
X299918Y280292D01*
X299300Y280415D01*
D02*
G37*
G36*
X196472Y273244D02*
X194595D01*
Y271563D01*
X196472D01*
Y273244D01*
D02*
G37*
G36*
X193595D02*
X191717D01*
Y271563D01*
X193595D01*
Y273244D01*
D02*
G37*
G36*
X220378D02*
X218500D01*
Y271563D01*
X220378D01*
Y273244D01*
D02*
G37*
G36*
X208378D02*
X206500D01*
Y271563D01*
X208378D01*
Y273244D01*
D02*
G37*
G36*
X217500D02*
X215622D01*
Y271563D01*
X217500D01*
Y273244D01*
D02*
G37*
G36*
X205500D02*
X203622D01*
Y271563D01*
X205500D01*
Y273244D01*
D02*
G37*
G36*
X220378Y270563D02*
X218500D01*
Y268882D01*
X220378D01*
Y270563D01*
D02*
G37*
G36*
X217500D02*
X215622D01*
Y268882D01*
X217500D01*
Y270563D01*
D02*
G37*
G36*
X208378D02*
X206500D01*
Y268882D01*
X208378D01*
Y270563D01*
D02*
G37*
G36*
X205500D02*
X203622D01*
Y268882D01*
X205500D01*
Y270563D01*
D02*
G37*
G36*
X196472Y270563D02*
X194595D01*
Y268882D01*
X196472D01*
Y270563D01*
D02*
G37*
G36*
X193595D02*
X191717D01*
Y268882D01*
X193595D01*
Y270563D01*
D02*
G37*
G36*
X332037Y270423D02*
X326506D01*
Y268582D01*
X325789D01*
Y270029D01*
X321045D01*
Y264892D01*
X325789D01*
Y266339D01*
X326506D01*
Y264498D01*
X332037D01*
Y270423D01*
D02*
G37*
G36*
X380921Y270843D02*
X377468D01*
Y267390D01*
X380921D01*
Y270843D01*
D02*
G37*
G36*
X376468D02*
X373016D01*
Y267390D01*
X376468D01*
Y270843D01*
D02*
G37*
G36*
X338730Y270423D02*
X333199D01*
Y264498D01*
X338730D01*
Y265712D01*
X339229Y265952D01*
X339768Y265845D01*
X340386Y265968D01*
X340910Y266318D01*
X341260Y266843D01*
X341383Y267461D01*
X341260Y268079D01*
X340910Y268603D01*
X340386Y268953D01*
X339768Y269076D01*
X339229Y268969D01*
X338730Y269209D01*
Y270423D01*
D02*
G37*
G36*
X293271Y276818D02*
X288528D01*
Y271681D01*
X293271D01*
Y272105D01*
X293771Y272465D01*
X294094Y272400D01*
X294713Y272523D01*
X295237Y272874D01*
X295587Y273398D01*
X295591Y273417D01*
X296101D01*
X296108Y273382D01*
X296458Y272858D01*
X296982Y272508D01*
X297600Y272385D01*
X297624Y272390D01*
X303307Y266707D01*
X303307Y266707D01*
X303671Y266464D01*
X304100Y266378D01*
X304100Y266378D01*
X314746D01*
Y264892D01*
X319489D01*
Y270029D01*
X314746D01*
Y268621D01*
X304565D01*
X299210Y273976D01*
X299215Y274000D01*
X299092Y274618D01*
X298742Y275142D01*
X298218Y275492D01*
X297600Y275615D01*
X296982Y275492D01*
X296458Y275142D01*
X296108Y274618D01*
X296104Y274598D01*
X295594D01*
X295587Y274634D01*
X295237Y275158D01*
X294713Y275508D01*
X294094Y275631D01*
X293771Y275567D01*
X293271Y275927D01*
Y276818D01*
D02*
G37*
G36*
X380921Y266390D02*
X377468D01*
Y262937D01*
X380921D01*
Y266390D01*
D02*
G37*
G36*
X376468D02*
X373016D01*
Y262937D01*
X376468D01*
Y266390D01*
D02*
G37*
G36*
X332037Y263423D02*
X326506D01*
Y261582D01*
X325789D01*
Y263029D01*
X321045D01*
Y257892D01*
X325789D01*
Y259339D01*
X326506D01*
Y257498D01*
X332037D01*
Y263423D01*
D02*
G37*
G36*
X319489Y263029D02*
X314746D01*
Y261582D01*
X313674D01*
X313660Y261603D01*
X313136Y261953D01*
X312518Y262076D01*
X311900Y261953D01*
X311375Y261603D01*
X311025Y261079D01*
X310902Y260461D01*
X311025Y259842D01*
X311375Y259318D01*
X311900Y258968D01*
X312518Y258845D01*
X313136Y258968D01*
X313660Y259318D01*
X313674Y259339D01*
X314746D01*
Y257892D01*
X319489D01*
Y263029D01*
D02*
G37*
G36*
X338730Y263423D02*
X333199D01*
Y257498D01*
X338730D01*
Y258712D01*
X339229Y258952D01*
X339768Y258845D01*
X340386Y258968D01*
X340910Y259318D01*
X341260Y259842D01*
X341383Y260461D01*
X341260Y261079D01*
X340910Y261603D01*
X340386Y261953D01*
X339768Y262076D01*
X339229Y261969D01*
X338730Y262209D01*
Y263423D01*
D02*
G37*
G36*
X376969Y250473D02*
X376041Y250351D01*
X375177Y249993D01*
X374435Y249424D01*
X373865Y248681D01*
X373507Y247817D01*
X373385Y246890D01*
X373507Y245962D01*
X373865Y245098D01*
X374435Y244356D01*
X375177Y243786D01*
X376041Y243428D01*
X376969Y243306D01*
X377896Y243428D01*
X378760Y243786D01*
X379502Y244356D01*
X380072Y245098D01*
X380430Y245962D01*
X380552Y246890D01*
X380430Y247817D01*
X380072Y248681D01*
X379502Y249424D01*
X378760Y249993D01*
X377896Y250351D01*
X376969Y250473D01*
D02*
G37*
G36*
Y240473D02*
X376041Y240351D01*
X375177Y239993D01*
X374435Y239424D01*
X373865Y238682D01*
X373507Y237817D01*
X373385Y236890D01*
X373507Y235962D01*
X373865Y235098D01*
X374435Y234356D01*
X375177Y233786D01*
X376041Y233429D01*
X376969Y233306D01*
X377896Y233429D01*
X378760Y233786D01*
X379502Y234356D01*
X380072Y235098D01*
X380430Y235962D01*
X380552Y236890D01*
X380430Y237817D01*
X380072Y238682D01*
X379502Y239424D01*
X378760Y239993D01*
X377896Y240351D01*
X376969Y240473D01*
D02*
G37*
G36*
Y220473D02*
X376041Y220351D01*
X375177Y219993D01*
X374435Y219424D01*
X373865Y218682D01*
X373507Y217817D01*
X373385Y216890D01*
X373507Y215962D01*
X373865Y215098D01*
X374435Y214356D01*
X375177Y213786D01*
X376041Y213428D01*
X376969Y213306D01*
X377896Y213428D01*
X378760Y213786D01*
X379502Y214356D01*
X380072Y215098D01*
X380430Y215962D01*
X380552Y216890D01*
X380430Y217817D01*
X380072Y218682D01*
X379502Y219424D01*
X378760Y219993D01*
X377896Y220351D01*
X376969Y220473D01*
D02*
G37*
G36*
X237218Y235921D02*
X234750D01*
Y233650D01*
X237218D01*
Y235921D01*
D02*
G37*
G36*
Y232650D02*
X234750D01*
Y230378D01*
X237218D01*
Y232650D01*
D02*
G37*
G36*
X233750Y235921D02*
X229000D01*
Y233150D01*
Y230378D01*
X233750D01*
Y233150D01*
Y235921D01*
D02*
G37*
G36*
X228000Y232650D02*
X225532D01*
Y230378D01*
X228000D01*
Y232650D01*
D02*
G37*
G36*
X233872Y219969D02*
X231600D01*
Y217500D01*
X233872D01*
Y219969D01*
D02*
G37*
G36*
X230600D02*
X228329D01*
Y217500D01*
X230600D01*
Y219969D01*
D02*
G37*
G36*
X239771Y219568D02*
X235028D01*
Y214432D01*
X238442D01*
X238633Y213970D01*
X238232Y213568D01*
X235028D01*
Y208432D01*
X239771D01*
Y211935D01*
X240209Y212373D01*
X240382Y212258D01*
X241000Y212135D01*
X241618Y212258D01*
X242142Y212608D01*
X242492Y213132D01*
X242615Y213750D01*
X242492Y214368D01*
X242142Y214892D01*
X241745Y215158D01*
X241681Y215586D01*
X241707Y215734D01*
X241892Y215858D01*
X242242Y216382D01*
X242365Y217000D01*
X242242Y217618D01*
X241892Y218142D01*
X241368Y218492D01*
X240750Y218615D01*
X240271Y218520D01*
X239771Y218807D01*
Y219568D01*
D02*
G37*
G36*
X233872Y216500D02*
X231100D01*
X228329D01*
Y214469D01*
X228329Y214032D01*
X228329Y213531D01*
Y211500D01*
X231100D01*
X233872D01*
Y213531D01*
X233872Y213968D01*
X233872Y214469D01*
Y216500D01*
D02*
G37*
G36*
Y210500D02*
X231600D01*
Y208032D01*
X233872D01*
Y210500D01*
D02*
G37*
G36*
X230600D02*
X228329D01*
Y208032D01*
X230600D01*
Y210500D01*
D02*
G37*
%LPD*%
D10*
X333661Y337008D02*
X341142D01*
X341142Y330315D02*
X345079D01*
D17*
X218000Y271063D02*
D03*
Y278937D02*
D03*
X206000Y271063D02*
D03*
Y278937D02*
D03*
X194095Y271063D02*
D03*
Y278937D02*
D03*
D18*
X265750Y242250D02*
D03*
D19*
X288388Y224435D02*
D03*
X286419D02*
D03*
X284451D02*
D03*
X282482D02*
D03*
X280514D02*
D03*
X278545D02*
D03*
X276577D02*
D03*
X274608D02*
D03*
X272640D02*
D03*
X270671D02*
D03*
X268703D02*
D03*
X266734D02*
D03*
X264766D02*
D03*
X262797D02*
D03*
X260829D02*
D03*
X258860D02*
D03*
X256892D02*
D03*
X254923D02*
D03*
X252955D02*
D03*
X250986D02*
D03*
X249018D02*
D03*
X247049D02*
D03*
X245081D02*
D03*
X243112D02*
D03*
Y260065D02*
D03*
X245081D02*
D03*
X247049D02*
D03*
X249018D02*
D03*
X250986D02*
D03*
X252955D02*
D03*
X254923D02*
D03*
X256892D02*
D03*
X258860D02*
D03*
X260829D02*
D03*
X262797D02*
D03*
X264766D02*
D03*
X266734D02*
D03*
X268703D02*
D03*
X270671D02*
D03*
X272640D02*
D03*
X274608D02*
D03*
X276577D02*
D03*
X278545D02*
D03*
X280514D02*
D03*
X282482D02*
D03*
X284451D02*
D03*
X286419D02*
D03*
X288388D02*
D03*
D20*
X341142Y337008D02*
D03*
Y330315D02*
D03*
D21*
X333465Y337205D02*
D03*
Y330906D02*
D03*
X173622Y324409D02*
D03*
Y330709D02*
D03*
X305750Y331400D02*
D03*
Y325100D02*
D03*
X173250Y183400D02*
D03*
Y177100D02*
D03*
X203250Y183400D02*
D03*
Y177100D02*
D03*
X244250Y183400D02*
D03*
Y177100D02*
D03*
X274250Y183400D02*
D03*
Y177100D02*
D03*
X315250Y183400D02*
D03*
Y177100D02*
D03*
X345250Y183250D02*
D03*
Y176951D02*
D03*
X237000Y259100D02*
D03*
Y265400D02*
D03*
X228500Y226850D02*
D03*
Y233150D02*
D03*
X234250Y226850D02*
D03*
Y233150D02*
D03*
X218000Y290150D02*
D03*
Y283850D02*
D03*
X224000Y271850D02*
D03*
Y278150D02*
D03*
Y283850D02*
D03*
Y290150D02*
D03*
X212000Y271850D02*
D03*
Y278150D02*
D03*
Y283850D02*
D03*
Y290150D02*
D03*
X206000Y290150D02*
D03*
Y283850D02*
D03*
X200000Y283850D02*
D03*
Y290150D02*
D03*
Y271850D02*
D03*
Y278150D02*
D03*
X194000Y290150D02*
D03*
Y283850D02*
D03*
X299750Y325100D02*
D03*
Y331400D02*
D03*
X293750Y325100D02*
D03*
Y331400D02*
D03*
X236750Y311400D02*
D03*
Y305100D02*
D03*
X260250Y350900D02*
D03*
Y344600D02*
D03*
X254250Y350900D02*
D03*
Y344600D02*
D03*
X260250Y212400D02*
D03*
Y206100D02*
D03*
X270250Y212400D02*
D03*
Y206100D02*
D03*
X280250Y212400D02*
D03*
Y206100D02*
D03*
D22*
X182283Y315354D02*
D03*
X188583D02*
D03*
X276650Y294000D02*
D03*
X282950D02*
D03*
X241100Y290250D02*
D03*
X247400D02*
D03*
X247400Y284250D02*
D03*
X241100D02*
D03*
X230150Y327250D02*
D03*
X223850D02*
D03*
X230150Y309250D02*
D03*
X223850D02*
D03*
X230150Y321250D02*
D03*
X223850D02*
D03*
X230150Y315250D02*
D03*
X223850D02*
D03*
X237400Y217000D02*
D03*
X231100D02*
D03*
X283400Y344250D02*
D03*
X277100D02*
D03*
X266600Y280750D02*
D03*
X272900D02*
D03*
X241100Y278250D02*
D03*
X247400D02*
D03*
X266600Y274250D02*
D03*
X272900D02*
D03*
X237400Y211000D02*
D03*
X231100D02*
D03*
X323417Y267461D02*
D03*
X317118D02*
D03*
X323417Y260461D02*
D03*
X317118D02*
D03*
X323417Y288500D02*
D03*
X317118D02*
D03*
X323417Y281500D02*
D03*
X317118D02*
D03*
X323417Y274500D02*
D03*
X317118D02*
D03*
X284600Y274250D02*
D03*
X290900D02*
D03*
D23*
X199213Y324409D02*
D03*
X190157D02*
D03*
X181102D02*
D03*
D24*
X190157Y348819D02*
D03*
D25*
X230250Y181852D02*
D03*
Y169648D02*
D03*
X301000Y181852D02*
D03*
Y169648D02*
D03*
D26*
X276077Y334195D02*
D03*
X274108D02*
D03*
X272140D02*
D03*
X270171D02*
D03*
X268203D02*
D03*
X266234D02*
D03*
X264266D02*
D03*
X262297D02*
D03*
X260329D02*
D03*
X258360D02*
D03*
X256392D02*
D03*
X254423D02*
D03*
Y302305D02*
D03*
X256392D02*
D03*
X258360D02*
D03*
X260329D02*
D03*
X262297D02*
D03*
X264266D02*
D03*
X266234D02*
D03*
X268203D02*
D03*
X270171D02*
D03*
X272140D02*
D03*
X274108D02*
D03*
X276077D02*
D03*
D27*
X249305Y329077D02*
D03*
Y327108D02*
D03*
Y325140D02*
D03*
Y323171D02*
D03*
Y321203D02*
D03*
Y319234D02*
D03*
Y317266D02*
D03*
Y315297D02*
D03*
Y313329D02*
D03*
Y311360D02*
D03*
Y309392D02*
D03*
Y307423D02*
D03*
X281195D02*
D03*
Y309392D02*
D03*
Y311360D02*
D03*
Y313329D02*
D03*
Y315297D02*
D03*
Y317266D02*
D03*
Y319234D02*
D03*
Y321203D02*
D03*
Y323171D02*
D03*
Y325140D02*
D03*
Y327108D02*
D03*
Y329077D02*
D03*
D28*
X199140Y170750D02*
D03*
Y165750D02*
D03*
Y160750D02*
D03*
Y155750D02*
D03*
X220163D02*
D03*
Y160750D02*
D03*
Y165750D02*
D03*
Y170750D02*
D03*
X169140D02*
D03*
Y165750D02*
D03*
Y160750D02*
D03*
Y155750D02*
D03*
X190163D02*
D03*
Y160750D02*
D03*
Y165750D02*
D03*
Y170750D02*
D03*
X240140D02*
D03*
Y165750D02*
D03*
Y160750D02*
D03*
Y155750D02*
D03*
X261163D02*
D03*
Y160750D02*
D03*
Y165750D02*
D03*
Y170750D02*
D03*
X270140D02*
D03*
Y165750D02*
D03*
Y160750D02*
D03*
Y155750D02*
D03*
X291163D02*
D03*
Y160750D02*
D03*
Y165750D02*
D03*
Y170750D02*
D03*
X311140D02*
D03*
Y165750D02*
D03*
Y160750D02*
D03*
Y155750D02*
D03*
X332163D02*
D03*
Y160750D02*
D03*
Y165750D02*
D03*
Y170750D02*
D03*
X341140D02*
D03*
Y165750D02*
D03*
Y160750D02*
D03*
Y155750D02*
D03*
X362163D02*
D03*
Y160750D02*
D03*
Y165750D02*
D03*
Y170750D02*
D03*
X341140Y148750D02*
D03*
Y143750D02*
D03*
Y138750D02*
D03*
Y133750D02*
D03*
X362163D02*
D03*
Y138750D02*
D03*
Y143750D02*
D03*
Y148750D02*
D03*
X311140D02*
D03*
Y143750D02*
D03*
Y138750D02*
D03*
Y133750D02*
D03*
X332163D02*
D03*
Y138750D02*
D03*
Y143750D02*
D03*
Y148750D02*
D03*
X270140D02*
D03*
Y143750D02*
D03*
Y138750D02*
D03*
Y133750D02*
D03*
X291163D02*
D03*
Y138750D02*
D03*
Y143750D02*
D03*
Y148750D02*
D03*
X240140D02*
D03*
Y143750D02*
D03*
Y138750D02*
D03*
Y133750D02*
D03*
X261163D02*
D03*
Y138750D02*
D03*
Y143750D02*
D03*
Y148750D02*
D03*
X199140D02*
D03*
Y143750D02*
D03*
Y138750D02*
D03*
Y133750D02*
D03*
X220163D02*
D03*
Y138750D02*
D03*
Y143750D02*
D03*
Y148750D02*
D03*
X169140D02*
D03*
Y143750D02*
D03*
Y138750D02*
D03*
Y133750D02*
D03*
X190163D02*
D03*
Y138750D02*
D03*
Y143750D02*
D03*
Y148750D02*
D03*
D29*
X212250Y163250D02*
D03*
X182250D02*
D03*
X253250D02*
D03*
X283250D02*
D03*
X324250D02*
D03*
X354250D02*
D03*
Y141250D02*
D03*
X324250D02*
D03*
X283250D02*
D03*
X253250D02*
D03*
X212250D02*
D03*
X182250D02*
D03*
D30*
X335964Y274500D02*
D03*
X329271D02*
D03*
X335964Y281500D02*
D03*
X329271D02*
D03*
X335964Y288500D02*
D03*
X329271D02*
D03*
X335964Y260461D02*
D03*
X329271D02*
D03*
X335964Y267461D02*
D03*
X329271D02*
D03*
D50*
X242719Y234573D02*
D03*
Y239691D02*
D03*
Y244809D02*
D03*
Y249927D02*
D03*
X247837Y234573D02*
D03*
Y239691D02*
D03*
Y244809D02*
D03*
Y249927D02*
D03*
X252955Y234573D02*
D03*
Y239691D02*
D03*
Y244809D02*
D03*
Y249927D02*
D03*
X258073Y234573D02*
D03*
Y239691D02*
D03*
Y244809D02*
D03*
Y249927D02*
D03*
X263191Y234573D02*
D03*
Y239691D02*
D03*
Y244809D02*
D03*
Y249927D02*
D03*
X268309Y234573D02*
D03*
Y239691D02*
D03*
Y244809D02*
D03*
Y249927D02*
D03*
X288781Y234573D02*
D03*
Y239691D02*
D03*
Y244809D02*
D03*
Y249927D02*
D03*
X283663Y234573D02*
D03*
Y239691D02*
D03*
Y244809D02*
D03*
Y249927D02*
D03*
X273427Y234573D02*
D03*
Y239691D02*
D03*
Y244809D02*
D03*
Y249927D02*
D03*
X278545D02*
D03*
Y244809D02*
D03*
Y239691D02*
D03*
Y234573D02*
D03*
D51*
X293750Y325100D02*
X299700D01*
X299800Y325200D01*
X299750Y325100D02*
X305800D01*
X305800Y325100D01*
X176378Y320472D02*
X179528Y323622D01*
X173622Y324409D02*
X179921D01*
X180315Y324016D01*
X182283Y316142D02*
Y323228D01*
X181102Y324409D02*
X182283Y323228D01*
D52*
X289500Y325000D02*
X293800D01*
X287392Y327108D02*
X289500Y325000D01*
X276518Y209832D02*
Y229232D01*
X216500Y235000D02*
Y252000D01*
X200000Y268500D02*
X216500Y252000D01*
X200000Y268500D02*
Y271750D01*
X223500Y235000D02*
Y270719D01*
X224016Y271234D01*
X220000Y235000D02*
Y256500D01*
X211811Y264689D02*
X220000Y256500D01*
X211811Y264689D02*
Y271654D01*
X236750Y192500D02*
Y197250D01*
X220276Y213724D02*
X236750Y197250D01*
X220276Y213724D02*
Y217520D01*
X212000Y271850D02*
X212008Y271843D01*
X212039Y271705D01*
X312518Y260461D02*
X317018D01*
X309516Y287816D02*
X314400Y292700D01*
X275737Y287816D02*
X309516D01*
X316760Y267500D02*
X317018Y267758D01*
Y267461D02*
Y267758D01*
X304100Y267500D02*
X316760D01*
X297600Y274000D02*
X304100Y267500D01*
X303900Y274200D02*
X316638D01*
X299300Y278800D02*
X303900Y274200D01*
X316638D02*
X317100Y274662D01*
Y274500D02*
Y274662D01*
X307100Y278000D02*
Y278400D01*
X310200Y281500D01*
X316518D01*
X312800Y285600D02*
Y286438D01*
X314462Y288100D01*
X316915D02*
X317118Y288303D01*
X314462Y288100D02*
X316915D01*
X317118Y288303D02*
Y288500D01*
X288388Y266088D02*
X288600Y266300D01*
X286510Y267910D02*
X286600Y268000D01*
X284416Y269132D02*
Y273416D01*
Y269132D02*
X284484Y269063D01*
Y260098D02*
Y269063D01*
X280316Y269754D02*
X281100Y270538D01*
X280316Y267337D02*
Y269754D01*
Y267337D02*
X280514Y267139D01*
Y260065D02*
Y267139D01*
X274316Y268108D02*
X277750Y271542D01*
X276150Y272205D02*
Y277850D01*
X272640Y268694D02*
X276150Y272205D01*
X288388Y260065D02*
Y266088D01*
X286510Y260155D02*
Y267910D01*
X284416Y273416D02*
X284750Y273750D01*
X286419Y260065D02*
X286510Y260155D01*
X290938Y315000D02*
X291200D01*
X290641Y315297D02*
X290938Y315000D01*
X287700Y313400D02*
X287900Y313200D01*
X283500Y313400D02*
X287700D01*
X283700Y315300D02*
X283703Y315297D01*
X290641D01*
X281213Y317284D02*
X344116D01*
X281195Y317266D02*
X281213Y317284D01*
X344116D02*
X354313Y307087D01*
X268237Y307237D02*
X274400Y313400D01*
X268237Y302340D02*
Y307237D01*
X268203Y302305D02*
X268237Y302340D01*
X268203Y299303D02*
Y302305D01*
X271997Y316500D02*
X273300D01*
X262297Y306800D02*
X271997Y316500D01*
X262297Y302305D02*
Y306800D01*
X264700Y288900D02*
Y289162D01*
X264116Y289746D02*
Y294450D01*
Y289746D02*
X264700Y289162D01*
X264266Y294600D02*
Y302305D01*
X268284Y288932D02*
Y299222D01*
X263729Y284376D02*
X268284Y288932D01*
X268203Y299303D02*
X268284Y299222D01*
X266200Y293000D02*
X266217Y293017D01*
Y302239D01*
X270171Y289212D02*
Y302305D01*
Y289212D02*
X277750Y281633D01*
X272140Y291413D02*
Y302221D01*
Y291413D02*
X275737Y287816D01*
X262297Y286560D02*
Y302305D01*
X262129Y286391D02*
X262297Y286560D01*
X262129Y271163D02*
Y286391D01*
X264116Y294450D02*
X264266Y294600D01*
X281100Y270538D02*
Y270800D01*
X284451Y260065D02*
X284484Y260098D01*
X278516Y260094D02*
Y267422D01*
X276400Y260242D02*
Y266000D01*
X274316Y265137D02*
Y268108D01*
Y265137D02*
X274608Y264844D01*
Y260065D02*
Y264844D01*
X272640Y260065D02*
Y268694D01*
X276400Y260242D02*
X276577Y260065D01*
X278285Y267653D02*
X278516Y267422D01*
Y260094D02*
X278545Y260065D01*
X263729Y271826D02*
X266734Y268820D01*
X350787Y253150D02*
Y287402D01*
X276600Y289900D02*
Y292200D01*
X274108Y297892D02*
Y302305D01*
Y297892D02*
X276700Y295300D01*
X283300Y294300D02*
Y295082D01*
X276077Y302305D02*
X283300Y295082D01*
X276000Y292800D02*
X276600Y292200D01*
X272140Y302305D02*
Y305958D01*
X230700Y280050D02*
Y294298D01*
X220250Y304748D02*
X230700Y294298D01*
X220250Y304748D02*
Y311650D01*
X237500Y285750D02*
Y286453D01*
Y285750D02*
X238914D01*
X238946Y285718D01*
X239829D01*
X266600Y280750D02*
Y284300D01*
X266700Y284400D01*
X276000Y292800D02*
X276700Y293500D01*
X282441Y268191D02*
X282500Y268250D01*
X278285Y267785D02*
X278516Y268016D01*
X278285Y267653D02*
Y267785D01*
X282441Y260106D02*
Y268191D01*
X256892Y260065D02*
Y268308D01*
X256400Y268800D02*
X256892Y268308D01*
X258360Y281165D02*
X258492Y281033D01*
X258860Y260065D02*
Y265947D01*
X260329Y270700D02*
Y302305D01*
Y270700D02*
X262850Y268179D01*
X262129Y271163D02*
X264766Y268526D01*
X263729Y271826D02*
Y284376D01*
X255073Y323000D02*
X258100D01*
X307145Y321200D02*
X308819Y322873D01*
X286458Y321200D02*
X307145D01*
X286455Y321203D02*
X286458Y321200D01*
X376213Y307087D02*
X376700Y306600D01*
X354313Y307087D02*
X376213D01*
X281261Y319300D02*
X350500D01*
X281195Y319234D02*
X281261Y319300D01*
X281195Y307423D02*
X330766D01*
X287850Y309400D02*
X331052D01*
X285890Y311360D02*
X287850Y309400D01*
X331052D02*
X352387Y288064D01*
X330766Y307423D02*
X350787Y287402D01*
X281195Y321203D02*
X286455D01*
X307600Y331400D02*
X308819Y330182D01*
Y322873D02*
Y330182D01*
X306100Y331400D02*
X307600D01*
X199900Y283850D02*
X199950Y283800D01*
X200000Y283750D02*
X200250Y284000D01*
X194000Y279134D02*
X194095D01*
X255118Y338976D02*
X256392Y337703D01*
X224509Y338976D02*
X255118D01*
X190931Y305399D02*
X224509Y338976D01*
X256392Y334195D02*
Y337703D01*
X190931Y286919D02*
Y305399D01*
Y286919D02*
X194000Y283850D01*
X231661Y333339D02*
X235923Y329077D01*
X223397Y333339D02*
X231661D01*
X216350Y326292D02*
X223397Y333339D01*
X216350Y304122D02*
Y326292D01*
Y304122D02*
X227500Y292972D01*
X352387Y281077D02*
X376772Y256693D01*
X352387Y281077D02*
Y288064D01*
X350787Y253150D02*
X377165Y226772D01*
X242815Y260065D02*
X243000Y260250D01*
X241850Y259100D02*
X242815Y260065D01*
X243112D01*
X241903D02*
X242815D01*
X241142Y260827D02*
X241903Y260065D01*
X229100Y279387D02*
X240837Y267650D01*
X229100Y279387D02*
Y293635D01*
X240837Y267650D02*
X244613D01*
X194000Y279134D02*
Y283850D01*
X217913Y279134D02*
X218000D01*
Y283850D01*
X223750Y271500D02*
X224016Y271234D01*
X262797Y218581D02*
Y224435D01*
X262402Y218185D02*
X262797Y218581D01*
X260514Y217631D02*
X260841Y217304D01*
Y213340D02*
Y217304D01*
X260514Y219367D02*
X260841Y219694D01*
X260514Y217631D02*
Y219367D01*
X262598Y218381D02*
Y218503D01*
X262402Y218185D02*
X262598Y218381D01*
X260841Y219694D02*
Y224423D01*
X264816Y192816D02*
Y224385D01*
X266419Y217201D02*
X266715Y217497D01*
X266419Y209931D02*
Y217201D01*
X268503Y216338D02*
X268701Y216535D01*
X270683Y212683D02*
Y224423D01*
X272640Y217713D02*
X272834Y217519D01*
X274758Y218543D02*
Y224285D01*
Y218543D02*
X274918Y218383D01*
Y205582D02*
Y218383D01*
X280514Y218891D02*
Y224435D01*
Y218891D02*
X280824Y218580D01*
Y214324D02*
Y218580D01*
X282482Y218699D02*
X288189Y212992D01*
X282482Y218699D02*
Y224435D01*
X255250Y183250D02*
X264816Y192816D01*
X264766Y224435D02*
X264816Y224385D01*
X270250Y212250D02*
X270683Y212683D01*
X270671Y224435D02*
X270683Y224423D01*
X276518Y209832D02*
X280250Y206100D01*
X276500Y229250D02*
X276518Y229232D01*
X288189Y212992D02*
X297638D01*
X279250Y212750D02*
X280824Y214324D01*
X258661Y216535D02*
Y224236D01*
X268703Y216734D02*
Y224435D01*
X266715Y217497D02*
Y224415D01*
X256577Y209773D02*
Y217399D01*
Y209773D02*
X260250Y206100D01*
X258661Y224236D02*
X258860Y224435D01*
X256872Y217694D02*
Y224415D01*
X256577Y217399D02*
X256872Y217694D01*
X254921Y217520D02*
Y222638D01*
X253740Y216339D02*
X254921Y217520D01*
X244250Y183250D02*
X255250D01*
X260250Y212750D02*
X260841Y213340D01*
X260829Y224435D02*
X260841Y224423D01*
X268307Y216339D02*
X268703Y216734D01*
X272640Y217713D02*
Y224435D01*
X274918Y205582D02*
X279713Y200787D01*
X266419Y209931D02*
X270250Y206100D01*
X274608Y224435D02*
X274758Y224285D01*
X278545Y218045D02*
Y224435D01*
X256392Y284658D02*
Y302305D01*
X254316Y282582D02*
X256392Y284658D01*
X262850Y260118D02*
Y268179D01*
X258492Y266316D02*
Y281033D01*
X258360Y281165D02*
Y302305D01*
X254316Y267937D02*
Y282582D01*
Y267937D02*
X254923Y267329D01*
X252615Y266387D02*
Y273385D01*
X247750Y278250D02*
X252615Y273385D01*
Y266387D02*
X252955Y266048D01*
Y260065D02*
Y266048D01*
X237500Y275552D02*
X242093Y270960D01*
X246303D02*
X250986Y266276D01*
X245750Y269250D02*
X249018Y265982D01*
Y260065D02*
Y265982D01*
X244613Y267650D02*
X247049Y265213D01*
Y260065D02*
Y265213D01*
X244500Y265500D02*
X245081Y264919D01*
Y260065D02*
Y264919D01*
X264766Y260065D02*
Y268526D01*
X260829Y260065D02*
Y267029D01*
X258492Y266316D02*
X258860Y265947D01*
X241500Y269250D02*
X245750D01*
X240750Y265500D02*
X244500D01*
X262797Y260065D02*
X262850Y260118D01*
X256872Y224415D02*
X256892Y224435D01*
X278250Y182250D02*
X292323D01*
X301000Y181352D02*
X301250D01*
X301181Y177362D02*
Y180118D01*
X297211Y177362D02*
X301181D01*
X292323Y182250D02*
X297211Y177362D01*
X281195Y327108D02*
X287392D01*
X281302Y329184D02*
X291184D01*
X281195Y329077D02*
X281302Y329184D01*
X291184D02*
X293250Y331250D01*
X274014Y347319D02*
X305437D01*
X314567Y338189D01*
X264300Y334229D02*
Y337605D01*
X274014Y347319D01*
X264266Y334195D02*
X264300Y334229D01*
X254902Y323171D02*
X255073Y323000D01*
X255980Y325120D02*
X256000Y325100D01*
X249305Y325140D02*
X249325Y325120D01*
X259716Y327184D02*
X260100Y326800D01*
X249381Y327184D02*
X259716D01*
X249305Y327108D02*
X249381Y327184D01*
X259738Y321250D02*
X260000D01*
X259404Y320916D02*
X259738Y321250D01*
X255712Y321203D02*
X255999Y320916D01*
X259404D01*
X230700Y280050D02*
X241500Y269250D01*
X218650Y304085D02*
Y315853D01*
Y304085D02*
X229100Y293635D01*
X218650Y315853D02*
X223750Y320953D01*
Y321000D01*
X250986Y260065D02*
Y266276D01*
X241500Y274500D02*
Y278000D01*
X273250Y280750D02*
X276150Y277850D01*
X277750Y271542D02*
Y281633D01*
X293750Y331250D02*
X293900Y331400D01*
X276077Y343077D02*
X277250Y344250D01*
X260250Y344750D02*
X260329Y344671D01*
X302756Y218110D02*
Y256700D01*
X250986Y203214D02*
Y224435D01*
Y203214D02*
X251100Y203100D01*
X249016Y194484D02*
Y224433D01*
Y194484D02*
X256250Y187250D01*
X249016Y224433D02*
X249018Y224435D01*
X335964Y274500D02*
X339768D01*
X340018Y274250D01*
X260150Y350900D02*
X260250Y351000D01*
X339518Y260461D02*
X339768Y260211D01*
X237000Y265500D02*
X240750D01*
X224000Y327250D02*
Y330750D01*
X223750Y309250D02*
X224000Y309000D01*
X193750Y290250D02*
X197000Y293500D01*
X218000Y290000D02*
X221000Y293000D01*
X206000Y290500D02*
X206250D01*
X230250Y177250D02*
Y181455D01*
X245081Y197881D02*
Y224435D01*
X235750Y188550D02*
X245081Y197881D01*
X235750Y178750D02*
Y188550D01*
X215798Y195947D02*
X229947D01*
X230000Y196000D01*
X203250Y183400D02*
X215798Y195947D01*
X187795Y198031D02*
X228346D01*
X258250Y202250D02*
X260250Y204250D01*
X237500Y275552D02*
Y285750D01*
X227500Y287350D02*
Y292972D01*
X248031Y284252D02*
X250394D01*
X291339Y274410D02*
X291732Y274016D01*
X294094D01*
X297638Y212992D02*
X302756Y218110D01*
X243701Y311417D02*
X243758Y311360D01*
X249305D01*
X173228Y183465D02*
X187795Y198031D01*
X278250Y217750D02*
X278545Y218045D01*
X315250Y183400D02*
Y189868D01*
X304331Y200787D02*
X315250Y189868D01*
X279713Y200787D02*
X304331D01*
X315250Y183250D02*
Y183400D01*
X345250Y183490D02*
X345276Y183465D01*
X345250Y183490D02*
Y187250D01*
X274250Y183400D02*
Y187250D01*
Y183250D02*
Y183400D01*
X274000Y183000D02*
X274250Y183250D01*
X291148Y179250D02*
X301250Y169148D01*
X212000Y271850D02*
Y272000D01*
X223750Y271500D02*
X224000Y271750D01*
X237750Y211500D02*
X240000Y213750D01*
X241000D01*
X256750Y229500D02*
X256892Y229358D01*
Y224435D02*
Y229358D01*
X200000Y278150D02*
Y283750D01*
X194000Y283850D02*
X199900D01*
X218000D02*
X223650D01*
X224000Y278150D02*
Y283750D01*
X223650Y283850D02*
X223750Y283750D01*
X197000Y293000D02*
X199500Y290500D01*
X197000Y293000D02*
Y293500D01*
X206250Y290500D02*
X209000Y293250D01*
X212000Y290250D01*
X221000Y293000D02*
Y293250D01*
X224000Y290250D01*
X235923Y329077D02*
X249305D01*
X224000Y283850D02*
X227500Y287350D01*
X254250Y344600D02*
X259650D01*
X339268Y281500D02*
X339518Y281250D01*
X335964Y281500D02*
X339268D01*
Y288500D02*
X339518Y288250D01*
X335964Y288500D02*
X339268D01*
X335964Y260461D02*
X339518D01*
X335964Y267461D02*
X339268D01*
X323417Y274500D02*
X327518D01*
X323417Y281500D02*
X327518D01*
X323417Y288500D02*
X327518D01*
X323417Y260461D02*
X327518D01*
X323417Y267461D02*
X328768D01*
X283400Y340350D02*
X283500Y340250D01*
X283400Y340350D02*
Y344250D01*
X254250Y350900D02*
X260150D01*
X257250Y351000D02*
Y354000D01*
X262297Y340047D02*
X262500Y340250D01*
X262297Y334195D02*
Y340047D01*
X276077Y334195D02*
Y343077D01*
X293900Y331400D02*
X299750D01*
X243000Y193250D02*
X244250D01*
X238000Y188250D02*
X243000Y193250D01*
X238000Y178250D02*
Y188250D01*
X230500Y170750D02*
X238000Y178250D01*
X230500Y169898D02*
Y170750D01*
X234250Y177250D02*
X235750Y178750D01*
X230250Y177250D02*
X234250D01*
X230250Y169648D02*
X230500Y169898D01*
X247049Y192701D02*
X254000Y185750D01*
X247049Y192701D02*
Y224435D01*
X240500Y187500D02*
X241000Y188250D01*
X240500Y181750D02*
Y187500D01*
Y181750D02*
X242000Y180250D01*
X248000D01*
X253250Y175000D01*
Y163250D02*
Y175000D01*
X270250Y171250D02*
Y206100D01*
X237500Y311250D02*
X239484Y309266D01*
X249179D01*
X249305Y309392D01*
X236750Y311500D02*
Y315000D01*
X224000Y305750D02*
Y309000D01*
X230150Y327150D02*
X230250Y327250D01*
X230150Y321250D02*
Y327150D01*
Y314900D02*
X230250Y315000D01*
X230150Y309250D02*
Y314900D01*
X241500Y278500D02*
X241650D01*
X247400Y284250D01*
X242093Y270960D02*
X246303D01*
X237500Y286453D02*
X240797Y289750D01*
X241100Y284250D02*
Y284447D01*
X239829Y285718D02*
X241100Y284447D01*
X240797Y289750D02*
X241250D01*
X220250Y311650D02*
X223850Y315250D01*
X230750Y321000D02*
X232516Y319234D01*
X249305D01*
X230500Y315250D02*
X232516Y317266D01*
X249305D01*
X266734Y260065D02*
Y268820D01*
X281195Y311360D02*
X285890D01*
X249305Y321203D02*
X255712D01*
X249305Y323171D02*
X254902D01*
X249325Y325120D02*
X255980D01*
X237000Y259100D02*
X241850D01*
X237400Y217000D02*
X240750D01*
X250986Y229236D02*
X251000Y229250D01*
X250986Y224435D02*
Y229236D01*
X247000Y229500D02*
X247049Y229451D01*
Y224435D02*
Y229451D01*
X282441Y260106D02*
X282482Y260065D01*
X272900Y272900D02*
Y274250D01*
X270671Y270671D02*
X272900Y272900D01*
X270671Y260065D02*
Y270671D01*
X260829Y267029D02*
X260850Y267050D01*
X268703Y260065D02*
Y271797D01*
X266750Y273750D02*
X268703Y271797D01*
X254923Y260065D02*
Y267329D01*
X285250Y179250D02*
X291148D01*
X341250Y155250D02*
X345250Y159250D01*
X341250Y133250D02*
X345250Y137250D01*
Y159250D01*
X311250Y155250D02*
X315250Y159250D01*
X311250Y133250D02*
X315250Y137250D01*
Y159250D01*
X270250Y133250D02*
X274250Y137250D01*
Y159250D01*
X241250Y134250D02*
X244250Y137250D01*
Y159250D01*
X169250Y133250D02*
X173250Y137250D01*
Y159250D01*
X199250Y133250D02*
X203250Y137250D01*
Y159250D01*
X271250Y155250D02*
Y156250D01*
X274250Y159250D02*
Y177100D01*
X271250Y156250D02*
X274250Y159250D01*
X345250D02*
Y176951D01*
X315250Y159250D02*
Y177100D01*
X241250Y156250D02*
X244250Y159250D01*
Y177100D01*
X170250Y156250D02*
X173250Y159250D01*
Y177100D01*
X200250Y156250D02*
X203250Y159250D01*
Y177100D01*
Y183250D02*
Y183400D01*
X199250Y171250D02*
Y174250D01*
X240250Y171250D02*
Y174250D01*
X311250Y171250D02*
Y174250D01*
X306400Y206100D02*
X341250Y171250D01*
X280250Y206100D02*
X306400D01*
X260250D02*
Y206250D01*
Y204250D02*
Y206100D01*
X266715Y224415D02*
X266734Y224435D01*
D53*
X234250Y226850D02*
X239150D01*
X234150D02*
X234500Y226500D01*
X228500Y226850D02*
X234150D01*
X161150D02*
X228500D01*
X160500Y227500D02*
X161150Y226850D01*
X199213Y324409D02*
Y324410D01*
X188331Y233213D02*
Y306476D01*
X182283Y227165D02*
X188331Y233213D01*
X199213Y317357D02*
Y324409D01*
X188331Y306476D02*
X199213Y317357D01*
X239150Y226850D02*
X241000Y225000D01*
D54*
X199213Y324410D02*
Y330315D01*
X195276Y334252D02*
X199213Y330315D01*
X177165Y334252D02*
X195276D01*
X173622Y330709D02*
X177165Y334252D01*
D55*
X205906Y283850D02*
X206000Y283756D01*
Y278835D02*
Y283756D01*
X205906Y278740D02*
X206000Y278835D01*
X214750Y326955D02*
X222735Y334939D01*
X254340D02*
X254423Y334856D01*
X222735Y334939D02*
X254340D01*
X203000Y315205D02*
X214750Y326955D01*
X203000Y286750D02*
Y315205D01*
X205803Y283850D02*
X212000D01*
X212000Y278150D02*
Y283850D01*
X203000Y286653D02*
Y286750D01*
X212000Y283850D02*
X212000Y283850D01*
X254423Y334195D02*
Y334856D01*
X203000Y286653D02*
X205803Y283850D01*
D56*
X241500Y224500D02*
D03*
D57*
X161417Y106299D02*
D03*
Y342520D02*
D03*
X366142D02*
D03*
Y106299D02*
D03*
D58*
X280935Y106000D02*
D03*
X261250D02*
D03*
X241565D02*
D03*
X161000Y247000D02*
D03*
Y227315D02*
D03*
D59*
X376969Y317087D02*
D03*
Y266890D02*
D03*
D60*
Y307087D02*
D03*
Y297087D02*
D03*
Y287087D02*
D03*
Y216890D02*
D03*
Y226890D02*
D03*
Y236890D02*
D03*
Y246890D02*
D03*
Y256890D02*
D03*
D61*
X223500Y235000D02*
D03*
X220000D02*
D03*
X216500D02*
D03*
X312518Y260461D02*
D03*
X314400Y292700D02*
D03*
X297600Y274000D02*
D03*
X299300Y278800D02*
D03*
X307100Y278000D02*
D03*
X312800Y285600D02*
D03*
X288600Y266300D02*
D03*
X286600Y268000D02*
D03*
X282400Y268200D02*
D03*
X278232Y267801D02*
D03*
X287900Y313200D02*
D03*
X291200Y315000D02*
D03*
X274400Y313400D02*
D03*
X273300Y316500D02*
D03*
X266200Y293000D02*
D03*
X264700Y288900D02*
D03*
X281100Y270800D02*
D03*
X276400Y266000D02*
D03*
X276600Y289900D02*
D03*
X266700Y284400D02*
D03*
X256400Y268800D02*
D03*
X350500Y319300D02*
D03*
X302800Y325100D02*
D03*
X176378Y320472D02*
D03*
X262598Y218503D02*
D03*
X268503Y216338D02*
D03*
X272834Y217519D02*
D03*
X278740Y217717D02*
D03*
X258661Y216535D02*
D03*
X253740Y216339D02*
D03*
X276500Y229500D02*
D03*
X260629Y267126D02*
D03*
X345079Y330315D02*
D03*
X227417Y213356D02*
D03*
X231354Y236978D02*
D03*
X220276Y217520D02*
D03*
X250787Y229528D02*
D03*
X297638Y189567D02*
D03*
X304134D02*
D03*
X300984D02*
D03*
X297835Y185630D02*
D03*
X299410Y187598D02*
D03*
X302559D02*
D03*
X303937Y185630D02*
D03*
X300984D02*
D03*
X224803Y185433D02*
D03*
Y189370D02*
D03*
X230315D02*
D03*
X227559D02*
D03*
Y185433D02*
D03*
X230315D02*
D03*
X226181Y187402D02*
D03*
X228937D02*
D03*
X258100Y323000D02*
D03*
X260100Y326800D02*
D03*
X260000Y321250D02*
D03*
X256000Y325100D02*
D03*
X241500Y274500D02*
D03*
X251100Y203100D02*
D03*
X230000Y196000D02*
D03*
X228346Y198031D02*
D03*
X258250Y202250D02*
D03*
X227937Y344530D02*
D03*
Y346892D02*
D03*
X230299Y344530D02*
D03*
Y346892D02*
D03*
X232661Y344530D02*
D03*
Y346892D02*
D03*
X224000Y330750D02*
D03*
X314567Y338189D02*
D03*
X250394Y284252D02*
D03*
X294094Y274016D02*
D03*
X230299Y302797D02*
D03*
Y305159D02*
D03*
X232661D02*
D03*
X227937D02*
D03*
X232661Y302797D02*
D03*
X227953Y302756D02*
D03*
X243701Y311417D02*
D03*
X241000Y213750D02*
D03*
X256750Y229500D02*
D03*
X221000Y293250D02*
D03*
X209000D02*
D03*
X197000Y293500D02*
D03*
X339768Y267461D02*
D03*
Y260461D02*
D03*
Y288250D02*
D03*
Y281250D02*
D03*
Y274250D02*
D03*
X257250Y354000D02*
D03*
X262500Y340500D02*
D03*
X283500Y340000D02*
D03*
X244250Y193250D02*
D03*
X254000Y185750D02*
D03*
X256250Y187250D02*
D03*
X236750Y192500D02*
D03*
X241000Y188250D02*
D03*
X236750Y315000D02*
D03*
X224000Y305750D02*
D03*
X240945Y261024D02*
D03*
X240750Y217000D02*
D03*
X247000Y229500D02*
D03*
X285250Y179250D02*
D03*
X278250Y182250D02*
D03*
X274250Y187250D02*
D03*
X199250Y174250D02*
D03*
X311250D02*
D03*
X240250D02*
D03*
X345250Y187250D02*
D03*
D62*
X234000Y135000D02*
D03*
Y132000D02*
D03*
X231000Y135000D02*
D03*
Y138000D02*
D03*
X228000D02*
D03*
X225000Y141000D02*
D03*
Y144000D02*
D03*
Y138000D02*
D03*
Y135000D02*
D03*
X228000D02*
D03*
Y132000D02*
D03*
X225000D02*
D03*
X231000D02*
D03*
X228000Y141000D02*
D03*
X305000Y135000D02*
D03*
Y132000D02*
D03*
X302000Y135000D02*
D03*
Y138000D02*
D03*
X299000D02*
D03*
X296000Y141000D02*
D03*
Y144000D02*
D03*
Y138000D02*
D03*
Y135000D02*
D03*
X299000D02*
D03*
Y132000D02*
D03*
X296000D02*
D03*
X302000D02*
D03*
X299000Y141000D02*
D03*
X370000D02*
D03*
X373000Y132000D02*
D03*
X367000D02*
D03*
X370000D02*
D03*
Y135000D02*
D03*
X367000D02*
D03*
Y138000D02*
D03*
Y144000D02*
D03*
Y141000D02*
D03*
X370000Y138000D02*
D03*
X373000D02*
D03*
Y135000D02*
D03*
X376000Y132000D02*
D03*
Y135000D02*
D03*
M02*
