G04*
G04 #@! TF.GenerationSoftware,Altium Limited,Altium Designer,18.1.9 (240)*
G04*
G04 Layer_Color=16711935*
%FSLAX25Y25*%
%MOIN*%
G70*
G01*
G75*
%ADD48C,0.06706*%
%ADD49R,0.06706X0.06706*%
%ADD50R,0.06706X0.06706*%
%ADD51C,0.15748*%
%ADD52C,0.08674*%
%ADD53C,0.02769*%
%ADD54C,0.01181*%
D48*
X366950Y287000D02*
D03*
Y297000D02*
D03*
Y307000D02*
D03*
X240079Y352756D02*
D03*
X230079D02*
D03*
X220079D02*
D03*
X210079D02*
D03*
X376950Y307000D02*
D03*
Y297000D02*
D03*
Y287000D02*
D03*
D49*
X366950Y317000D02*
D03*
X376950D02*
D03*
D50*
X200079Y352756D02*
D03*
D51*
X161417Y106299D02*
D03*
Y342520D02*
D03*
X366142D02*
D03*
Y106299D02*
D03*
D52*
X280935Y106000D02*
D03*
X261250D02*
D03*
X241565D02*
D03*
X161000Y247000D02*
D03*
Y227315D02*
D03*
D53*
X176772Y314236D02*
D03*
Y310961D02*
D03*
D54*
X242719Y234573D02*
D03*
Y239691D02*
D03*
Y244809D02*
D03*
Y249927D02*
D03*
X247837Y234573D02*
D03*
Y239691D02*
D03*
Y244809D02*
D03*
Y249927D02*
D03*
X252955Y234573D02*
D03*
Y239691D02*
D03*
Y244809D02*
D03*
Y249927D02*
D03*
X258073Y234573D02*
D03*
Y239691D02*
D03*
Y244809D02*
D03*
Y249927D02*
D03*
X263191Y234573D02*
D03*
Y239691D02*
D03*
Y244809D02*
D03*
Y249927D02*
D03*
X268309Y234573D02*
D03*
Y239691D02*
D03*
Y244809D02*
D03*
Y249927D02*
D03*
X288781Y234573D02*
D03*
Y239691D02*
D03*
Y244809D02*
D03*
Y249927D02*
D03*
X283663Y234573D02*
D03*
Y239691D02*
D03*
Y244809D02*
D03*
Y249927D02*
D03*
X273427Y234573D02*
D03*
Y239691D02*
D03*
Y244809D02*
D03*
Y249927D02*
D03*
X278545D02*
D03*
Y244809D02*
D03*
Y239691D02*
D03*
Y234573D02*
D03*
M02*
