G04*
G04 #@! TF.GenerationSoftware,Altium Limited,Altium Designer,19.1.7 (138)*
G04*
G04 Layer_Color=128*
%FSLAX25Y25*%
%MOIN*%
G70*
G01*
G75*
%ADD28R,0.15394X0.14764*%
%ADD29R,0.02402X0.05000*%
D28*
X311417Y205669D02*
D03*
X288583Y210866D02*
D03*
X263386Y205669D02*
D03*
X240551Y210866D02*
D03*
X215354Y205669D02*
D03*
X192520Y210866D02*
D03*
D29*
X303917Y197756D02*
D03*
X308917D02*
D03*
X313917D02*
D03*
X318917D02*
D03*
Y218779D02*
D03*
X313917D02*
D03*
X308917D02*
D03*
X303917D02*
D03*
X296083D02*
D03*
X291083D02*
D03*
X286083D02*
D03*
X281083D02*
D03*
Y197756D02*
D03*
X286083D02*
D03*
X291083D02*
D03*
X296083D02*
D03*
X255886D02*
D03*
X260886D02*
D03*
X265886D02*
D03*
X270886D02*
D03*
Y218779D02*
D03*
X265886D02*
D03*
X260886D02*
D03*
X255886D02*
D03*
X248051D02*
D03*
X243051D02*
D03*
X238051D02*
D03*
X233051D02*
D03*
Y197756D02*
D03*
X238051D02*
D03*
X243051D02*
D03*
X248051D02*
D03*
X207854Y218779D02*
D03*
X212854D02*
D03*
X217854D02*
D03*
X222854D02*
D03*
Y197756D02*
D03*
X217854D02*
D03*
X212854D02*
D03*
X207854D02*
D03*
X200020Y218779D02*
D03*
X195020D02*
D03*
X190020D02*
D03*
X185020D02*
D03*
Y197756D02*
D03*
X190020D02*
D03*
X195020D02*
D03*
X200020D02*
D03*
M02*
