G04*
G04 #@! TF.GenerationSoftware,Altium Limited,Altium Designer,18.1.9 (240)*
G04*
G04 Layer_Color=16711935*
%FSLAX25Y25*%
%MOIN*%
G70*
G01*
G75*
%ADD46C,0.15748*%
%ADD47C,0.08674*%
%ADD48R,0.06706X0.06706*%
%ADD49C,0.06706*%
%ADD50C,0.01181*%
D46*
X120079Y104331D02*
D03*
Y344488D02*
D03*
X368110D02*
D03*
Y104331D02*
D03*
D47*
X280935Y106000D02*
D03*
X261250D02*
D03*
X241565D02*
D03*
X122835Y246457D02*
D03*
Y226772D02*
D03*
D48*
X112205Y320866D02*
D03*
X376378Y322835D02*
D03*
D49*
X112205Y310866D02*
D03*
Y300866D02*
D03*
Y290866D02*
D03*
X376378Y272835D02*
D03*
Y282835D02*
D03*
Y292835D02*
D03*
Y302835D02*
D03*
Y312835D02*
D03*
D50*
X242719Y234573D02*
D03*
Y239691D02*
D03*
Y244809D02*
D03*
Y249927D02*
D03*
X247837Y234573D02*
D03*
Y239691D02*
D03*
Y244809D02*
D03*
Y249927D02*
D03*
X252955Y234573D02*
D03*
Y239691D02*
D03*
Y244809D02*
D03*
Y249927D02*
D03*
X258073Y234573D02*
D03*
Y239691D02*
D03*
Y244809D02*
D03*
Y249927D02*
D03*
X263191Y234573D02*
D03*
Y239691D02*
D03*
Y244809D02*
D03*
Y249927D02*
D03*
X268309Y234573D02*
D03*
Y239691D02*
D03*
Y244809D02*
D03*
Y249927D02*
D03*
X288781Y234573D02*
D03*
Y239691D02*
D03*
Y244809D02*
D03*
Y249927D02*
D03*
X283663Y234573D02*
D03*
Y239691D02*
D03*
Y244809D02*
D03*
Y249927D02*
D03*
X273427Y234573D02*
D03*
Y239691D02*
D03*
Y244809D02*
D03*
Y249927D02*
D03*
X278545D02*
D03*
Y244809D02*
D03*
Y239691D02*
D03*
Y234573D02*
D03*
M02*
