G04 #@! TF.FileFunction,Copper,L2,Bot,Signal*
%FSLAX46Y46*%
G04 Gerber Fmt 4.6, Leading zero omitted, Abs format (unit mm)*
G04 Created by KiCad (PCBNEW 4.0.7) date 04/04/18 16:23:25*
%MOMM*%
%LPD*%
G01*
G04 APERTURE LIST*
%ADD10C,0.100000*%
%ADD11C,0.500000*%
%ADD12R,3.000000X3.000000*%
%ADD13C,3.000000*%
%ADD14R,0.400000X0.600000*%
%ADD15C,0.400000*%
%ADD16R,12.500000X5.100000*%
%ADD17R,1.700000X1.700000*%
%ADD18O,1.700000X1.700000*%
%ADD19C,0.127000*%
%ADD20C,0.254000*%
G04 APERTURE END LIST*
D10*
D11*
X213000000Y-103000000D03*
X208000000Y-103000000D03*
X208000000Y-108000000D03*
X213000000Y-108000000D03*
X213000000Y-112000000D03*
X208000000Y-112000000D03*
X198000000Y-112000000D03*
X203000000Y-112000000D03*
X203000000Y-108000000D03*
X174600000Y-119300000D03*
X171000000Y-103500000D03*
X202000000Y-102000000D03*
X198000000Y-106000000D03*
X193000000Y-112000000D03*
X193000000Y-108000000D03*
X172000000Y-109000000D03*
X167000000Y-109000000D03*
X157000000Y-109000000D03*
X192700000Y-103800000D03*
X184950000Y-101200000D03*
X176700000Y-103600000D03*
X162000000Y-98000000D03*
X162000000Y-104000000D03*
X157000000Y-104000000D03*
X191900000Y-119900000D03*
X193100000Y-119300000D03*
X191900000Y-119300000D03*
X192500000Y-119300000D03*
X193100000Y-120500000D03*
X191900000Y-120500000D03*
X193100000Y-119900000D03*
X192500000Y-119900000D03*
X192500000Y-120500000D03*
X191300000Y-120500000D03*
X191300000Y-119900000D03*
X190700000Y-119300000D03*
X191300000Y-119300000D03*
X190700000Y-119900000D03*
X190700000Y-120500000D03*
X174600000Y-120500000D03*
X174000000Y-120500000D03*
X173400000Y-120500000D03*
X172800000Y-120500000D03*
X172200000Y-120500000D03*
X174600000Y-119900000D03*
X174000000Y-119900000D03*
X173400000Y-119900000D03*
X172800000Y-119900000D03*
X172200000Y-119900000D03*
X174000000Y-119300000D03*
X173400000Y-119300000D03*
X172800000Y-119300000D03*
X172200000Y-119300000D03*
D12*
X188080000Y-139500000D03*
D13*
X183000000Y-139500000D03*
X177920000Y-139500000D03*
D12*
X160000000Y-115000000D03*
D13*
X160000000Y-109920000D03*
D11*
X175500000Y-131750000D03*
X175000000Y-131250000D03*
X175500000Y-131250000D03*
X175000000Y-130750000D03*
X175000000Y-131750000D03*
X175000000Y-132250000D03*
X175500000Y-132250000D03*
X175000000Y-132750000D03*
X175500000Y-132750000D03*
X176000000Y-131750000D03*
X176000000Y-132250000D03*
X176500000Y-132250000D03*
X175000000Y-134250000D03*
X175000000Y-133250000D03*
X175500000Y-133250000D03*
X175000000Y-133750000D03*
X175500000Y-133750000D03*
X175500000Y-134250000D03*
X177000000Y-134250000D03*
X177000000Y-133750000D03*
X177500000Y-133750000D03*
X177500000Y-134250000D03*
X176000000Y-132750000D03*
X176500000Y-132750000D03*
X176000000Y-133250000D03*
X176500000Y-133250000D03*
X177000000Y-133250000D03*
X176000000Y-133750000D03*
X176500000Y-133750000D03*
X176000000Y-134250000D03*
X176500000Y-134250000D03*
X194000000Y-133250000D03*
X193500000Y-133250000D03*
X194000000Y-132750000D03*
X193500000Y-132750000D03*
X194500000Y-133250000D03*
X195000000Y-133250000D03*
X194500000Y-132750000D03*
X195000000Y-132750000D03*
X195000000Y-132250000D03*
X195500000Y-133250000D03*
X194500000Y-132250000D03*
X194000000Y-134250000D03*
X194000000Y-133750000D03*
X193500000Y-133750000D03*
X193500000Y-134250000D03*
X194500000Y-134250000D03*
X195000000Y-133750000D03*
X194500000Y-133750000D03*
X195500000Y-133750000D03*
X196000000Y-133750000D03*
X195000000Y-134250000D03*
X195500000Y-134250000D03*
X196000000Y-134250000D03*
X193500000Y-131750000D03*
X193500000Y-132250000D03*
X194000000Y-132250000D03*
X193500000Y-130750000D03*
X194500000Y-131750000D03*
X193500000Y-131250000D03*
X194000000Y-131250000D03*
X194000000Y-131750000D03*
X212000000Y-134250000D03*
X212500000Y-134250000D03*
X212000000Y-133750000D03*
X212500000Y-133750000D03*
X213500000Y-134250000D03*
X213000000Y-133750000D03*
X213500000Y-133750000D03*
X213000000Y-134250000D03*
X214000000Y-133750000D03*
X214000000Y-133250000D03*
X213500000Y-133250000D03*
X214500000Y-133750000D03*
X214500000Y-134250000D03*
X214000000Y-134250000D03*
X213000000Y-132250000D03*
X213000000Y-132750000D03*
X213500000Y-132250000D03*
X213500000Y-132750000D03*
X212000000Y-133250000D03*
X213000000Y-133250000D03*
X212500000Y-133250000D03*
X212500000Y-132750000D03*
X212000000Y-132750000D03*
X212000000Y-132250000D03*
X212500000Y-132250000D03*
X213000000Y-131750000D03*
X212500000Y-131250000D03*
X212500000Y-131750000D03*
X212000000Y-131750000D03*
X212000000Y-130750000D03*
X212000000Y-131250000D03*
D14*
X182250000Y-115850000D03*
X183150000Y-115850000D03*
X178350000Y-116950000D03*
X179250000Y-116950000D03*
X187250000Y-115850000D03*
X188150000Y-115850000D03*
X180250000Y-116950000D03*
X181150000Y-116950000D03*
X184750000Y-115850000D03*
X185650000Y-115850000D03*
D15*
X186354000Y-109136000D03*
X187654000Y-111736000D03*
X187654000Y-110436000D03*
X187654000Y-109136000D03*
X187654000Y-107836000D03*
X188954000Y-111736000D03*
X188954000Y-110436000D03*
X188954000Y-109136000D03*
X188954000Y-107836000D03*
X190254000Y-107836000D03*
X190254000Y-109136000D03*
X190254000Y-110436000D03*
X190254000Y-111736000D03*
D16*
X184404000Y-109786000D03*
D15*
X186354000Y-110436000D03*
X186354000Y-107836000D03*
X186354000Y-111736000D03*
X185054000Y-111736000D03*
X183754000Y-111736000D03*
X182454000Y-111736000D03*
X181154000Y-111736000D03*
X179854000Y-111736000D03*
X178554000Y-111736000D03*
X178554000Y-110436000D03*
X178554000Y-109136000D03*
X178554000Y-107836000D03*
X179854000Y-107836000D03*
X179854000Y-109136000D03*
X179854000Y-110436000D03*
X181154000Y-110436000D03*
X181154000Y-109136000D03*
X181154000Y-107836000D03*
X182454000Y-107836000D03*
X182454000Y-109136000D03*
X182454000Y-110436000D03*
X183754000Y-110436000D03*
X183754000Y-109136000D03*
X183754000Y-107836000D03*
X185054000Y-107836000D03*
X185054000Y-109136000D03*
X185054000Y-110436000D03*
D17*
X207010000Y-96266000D03*
D18*
X204470000Y-96266000D03*
X201930000Y-96266000D03*
X199390000Y-96266000D03*
X196850000Y-96266000D03*
X194310000Y-96266000D03*
X191770000Y-96266000D03*
X189230000Y-96266000D03*
X186690000Y-96266000D03*
X184150000Y-96266000D03*
X181610000Y-96266000D03*
X179070000Y-96266000D03*
X176530000Y-96266000D03*
X173990000Y-96266000D03*
X171450000Y-96266000D03*
X168910000Y-96266000D03*
X166370000Y-96266000D03*
X163830000Y-96266000D03*
X161290000Y-96266000D03*
D11*
X195000000Y-121000000D03*
X181045988Y-115249662D03*
X178400000Y-115800008D03*
X176800000Y-114800000D03*
X180100000Y-115250000D03*
X176500000Y-120600000D03*
X188300004Y-115000000D03*
X187045988Y-114999998D03*
X185700000Y-115000000D03*
X184600002Y-115000000D03*
X183291977Y-115000000D03*
X182099996Y-115000000D03*
X180900000Y-116200000D03*
X195000000Y-123400000D03*
X179200000Y-115900000D03*
X176500000Y-123400000D03*
D19*
X180250000Y-116950000D02*
X180250000Y-118650000D01*
X180250000Y-118650000D02*
X183100000Y-121500000D01*
X183100000Y-121500000D02*
X194500000Y-121500000D01*
X194500000Y-121500000D02*
X194750001Y-121249999D01*
X194750001Y-121249999D02*
X195000000Y-121000000D01*
X194949989Y-120850001D02*
X195000000Y-120900012D01*
X195000000Y-120900012D02*
X195000000Y-121000000D01*
X176800000Y-114800000D02*
X180596326Y-114800000D01*
X180795989Y-114999663D02*
X181045988Y-115249662D01*
X180596326Y-114800000D02*
X180795989Y-114999663D01*
X178350000Y-115850008D02*
X178400000Y-115800008D01*
X178350000Y-116950000D02*
X178350000Y-115850008D01*
X178350000Y-118750000D02*
X178350000Y-116950000D01*
X180250000Y-116523000D02*
X180100000Y-116373000D01*
X180100000Y-115532842D02*
X180100000Y-115250000D01*
X180250000Y-116950000D02*
X180250000Y-116523000D01*
X180100000Y-116373000D02*
X180100000Y-115532842D01*
X176500000Y-120600000D02*
X178350000Y-118750000D01*
X188150000Y-115850000D02*
X188150000Y-115150004D01*
X188150000Y-115150004D02*
X188300004Y-115000000D01*
X187250000Y-115850000D02*
X187250000Y-115204010D01*
X187250000Y-115204010D02*
X187045988Y-114999998D01*
X185650000Y-115850000D02*
X185650000Y-115050000D01*
X185650000Y-115050000D02*
X185700000Y-115000000D01*
X184750000Y-115149998D02*
X184600002Y-115000000D01*
X184750000Y-115850000D02*
X184750000Y-115149998D01*
X183150000Y-115141977D02*
X183291977Y-115000000D01*
X183150000Y-115850000D02*
X183150000Y-115141977D01*
X182250000Y-115150004D02*
X182099996Y-115000000D01*
X182250000Y-115850000D02*
X182250000Y-115150004D01*
X195000000Y-123400000D02*
X195500000Y-122900000D01*
X195500000Y-122900000D02*
X195500000Y-120800000D01*
X194800000Y-120500000D02*
X194100000Y-121200000D01*
X195500000Y-120800000D02*
X195200000Y-120500000D01*
X195200000Y-120500000D02*
X194800000Y-120500000D01*
X194100000Y-121200000D02*
X183400000Y-121200000D01*
X181150000Y-118950000D02*
X181150000Y-116950000D01*
X183400000Y-121200000D02*
X181150000Y-118950000D01*
X181150000Y-116950000D02*
X181150000Y-116450000D01*
X181150000Y-116450000D02*
X181099999Y-116399999D01*
X181099999Y-116399999D02*
X180900000Y-116200000D01*
X179250000Y-115950000D02*
X179200000Y-115900000D01*
X179250000Y-116950000D02*
X179250000Y-115950000D01*
X179250000Y-120650000D02*
X179250000Y-116950000D01*
X176500000Y-123400000D02*
X179250000Y-120650000D01*
D20*
G36*
X162073000Y-126000000D02*
X162083006Y-126049410D01*
X162110197Y-126089803D01*
X164810197Y-128789803D01*
X164852211Y-128817666D01*
X164900000Y-128827000D01*
X211247394Y-128827000D01*
X215298000Y-132877606D01*
X215298000Y-134873000D01*
X160752626Y-134873000D01*
X157827000Y-131945719D01*
X157827000Y-112927000D01*
X162073000Y-112927000D01*
X162073000Y-126000000D01*
X162073000Y-126000000D01*
G37*
X162073000Y-126000000D02*
X162083006Y-126049410D01*
X162110197Y-126089803D01*
X164810197Y-128789803D01*
X164852211Y-128817666D01*
X164900000Y-128827000D01*
X211247394Y-128827000D01*
X215298000Y-132877606D01*
X215298000Y-134873000D01*
X160752626Y-134873000D01*
X157827000Y-131945719D01*
X157827000Y-112927000D01*
X162073000Y-112927000D01*
X162073000Y-126000000D01*
G36*
X160113000Y-96242941D02*
X160113000Y-96289059D01*
X160202594Y-96739477D01*
X160457735Y-97121324D01*
X160839582Y-97376465D01*
X161290000Y-97466059D01*
X161740418Y-97376465D01*
X162122265Y-97121324D01*
X162377406Y-96739477D01*
X162467000Y-96289059D01*
X162467000Y-96242941D01*
X162443938Y-96127000D01*
X162676062Y-96127000D01*
X162653000Y-96242941D01*
X162653000Y-96289059D01*
X162742594Y-96739477D01*
X162997735Y-97121324D01*
X163379582Y-97376465D01*
X163830000Y-97466059D01*
X164280418Y-97376465D01*
X164662265Y-97121324D01*
X164917406Y-96739477D01*
X165007000Y-96289059D01*
X165007000Y-96242941D01*
X164983938Y-96127000D01*
X165216062Y-96127000D01*
X165193000Y-96242941D01*
X165193000Y-96289059D01*
X165282594Y-96739477D01*
X165537735Y-97121324D01*
X165919582Y-97376465D01*
X166370000Y-97466059D01*
X166820418Y-97376465D01*
X167202265Y-97121324D01*
X167457406Y-96739477D01*
X167547000Y-96289059D01*
X167547000Y-96242941D01*
X167523938Y-96127000D01*
X167756062Y-96127000D01*
X167733000Y-96242941D01*
X167733000Y-96289059D01*
X167822594Y-96739477D01*
X168077735Y-97121324D01*
X168459582Y-97376465D01*
X168910000Y-97466059D01*
X169360418Y-97376465D01*
X169742265Y-97121324D01*
X169997406Y-96739477D01*
X170087000Y-96289059D01*
X170087000Y-96242941D01*
X170063938Y-96127000D01*
X170296062Y-96127000D01*
X170273000Y-96242941D01*
X170273000Y-96289059D01*
X170362594Y-96739477D01*
X170617735Y-97121324D01*
X170999582Y-97376465D01*
X171450000Y-97466059D01*
X171900418Y-97376465D01*
X172282265Y-97121324D01*
X172537406Y-96739477D01*
X172627000Y-96289059D01*
X172627000Y-96242941D01*
X172603938Y-96127000D01*
X172836062Y-96127000D01*
X172813000Y-96242941D01*
X172813000Y-96289059D01*
X172902594Y-96739477D01*
X173157735Y-97121324D01*
X173539582Y-97376465D01*
X173990000Y-97466059D01*
X174440418Y-97376465D01*
X174822265Y-97121324D01*
X175077406Y-96739477D01*
X175167000Y-96289059D01*
X175167000Y-96242941D01*
X175143938Y-96127000D01*
X175376062Y-96127000D01*
X175353000Y-96242941D01*
X175353000Y-96289059D01*
X175442594Y-96739477D01*
X175697735Y-97121324D01*
X176079582Y-97376465D01*
X176530000Y-97466059D01*
X176980418Y-97376465D01*
X177362265Y-97121324D01*
X177617406Y-96739477D01*
X177707000Y-96289059D01*
X177707000Y-96242941D01*
X177683938Y-96127000D01*
X177916062Y-96127000D01*
X177893000Y-96242941D01*
X177893000Y-96289059D01*
X177982594Y-96739477D01*
X178237735Y-97121324D01*
X178619582Y-97376465D01*
X179070000Y-97466059D01*
X179520418Y-97376465D01*
X179902265Y-97121324D01*
X180157406Y-96739477D01*
X180247000Y-96289059D01*
X180247000Y-96242941D01*
X180223938Y-96127000D01*
X180456062Y-96127000D01*
X180433000Y-96242941D01*
X180433000Y-96289059D01*
X180522594Y-96739477D01*
X180777735Y-97121324D01*
X181159582Y-97376465D01*
X181610000Y-97466059D01*
X182060418Y-97376465D01*
X182442265Y-97121324D01*
X182697406Y-96739477D01*
X182787000Y-96289059D01*
X182787000Y-96242941D01*
X182763938Y-96127000D01*
X182996062Y-96127000D01*
X182973000Y-96242941D01*
X182973000Y-96289059D01*
X183062594Y-96739477D01*
X183317735Y-97121324D01*
X183699582Y-97376465D01*
X184150000Y-97466059D01*
X184600418Y-97376465D01*
X184982265Y-97121324D01*
X185237406Y-96739477D01*
X185327000Y-96289059D01*
X185327000Y-96242941D01*
X185303938Y-96127000D01*
X185536062Y-96127000D01*
X185513000Y-96242941D01*
X185513000Y-96289059D01*
X185602594Y-96739477D01*
X185857735Y-97121324D01*
X186239582Y-97376465D01*
X186690000Y-97466059D01*
X187140418Y-97376465D01*
X187522265Y-97121324D01*
X187777406Y-96739477D01*
X187867000Y-96289059D01*
X187867000Y-96242941D01*
X187843938Y-96127000D01*
X188076062Y-96127000D01*
X188053000Y-96242941D01*
X188053000Y-96289059D01*
X188142594Y-96739477D01*
X188397735Y-97121324D01*
X188779582Y-97376465D01*
X189230000Y-97466059D01*
X189680418Y-97376465D01*
X190062265Y-97121324D01*
X190317406Y-96739477D01*
X190407000Y-96289059D01*
X190407000Y-96242941D01*
X190383938Y-96127000D01*
X190616062Y-96127000D01*
X190593000Y-96242941D01*
X190593000Y-96289059D01*
X190682594Y-96739477D01*
X190937735Y-97121324D01*
X191319582Y-97376465D01*
X191770000Y-97466059D01*
X192220418Y-97376465D01*
X192602265Y-97121324D01*
X192857406Y-96739477D01*
X192947000Y-96289059D01*
X192947000Y-96242941D01*
X192923938Y-96127000D01*
X193156062Y-96127000D01*
X193133000Y-96242941D01*
X193133000Y-96289059D01*
X193222594Y-96739477D01*
X193477735Y-97121324D01*
X193859582Y-97376465D01*
X194310000Y-97466059D01*
X194760418Y-97376465D01*
X195142265Y-97121324D01*
X195397406Y-96739477D01*
X195487000Y-96289059D01*
X195487000Y-96242941D01*
X195463938Y-96127000D01*
X195696062Y-96127000D01*
X195673000Y-96242941D01*
X195673000Y-96289059D01*
X195762594Y-96739477D01*
X196017735Y-97121324D01*
X196399582Y-97376465D01*
X196850000Y-97466059D01*
X197300418Y-97376465D01*
X197682265Y-97121324D01*
X197937406Y-96739477D01*
X198027000Y-96289059D01*
X198027000Y-96242941D01*
X198003938Y-96127000D01*
X198236062Y-96127000D01*
X198213000Y-96242941D01*
X198213000Y-96289059D01*
X198302594Y-96739477D01*
X198557735Y-97121324D01*
X198939582Y-97376465D01*
X199390000Y-97466059D01*
X199840418Y-97376465D01*
X200222265Y-97121324D01*
X200477406Y-96739477D01*
X200567000Y-96289059D01*
X200567000Y-96242941D01*
X200543938Y-96127000D01*
X200776062Y-96127000D01*
X200753000Y-96242941D01*
X200753000Y-96289059D01*
X200842594Y-96739477D01*
X201097735Y-97121324D01*
X201479582Y-97376465D01*
X201930000Y-97466059D01*
X202380418Y-97376465D01*
X202762265Y-97121324D01*
X203017406Y-96739477D01*
X203107000Y-96289059D01*
X203107000Y-96242941D01*
X203083938Y-96127000D01*
X205826594Y-96127000D01*
X205826594Y-97116000D01*
X205849395Y-97237179D01*
X205921012Y-97348474D01*
X206030286Y-97423138D01*
X206160000Y-97449406D01*
X207860000Y-97449406D01*
X207981179Y-97426605D01*
X208092474Y-97354988D01*
X208167138Y-97245714D01*
X208193406Y-97116000D01*
X208193406Y-96127000D01*
X213306900Y-96127000D01*
X214245708Y-96754292D01*
X214873000Y-97693102D01*
X214873000Y-113873000D01*
X195000000Y-113873000D01*
X194950590Y-113883006D01*
X194910197Y-113910197D01*
X193910197Y-114910197D01*
X193882334Y-114952211D01*
X193873000Y-115000000D01*
X193873000Y-120673000D01*
X190427000Y-120673000D01*
X190427000Y-115800000D01*
X190416994Y-115750590D01*
X190389803Y-115710197D01*
X188589803Y-113910197D01*
X188547789Y-113882334D01*
X188500000Y-113873000D01*
X176000000Y-113873000D01*
X175950590Y-113883006D01*
X175910197Y-113910197D01*
X174910197Y-114910197D01*
X174882334Y-114952211D01*
X174873000Y-115000000D01*
X174873000Y-120873000D01*
X171927000Y-120873000D01*
X171927000Y-116000000D01*
X171916994Y-115950590D01*
X171889803Y-115910197D01*
X169889803Y-113910197D01*
X169847789Y-113882334D01*
X169800000Y-113873000D01*
X162827000Y-113873000D01*
X162827000Y-112800000D01*
X162784120Y-112572112D01*
X162649438Y-112362811D01*
X162443938Y-112222399D01*
X162200000Y-112173000D01*
X157700000Y-112173000D01*
X157472112Y-112215880D01*
X157262811Y-112350562D01*
X157122399Y-112556062D01*
X157073000Y-112800000D01*
X157073000Y-113873000D01*
X155402000Y-113873000D01*
X155402000Y-100039595D01*
X155532878Y-99381622D01*
X210072666Y-99381622D01*
X210365416Y-100090132D01*
X210907017Y-100632678D01*
X211615014Y-100926665D01*
X212381622Y-100927334D01*
X213090132Y-100634584D01*
X213632678Y-100092983D01*
X213926665Y-99384986D01*
X213927334Y-98618378D01*
X213634584Y-97909868D01*
X213092983Y-97367322D01*
X212384986Y-97073335D01*
X211618378Y-97072666D01*
X210909868Y-97365416D01*
X210367322Y-97907017D01*
X210073335Y-98615014D01*
X210072666Y-99381622D01*
X155532878Y-99381622D01*
X155759278Y-98243435D01*
X156754292Y-96754292D01*
X157693101Y-96127000D01*
X160136062Y-96127000D01*
X160113000Y-96242941D01*
X160113000Y-96242941D01*
G37*
X160113000Y-96242941D02*
X160113000Y-96289059D01*
X160202594Y-96739477D01*
X160457735Y-97121324D01*
X160839582Y-97376465D01*
X161290000Y-97466059D01*
X161740418Y-97376465D01*
X162122265Y-97121324D01*
X162377406Y-96739477D01*
X162467000Y-96289059D01*
X162467000Y-96242941D01*
X162443938Y-96127000D01*
X162676062Y-96127000D01*
X162653000Y-96242941D01*
X162653000Y-96289059D01*
X162742594Y-96739477D01*
X162997735Y-97121324D01*
X163379582Y-97376465D01*
X163830000Y-97466059D01*
X164280418Y-97376465D01*
X164662265Y-97121324D01*
X164917406Y-96739477D01*
X165007000Y-96289059D01*
X165007000Y-96242941D01*
X164983938Y-96127000D01*
X165216062Y-96127000D01*
X165193000Y-96242941D01*
X165193000Y-96289059D01*
X165282594Y-96739477D01*
X165537735Y-97121324D01*
X165919582Y-97376465D01*
X166370000Y-97466059D01*
X166820418Y-97376465D01*
X167202265Y-97121324D01*
X167457406Y-96739477D01*
X167547000Y-96289059D01*
X167547000Y-96242941D01*
X167523938Y-96127000D01*
X167756062Y-96127000D01*
X167733000Y-96242941D01*
X167733000Y-96289059D01*
X167822594Y-96739477D01*
X168077735Y-97121324D01*
X168459582Y-97376465D01*
X168910000Y-97466059D01*
X169360418Y-97376465D01*
X169742265Y-97121324D01*
X169997406Y-96739477D01*
X170087000Y-96289059D01*
X170087000Y-96242941D01*
X170063938Y-96127000D01*
X170296062Y-96127000D01*
X170273000Y-96242941D01*
X170273000Y-96289059D01*
X170362594Y-96739477D01*
X170617735Y-97121324D01*
X170999582Y-97376465D01*
X171450000Y-97466059D01*
X171900418Y-97376465D01*
X172282265Y-97121324D01*
X172537406Y-96739477D01*
X172627000Y-96289059D01*
X172627000Y-96242941D01*
X172603938Y-96127000D01*
X172836062Y-96127000D01*
X172813000Y-96242941D01*
X172813000Y-96289059D01*
X172902594Y-96739477D01*
X173157735Y-97121324D01*
X173539582Y-97376465D01*
X173990000Y-97466059D01*
X174440418Y-97376465D01*
X174822265Y-97121324D01*
X175077406Y-96739477D01*
X175167000Y-96289059D01*
X175167000Y-96242941D01*
X175143938Y-96127000D01*
X175376062Y-96127000D01*
X175353000Y-96242941D01*
X175353000Y-96289059D01*
X175442594Y-96739477D01*
X175697735Y-97121324D01*
X176079582Y-97376465D01*
X176530000Y-97466059D01*
X176980418Y-97376465D01*
X177362265Y-97121324D01*
X177617406Y-96739477D01*
X177707000Y-96289059D01*
X177707000Y-96242941D01*
X177683938Y-96127000D01*
X177916062Y-96127000D01*
X177893000Y-96242941D01*
X177893000Y-96289059D01*
X177982594Y-96739477D01*
X178237735Y-97121324D01*
X178619582Y-97376465D01*
X179070000Y-97466059D01*
X179520418Y-97376465D01*
X179902265Y-97121324D01*
X180157406Y-96739477D01*
X180247000Y-96289059D01*
X180247000Y-96242941D01*
X180223938Y-96127000D01*
X180456062Y-96127000D01*
X180433000Y-96242941D01*
X180433000Y-96289059D01*
X180522594Y-96739477D01*
X180777735Y-97121324D01*
X181159582Y-97376465D01*
X181610000Y-97466059D01*
X182060418Y-97376465D01*
X182442265Y-97121324D01*
X182697406Y-96739477D01*
X182787000Y-96289059D01*
X182787000Y-96242941D01*
X182763938Y-96127000D01*
X182996062Y-96127000D01*
X182973000Y-96242941D01*
X182973000Y-96289059D01*
X183062594Y-96739477D01*
X183317735Y-97121324D01*
X183699582Y-97376465D01*
X184150000Y-97466059D01*
X184600418Y-97376465D01*
X184982265Y-97121324D01*
X185237406Y-96739477D01*
X185327000Y-96289059D01*
X185327000Y-96242941D01*
X185303938Y-96127000D01*
X185536062Y-96127000D01*
X185513000Y-96242941D01*
X185513000Y-96289059D01*
X185602594Y-96739477D01*
X185857735Y-97121324D01*
X186239582Y-97376465D01*
X186690000Y-97466059D01*
X187140418Y-97376465D01*
X187522265Y-97121324D01*
X187777406Y-96739477D01*
X187867000Y-96289059D01*
X187867000Y-96242941D01*
X187843938Y-96127000D01*
X188076062Y-96127000D01*
X188053000Y-96242941D01*
X188053000Y-96289059D01*
X188142594Y-96739477D01*
X188397735Y-97121324D01*
X188779582Y-97376465D01*
X189230000Y-97466059D01*
X189680418Y-97376465D01*
X190062265Y-97121324D01*
X190317406Y-96739477D01*
X190407000Y-96289059D01*
X190407000Y-96242941D01*
X190383938Y-96127000D01*
X190616062Y-96127000D01*
X190593000Y-96242941D01*
X190593000Y-96289059D01*
X190682594Y-96739477D01*
X190937735Y-97121324D01*
X191319582Y-97376465D01*
X191770000Y-97466059D01*
X192220418Y-97376465D01*
X192602265Y-97121324D01*
X192857406Y-96739477D01*
X192947000Y-96289059D01*
X192947000Y-96242941D01*
X192923938Y-96127000D01*
X193156062Y-96127000D01*
X193133000Y-96242941D01*
X193133000Y-96289059D01*
X193222594Y-96739477D01*
X193477735Y-97121324D01*
X193859582Y-97376465D01*
X194310000Y-97466059D01*
X194760418Y-97376465D01*
X195142265Y-97121324D01*
X195397406Y-96739477D01*
X195487000Y-96289059D01*
X195487000Y-96242941D01*
X195463938Y-96127000D01*
X195696062Y-96127000D01*
X195673000Y-96242941D01*
X195673000Y-96289059D01*
X195762594Y-96739477D01*
X196017735Y-97121324D01*
X196399582Y-97376465D01*
X196850000Y-97466059D01*
X197300418Y-97376465D01*
X197682265Y-97121324D01*
X197937406Y-96739477D01*
X198027000Y-96289059D01*
X198027000Y-96242941D01*
X198003938Y-96127000D01*
X198236062Y-96127000D01*
X198213000Y-96242941D01*
X198213000Y-96289059D01*
X198302594Y-96739477D01*
X198557735Y-97121324D01*
X198939582Y-97376465D01*
X199390000Y-97466059D01*
X199840418Y-97376465D01*
X200222265Y-97121324D01*
X200477406Y-96739477D01*
X200567000Y-96289059D01*
X200567000Y-96242941D01*
X200543938Y-96127000D01*
X200776062Y-96127000D01*
X200753000Y-96242941D01*
X200753000Y-96289059D01*
X200842594Y-96739477D01*
X201097735Y-97121324D01*
X201479582Y-97376465D01*
X201930000Y-97466059D01*
X202380418Y-97376465D01*
X202762265Y-97121324D01*
X203017406Y-96739477D01*
X203107000Y-96289059D01*
X203107000Y-96242941D01*
X203083938Y-96127000D01*
X205826594Y-96127000D01*
X205826594Y-97116000D01*
X205849395Y-97237179D01*
X205921012Y-97348474D01*
X206030286Y-97423138D01*
X206160000Y-97449406D01*
X207860000Y-97449406D01*
X207981179Y-97426605D01*
X208092474Y-97354988D01*
X208167138Y-97245714D01*
X208193406Y-97116000D01*
X208193406Y-96127000D01*
X213306900Y-96127000D01*
X214245708Y-96754292D01*
X214873000Y-97693102D01*
X214873000Y-113873000D01*
X195000000Y-113873000D01*
X194950590Y-113883006D01*
X194910197Y-113910197D01*
X193910197Y-114910197D01*
X193882334Y-114952211D01*
X193873000Y-115000000D01*
X193873000Y-120673000D01*
X190427000Y-120673000D01*
X190427000Y-115800000D01*
X190416994Y-115750590D01*
X190389803Y-115710197D01*
X188589803Y-113910197D01*
X188547789Y-113882334D01*
X188500000Y-113873000D01*
X176000000Y-113873000D01*
X175950590Y-113883006D01*
X175910197Y-113910197D01*
X174910197Y-114910197D01*
X174882334Y-114952211D01*
X174873000Y-115000000D01*
X174873000Y-120873000D01*
X171927000Y-120873000D01*
X171927000Y-116000000D01*
X171916994Y-115950590D01*
X171889803Y-115910197D01*
X169889803Y-113910197D01*
X169847789Y-113882334D01*
X169800000Y-113873000D01*
X162827000Y-113873000D01*
X162827000Y-112800000D01*
X162784120Y-112572112D01*
X162649438Y-112362811D01*
X162443938Y-112222399D01*
X162200000Y-112173000D01*
X157700000Y-112173000D01*
X157472112Y-112215880D01*
X157262811Y-112350562D01*
X157122399Y-112556062D01*
X157073000Y-112800000D01*
X157073000Y-113873000D01*
X155402000Y-113873000D01*
X155402000Y-100039595D01*
X155532878Y-99381622D01*
X210072666Y-99381622D01*
X210365416Y-100090132D01*
X210907017Y-100632678D01*
X211615014Y-100926665D01*
X212381622Y-100927334D01*
X213090132Y-100634584D01*
X213632678Y-100092983D01*
X213926665Y-99384986D01*
X213927334Y-98618378D01*
X213634584Y-97909868D01*
X213092983Y-97367322D01*
X212384986Y-97073335D01*
X211618378Y-97072666D01*
X210909868Y-97365416D01*
X210367322Y-97907017D01*
X210073335Y-98615014D01*
X210072666Y-99381622D01*
X155532878Y-99381622D01*
X155759278Y-98243435D01*
X156754292Y-96754292D01*
X157693101Y-96127000D01*
X160136062Y-96127000D01*
X160113000Y-96242941D01*
M02*
