G04 #@! TF.FileFunction,Soldermask,Top*
%FSLAX46Y46*%
G04 Gerber Fmt 4.6, Leading zero omitted, Abs format (unit mm)*
G04 Created by KiCad (PCBNEW 4.0.7) date 04/04/18 16:23:25*
%MOMM*%
%LPD*%
G01*
G04 APERTURE LIST*
%ADD10C,0.100000*%
%ADD11C,3.600000*%
%ADD12R,2.900000X1.400000*%
%ADD13R,3.400000X3.400000*%
%ADD14C,3.400000*%
%ADD15R,1.670000X1.010000*%
%ADD16R,4.150000X4.310000*%
%ADD17R,1.000000X0.800000*%
%ADD18R,1.300000X0.900000*%
%ADD19R,0.800000X1.000000*%
%ADD20R,0.700000X1.950000*%
%ADD21R,4.820000X3.880000*%
%ADD22R,2.100000X2.100000*%
%ADD23O,2.100000X2.100000*%
%ADD24R,2.000000X3.900000*%
%ADD25R,1.150000X1.200000*%
%ADD26R,1.200000X1.150000*%
%ADD27R,1.600000X1.600000*%
%ADD28R,1.700000X1.100000*%
G04 APERTURE END LIST*
D10*
D11*
X212000000Y-99000000D03*
X159000000Y-140000000D03*
D12*
X195000000Y-124500000D03*
X195000000Y-119600000D03*
X176500000Y-124500000D03*
X176500000Y-119600000D03*
D13*
X188080000Y-139500000D03*
D14*
X183000000Y-139500000D03*
X177920000Y-139500000D03*
D13*
X160000000Y-115000000D03*
D14*
X160000000Y-109920000D03*
D15*
X203170000Y-133905000D03*
X203170000Y-132635000D03*
X203170000Y-131365000D03*
X197830000Y-130095000D03*
X197830000Y-131365000D03*
X197830000Y-132635000D03*
X197830000Y-133905000D03*
X203170000Y-130095000D03*
D16*
X201160000Y-132000000D03*
D15*
X210670000Y-128405000D03*
X210670000Y-127135000D03*
X210670000Y-125865000D03*
X205330000Y-124595000D03*
X205330000Y-125865000D03*
X205330000Y-127135000D03*
X205330000Y-128405000D03*
X210670000Y-124595000D03*
D16*
X208660000Y-126500000D03*
D15*
X203170000Y-128405000D03*
X203170000Y-127135000D03*
X203170000Y-125865000D03*
X197830000Y-124595000D03*
X197830000Y-125865000D03*
X197830000Y-127135000D03*
X197830000Y-128405000D03*
X203170000Y-124595000D03*
D16*
X201160000Y-126500000D03*
D15*
X192170000Y-133905000D03*
X192170000Y-132635000D03*
X192170000Y-131365000D03*
X186830000Y-130095000D03*
X186830000Y-131365000D03*
X186830000Y-132635000D03*
X186830000Y-133905000D03*
X192170000Y-130095000D03*
D16*
X190160000Y-132000000D03*
D15*
X184670000Y-133905000D03*
X184670000Y-132635000D03*
X184670000Y-131365000D03*
X179330000Y-130095000D03*
X179330000Y-131365000D03*
X179330000Y-132635000D03*
X179330000Y-133905000D03*
X184670000Y-130095000D03*
D16*
X182660000Y-132000000D03*
D15*
X192170000Y-128405000D03*
X192170000Y-127135000D03*
X192170000Y-125865000D03*
X186830000Y-124595000D03*
X186830000Y-125865000D03*
X186830000Y-127135000D03*
X186830000Y-128405000D03*
X192170000Y-124595000D03*
D16*
X190160000Y-126500000D03*
D15*
X184670000Y-128405000D03*
X184670000Y-127135000D03*
X184670000Y-125865000D03*
X179330000Y-124595000D03*
X179330000Y-125865000D03*
X179330000Y-127135000D03*
X179330000Y-128405000D03*
X184670000Y-124595000D03*
D16*
X182660000Y-126500000D03*
D15*
X173670000Y-133905000D03*
X173670000Y-132635000D03*
X173670000Y-131365000D03*
X168330000Y-130095000D03*
X168330000Y-131365000D03*
X168330000Y-132635000D03*
X168330000Y-133905000D03*
X173670000Y-130095000D03*
D16*
X171660000Y-132000000D03*
D15*
X166170000Y-133905000D03*
X166170000Y-132635000D03*
X166170000Y-131365000D03*
X160830000Y-130095000D03*
X160830000Y-131365000D03*
X160830000Y-132635000D03*
X160830000Y-133905000D03*
X166170000Y-130095000D03*
D16*
X164160000Y-132000000D03*
D15*
X173670000Y-128405000D03*
X173670000Y-127135000D03*
X173670000Y-125865000D03*
X168330000Y-124595000D03*
X168330000Y-125865000D03*
X168330000Y-127135000D03*
X168330000Y-128405000D03*
X173670000Y-124595000D03*
D16*
X171660000Y-126500000D03*
D15*
X166170000Y-128405000D03*
X166170000Y-127135000D03*
X166170000Y-125865000D03*
X160830000Y-124595000D03*
X160830000Y-125865000D03*
X160830000Y-127135000D03*
X160830000Y-128405000D03*
X166170000Y-124595000D03*
D16*
X164160000Y-126500000D03*
D15*
X210670000Y-133905000D03*
X210670000Y-132635000D03*
X210670000Y-131365000D03*
X205330000Y-130095000D03*
X205330000Y-131365000D03*
X205330000Y-132635000D03*
X205330000Y-133905000D03*
X210670000Y-130095000D03*
D16*
X208660000Y-132000000D03*
D17*
X170900000Y-105442000D03*
X170900000Y-104542000D03*
X167048000Y-105442000D03*
X167048000Y-104542000D03*
X168348000Y-104542000D03*
X168348000Y-105442000D03*
X169648000Y-104542000D03*
X169648000Y-105442000D03*
D18*
X206400000Y-121500000D03*
X206400000Y-123000000D03*
X198900000Y-121500000D03*
X198900000Y-123000000D03*
X187900000Y-121500000D03*
X187900000Y-123000000D03*
X180400000Y-121500000D03*
X180400000Y-123000000D03*
X169400000Y-121500000D03*
X169400000Y-123000000D03*
X161900000Y-121500000D03*
X161900000Y-123000000D03*
D19*
X185850000Y-103750000D03*
X184950000Y-103750000D03*
X190200000Y-104050000D03*
X189300000Y-104050000D03*
D17*
X174350000Y-113200000D03*
X174350000Y-112300000D03*
D20*
X183654000Y-106036000D03*
X184154000Y-106036000D03*
X189654000Y-106036000D03*
X189154000Y-106036000D03*
X188654000Y-106036000D03*
X188154000Y-106036000D03*
X187654000Y-106036000D03*
X187154000Y-106036000D03*
X186654000Y-106036000D03*
X186154000Y-106036000D03*
X185654000Y-106036000D03*
X185154000Y-106036000D03*
X184654000Y-106036000D03*
X190154000Y-106036000D03*
D21*
X184404000Y-109786000D03*
D20*
X183154000Y-106036000D03*
X182654000Y-106036000D03*
X182154000Y-106036000D03*
X181654000Y-106036000D03*
X181154000Y-106036000D03*
X180654000Y-106036000D03*
X180154000Y-106036000D03*
X179654000Y-106036000D03*
X179154000Y-106036000D03*
X178654000Y-106036000D03*
X178654000Y-113536000D03*
X179154000Y-113536000D03*
X179654000Y-113536000D03*
X180154000Y-113536000D03*
X180654000Y-113536000D03*
X181154000Y-113536000D03*
X181654000Y-113536000D03*
X182154000Y-113536000D03*
X182654000Y-113536000D03*
X183154000Y-113536000D03*
X183654000Y-113536000D03*
X184154000Y-113536000D03*
X184654000Y-113536000D03*
X185154000Y-113536000D03*
X185654000Y-113536000D03*
X186154000Y-113536000D03*
X186654000Y-113536000D03*
X187154000Y-113536000D03*
X187654000Y-113536000D03*
X188154000Y-113536000D03*
X188654000Y-113536000D03*
X189154000Y-113536000D03*
X189654000Y-113536000D03*
X190154000Y-113536000D03*
D19*
X185850000Y-102500000D03*
X184950000Y-102500000D03*
D22*
X207010000Y-96266000D03*
D23*
X204470000Y-96266000D03*
X201930000Y-96266000D03*
X199390000Y-96266000D03*
X196850000Y-96266000D03*
X194310000Y-96266000D03*
X191770000Y-96266000D03*
X189230000Y-96266000D03*
X186690000Y-96266000D03*
X184150000Y-96266000D03*
X181610000Y-96266000D03*
X179070000Y-96266000D03*
X176530000Y-96266000D03*
X173990000Y-96266000D03*
X171450000Y-96266000D03*
X168910000Y-96266000D03*
X166370000Y-96266000D03*
X163830000Y-96266000D03*
X161290000Y-96266000D03*
D11*
X212000000Y-140000000D03*
D24*
X168450000Y-116050000D03*
X168450000Y-110650000D03*
D25*
X176400000Y-112000000D03*
X176400000Y-113500000D03*
D26*
X178450000Y-103600000D03*
X179950000Y-103600000D03*
D25*
X176300000Y-107100000D03*
X176300000Y-105600000D03*
D27*
X205500000Y-108400000D03*
X205500000Y-110600000D03*
D28*
X205500000Y-106450000D03*
X205500000Y-104550000D03*
M02*
