G04 #@! TF.FileFunction,Legend,Top*
%FSLAX46Y46*%
G04 Gerber Fmt 4.6, Leading zero omitted, Abs format (unit mm)*
G04 Created by KiCad (PCBNEW 4.0.7) date 04/04/18 16:23:25*
%MOMM*%
%LPD*%
G01*
G04 APERTURE LIST*
%ADD10C,0.100000*%
%ADD11C,0.300000*%
%ADD12C,0.120000*%
%ADD13C,0.150000*%
G04 APERTURE END LIST*
D10*
D11*
X206900000Y-111278571D02*
X206900000Y-109778571D01*
X207471428Y-109778571D01*
X207614286Y-109850000D01*
X207685714Y-109921429D01*
X207757143Y-110064286D01*
X207757143Y-110278571D01*
X207685714Y-110421429D01*
X207614286Y-110492857D01*
X207471428Y-110564286D01*
X206900000Y-110564286D01*
X208257143Y-109778571D02*
X208614286Y-111278571D01*
X208900000Y-110207143D01*
X209185714Y-111278571D01*
X209542857Y-109778571D01*
X210971429Y-111278571D02*
X210471429Y-110564286D01*
X210114286Y-111278571D02*
X210114286Y-109778571D01*
X210685714Y-109778571D01*
X210828572Y-109850000D01*
X210900000Y-109921429D01*
X210971429Y-110064286D01*
X210971429Y-110278571D01*
X210900000Y-110421429D01*
X210828572Y-110492857D01*
X210685714Y-110564286D01*
X210114286Y-110564286D01*
X207831429Y-98512286D02*
X207831429Y-99440857D01*
X207260000Y-98940857D01*
X207260000Y-99155143D01*
X207188571Y-99298000D01*
X207117143Y-99369429D01*
X206974286Y-99440857D01*
X206617143Y-99440857D01*
X206474286Y-99369429D01*
X206402857Y-99298000D01*
X206331429Y-99155143D01*
X206331429Y-98726571D01*
X206402857Y-98583714D01*
X206474286Y-98512286D01*
X207331429Y-99940857D02*
X206331429Y-100298000D01*
X207331429Y-100655142D01*
X207831429Y-101083714D02*
X207831429Y-102012285D01*
X207260000Y-101512285D01*
X207260000Y-101726571D01*
X207188571Y-101869428D01*
X207117143Y-101940857D01*
X206974286Y-102012285D01*
X206617143Y-102012285D01*
X206474286Y-101940857D01*
X206402857Y-101869428D01*
X206331429Y-101726571D01*
X206331429Y-101297999D01*
X206402857Y-101155142D01*
X206474286Y-101083714D01*
X205220000Y-99440857D02*
X205291429Y-99298000D01*
X205291429Y-99083714D01*
X205220000Y-98869429D01*
X205077143Y-98726571D01*
X204934286Y-98655143D01*
X204648571Y-98583714D01*
X204434286Y-98583714D01*
X204148571Y-98655143D01*
X204005714Y-98726571D01*
X203862857Y-98869429D01*
X203791429Y-99083714D01*
X203791429Y-99226571D01*
X203862857Y-99440857D01*
X203934286Y-99512286D01*
X204434286Y-99512286D01*
X204434286Y-99226571D01*
X203791429Y-100155143D02*
X205291429Y-100155143D01*
X203791429Y-101012286D01*
X205291429Y-101012286D01*
X203791429Y-101726572D02*
X205291429Y-101726572D01*
X205291429Y-102083715D01*
X205220000Y-102298000D01*
X205077143Y-102440858D01*
X204934286Y-102512286D01*
X204648571Y-102583715D01*
X204434286Y-102583715D01*
X204148571Y-102512286D01*
X204005714Y-102440858D01*
X203862857Y-102298000D01*
X203791429Y-102083715D01*
X203791429Y-101726572D01*
X202251429Y-98655143D02*
X201251429Y-98655143D01*
X202108571Y-98655143D02*
X202180000Y-98726571D01*
X202251429Y-98869429D01*
X202251429Y-99083714D01*
X202180000Y-99226571D01*
X202037143Y-99298000D01*
X201251429Y-99298000D01*
X202751429Y-100298000D02*
X202751429Y-100583714D01*
X202680000Y-100726572D01*
X202537143Y-100869429D01*
X202251429Y-100940857D01*
X201751429Y-100940857D01*
X201465714Y-100869429D01*
X201322857Y-100726572D01*
X201251429Y-100583714D01*
X201251429Y-100298000D01*
X201322857Y-100155143D01*
X201465714Y-100012286D01*
X201751429Y-99940857D01*
X202251429Y-99940857D01*
X202537143Y-100012286D01*
X202680000Y-100155143D01*
X202751429Y-100298000D01*
X201394286Y-102440858D02*
X201322857Y-102369429D01*
X201251429Y-102155143D01*
X201251429Y-102012286D01*
X201322857Y-101798001D01*
X201465714Y-101655143D01*
X201608571Y-101583715D01*
X201894286Y-101512286D01*
X202108571Y-101512286D01*
X202394286Y-101583715D01*
X202537143Y-101655143D01*
X202680000Y-101798001D01*
X202751429Y-102012286D01*
X202751429Y-102155143D01*
X202680000Y-102369429D01*
X202608571Y-102440858D01*
X202751429Y-102869429D02*
X202751429Y-103726572D01*
X201251429Y-103298001D02*
X202751429Y-103298001D01*
X202751429Y-104083715D02*
X201251429Y-104440858D01*
X202322857Y-104726572D01*
X201251429Y-105012286D01*
X202751429Y-105369429D01*
X199711429Y-98655143D02*
X198711429Y-98655143D01*
X199568571Y-98655143D02*
X199640000Y-98726571D01*
X199711429Y-98869429D01*
X199711429Y-99083714D01*
X199640000Y-99226571D01*
X199497143Y-99298000D01*
X198711429Y-99298000D01*
X199497143Y-100512286D02*
X199497143Y-100012286D01*
X198711429Y-100012286D02*
X200211429Y-100012286D01*
X200211429Y-100726572D01*
X199140000Y-101226571D02*
X199140000Y-101940857D01*
X198711429Y-101083714D02*
X200211429Y-101583714D01*
X198711429Y-102083714D01*
X200211429Y-102583714D02*
X198997143Y-102583714D01*
X198854286Y-102655142D01*
X198782857Y-102726571D01*
X198711429Y-102869428D01*
X198711429Y-103155142D01*
X198782857Y-103298000D01*
X198854286Y-103369428D01*
X198997143Y-103440857D01*
X200211429Y-103440857D01*
X198711429Y-104869429D02*
X198711429Y-104155143D01*
X200211429Y-104155143D01*
X200211429Y-105155143D02*
X200211429Y-106012286D01*
X198711429Y-105583715D02*
X200211429Y-105583715D01*
X197171429Y-98655143D02*
X196171429Y-98655143D01*
X197028571Y-98655143D02*
X197100000Y-98726571D01*
X197171429Y-98869429D01*
X197171429Y-99083714D01*
X197100000Y-99226571D01*
X196957143Y-99298000D01*
X196171429Y-99298000D01*
X196314286Y-100869429D02*
X196242857Y-100798000D01*
X196171429Y-100583714D01*
X196171429Y-100440857D01*
X196242857Y-100226572D01*
X196385714Y-100083714D01*
X196528571Y-100012286D01*
X196814286Y-99940857D01*
X197028571Y-99940857D01*
X197314286Y-100012286D01*
X197457143Y-100083714D01*
X197600000Y-100226572D01*
X197671429Y-100440857D01*
X197671429Y-100583714D01*
X197600000Y-100798000D01*
X197528571Y-100869429D01*
X196242857Y-101440857D02*
X196171429Y-101655143D01*
X196171429Y-102012286D01*
X196242857Y-102155143D01*
X196314286Y-102226572D01*
X196457143Y-102298000D01*
X196600000Y-102298000D01*
X196742857Y-102226572D01*
X196814286Y-102155143D01*
X196885714Y-102012286D01*
X196957143Y-101726572D01*
X197028571Y-101583714D01*
X197100000Y-101512286D01*
X197242857Y-101440857D01*
X197385714Y-101440857D01*
X197528571Y-101512286D01*
X197600000Y-101583714D01*
X197671429Y-101726572D01*
X197671429Y-102083714D01*
X197600000Y-102298000D01*
X193702857Y-98583714D02*
X193631429Y-98798000D01*
X193631429Y-99155143D01*
X193702857Y-99298000D01*
X193774286Y-99369429D01*
X193917143Y-99440857D01*
X194060000Y-99440857D01*
X194202857Y-99369429D01*
X194274286Y-99298000D01*
X194345714Y-99155143D01*
X194417143Y-98869429D01*
X194488571Y-98726571D01*
X194560000Y-98655143D01*
X194702857Y-98583714D01*
X194845714Y-98583714D01*
X194988571Y-98655143D01*
X195060000Y-98726571D01*
X195131429Y-98869429D01*
X195131429Y-99226571D01*
X195060000Y-99440857D01*
X193631429Y-100083714D02*
X195131429Y-100083714D01*
X195131429Y-100440857D01*
X195060000Y-100655142D01*
X194917143Y-100798000D01*
X194774286Y-100869428D01*
X194488571Y-100940857D01*
X194274286Y-100940857D01*
X193988571Y-100869428D01*
X193845714Y-100798000D01*
X193702857Y-100655142D01*
X193631429Y-100440857D01*
X193631429Y-100083714D01*
X193631429Y-101583714D02*
X195131429Y-101583714D01*
X191162857Y-98583714D02*
X191091429Y-98798000D01*
X191091429Y-99155143D01*
X191162857Y-99298000D01*
X191234286Y-99369429D01*
X191377143Y-99440857D01*
X191520000Y-99440857D01*
X191662857Y-99369429D01*
X191734286Y-99298000D01*
X191805714Y-99155143D01*
X191877143Y-98869429D01*
X191948571Y-98726571D01*
X192020000Y-98655143D01*
X192162857Y-98583714D01*
X192305714Y-98583714D01*
X192448571Y-98655143D01*
X192520000Y-98726571D01*
X192591429Y-98869429D01*
X192591429Y-99226571D01*
X192520000Y-99440857D01*
X191091429Y-100083714D02*
X192591429Y-100083714D01*
X192591429Y-100440857D01*
X192520000Y-100655142D01*
X192377143Y-100798000D01*
X192234286Y-100869428D01*
X191948571Y-100940857D01*
X191734286Y-100940857D01*
X191448571Y-100869428D01*
X191305714Y-100798000D01*
X191162857Y-100655142D01*
X191091429Y-100440857D01*
X191091429Y-100083714D01*
X192591429Y-101869428D02*
X192591429Y-102155142D01*
X192520000Y-102298000D01*
X192377143Y-102440857D01*
X192091429Y-102512285D01*
X191591429Y-102512285D01*
X191305714Y-102440857D01*
X191162857Y-102298000D01*
X191091429Y-102155142D01*
X191091429Y-101869428D01*
X191162857Y-101726571D01*
X191305714Y-101583714D01*
X191591429Y-101512285D01*
X192091429Y-101512285D01*
X192377143Y-101583714D01*
X192520000Y-101726571D01*
X192591429Y-101869428D01*
X188694286Y-99512286D02*
X188622857Y-99440857D01*
X188551429Y-99226571D01*
X188551429Y-99083714D01*
X188622857Y-98869429D01*
X188765714Y-98726571D01*
X188908571Y-98655143D01*
X189194286Y-98583714D01*
X189408571Y-98583714D01*
X189694286Y-98655143D01*
X189837143Y-98726571D01*
X189980000Y-98869429D01*
X190051429Y-99083714D01*
X190051429Y-99226571D01*
X189980000Y-99440857D01*
X189908571Y-99512286D01*
X188551429Y-100869429D02*
X188551429Y-100155143D01*
X190051429Y-100155143D01*
X188551429Y-101369429D02*
X190051429Y-101369429D01*
X188551429Y-102226572D02*
X189408571Y-101583715D01*
X190051429Y-102226572D02*
X189194286Y-101369429D01*
X186154286Y-99512286D02*
X186082857Y-99440857D01*
X186011429Y-99226571D01*
X186011429Y-99083714D01*
X186082857Y-98869429D01*
X186225714Y-98726571D01*
X186368571Y-98655143D01*
X186654286Y-98583714D01*
X186868571Y-98583714D01*
X187154286Y-98655143D01*
X187297143Y-98726571D01*
X187440000Y-98869429D01*
X187511429Y-99083714D01*
X187511429Y-99226571D01*
X187440000Y-99440857D01*
X187368571Y-99512286D01*
X186440000Y-100083714D02*
X186440000Y-100798000D01*
X186011429Y-99940857D02*
X187511429Y-100440857D01*
X186011429Y-100940857D01*
X186011429Y-102155143D02*
X186011429Y-101440857D01*
X187511429Y-101440857D01*
X184257143Y-98655143D02*
X184257143Y-99155143D01*
X183471429Y-99369429D02*
X183471429Y-98655143D01*
X184971429Y-98655143D01*
X184971429Y-99369429D01*
X183471429Y-100012286D02*
X184971429Y-100012286D01*
X183471429Y-100869429D01*
X184971429Y-100869429D01*
X181360000Y-98837714D02*
X181360000Y-99552000D01*
X180931429Y-98694857D02*
X182431429Y-99194857D01*
X180931429Y-99694857D01*
X180931429Y-100194857D02*
X182431429Y-100194857D01*
X181717143Y-100194857D02*
X181717143Y-101052000D01*
X180931429Y-101052000D02*
X182431429Y-101052000D01*
X178820000Y-98837714D02*
X178820000Y-99552000D01*
X178391429Y-98694857D02*
X179891429Y-99194857D01*
X178391429Y-99694857D01*
X178391429Y-100909143D02*
X178391429Y-100194857D01*
X179891429Y-100194857D01*
X176637143Y-99155143D02*
X176565714Y-99369429D01*
X176494286Y-99440857D01*
X176351429Y-99512286D01*
X176137143Y-99512286D01*
X175994286Y-99440857D01*
X175922857Y-99369429D01*
X175851429Y-99226571D01*
X175851429Y-98655143D01*
X177351429Y-98655143D01*
X177351429Y-99155143D01*
X177280000Y-99298000D01*
X177208571Y-99369429D01*
X177065714Y-99440857D01*
X176922857Y-99440857D01*
X176780000Y-99369429D01*
X176708571Y-99298000D01*
X176637143Y-99155143D01*
X176637143Y-98655143D01*
X175851429Y-100155143D02*
X177351429Y-100155143D01*
X176637143Y-100155143D02*
X176637143Y-101012286D01*
X175851429Y-101012286D02*
X177351429Y-101012286D01*
X174097143Y-99155143D02*
X174025714Y-99369429D01*
X173954286Y-99440857D01*
X173811429Y-99512286D01*
X173597143Y-99512286D01*
X173454286Y-99440857D01*
X173382857Y-99369429D01*
X173311429Y-99226571D01*
X173311429Y-98655143D01*
X174811429Y-98655143D01*
X174811429Y-99155143D01*
X174740000Y-99298000D01*
X174668571Y-99369429D01*
X174525714Y-99440857D01*
X174382857Y-99440857D01*
X174240000Y-99369429D01*
X174168571Y-99298000D01*
X174097143Y-99155143D01*
X174097143Y-98655143D01*
X173311429Y-100869429D02*
X173311429Y-100155143D01*
X174811429Y-100155143D01*
X170914286Y-99512286D02*
X170842857Y-99440857D01*
X170771429Y-99226571D01*
X170771429Y-99083714D01*
X170842857Y-98869429D01*
X170985714Y-98726571D01*
X171128571Y-98655143D01*
X171414286Y-98583714D01*
X171628571Y-98583714D01*
X171914286Y-98655143D01*
X172057143Y-98726571D01*
X172200000Y-98869429D01*
X172271429Y-99083714D01*
X172271429Y-99226571D01*
X172200000Y-99440857D01*
X172128571Y-99512286D01*
X170771429Y-100155143D02*
X172271429Y-100155143D01*
X171557143Y-100155143D02*
X171557143Y-101012286D01*
X170771429Y-101012286D02*
X172271429Y-101012286D01*
X168374286Y-99512286D02*
X168302857Y-99440857D01*
X168231429Y-99226571D01*
X168231429Y-99083714D01*
X168302857Y-98869429D01*
X168445714Y-98726571D01*
X168588571Y-98655143D01*
X168874286Y-98583714D01*
X169088571Y-98583714D01*
X169374286Y-98655143D01*
X169517143Y-98726571D01*
X169660000Y-98869429D01*
X169731429Y-99083714D01*
X169731429Y-99226571D01*
X169660000Y-99440857D01*
X169588571Y-99512286D01*
X168231429Y-100869429D02*
X168231429Y-100155143D01*
X169731429Y-100155143D01*
X165691429Y-99512286D02*
X166405714Y-99012286D01*
X165691429Y-98655143D02*
X167191429Y-98655143D01*
X167191429Y-99226571D01*
X167120000Y-99369429D01*
X167048571Y-99440857D01*
X166905714Y-99512286D01*
X166691429Y-99512286D01*
X166548571Y-99440857D01*
X166477143Y-99369429D01*
X166405714Y-99226571D01*
X166405714Y-98655143D01*
X166477143Y-100155143D02*
X166477143Y-100655143D01*
X165691429Y-100869429D02*
X165691429Y-100155143D01*
X167191429Y-100155143D01*
X167191429Y-100869429D01*
X166477143Y-102012286D02*
X166477143Y-101512286D01*
X165691429Y-101512286D02*
X167191429Y-101512286D01*
X167191429Y-102226572D01*
X163222857Y-98583714D02*
X163151429Y-98798000D01*
X163151429Y-99155143D01*
X163222857Y-99298000D01*
X163294286Y-99369429D01*
X163437143Y-99440857D01*
X163580000Y-99440857D01*
X163722857Y-99369429D01*
X163794286Y-99298000D01*
X163865714Y-99155143D01*
X163937143Y-98869429D01*
X164008571Y-98726571D01*
X164080000Y-98655143D01*
X164222857Y-98583714D01*
X164365714Y-98583714D01*
X164508571Y-98655143D01*
X164580000Y-98726571D01*
X164651429Y-98869429D01*
X164651429Y-99226571D01*
X164580000Y-99440857D01*
X164651429Y-100369428D02*
X164651429Y-100655142D01*
X164580000Y-100798000D01*
X164437143Y-100940857D01*
X164151429Y-101012285D01*
X163651429Y-101012285D01*
X163365714Y-100940857D01*
X163222857Y-100798000D01*
X163151429Y-100655142D01*
X163151429Y-100369428D01*
X163222857Y-100226571D01*
X163365714Y-100083714D01*
X163651429Y-100012285D01*
X164151429Y-100012285D01*
X164437143Y-100083714D01*
X164580000Y-100226571D01*
X164651429Y-100369428D01*
X163151429Y-102440857D02*
X163151429Y-101583714D01*
X163151429Y-102012286D02*
X164651429Y-102012286D01*
X164437143Y-101869429D01*
X164294286Y-101726571D01*
X164222857Y-101583714D01*
X160682857Y-98583714D02*
X160611429Y-98798000D01*
X160611429Y-99155143D01*
X160682857Y-99298000D01*
X160754286Y-99369429D01*
X160897143Y-99440857D01*
X161040000Y-99440857D01*
X161182857Y-99369429D01*
X161254286Y-99298000D01*
X161325714Y-99155143D01*
X161397143Y-98869429D01*
X161468571Y-98726571D01*
X161540000Y-98655143D01*
X161682857Y-98583714D01*
X161825714Y-98583714D01*
X161968571Y-98655143D01*
X162040000Y-98726571D01*
X162111429Y-98869429D01*
X162111429Y-99226571D01*
X162040000Y-99440857D01*
X162111429Y-100369428D02*
X162111429Y-100655142D01*
X162040000Y-100798000D01*
X161897143Y-100940857D01*
X161611429Y-101012285D01*
X161111429Y-101012285D01*
X160825714Y-100940857D01*
X160682857Y-100798000D01*
X160611429Y-100655142D01*
X160611429Y-100369428D01*
X160682857Y-100226571D01*
X160825714Y-100083714D01*
X161111429Y-100012285D01*
X161611429Y-100012285D01*
X161897143Y-100083714D01*
X162040000Y-100226571D01*
X162111429Y-100369428D01*
X161968571Y-101583714D02*
X162040000Y-101655143D01*
X162111429Y-101798000D01*
X162111429Y-102155143D01*
X162040000Y-102298000D01*
X161968571Y-102369429D01*
X161825714Y-102440857D01*
X161682857Y-102440857D01*
X161468571Y-102369429D01*
X160611429Y-101512286D01*
X160611429Y-102440857D01*
D12*
X196480000Y-120100000D02*
X196480000Y-124000000D01*
X193520000Y-124000000D02*
X193520000Y-120100000D01*
X177980000Y-120100000D02*
X177980000Y-124000000D01*
X175020000Y-124000000D02*
X175020000Y-120100000D01*
X190620000Y-135690000D02*
X190620000Y-143310000D01*
X175380000Y-135690000D02*
X175380000Y-143310000D01*
X190620000Y-136960000D02*
X175380000Y-136960000D01*
X190620000Y-143310000D02*
X175380000Y-143310000D01*
X190620000Y-135690000D02*
X175380000Y-135690000D01*
X162540000Y-107380000D02*
X162540000Y-117540000D01*
X163810000Y-107380000D02*
X156190000Y-107380000D01*
X156190000Y-107380000D02*
X156190000Y-117540000D01*
X156190000Y-117540000D02*
X163810000Y-117540000D01*
X163810000Y-117540000D02*
X163810000Y-107380000D01*
X170370000Y-104742000D02*
X170370000Y-105242000D01*
X171430000Y-105242000D02*
X171430000Y-104742000D01*
X166518000Y-104742000D02*
X166518000Y-105242000D01*
X167578000Y-105242000D02*
X167578000Y-104742000D01*
X168878000Y-105242000D02*
X168878000Y-104742000D01*
X167818000Y-104742000D02*
X167818000Y-105242000D01*
X170178000Y-105242000D02*
X170178000Y-104742000D01*
X169118000Y-104742000D02*
X169118000Y-105242000D01*
X205720000Y-122750000D02*
X205720000Y-121750000D01*
X207080000Y-121750000D02*
X207080000Y-122750000D01*
X198220000Y-122750000D02*
X198220000Y-121750000D01*
X199580000Y-121750000D02*
X199580000Y-122750000D01*
X187220000Y-122750000D02*
X187220000Y-121750000D01*
X188580000Y-121750000D02*
X188580000Y-122750000D01*
X179720000Y-122750000D02*
X179720000Y-121750000D01*
X181080000Y-121750000D02*
X181080000Y-122750000D01*
X168720000Y-122750000D02*
X168720000Y-121750000D01*
X170080000Y-121750000D02*
X170080000Y-122750000D01*
X161220000Y-122750000D02*
X161220000Y-121750000D01*
X162580000Y-121750000D02*
X162580000Y-122750000D01*
X185150000Y-104280000D02*
X185650000Y-104280000D01*
X185650000Y-103220000D02*
X185150000Y-103220000D01*
X189500000Y-104580000D02*
X190000000Y-104580000D01*
X190000000Y-103520000D02*
X189500000Y-103520000D01*
X173820000Y-112500000D02*
X173820000Y-113000000D01*
X174880000Y-113000000D02*
X174880000Y-112500000D01*
D13*
X191529000Y-112961000D02*
X191521500Y-112961000D01*
X191604000Y-105536000D02*
X191604000Y-112961000D01*
D12*
X185150000Y-103030000D02*
X185650000Y-103030000D01*
X185650000Y-101970000D02*
X185150000Y-101970000D01*
X159960000Y-94936000D02*
X159960000Y-97596000D01*
X205740000Y-94936000D02*
X159960000Y-94936000D01*
X205740000Y-97596000D02*
X159960000Y-97596000D01*
X205740000Y-94936000D02*
X205740000Y-97596000D01*
X207010000Y-94936000D02*
X208340000Y-94936000D01*
X208340000Y-94936000D02*
X208340000Y-96266000D01*
X170990000Y-116650000D02*
X169570000Y-116650000D01*
X171750000Y-110050000D02*
X169570000Y-110050000D01*
X165150000Y-110050000D02*
X167330000Y-110050000D01*
X165910000Y-116650000D02*
X167330000Y-116650000D01*
X171750000Y-110050000D02*
X171750000Y-115890000D01*
X171750000Y-115890000D02*
X170990000Y-116650000D01*
X165910000Y-116650000D02*
X165150000Y-115890000D01*
X165150000Y-115890000D02*
X165150000Y-110050000D01*
X177000000Y-112400000D02*
X177000000Y-113100000D01*
X175800000Y-113100000D02*
X175800000Y-112400000D01*
X178850000Y-103000000D02*
X179550000Y-103000000D01*
X179550000Y-104200000D02*
X178850000Y-104200000D01*
X175700000Y-106700000D02*
X175700000Y-106000000D01*
X176900000Y-106000000D02*
X176900000Y-106700000D01*
X204800000Y-111300000D02*
X206200000Y-111300000D01*
X206200000Y-111300000D02*
X206200000Y-108500000D01*
X204800000Y-111300000D02*
X204800000Y-108500000D01*
X206380000Y-104900000D02*
X206380000Y-106100000D01*
X204620000Y-106100000D02*
X204620000Y-104900000D01*
D13*
X197852381Y-122166666D02*
X197376190Y-122500000D01*
X197852381Y-122738095D02*
X196852381Y-122738095D01*
X196852381Y-122357142D01*
X196900000Y-122261904D01*
X196947619Y-122214285D01*
X197042857Y-122166666D01*
X197185714Y-122166666D01*
X197280952Y-122214285D01*
X197328571Y-122261904D01*
X197376190Y-122357142D01*
X197376190Y-122738095D01*
X197185714Y-121309523D02*
X197852381Y-121309523D01*
X196804762Y-121547619D02*
X197519048Y-121785714D01*
X197519048Y-121166666D01*
X179452381Y-122216666D02*
X178976190Y-122550000D01*
X179452381Y-122788095D02*
X178452381Y-122788095D01*
X178452381Y-122407142D01*
X178500000Y-122311904D01*
X178547619Y-122264285D01*
X178642857Y-122216666D01*
X178785714Y-122216666D01*
X178880952Y-122264285D01*
X178928571Y-122311904D01*
X178976190Y-122407142D01*
X178976190Y-122788095D01*
X178452381Y-121883333D02*
X178452381Y-121216666D01*
X179452381Y-121645238D01*
X173852381Y-142933333D02*
X174566667Y-142933333D01*
X174709524Y-142980953D01*
X174804762Y-143076191D01*
X174852381Y-143219048D01*
X174852381Y-143314286D01*
X174185714Y-142028571D02*
X174852381Y-142028571D01*
X173804762Y-142266667D02*
X174519048Y-142504762D01*
X174519048Y-141885714D01*
X162666667Y-105852381D02*
X162666667Y-106566667D01*
X162619047Y-106709524D01*
X162523809Y-106804762D01*
X162380952Y-106852381D01*
X162285714Y-106852381D01*
X163666667Y-106852381D02*
X163095238Y-106852381D01*
X163380952Y-106852381D02*
X163380952Y-105852381D01*
X163285714Y-105995238D01*
X163190476Y-106090476D01*
X163095238Y-106138095D01*
X200904762Y-136147619D02*
X200809524Y-136100000D01*
X200714286Y-136004762D01*
X200571429Y-135861905D01*
X200476190Y-135814286D01*
X200380952Y-135814286D01*
X200428571Y-136052381D02*
X200333333Y-136004762D01*
X200238095Y-135909524D01*
X200190476Y-135719048D01*
X200190476Y-135385714D01*
X200238095Y-135195238D01*
X200333333Y-135100000D01*
X200428571Y-135052381D01*
X200619048Y-135052381D01*
X200714286Y-135100000D01*
X200809524Y-135195238D01*
X200857143Y-135385714D01*
X200857143Y-135719048D01*
X200809524Y-135909524D01*
X200714286Y-136004762D01*
X200619048Y-136052381D01*
X200428571Y-136052381D01*
X201238095Y-135147619D02*
X201285714Y-135100000D01*
X201380952Y-135052381D01*
X201619048Y-135052381D01*
X201714286Y-135100000D01*
X201761905Y-135147619D01*
X201809524Y-135242857D01*
X201809524Y-135338095D01*
X201761905Y-135480952D01*
X201190476Y-136052381D01*
X201809524Y-136052381D01*
X210104762Y-123647619D02*
X210009524Y-123600000D01*
X209914286Y-123504762D01*
X209771429Y-123361905D01*
X209676190Y-123314286D01*
X209580952Y-123314286D01*
X209628571Y-123552381D02*
X209533333Y-123504762D01*
X209438095Y-123409524D01*
X209390476Y-123219048D01*
X209390476Y-122885714D01*
X209438095Y-122695238D01*
X209533333Y-122600000D01*
X209628571Y-122552381D01*
X209819048Y-122552381D01*
X209914286Y-122600000D01*
X210009524Y-122695238D01*
X210057143Y-122885714D01*
X210057143Y-123219048D01*
X210009524Y-123409524D01*
X209914286Y-123504762D01*
X209819048Y-123552381D01*
X209628571Y-123552381D01*
X210390476Y-122552381D02*
X211009524Y-122552381D01*
X210676190Y-122933333D01*
X210819048Y-122933333D01*
X210914286Y-122980952D01*
X210961905Y-123028571D01*
X211009524Y-123123810D01*
X211009524Y-123361905D01*
X210961905Y-123457143D01*
X210914286Y-123504762D01*
X210819048Y-123552381D01*
X210533333Y-123552381D01*
X210438095Y-123504762D01*
X210390476Y-123457143D01*
X203104762Y-123747619D02*
X203009524Y-123700000D01*
X202914286Y-123604762D01*
X202771429Y-123461905D01*
X202676190Y-123414286D01*
X202580952Y-123414286D01*
X202628571Y-123652381D02*
X202533333Y-123604762D01*
X202438095Y-123509524D01*
X202390476Y-123319048D01*
X202390476Y-122985714D01*
X202438095Y-122795238D01*
X202533333Y-122700000D01*
X202628571Y-122652381D01*
X202819048Y-122652381D01*
X202914286Y-122700000D01*
X203009524Y-122795238D01*
X203057143Y-122985714D01*
X203057143Y-123319048D01*
X203009524Y-123509524D01*
X202914286Y-123604762D01*
X202819048Y-123652381D01*
X202628571Y-123652381D01*
X203914286Y-122985714D02*
X203914286Y-123652381D01*
X203676190Y-122604762D02*
X203438095Y-123319048D01*
X204057143Y-123319048D01*
X191904762Y-136147619D02*
X191809524Y-136100000D01*
X191714286Y-136004762D01*
X191571429Y-135861905D01*
X191476190Y-135814286D01*
X191380952Y-135814286D01*
X191428571Y-136052381D02*
X191333333Y-136004762D01*
X191238095Y-135909524D01*
X191190476Y-135719048D01*
X191190476Y-135385714D01*
X191238095Y-135195238D01*
X191333333Y-135100000D01*
X191428571Y-135052381D01*
X191619048Y-135052381D01*
X191714286Y-135100000D01*
X191809524Y-135195238D01*
X191857143Y-135385714D01*
X191857143Y-135719048D01*
X191809524Y-135909524D01*
X191714286Y-136004762D01*
X191619048Y-136052381D01*
X191428571Y-136052381D01*
X192761905Y-135052381D02*
X192285714Y-135052381D01*
X192238095Y-135528571D01*
X192285714Y-135480952D01*
X192380952Y-135433333D01*
X192619048Y-135433333D01*
X192714286Y-135480952D01*
X192761905Y-135528571D01*
X192809524Y-135623810D01*
X192809524Y-135861905D01*
X192761905Y-135957143D01*
X192714286Y-136004762D01*
X192619048Y-136052381D01*
X192380952Y-136052381D01*
X192285714Y-136004762D01*
X192238095Y-135957143D01*
X177404762Y-130847619D02*
X177309524Y-130800000D01*
X177214286Y-130704762D01*
X177071429Y-130561905D01*
X176976190Y-130514286D01*
X176880952Y-130514286D01*
X176928571Y-130752381D02*
X176833333Y-130704762D01*
X176738095Y-130609524D01*
X176690476Y-130419048D01*
X176690476Y-130085714D01*
X176738095Y-129895238D01*
X176833333Y-129800000D01*
X176928571Y-129752381D01*
X177119048Y-129752381D01*
X177214286Y-129800000D01*
X177309524Y-129895238D01*
X177357143Y-130085714D01*
X177357143Y-130419048D01*
X177309524Y-130609524D01*
X177214286Y-130704762D01*
X177119048Y-130752381D01*
X176928571Y-130752381D01*
X178214286Y-129752381D02*
X178023809Y-129752381D01*
X177928571Y-129800000D01*
X177880952Y-129847619D01*
X177785714Y-129990476D01*
X177738095Y-130180952D01*
X177738095Y-130561905D01*
X177785714Y-130657143D01*
X177833333Y-130704762D01*
X177928571Y-130752381D01*
X178119048Y-130752381D01*
X178214286Y-130704762D01*
X178261905Y-130657143D01*
X178309524Y-130561905D01*
X178309524Y-130323810D01*
X178261905Y-130228571D01*
X178214286Y-130180952D01*
X178119048Y-130133333D01*
X177928571Y-130133333D01*
X177833333Y-130180952D01*
X177785714Y-130228571D01*
X177738095Y-130323810D01*
X191704762Y-123747619D02*
X191609524Y-123700000D01*
X191514286Y-123604762D01*
X191371429Y-123461905D01*
X191276190Y-123414286D01*
X191180952Y-123414286D01*
X191228571Y-123652381D02*
X191133333Y-123604762D01*
X191038095Y-123509524D01*
X190990476Y-123319048D01*
X190990476Y-122985714D01*
X191038095Y-122795238D01*
X191133333Y-122700000D01*
X191228571Y-122652381D01*
X191419048Y-122652381D01*
X191514286Y-122700000D01*
X191609524Y-122795238D01*
X191657143Y-122985714D01*
X191657143Y-123319048D01*
X191609524Y-123509524D01*
X191514286Y-123604762D01*
X191419048Y-123652381D01*
X191228571Y-123652381D01*
X191990476Y-122652381D02*
X192657143Y-122652381D01*
X192228571Y-123652381D01*
X184304762Y-123747619D02*
X184209524Y-123700000D01*
X184114286Y-123604762D01*
X183971429Y-123461905D01*
X183876190Y-123414286D01*
X183780952Y-123414286D01*
X183828571Y-123652381D02*
X183733333Y-123604762D01*
X183638095Y-123509524D01*
X183590476Y-123319048D01*
X183590476Y-122985714D01*
X183638095Y-122795238D01*
X183733333Y-122700000D01*
X183828571Y-122652381D01*
X184019048Y-122652381D01*
X184114286Y-122700000D01*
X184209524Y-122795238D01*
X184257143Y-122985714D01*
X184257143Y-123319048D01*
X184209524Y-123509524D01*
X184114286Y-123604762D01*
X184019048Y-123652381D01*
X183828571Y-123652381D01*
X184828571Y-123080952D02*
X184733333Y-123033333D01*
X184685714Y-122985714D01*
X184638095Y-122890476D01*
X184638095Y-122842857D01*
X184685714Y-122747619D01*
X184733333Y-122700000D01*
X184828571Y-122652381D01*
X185019048Y-122652381D01*
X185114286Y-122700000D01*
X185161905Y-122747619D01*
X185209524Y-122842857D01*
X185209524Y-122890476D01*
X185161905Y-122985714D01*
X185114286Y-123033333D01*
X185019048Y-123080952D01*
X184828571Y-123080952D01*
X184733333Y-123128571D01*
X184685714Y-123176190D01*
X184638095Y-123271429D01*
X184638095Y-123461905D01*
X184685714Y-123557143D01*
X184733333Y-123604762D01*
X184828571Y-123652381D01*
X185019048Y-123652381D01*
X185114286Y-123604762D01*
X185161905Y-123557143D01*
X185209524Y-123461905D01*
X185209524Y-123271429D01*
X185161905Y-123176190D01*
X185114286Y-123128571D01*
X185019048Y-123080952D01*
X170804762Y-136047619D02*
X170709524Y-136000000D01*
X170614286Y-135904762D01*
X170471429Y-135761905D01*
X170376190Y-135714286D01*
X170280952Y-135714286D01*
X170328571Y-135952381D02*
X170233333Y-135904762D01*
X170138095Y-135809524D01*
X170090476Y-135619048D01*
X170090476Y-135285714D01*
X170138095Y-135095238D01*
X170233333Y-135000000D01*
X170328571Y-134952381D01*
X170519048Y-134952381D01*
X170614286Y-135000000D01*
X170709524Y-135095238D01*
X170757143Y-135285714D01*
X170757143Y-135619048D01*
X170709524Y-135809524D01*
X170614286Y-135904762D01*
X170519048Y-135952381D01*
X170328571Y-135952381D01*
X171233333Y-135952381D02*
X171423809Y-135952381D01*
X171519048Y-135904762D01*
X171566667Y-135857143D01*
X171661905Y-135714286D01*
X171709524Y-135523810D01*
X171709524Y-135142857D01*
X171661905Y-135047619D01*
X171614286Y-135000000D01*
X171519048Y-134952381D01*
X171328571Y-134952381D01*
X171233333Y-135000000D01*
X171185714Y-135047619D01*
X171138095Y-135142857D01*
X171138095Y-135380952D01*
X171185714Y-135476190D01*
X171233333Y-135523810D01*
X171328571Y-135571429D01*
X171519048Y-135571429D01*
X171614286Y-135523810D01*
X171661905Y-135476190D01*
X171709524Y-135380952D01*
X162428572Y-136547619D02*
X162333334Y-136500000D01*
X162238096Y-136404762D01*
X162095239Y-136261905D01*
X162000000Y-136214286D01*
X161904762Y-136214286D01*
X161952381Y-136452381D02*
X161857143Y-136404762D01*
X161761905Y-136309524D01*
X161714286Y-136119048D01*
X161714286Y-135785714D01*
X161761905Y-135595238D01*
X161857143Y-135500000D01*
X161952381Y-135452381D01*
X162142858Y-135452381D01*
X162238096Y-135500000D01*
X162333334Y-135595238D01*
X162380953Y-135785714D01*
X162380953Y-136119048D01*
X162333334Y-136309524D01*
X162238096Y-136404762D01*
X162142858Y-136452381D01*
X161952381Y-136452381D01*
X163333334Y-136452381D02*
X162761905Y-136452381D01*
X163047619Y-136452381D02*
X163047619Y-135452381D01*
X162952381Y-135595238D01*
X162857143Y-135690476D01*
X162761905Y-135738095D01*
X163952381Y-135452381D02*
X164047620Y-135452381D01*
X164142858Y-135500000D01*
X164190477Y-135547619D01*
X164238096Y-135642857D01*
X164285715Y-135833333D01*
X164285715Y-136071429D01*
X164238096Y-136261905D01*
X164190477Y-136357143D01*
X164142858Y-136404762D01*
X164047620Y-136452381D01*
X163952381Y-136452381D01*
X163857143Y-136404762D01*
X163809524Y-136357143D01*
X163761905Y-136261905D01*
X163714286Y-136071429D01*
X163714286Y-135833333D01*
X163761905Y-135642857D01*
X163809524Y-135547619D01*
X163857143Y-135500000D01*
X163952381Y-135452381D01*
X172428572Y-123547619D02*
X172333334Y-123500000D01*
X172238096Y-123404762D01*
X172095239Y-123261905D01*
X172000000Y-123214286D01*
X171904762Y-123214286D01*
X171952381Y-123452381D02*
X171857143Y-123404762D01*
X171761905Y-123309524D01*
X171714286Y-123119048D01*
X171714286Y-122785714D01*
X171761905Y-122595238D01*
X171857143Y-122500000D01*
X171952381Y-122452381D01*
X172142858Y-122452381D01*
X172238096Y-122500000D01*
X172333334Y-122595238D01*
X172380953Y-122785714D01*
X172380953Y-123119048D01*
X172333334Y-123309524D01*
X172238096Y-123404762D01*
X172142858Y-123452381D01*
X171952381Y-123452381D01*
X173333334Y-123452381D02*
X172761905Y-123452381D01*
X173047619Y-123452381D02*
X173047619Y-122452381D01*
X172952381Y-122595238D01*
X172857143Y-122690476D01*
X172761905Y-122738095D01*
X174285715Y-123452381D02*
X173714286Y-123452381D01*
X174000000Y-123452381D02*
X174000000Y-122452381D01*
X173904762Y-122595238D01*
X173809524Y-122690476D01*
X173714286Y-122738095D01*
X165428572Y-123547619D02*
X165333334Y-123500000D01*
X165238096Y-123404762D01*
X165095239Y-123261905D01*
X165000000Y-123214286D01*
X164904762Y-123214286D01*
X164952381Y-123452381D02*
X164857143Y-123404762D01*
X164761905Y-123309524D01*
X164714286Y-123119048D01*
X164714286Y-122785714D01*
X164761905Y-122595238D01*
X164857143Y-122500000D01*
X164952381Y-122452381D01*
X165142858Y-122452381D01*
X165238096Y-122500000D01*
X165333334Y-122595238D01*
X165380953Y-122785714D01*
X165380953Y-123119048D01*
X165333334Y-123309524D01*
X165238096Y-123404762D01*
X165142858Y-123452381D01*
X164952381Y-123452381D01*
X166333334Y-123452381D02*
X165761905Y-123452381D01*
X166047619Y-123452381D02*
X166047619Y-122452381D01*
X165952381Y-122595238D01*
X165857143Y-122690476D01*
X165761905Y-122738095D01*
X166714286Y-122547619D02*
X166761905Y-122500000D01*
X166857143Y-122452381D01*
X167095239Y-122452381D01*
X167190477Y-122500000D01*
X167238096Y-122547619D01*
X167285715Y-122642857D01*
X167285715Y-122738095D01*
X167238096Y-122880952D01*
X166666667Y-123452381D01*
X167285715Y-123452381D01*
X207904762Y-136147619D02*
X207809524Y-136100000D01*
X207714286Y-136004762D01*
X207571429Y-135861905D01*
X207476190Y-135814286D01*
X207380952Y-135814286D01*
X207428571Y-136052381D02*
X207333333Y-136004762D01*
X207238095Y-135909524D01*
X207190476Y-135719048D01*
X207190476Y-135385714D01*
X207238095Y-135195238D01*
X207333333Y-135100000D01*
X207428571Y-135052381D01*
X207619048Y-135052381D01*
X207714286Y-135100000D01*
X207809524Y-135195238D01*
X207857143Y-135385714D01*
X207857143Y-135719048D01*
X207809524Y-135909524D01*
X207714286Y-136004762D01*
X207619048Y-136052381D01*
X207428571Y-136052381D01*
X208809524Y-136052381D02*
X208238095Y-136052381D01*
X208523809Y-136052381D02*
X208523809Y-135052381D01*
X208428571Y-135195238D01*
X208333333Y-135290476D01*
X208238095Y-135338095D01*
X171357143Y-108042857D02*
X171404762Y-108090476D01*
X171452381Y-108233333D01*
X171452381Y-108328571D01*
X171404762Y-108471429D01*
X171309524Y-108566667D01*
X171214286Y-108614286D01*
X171023810Y-108661905D01*
X170880952Y-108661905D01*
X170690476Y-108614286D01*
X170595238Y-108566667D01*
X170500000Y-108471429D01*
X170452381Y-108328571D01*
X170452381Y-108233333D01*
X170500000Y-108090476D01*
X170547619Y-108042857D01*
X171452381Y-107090476D02*
X171452381Y-107661905D01*
X171452381Y-107376191D02*
X170452381Y-107376191D01*
X170595238Y-107471429D01*
X170690476Y-107566667D01*
X170738095Y-107661905D01*
X170547619Y-106709524D02*
X170500000Y-106661905D01*
X170452381Y-106566667D01*
X170452381Y-106328571D01*
X170500000Y-106233333D01*
X170547619Y-106185714D01*
X170642857Y-106138095D01*
X170738095Y-106138095D01*
X170880952Y-106185714D01*
X171452381Y-106757143D01*
X171452381Y-106138095D01*
X167357143Y-108042857D02*
X167404762Y-108090476D01*
X167452381Y-108233333D01*
X167452381Y-108328571D01*
X167404762Y-108471429D01*
X167309524Y-108566667D01*
X167214286Y-108614286D01*
X167023810Y-108661905D01*
X166880952Y-108661905D01*
X166690476Y-108614286D01*
X166595238Y-108566667D01*
X166500000Y-108471429D01*
X166452381Y-108328571D01*
X166452381Y-108233333D01*
X166500000Y-108090476D01*
X166547619Y-108042857D01*
X167452381Y-107090476D02*
X167452381Y-107661905D01*
X167452381Y-107376191D02*
X166452381Y-107376191D01*
X166595238Y-107471429D01*
X166690476Y-107566667D01*
X166738095Y-107661905D01*
X166452381Y-106757143D02*
X166452381Y-106138095D01*
X166833333Y-106471429D01*
X166833333Y-106328571D01*
X166880952Y-106233333D01*
X166928571Y-106185714D01*
X167023810Y-106138095D01*
X167261905Y-106138095D01*
X167357143Y-106185714D01*
X167404762Y-106233333D01*
X167452381Y-106328571D01*
X167452381Y-106614286D01*
X167404762Y-106709524D01*
X167357143Y-106757143D01*
X168852381Y-108042857D02*
X168376190Y-108376191D01*
X168852381Y-108614286D02*
X167852381Y-108614286D01*
X167852381Y-108233333D01*
X167900000Y-108138095D01*
X167947619Y-108090476D01*
X168042857Y-108042857D01*
X168185714Y-108042857D01*
X168280952Y-108090476D01*
X168328571Y-108138095D01*
X168376190Y-108233333D01*
X168376190Y-108614286D01*
X168852381Y-107090476D02*
X168852381Y-107661905D01*
X168852381Y-107376191D02*
X167852381Y-107376191D01*
X167995238Y-107471429D01*
X168090476Y-107566667D01*
X168138095Y-107661905D01*
X167852381Y-106471429D02*
X167852381Y-106376190D01*
X167900000Y-106280952D01*
X167947619Y-106233333D01*
X168042857Y-106185714D01*
X168233333Y-106138095D01*
X168471429Y-106138095D01*
X168661905Y-106185714D01*
X168757143Y-106233333D01*
X168804762Y-106280952D01*
X168852381Y-106376190D01*
X168852381Y-106471429D01*
X168804762Y-106566667D01*
X168757143Y-106614286D01*
X168661905Y-106661905D01*
X168471429Y-106709524D01*
X168233333Y-106709524D01*
X168042857Y-106661905D01*
X167947619Y-106614286D01*
X167900000Y-106566667D01*
X167852381Y-106471429D01*
X170152381Y-108042857D02*
X169676190Y-108376191D01*
X170152381Y-108614286D02*
X169152381Y-108614286D01*
X169152381Y-108233333D01*
X169200000Y-108138095D01*
X169247619Y-108090476D01*
X169342857Y-108042857D01*
X169485714Y-108042857D01*
X169580952Y-108090476D01*
X169628571Y-108138095D01*
X169676190Y-108233333D01*
X169676190Y-108614286D01*
X170152381Y-107090476D02*
X170152381Y-107661905D01*
X170152381Y-107376191D02*
X169152381Y-107376191D01*
X169295238Y-107471429D01*
X169390476Y-107566667D01*
X169438095Y-107661905D01*
X170152381Y-106138095D02*
X170152381Y-106709524D01*
X170152381Y-106423810D02*
X169152381Y-106423810D01*
X169295238Y-106519048D01*
X169390476Y-106614286D01*
X169438095Y-106709524D01*
X208302381Y-122416666D02*
X207826190Y-122750000D01*
X208302381Y-122988095D02*
X207302381Y-122988095D01*
X207302381Y-122607142D01*
X207350000Y-122511904D01*
X207397619Y-122464285D01*
X207492857Y-122416666D01*
X207635714Y-122416666D01*
X207730952Y-122464285D01*
X207778571Y-122511904D01*
X207826190Y-122607142D01*
X207826190Y-122988095D01*
X207397619Y-122035714D02*
X207350000Y-121988095D01*
X207302381Y-121892857D01*
X207302381Y-121654761D01*
X207350000Y-121559523D01*
X207397619Y-121511904D01*
X207492857Y-121464285D01*
X207588095Y-121464285D01*
X207730952Y-121511904D01*
X208302381Y-122083333D01*
X208302381Y-121464285D01*
X200802381Y-122416666D02*
X200326190Y-122750000D01*
X200802381Y-122988095D02*
X199802381Y-122988095D01*
X199802381Y-122607142D01*
X199850000Y-122511904D01*
X199897619Y-122464285D01*
X199992857Y-122416666D01*
X200135714Y-122416666D01*
X200230952Y-122464285D01*
X200278571Y-122511904D01*
X200326190Y-122607142D01*
X200326190Y-122988095D01*
X199802381Y-122083333D02*
X199802381Y-121464285D01*
X200183333Y-121797619D01*
X200183333Y-121654761D01*
X200230952Y-121559523D01*
X200278571Y-121511904D01*
X200373810Y-121464285D01*
X200611905Y-121464285D01*
X200707143Y-121511904D01*
X200754762Y-121559523D01*
X200802381Y-121654761D01*
X200802381Y-121940476D01*
X200754762Y-122035714D01*
X200707143Y-122083333D01*
X189802381Y-122416666D02*
X189326190Y-122750000D01*
X189802381Y-122988095D02*
X188802381Y-122988095D01*
X188802381Y-122607142D01*
X188850000Y-122511904D01*
X188897619Y-122464285D01*
X188992857Y-122416666D01*
X189135714Y-122416666D01*
X189230952Y-122464285D01*
X189278571Y-122511904D01*
X189326190Y-122607142D01*
X189326190Y-122988095D01*
X188802381Y-121511904D02*
X188802381Y-121988095D01*
X189278571Y-122035714D01*
X189230952Y-121988095D01*
X189183333Y-121892857D01*
X189183333Y-121654761D01*
X189230952Y-121559523D01*
X189278571Y-121511904D01*
X189373810Y-121464285D01*
X189611905Y-121464285D01*
X189707143Y-121511904D01*
X189754762Y-121559523D01*
X189802381Y-121654761D01*
X189802381Y-121892857D01*
X189754762Y-121988095D01*
X189707143Y-122035714D01*
X182302381Y-122416666D02*
X181826190Y-122750000D01*
X182302381Y-122988095D02*
X181302381Y-122988095D01*
X181302381Y-122607142D01*
X181350000Y-122511904D01*
X181397619Y-122464285D01*
X181492857Y-122416666D01*
X181635714Y-122416666D01*
X181730952Y-122464285D01*
X181778571Y-122511904D01*
X181826190Y-122607142D01*
X181826190Y-122988095D01*
X181302381Y-121559523D02*
X181302381Y-121750000D01*
X181350000Y-121845238D01*
X181397619Y-121892857D01*
X181540476Y-121988095D01*
X181730952Y-122035714D01*
X182111905Y-122035714D01*
X182207143Y-121988095D01*
X182254762Y-121940476D01*
X182302381Y-121845238D01*
X182302381Y-121654761D01*
X182254762Y-121559523D01*
X182207143Y-121511904D01*
X182111905Y-121464285D01*
X181873810Y-121464285D01*
X181778571Y-121511904D01*
X181730952Y-121559523D01*
X181683333Y-121654761D01*
X181683333Y-121845238D01*
X181730952Y-121940476D01*
X181778571Y-121988095D01*
X181873810Y-122035714D01*
X171302381Y-122416666D02*
X170826190Y-122750000D01*
X171302381Y-122988095D02*
X170302381Y-122988095D01*
X170302381Y-122607142D01*
X170350000Y-122511904D01*
X170397619Y-122464285D01*
X170492857Y-122416666D01*
X170635714Y-122416666D01*
X170730952Y-122464285D01*
X170778571Y-122511904D01*
X170826190Y-122607142D01*
X170826190Y-122988095D01*
X170730952Y-121845238D02*
X170683333Y-121940476D01*
X170635714Y-121988095D01*
X170540476Y-122035714D01*
X170492857Y-122035714D01*
X170397619Y-121988095D01*
X170350000Y-121940476D01*
X170302381Y-121845238D01*
X170302381Y-121654761D01*
X170350000Y-121559523D01*
X170397619Y-121511904D01*
X170492857Y-121464285D01*
X170540476Y-121464285D01*
X170635714Y-121511904D01*
X170683333Y-121559523D01*
X170730952Y-121654761D01*
X170730952Y-121845238D01*
X170778571Y-121940476D01*
X170826190Y-121988095D01*
X170921429Y-122035714D01*
X171111905Y-122035714D01*
X171207143Y-121988095D01*
X171254762Y-121940476D01*
X171302381Y-121845238D01*
X171302381Y-121654761D01*
X171254762Y-121559523D01*
X171207143Y-121511904D01*
X171111905Y-121464285D01*
X170921429Y-121464285D01*
X170826190Y-121511904D01*
X170778571Y-121559523D01*
X170730952Y-121654761D01*
X163802381Y-122416666D02*
X163326190Y-122750000D01*
X163802381Y-122988095D02*
X162802381Y-122988095D01*
X162802381Y-122607142D01*
X162850000Y-122511904D01*
X162897619Y-122464285D01*
X162992857Y-122416666D01*
X163135714Y-122416666D01*
X163230952Y-122464285D01*
X163278571Y-122511904D01*
X163326190Y-122607142D01*
X163326190Y-122988095D01*
X163802381Y-121940476D02*
X163802381Y-121750000D01*
X163754762Y-121654761D01*
X163707143Y-121607142D01*
X163564286Y-121511904D01*
X163373810Y-121464285D01*
X162992857Y-121464285D01*
X162897619Y-121511904D01*
X162850000Y-121559523D01*
X162802381Y-121654761D01*
X162802381Y-121845238D01*
X162850000Y-121940476D01*
X162897619Y-121988095D01*
X162992857Y-122035714D01*
X163230952Y-122035714D01*
X163326190Y-121988095D01*
X163373810Y-121940476D01*
X163421429Y-121845238D01*
X163421429Y-121654761D01*
X163373810Y-121559523D01*
X163326190Y-121511904D01*
X163230952Y-121464285D01*
X183333334Y-104107143D02*
X183285715Y-104154762D01*
X183142858Y-104202381D01*
X183047620Y-104202381D01*
X182904762Y-104154762D01*
X182809524Y-104059524D01*
X182761905Y-103964286D01*
X182714286Y-103773810D01*
X182714286Y-103630952D01*
X182761905Y-103440476D01*
X182809524Y-103345238D01*
X182904762Y-103250000D01*
X183047620Y-103202381D01*
X183142858Y-103202381D01*
X183285715Y-103250000D01*
X183333334Y-103297619D01*
X184285715Y-104202381D02*
X183714286Y-104202381D01*
X184000000Y-104202381D02*
X184000000Y-103202381D01*
X183904762Y-103345238D01*
X183809524Y-103440476D01*
X183714286Y-103488095D01*
X191533334Y-104552381D02*
X191200000Y-104076190D01*
X190961905Y-104552381D02*
X190961905Y-103552381D01*
X191342858Y-103552381D01*
X191438096Y-103600000D01*
X191485715Y-103647619D01*
X191533334Y-103742857D01*
X191533334Y-103885714D01*
X191485715Y-103980952D01*
X191438096Y-104028571D01*
X191342858Y-104076190D01*
X190961905Y-104076190D01*
X192485715Y-104552381D02*
X191914286Y-104552381D01*
X192200000Y-104552381D02*
X192200000Y-103552381D01*
X192104762Y-103695238D01*
X192009524Y-103790476D01*
X191914286Y-103838095D01*
X174707143Y-110766666D02*
X174754762Y-110814285D01*
X174802381Y-110957142D01*
X174802381Y-111052380D01*
X174754762Y-111195238D01*
X174659524Y-111290476D01*
X174564286Y-111338095D01*
X174373810Y-111385714D01*
X174230952Y-111385714D01*
X174040476Y-111338095D01*
X173945238Y-111290476D01*
X173850000Y-111195238D01*
X173802381Y-111052380D01*
X173802381Y-110957142D01*
X173850000Y-110814285D01*
X173897619Y-110766666D01*
X173802381Y-109909523D02*
X173802381Y-110100000D01*
X173850000Y-110195238D01*
X173897619Y-110242857D01*
X174040476Y-110338095D01*
X174230952Y-110385714D01*
X174611905Y-110385714D01*
X174707143Y-110338095D01*
X174754762Y-110290476D01*
X174802381Y-110195238D01*
X174802381Y-110004761D01*
X174754762Y-109909523D01*
X174707143Y-109861904D01*
X174611905Y-109814285D01*
X174373810Y-109814285D01*
X174278571Y-109861904D01*
X174230952Y-109909523D01*
X174183333Y-110004761D01*
X174183333Y-110195238D01*
X174230952Y-110290476D01*
X174278571Y-110338095D01*
X174373810Y-110385714D01*
X191906381Y-110547905D02*
X192715905Y-110547905D01*
X192811143Y-110500286D01*
X192858762Y-110452667D01*
X192906381Y-110357429D01*
X192906381Y-110166952D01*
X192858762Y-110071714D01*
X192811143Y-110024095D01*
X192715905Y-109976476D01*
X191906381Y-109976476D01*
X192906381Y-108976476D02*
X192906381Y-109547905D01*
X192906381Y-109262191D02*
X191906381Y-109262191D01*
X192049238Y-109357429D01*
X192144476Y-109452667D01*
X192192095Y-109547905D01*
X183333334Y-102807143D02*
X183285715Y-102854762D01*
X183142858Y-102902381D01*
X183047620Y-102902381D01*
X182904762Y-102854762D01*
X182809524Y-102759524D01*
X182761905Y-102664286D01*
X182714286Y-102473810D01*
X182714286Y-102330952D01*
X182761905Y-102140476D01*
X182809524Y-102045238D01*
X182904762Y-101950000D01*
X183047620Y-101902381D01*
X183142858Y-101902381D01*
X183285715Y-101950000D01*
X183333334Y-101997619D01*
X184190477Y-102235714D02*
X184190477Y-102902381D01*
X183952381Y-101854762D02*
X183714286Y-102569048D01*
X184333334Y-102569048D01*
X208852381Y-96933333D02*
X209566667Y-96933333D01*
X209709524Y-96980953D01*
X209804762Y-97076191D01*
X209852381Y-97219048D01*
X209852381Y-97314286D01*
X208947619Y-96504762D02*
X208900000Y-96457143D01*
X208852381Y-96361905D01*
X208852381Y-96123809D01*
X208900000Y-96028571D01*
X208947619Y-95980952D01*
X209042857Y-95933333D01*
X209138095Y-95933333D01*
X209280952Y-95980952D01*
X209852381Y-96552381D01*
X209852381Y-95933333D01*
X173057143Y-110892857D02*
X173104762Y-110940476D01*
X173152381Y-111083333D01*
X173152381Y-111178571D01*
X173104762Y-111321429D01*
X173009524Y-111416667D01*
X172914286Y-111464286D01*
X172723810Y-111511905D01*
X172580952Y-111511905D01*
X172390476Y-111464286D01*
X172295238Y-111416667D01*
X172200000Y-111321429D01*
X172152381Y-111178571D01*
X172152381Y-111083333D01*
X172200000Y-110940476D01*
X172247619Y-110892857D01*
X173152381Y-109940476D02*
X173152381Y-110511905D01*
X173152381Y-110226191D02*
X172152381Y-110226191D01*
X172295238Y-110321429D01*
X172390476Y-110416667D01*
X172438095Y-110511905D01*
X172485714Y-109083333D02*
X173152381Y-109083333D01*
X172104762Y-109321429D02*
X172819048Y-109559524D01*
X172819048Y-108940476D01*
X171431429Y-118010952D02*
X171431429Y-117249047D01*
X171812381Y-117629999D02*
X171050476Y-117629999D01*
X176807143Y-110516666D02*
X176854762Y-110564285D01*
X176902381Y-110707142D01*
X176902381Y-110802380D01*
X176854762Y-110945238D01*
X176759524Y-111040476D01*
X176664286Y-111088095D01*
X176473810Y-111135714D01*
X176330952Y-111135714D01*
X176140476Y-111088095D01*
X176045238Y-111040476D01*
X175950000Y-110945238D01*
X175902381Y-110802380D01*
X175902381Y-110707142D01*
X175950000Y-110564285D01*
X175997619Y-110516666D01*
X175902381Y-109611904D02*
X175902381Y-110088095D01*
X176378571Y-110135714D01*
X176330952Y-110088095D01*
X176283333Y-109992857D01*
X176283333Y-109754761D01*
X176330952Y-109659523D01*
X176378571Y-109611904D01*
X176473810Y-109564285D01*
X176711905Y-109564285D01*
X176807143Y-109611904D01*
X176854762Y-109659523D01*
X176902381Y-109754761D01*
X176902381Y-109992857D01*
X176854762Y-110088095D01*
X176807143Y-110135714D01*
X176583334Y-104007143D02*
X176535715Y-104054762D01*
X176392858Y-104102381D01*
X176297620Y-104102381D01*
X176154762Y-104054762D01*
X176059524Y-103959524D01*
X176011905Y-103864286D01*
X175964286Y-103673810D01*
X175964286Y-103530952D01*
X176011905Y-103340476D01*
X176059524Y-103245238D01*
X176154762Y-103150000D01*
X176297620Y-103102381D01*
X176392858Y-103102381D01*
X176535715Y-103150000D01*
X176583334Y-103197619D01*
X176964286Y-103197619D02*
X177011905Y-103150000D01*
X177107143Y-103102381D01*
X177345239Y-103102381D01*
X177440477Y-103150000D01*
X177488096Y-103197619D01*
X177535715Y-103292857D01*
X177535715Y-103388095D01*
X177488096Y-103530952D01*
X176916667Y-104102381D01*
X177535715Y-104102381D01*
X175357143Y-106466666D02*
X175404762Y-106514285D01*
X175452381Y-106657142D01*
X175452381Y-106752380D01*
X175404762Y-106895238D01*
X175309524Y-106990476D01*
X175214286Y-107038095D01*
X175023810Y-107085714D01*
X174880952Y-107085714D01*
X174690476Y-107038095D01*
X174595238Y-106990476D01*
X174500000Y-106895238D01*
X174452381Y-106752380D01*
X174452381Y-106657142D01*
X174500000Y-106514285D01*
X174547619Y-106466666D01*
X174452381Y-106133333D02*
X174452381Y-105514285D01*
X174833333Y-105847619D01*
X174833333Y-105704761D01*
X174880952Y-105609523D01*
X174928571Y-105561904D01*
X175023810Y-105514285D01*
X175261905Y-105514285D01*
X175357143Y-105561904D01*
X175404762Y-105609523D01*
X175452381Y-105704761D01*
X175452381Y-105990476D01*
X175404762Y-106085714D01*
X175357143Y-106133333D01*
X207502381Y-109138095D02*
X206502381Y-109138095D01*
X206502381Y-108900000D01*
X206550000Y-108757142D01*
X206645238Y-108661904D01*
X206740476Y-108614285D01*
X206930952Y-108566666D01*
X207073810Y-108566666D01*
X207264286Y-108614285D01*
X207359524Y-108661904D01*
X207454762Y-108757142D01*
X207502381Y-108900000D01*
X207502381Y-109138095D01*
X207502381Y-107614285D02*
X207502381Y-108185714D01*
X207502381Y-107900000D02*
X206502381Y-107900000D01*
X206645238Y-107995238D01*
X206740476Y-108090476D01*
X206788095Y-108185714D01*
X207552381Y-105892857D02*
X207076190Y-106226191D01*
X207552381Y-106464286D02*
X206552381Y-106464286D01*
X206552381Y-106083333D01*
X206600000Y-105988095D01*
X206647619Y-105940476D01*
X206742857Y-105892857D01*
X206885714Y-105892857D01*
X206980952Y-105940476D01*
X207028571Y-105988095D01*
X207076190Y-106083333D01*
X207076190Y-106464286D01*
X207552381Y-104940476D02*
X207552381Y-105511905D01*
X207552381Y-105226191D02*
X206552381Y-105226191D01*
X206695238Y-105321429D01*
X206790476Y-105416667D01*
X206838095Y-105511905D01*
X206647619Y-104559524D02*
X206600000Y-104511905D01*
X206552381Y-104416667D01*
X206552381Y-104178571D01*
X206600000Y-104083333D01*
X206647619Y-104035714D01*
X206742857Y-103988095D01*
X206838095Y-103988095D01*
X206980952Y-104035714D01*
X207552381Y-104607143D01*
X207552381Y-103988095D01*
M02*
