M48
;DRILL file {KiCad 4.0.7} date 04/04/18 16:31:25
;FORMAT={2:4/ absolute / inch / suppress leading zeros}
FMAT,2
INCH,TZ
T1C0.012
T2C0.039
T3C0.060
T4C0.126
%
G90
G05
M72
T1
X61811Y-40945
X61811Y-42913
X63780Y-38583
X63780Y-40945
X65748Y-42913
X67323Y-40748
X67717Y-42913
X67795Y-46969
X67795Y-47205
X67795Y-47441
X68031Y-46969
X68031Y-47205
X68031Y-47441
X68268Y-46969
X68268Y-47205
X68268Y-47441
X68504Y-46969
X68504Y-47205
X68504Y-47441
X68740Y-46969
X68740Y-47205
X68740Y-47441
X68898Y-51476
X68898Y-51673
X68898Y-51870
X68898Y-52067
X68898Y-52264
X68898Y-52461
X68898Y-52657
X68898Y-52854
X69094Y-51673
X69094Y-51870
X69094Y-52067
X69094Y-52264
X69094Y-52461
X69094Y-52657
X69094Y-52854
X69291Y-51870
X69291Y-52067
X69291Y-52264
X69291Y-52461
X69291Y-52657
X69291Y-52854
X69488Y-47480
X69488Y-48583
X69488Y-52067
X69488Y-52264
X69488Y-52461
X69488Y-52657
X69488Y-52854
X69567Y-40787
X69606Y-45197
X69685Y-52461
X69685Y-52657
X69685Y-52854
X69882Y-52657
X69882Y-52854
X70236Y-45591
X70297Y-42455
X70297Y-42967
X70297Y-43479
X70297Y-43991
X70551Y-45630
X70809Y-42455
X70809Y-42967
X70809Y-43479
X70809Y-43991
X70906Y-45374
X71220Y-45748
X71278Y-45374
X71320Y-42455
X71320Y-42967
X71320Y-43479
X71320Y-43991
X71693Y-45276
X71832Y-42455
X71832Y-42967
X71832Y-43479
X71832Y-43991
X72162Y-45276
X72344Y-42455
X72344Y-42967
X72344Y-43479
X72344Y-43991
X72677Y-45276
X72815Y-39843
X72856Y-42455
X72856Y-42967
X72856Y-43479
X72856Y-43991
X73110Y-45276
X73368Y-42455
X73368Y-42967
X73368Y-43479
X73368Y-43991
X73640Y-45276
X73880Y-42455
X73880Y-42967
X73880Y-43479
X73880Y-43991
X74134Y-45276
X74391Y-42455
X74391Y-42967
X74391Y-43479
X74391Y-43991
X74903Y-42455
X74903Y-42967
X74903Y-43479
X74903Y-43991
X75079Y-46969
X75079Y-47205
X75079Y-47441
X75315Y-46969
X75315Y-47205
X75315Y-47441
X75551Y-46969
X75551Y-47205
X75551Y-47441
X75787Y-46969
X75787Y-47205
X75787Y-47441
X75866Y-40866
X75984Y-42520
X75984Y-44094
X76024Y-46969
X76024Y-47205
X76024Y-47441
X76181Y-51476
X76181Y-51673
X76181Y-51870
X76181Y-52067
X76181Y-52264
X76181Y-52461
X76181Y-52657
X76181Y-52854
X76378Y-51673
X76378Y-51870
X76378Y-52067
X76378Y-52264
X76378Y-52461
X76378Y-52657
X76378Y-52854
X76575Y-51870
X76575Y-52067
X76575Y-52264
X76575Y-52461
X76575Y-52657
X76575Y-52854
X76772Y-47638
X76772Y-48583
X76772Y-52067
X76772Y-52264
X76772Y-52461
X76772Y-52657
X76772Y-52854
X76969Y-52461
X76969Y-52657
X76969Y-52854
X77165Y-52657
X77165Y-52854
X77953Y-41732
X77953Y-44094
X79528Y-40157
X79921Y-42520
X79921Y-44094
X81890Y-40551
X81890Y-42520
X81890Y-44094
X83465Y-51476
X83465Y-51673
X83465Y-51870
X83465Y-52067
X83465Y-52264
X83465Y-52461
X83465Y-52657
X83465Y-52854
X83661Y-51673
X83661Y-51870
X83661Y-52067
X83661Y-52264
X83661Y-52461
X83661Y-52657
X83661Y-52854
X83858Y-40551
X83858Y-42520
X83858Y-44094
X83858Y-51870
X83858Y-52067
X83858Y-52264
X83858Y-52461
X83858Y-52657
X83858Y-52854
X84055Y-52067
X84055Y-52264
X84055Y-52461
X84055Y-52657
X84055Y-52854
X84252Y-52461
X84252Y-52657
X84252Y-52854
X84449Y-52657
X84449Y-52854
T2
X63500Y-37900
X64500Y-37900
X65500Y-37900
X66500Y-37900
X67500Y-37900
X68500Y-37900
X69500Y-37900
X70500Y-37900
X71500Y-37900
X72500Y-37900
X73500Y-37900
X74500Y-37900
X75500Y-37900
X76500Y-37900
X77500Y-37900
X78500Y-37900
X79500Y-37900
X80500Y-37900
X81500Y-37900
T3
X62992Y-43276
X62992Y-45276
X70047Y-54921
X72047Y-54921
X74047Y-54921
T4
X62598Y-55118
X83465Y-38976
X83465Y-55118
T0
M30
