G04 #@! TF.FileFunction,Copper,L1,Top,Signal*
%FSLAX46Y46*%
G04 Gerber Fmt 4.6, Leading zero omitted, Abs format (unit mm)*
G04 Created by KiCad (PCBNEW 4.0.7) date 04/04/18 16:23:25*
%MOMM*%
%LPD*%
G01*
G04 APERTURE LIST*
%ADD10C,0.100000*%
%ADD11C,0.500000*%
%ADD12R,2.500000X1.000000*%
%ADD13R,3.000000X3.000000*%
%ADD14C,3.000000*%
%ADD15R,1.270000X0.610000*%
%ADD16R,3.750000X3.910000*%
%ADD17R,0.600000X0.400000*%
%ADD18R,0.900000X0.500000*%
%ADD19R,0.400000X0.600000*%
%ADD20C,0.400000*%
%ADD21R,0.300000X1.550000*%
%ADD22R,4.420000X3.480000*%
%ADD23R,12.500000X5.100000*%
%ADD24R,1.700000X1.700000*%
%ADD25O,1.700000X1.700000*%
%ADD26R,1.600000X3.500000*%
%ADD27R,0.750000X0.800000*%
%ADD28R,0.800000X0.750000*%
%ADD29R,1.200000X1.200000*%
%ADD30R,1.300000X0.700000*%
%ADD31C,0.127000*%
%ADD32C,0.200000*%
%ADD33C,0.300000*%
%ADD34C,0.254000*%
G04 APERTURE END LIST*
D10*
D11*
X213000000Y-103000000D03*
X208000000Y-103000000D03*
X208000000Y-108000000D03*
X213000000Y-108000000D03*
X213000000Y-112000000D03*
X208000000Y-112000000D03*
X198000000Y-112000000D03*
X203000000Y-112000000D03*
X203000000Y-108000000D03*
X174600000Y-119300000D03*
X171000000Y-103500000D03*
X202000000Y-102000000D03*
X198000000Y-106000000D03*
X193000000Y-112000000D03*
X193000000Y-108000000D03*
X172000000Y-109000000D03*
X167000000Y-109000000D03*
X157000000Y-109000000D03*
X192700000Y-103800000D03*
X184950000Y-101200000D03*
X176700000Y-103600000D03*
X162000000Y-98000000D03*
X162000000Y-104000000D03*
X157000000Y-104000000D03*
X191900000Y-119900000D03*
X193100000Y-119300000D03*
X191900000Y-119300000D03*
X192500000Y-119300000D03*
X193100000Y-120500000D03*
X191900000Y-120500000D03*
X193100000Y-119900000D03*
X192500000Y-119900000D03*
X192500000Y-120500000D03*
X191300000Y-120500000D03*
X191300000Y-119900000D03*
X190700000Y-119300000D03*
X191300000Y-119300000D03*
X190700000Y-119900000D03*
X190700000Y-120500000D03*
X174600000Y-120500000D03*
X174000000Y-120500000D03*
X173400000Y-120500000D03*
X172800000Y-120500000D03*
X172200000Y-120500000D03*
X174600000Y-119900000D03*
X174000000Y-119900000D03*
X173400000Y-119900000D03*
X172800000Y-119900000D03*
X172200000Y-119900000D03*
X174000000Y-119300000D03*
X173400000Y-119300000D03*
X172800000Y-119300000D03*
X172200000Y-119300000D03*
D12*
X195000000Y-124500000D03*
X195000000Y-119600000D03*
X176500000Y-124500000D03*
X176500000Y-119600000D03*
D13*
X188080000Y-139500000D03*
D14*
X183000000Y-139500000D03*
X177920000Y-139500000D03*
D13*
X160000000Y-115000000D03*
D14*
X160000000Y-109920000D03*
D15*
X203170000Y-133905000D03*
X203170000Y-132635000D03*
X203170000Y-131365000D03*
X197830000Y-130095000D03*
X197830000Y-131365000D03*
X197830000Y-132635000D03*
X197830000Y-133905000D03*
X203170000Y-130095000D03*
D16*
X201160000Y-132000000D03*
D15*
X210670000Y-128405000D03*
X210670000Y-127135000D03*
X210670000Y-125865000D03*
X205330000Y-124595000D03*
X205330000Y-125865000D03*
X205330000Y-127135000D03*
X205330000Y-128405000D03*
X210670000Y-124595000D03*
D16*
X208660000Y-126500000D03*
D15*
X203170000Y-128405000D03*
X203170000Y-127135000D03*
X203170000Y-125865000D03*
X197830000Y-124595000D03*
X197830000Y-125865000D03*
X197830000Y-127135000D03*
X197830000Y-128405000D03*
X203170000Y-124595000D03*
D16*
X201160000Y-126500000D03*
D15*
X192170000Y-133905000D03*
X192170000Y-132635000D03*
X192170000Y-131365000D03*
X186830000Y-130095000D03*
X186830000Y-131365000D03*
X186830000Y-132635000D03*
X186830000Y-133905000D03*
X192170000Y-130095000D03*
D16*
X190160000Y-132000000D03*
D15*
X184670000Y-133905000D03*
X184670000Y-132635000D03*
X184670000Y-131365000D03*
X179330000Y-130095000D03*
X179330000Y-131365000D03*
X179330000Y-132635000D03*
X179330000Y-133905000D03*
X184670000Y-130095000D03*
D16*
X182660000Y-132000000D03*
D15*
X192170000Y-128405000D03*
X192170000Y-127135000D03*
X192170000Y-125865000D03*
X186830000Y-124595000D03*
X186830000Y-125865000D03*
X186830000Y-127135000D03*
X186830000Y-128405000D03*
X192170000Y-124595000D03*
D16*
X190160000Y-126500000D03*
D15*
X184670000Y-128405000D03*
X184670000Y-127135000D03*
X184670000Y-125865000D03*
X179330000Y-124595000D03*
X179330000Y-125865000D03*
X179330000Y-127135000D03*
X179330000Y-128405000D03*
X184670000Y-124595000D03*
D16*
X182660000Y-126500000D03*
D15*
X173670000Y-133905000D03*
X173670000Y-132635000D03*
X173670000Y-131365000D03*
X168330000Y-130095000D03*
X168330000Y-131365000D03*
X168330000Y-132635000D03*
X168330000Y-133905000D03*
X173670000Y-130095000D03*
D16*
X171660000Y-132000000D03*
D15*
X166170000Y-133905000D03*
X166170000Y-132635000D03*
X166170000Y-131365000D03*
X160830000Y-130095000D03*
X160830000Y-131365000D03*
X160830000Y-132635000D03*
X160830000Y-133905000D03*
X166170000Y-130095000D03*
D16*
X164160000Y-132000000D03*
D15*
X173670000Y-128405000D03*
X173670000Y-127135000D03*
X173670000Y-125865000D03*
X168330000Y-124595000D03*
X168330000Y-125865000D03*
X168330000Y-127135000D03*
X168330000Y-128405000D03*
X173670000Y-124595000D03*
D16*
X171660000Y-126500000D03*
D15*
X166170000Y-128405000D03*
X166170000Y-127135000D03*
X166170000Y-125865000D03*
X160830000Y-124595000D03*
X160830000Y-125865000D03*
X160830000Y-127135000D03*
X160830000Y-128405000D03*
X166170000Y-124595000D03*
D16*
X164160000Y-126500000D03*
D15*
X210670000Y-133905000D03*
X210670000Y-132635000D03*
X210670000Y-131365000D03*
X205330000Y-130095000D03*
X205330000Y-131365000D03*
X205330000Y-132635000D03*
X205330000Y-133905000D03*
X210670000Y-130095000D03*
D16*
X208660000Y-132000000D03*
D17*
X170900000Y-105442000D03*
X170900000Y-104542000D03*
X167048000Y-105442000D03*
X167048000Y-104542000D03*
X168348000Y-104542000D03*
X168348000Y-105442000D03*
X169648000Y-104542000D03*
X169648000Y-105442000D03*
D18*
X206400000Y-121500000D03*
X206400000Y-123000000D03*
X198900000Y-121500000D03*
X198900000Y-123000000D03*
X187900000Y-121500000D03*
X187900000Y-123000000D03*
X180400000Y-121500000D03*
X180400000Y-123000000D03*
X169400000Y-121500000D03*
X169400000Y-123000000D03*
X161900000Y-121500000D03*
X161900000Y-123000000D03*
D11*
X175500000Y-131750000D03*
X175000000Y-131250000D03*
X175500000Y-131250000D03*
X175000000Y-130750000D03*
X175000000Y-131750000D03*
X175000000Y-132250000D03*
X175500000Y-132250000D03*
X175000000Y-132750000D03*
X175500000Y-132750000D03*
X176000000Y-131750000D03*
X176000000Y-132250000D03*
X176500000Y-132250000D03*
X175000000Y-134250000D03*
X175000000Y-133250000D03*
X175500000Y-133250000D03*
X175000000Y-133750000D03*
X175500000Y-133750000D03*
X175500000Y-134250000D03*
X177000000Y-134250000D03*
X177000000Y-133750000D03*
X177500000Y-133750000D03*
X177500000Y-134250000D03*
X176000000Y-132750000D03*
X176500000Y-132750000D03*
X176000000Y-133250000D03*
X176500000Y-133250000D03*
X177000000Y-133250000D03*
X176000000Y-133750000D03*
X176500000Y-133750000D03*
X176000000Y-134250000D03*
X176500000Y-134250000D03*
X194000000Y-133250000D03*
X193500000Y-133250000D03*
X194000000Y-132750000D03*
X193500000Y-132750000D03*
X194500000Y-133250000D03*
X195000000Y-133250000D03*
X194500000Y-132750000D03*
X195000000Y-132750000D03*
X195000000Y-132250000D03*
X195500000Y-133250000D03*
X194500000Y-132250000D03*
X194000000Y-134250000D03*
X194000000Y-133750000D03*
X193500000Y-133750000D03*
X193500000Y-134250000D03*
X194500000Y-134250000D03*
X195000000Y-133750000D03*
X194500000Y-133750000D03*
X195500000Y-133750000D03*
X196000000Y-133750000D03*
X195000000Y-134250000D03*
X195500000Y-134250000D03*
X196000000Y-134250000D03*
X193500000Y-131750000D03*
X193500000Y-132250000D03*
X194000000Y-132250000D03*
X193500000Y-130750000D03*
X194500000Y-131750000D03*
X193500000Y-131250000D03*
X194000000Y-131250000D03*
X194000000Y-131750000D03*
X212000000Y-134250000D03*
X212500000Y-134250000D03*
X212000000Y-133750000D03*
X212500000Y-133750000D03*
X213500000Y-134250000D03*
X213000000Y-133750000D03*
X213500000Y-133750000D03*
X213000000Y-134250000D03*
X214000000Y-133750000D03*
X214000000Y-133250000D03*
X213500000Y-133250000D03*
X214500000Y-133750000D03*
X214500000Y-134250000D03*
X214000000Y-134250000D03*
X213000000Y-132250000D03*
X213000000Y-132750000D03*
X213500000Y-132250000D03*
X213500000Y-132750000D03*
X212000000Y-133250000D03*
X213000000Y-133250000D03*
X212500000Y-133250000D03*
X212500000Y-132750000D03*
X212000000Y-132750000D03*
X212000000Y-132250000D03*
X212500000Y-132250000D03*
X213000000Y-131750000D03*
X212500000Y-131250000D03*
X212500000Y-131750000D03*
X212000000Y-131750000D03*
X212000000Y-130750000D03*
X212000000Y-131250000D03*
D19*
X185850000Y-103750000D03*
X184950000Y-103750000D03*
X190200000Y-104050000D03*
X189300000Y-104050000D03*
D17*
X174350000Y-113200000D03*
X174350000Y-112300000D03*
D20*
X186354000Y-109136000D03*
X187654000Y-111736000D03*
X187654000Y-110436000D03*
X187654000Y-109136000D03*
X187654000Y-107836000D03*
X188954000Y-111736000D03*
X188954000Y-110436000D03*
X188954000Y-109136000D03*
X188954000Y-107836000D03*
X190254000Y-107836000D03*
X190254000Y-109136000D03*
X190254000Y-110436000D03*
X190254000Y-111736000D03*
D21*
X183654000Y-106036000D03*
X184154000Y-106036000D03*
X189654000Y-106036000D03*
X189154000Y-106036000D03*
X188654000Y-106036000D03*
X188154000Y-106036000D03*
X187654000Y-106036000D03*
X187154000Y-106036000D03*
X186654000Y-106036000D03*
X186154000Y-106036000D03*
X185654000Y-106036000D03*
X185154000Y-106036000D03*
X184654000Y-106036000D03*
X190154000Y-106036000D03*
D22*
X184404000Y-109786000D03*
D21*
X183154000Y-106036000D03*
X182654000Y-106036000D03*
X182154000Y-106036000D03*
X181654000Y-106036000D03*
X181154000Y-106036000D03*
X180654000Y-106036000D03*
X180154000Y-106036000D03*
X179654000Y-106036000D03*
X179154000Y-106036000D03*
X178654000Y-106036000D03*
X178654000Y-113536000D03*
X179154000Y-113536000D03*
X179654000Y-113536000D03*
X180154000Y-113536000D03*
X180654000Y-113536000D03*
X181154000Y-113536000D03*
X181654000Y-113536000D03*
X182154000Y-113536000D03*
X182654000Y-113536000D03*
X183154000Y-113536000D03*
X183654000Y-113536000D03*
X184154000Y-113536000D03*
X184654000Y-113536000D03*
X185154000Y-113536000D03*
X185654000Y-113536000D03*
X186154000Y-113536000D03*
X186654000Y-113536000D03*
X187154000Y-113536000D03*
X187654000Y-113536000D03*
X188154000Y-113536000D03*
X188654000Y-113536000D03*
X189154000Y-113536000D03*
X189654000Y-113536000D03*
X190154000Y-113536000D03*
D23*
X184404000Y-109786000D03*
D20*
X186354000Y-110436000D03*
X186354000Y-107836000D03*
X186354000Y-111736000D03*
X185054000Y-111736000D03*
X183754000Y-111736000D03*
X182454000Y-111736000D03*
X181154000Y-111736000D03*
X179854000Y-111736000D03*
X178554000Y-111736000D03*
X178554000Y-110436000D03*
X178554000Y-109136000D03*
X178554000Y-107836000D03*
X179854000Y-107836000D03*
X179854000Y-109136000D03*
X179854000Y-110436000D03*
X181154000Y-110436000D03*
X181154000Y-109136000D03*
X181154000Y-107836000D03*
X182454000Y-107836000D03*
X182454000Y-109136000D03*
X182454000Y-110436000D03*
X183754000Y-110436000D03*
X183754000Y-109136000D03*
X183754000Y-107836000D03*
X185054000Y-107836000D03*
X185054000Y-109136000D03*
X185054000Y-110436000D03*
D19*
X185850000Y-102500000D03*
X184950000Y-102500000D03*
D24*
X207010000Y-96266000D03*
D25*
X204470000Y-96266000D03*
X201930000Y-96266000D03*
X199390000Y-96266000D03*
X196850000Y-96266000D03*
X194310000Y-96266000D03*
X191770000Y-96266000D03*
X189230000Y-96266000D03*
X186690000Y-96266000D03*
X184150000Y-96266000D03*
X181610000Y-96266000D03*
X179070000Y-96266000D03*
X176530000Y-96266000D03*
X173990000Y-96266000D03*
X171450000Y-96266000D03*
X168910000Y-96266000D03*
X166370000Y-96266000D03*
X163830000Y-96266000D03*
X161290000Y-96266000D03*
D26*
X168450000Y-116050000D03*
X168450000Y-110650000D03*
D27*
X176400000Y-112000000D03*
X176400000Y-113500000D03*
D28*
X178450000Y-103600000D03*
X179950000Y-103600000D03*
D27*
X176300000Y-107100000D03*
X176300000Y-105600000D03*
D29*
X205500000Y-108400000D03*
X205500000Y-110600000D03*
D30*
X205500000Y-106450000D03*
X205500000Y-104550000D03*
D11*
X195000000Y-121000000D03*
X181045988Y-115249662D03*
X178400000Y-115800008D03*
X176800000Y-114800000D03*
X180100000Y-115250000D03*
X176500000Y-120600000D03*
X188300004Y-115000000D03*
X187045988Y-114999998D03*
X185700000Y-115000000D03*
X184600002Y-115000000D03*
X183291977Y-115000000D03*
X182099996Y-115000000D03*
X180900000Y-116200000D03*
X195000000Y-123400000D03*
X179200000Y-115900000D03*
X176500000Y-123400000D03*
D31*
X189154000Y-104196000D02*
X189300000Y-104050000D01*
X189154000Y-106036000D02*
X189154000Y-104196000D01*
X160830000Y-124595000D02*
X160830000Y-121270000D01*
X160830000Y-121270000D02*
X161400000Y-120700000D01*
X161400000Y-120700000D02*
X167900000Y-120700000D01*
X167900000Y-120700000D02*
X173800000Y-114800000D01*
X173800000Y-114800000D02*
X176800000Y-114800000D01*
X189154000Y-113536000D02*
X189654000Y-113536000D01*
X195000000Y-119600000D02*
X195000000Y-121000000D01*
X181154000Y-113536000D02*
X181154000Y-115141650D01*
X181154000Y-115141650D02*
X181045988Y-115249662D01*
X178599999Y-115600009D02*
X178400000Y-115800008D01*
X179154000Y-115046008D02*
X178599999Y-115600009D01*
X179154000Y-113536000D02*
X179154000Y-115046008D01*
X180154000Y-113536000D02*
X180154000Y-115196000D01*
X180154000Y-115196000D02*
X180100000Y-115250000D01*
X176500000Y-119600000D02*
X176500000Y-120600000D01*
X185154000Y-106036000D02*
X185154000Y-104577882D01*
X185154000Y-104577882D02*
X184950000Y-104373882D01*
X184950000Y-104373882D02*
X184950000Y-103750000D01*
X185654000Y-106036000D02*
X185654000Y-104646000D01*
X185850000Y-104450000D02*
X185850000Y-103750000D01*
X185654000Y-104646000D02*
X185850000Y-104450000D01*
X181154000Y-106036000D02*
X181154000Y-104779000D01*
X181154000Y-104779000D02*
X179975000Y-103600000D01*
X179975000Y-103600000D02*
X179950000Y-103600000D01*
X179154000Y-106036000D02*
X179154000Y-105134000D01*
X179154000Y-105134000D02*
X179090499Y-105070499D01*
X179090499Y-105070499D02*
X176804501Y-105070499D01*
X176804501Y-105070499D02*
X176300000Y-105575000D01*
X176300000Y-105575000D02*
X176300000Y-105600000D01*
X186400000Y-104628858D02*
X186400000Y-102850000D01*
X186154000Y-106036000D02*
X186154000Y-104874858D01*
X186154000Y-104874858D02*
X186400000Y-104628858D01*
X186050000Y-102500000D02*
X185850000Y-102500000D01*
X186400000Y-102850000D02*
X186050000Y-102500000D01*
X173670000Y-133905000D02*
X174432000Y-133905000D01*
X174432000Y-133905000D02*
X174609499Y-134082499D01*
X174609499Y-134082499D02*
X174609499Y-134062559D01*
X188154000Y-113536000D02*
X188154000Y-114853996D01*
X188154000Y-114853996D02*
X188300004Y-115000000D01*
X203170000Y-124595000D02*
X203170000Y-124163000D01*
X203170000Y-124163000D02*
X197407000Y-118400000D01*
X197407000Y-118400000D02*
X190092437Y-118400000D01*
X190092437Y-118400000D02*
X187045988Y-115353551D01*
X187045988Y-115353551D02*
X187045988Y-114999998D01*
X187150000Y-115232842D02*
X187150000Y-115104010D01*
X187154000Y-113536000D02*
X187154000Y-114891986D01*
X187154000Y-114891986D02*
X187045988Y-114999998D01*
X187150000Y-115104010D02*
X187045988Y-114999998D01*
X203170000Y-124595000D02*
X203170000Y-124170000D01*
X185654000Y-114954000D02*
X185700000Y-115000000D01*
X185654000Y-113536000D02*
X185654000Y-114954000D01*
X184654000Y-114946002D02*
X184600002Y-115000000D01*
X184654000Y-113536000D02*
X184654000Y-114946002D01*
X184630002Y-114970000D02*
X184600002Y-115000000D01*
X184670000Y-114970000D02*
X184630002Y-114970000D01*
X184670000Y-115069998D02*
X184600002Y-115000000D01*
X184670000Y-124595000D02*
X184670000Y-115069998D01*
X183154000Y-113536000D02*
X183154000Y-114862023D01*
X183154000Y-114862023D02*
X183291977Y-115000000D01*
X168330000Y-124595000D02*
X168330000Y-121527098D01*
X168330000Y-121527098D02*
X171857098Y-118000000D01*
X182099996Y-115353553D02*
X182099996Y-115000000D01*
X171857098Y-118000000D02*
X180500000Y-118000000D01*
X180500000Y-118000000D02*
X182099996Y-116400004D01*
X182099996Y-116400004D02*
X182099996Y-115353553D01*
X182154000Y-113536000D02*
X182154000Y-114945996D01*
X182150006Y-115257842D02*
X182150006Y-115050010D01*
X182150006Y-115050010D02*
X182099996Y-115000000D01*
X182154000Y-114945996D02*
X182099996Y-115000000D01*
X166170000Y-124163000D02*
X166170000Y-124595000D01*
X194646447Y-123400000D02*
X195000000Y-123400000D01*
X186154000Y-113536000D02*
X186154000Y-118054000D01*
X191500000Y-123400000D02*
X194646447Y-123400000D01*
X186154000Y-118054000D02*
X191500000Y-123400000D01*
X180650001Y-115950001D02*
X180900000Y-116200000D01*
X180654000Y-114438000D02*
X180605486Y-114486514D01*
X180605486Y-114486514D02*
X180605486Y-115905486D01*
X180654000Y-113536000D02*
X180654000Y-114438000D01*
X180605486Y-115905486D02*
X180650001Y-115950001D01*
X195000000Y-124500000D02*
X195000000Y-123400000D01*
X183732487Y-116967513D02*
X177300000Y-123400000D01*
X183732487Y-114516487D02*
X183732487Y-116967513D01*
X177300000Y-123400000D02*
X176853553Y-123400000D01*
X183654000Y-114438000D02*
X183732487Y-114516487D01*
X176853553Y-123400000D02*
X176500000Y-123400000D01*
X183654000Y-113536000D02*
X183654000Y-114438000D01*
X179654000Y-113536000D02*
X179654000Y-114946000D01*
X179654000Y-114946000D02*
X179200000Y-115400000D01*
X179200000Y-115400000D02*
X179200000Y-115900000D01*
X176500000Y-124500000D02*
X176500000Y-123400000D01*
X169648000Y-104542000D02*
X169648000Y-102084000D01*
X169648000Y-102084000D02*
X163830000Y-96266000D01*
X170900000Y-104542000D02*
X169648000Y-104542000D01*
X168348000Y-104542000D02*
X168348000Y-103324000D01*
X168348000Y-103324000D02*
X161290000Y-96266000D01*
X167048000Y-104542000D02*
X167475000Y-104542000D01*
X167475000Y-104542000D02*
X168348000Y-104542000D01*
D32*
X205500000Y-104550000D02*
X205500000Y-104000000D01*
X205500000Y-104000000D02*
X207010000Y-102490000D01*
X207010000Y-102490000D02*
X207010000Y-99570000D01*
X188654000Y-113536000D02*
X188654000Y-114511000D01*
X188654000Y-114511000D02*
X188881962Y-114738962D01*
X188881962Y-114738962D02*
X191841038Y-114738962D01*
X191841038Y-114738962D02*
X207010000Y-99570000D01*
X207010000Y-99570000D02*
X207010000Y-97480000D01*
X207010000Y-97480000D02*
X207010000Y-96266000D01*
D31*
X184154000Y-106036000D02*
X184154000Y-104589048D01*
X184154000Y-104589048D02*
X182130000Y-102565048D01*
X182130000Y-102565048D02*
X182130000Y-98000000D01*
X181610000Y-97480000D02*
X181610000Y-96266000D01*
X182130000Y-98000000D02*
X181610000Y-97480000D01*
X183654000Y-106036000D02*
X183654000Y-104448272D01*
X183654000Y-104448272D02*
X181740501Y-102534773D01*
X179070000Y-97480000D02*
X179070000Y-96266000D01*
X181740501Y-102534773D02*
X181740501Y-100150501D01*
X181740501Y-100150501D02*
X179070000Y-97480000D01*
X183154000Y-106036000D02*
X183154000Y-104433426D01*
X183154000Y-104433426D02*
X177899999Y-99179425D01*
X177899999Y-99179425D02*
X177899999Y-98849999D01*
X177899999Y-98849999D02*
X176530000Y-97480000D01*
X176530000Y-97480000D02*
X176530000Y-96266000D01*
X182654000Y-106036000D02*
X182654000Y-104292650D01*
X173990000Y-97480000D02*
X173990000Y-96266000D01*
X182654000Y-104292650D02*
X180661350Y-102300000D01*
X180661350Y-102300000D02*
X178810000Y-102300000D01*
X178810000Y-102300000D02*
X173990000Y-97480000D01*
X182154000Y-106036000D02*
X182154000Y-104151874D01*
X182154000Y-104151874D02*
X180602126Y-102600000D01*
X180602126Y-102600000D02*
X176570000Y-102600000D01*
X176570000Y-102600000D02*
X171450000Y-97480000D01*
X171450000Y-97480000D02*
X171450000Y-96266000D01*
X181654000Y-106036000D02*
X181654000Y-104011098D01*
X181654000Y-104011098D02*
X180542902Y-102900000D01*
X174330000Y-102900000D02*
X168910000Y-97480000D01*
X180542902Y-102900000D02*
X174330000Y-102900000D01*
X168910000Y-97480000D02*
X168910000Y-96266000D01*
X201930000Y-97790000D02*
X201930000Y-96266000D01*
X190154000Y-106036000D02*
X194414000Y-106036000D01*
X194414000Y-106036000D02*
X201930000Y-98520000D01*
X201930000Y-98520000D02*
X201930000Y-97790000D01*
X189654000Y-106036000D02*
X189654000Y-105268098D01*
X199390000Y-98552000D02*
X199390000Y-96266000D01*
X189654000Y-105268098D02*
X190381597Y-104540501D01*
X190381597Y-104540501D02*
X193369499Y-104540501D01*
X199358000Y-98552000D02*
X199390000Y-98552000D01*
X193369499Y-104540501D02*
X199358000Y-98552000D01*
X186654000Y-106036000D02*
X186654000Y-105134000D01*
X186654000Y-105134000D02*
X186690000Y-105098000D01*
X186690000Y-105098000D02*
X186690000Y-97480000D01*
X186690000Y-97480000D02*
X186690000Y-96266000D01*
X184654000Y-106036000D02*
X184654000Y-104729824D01*
X184654000Y-104729824D02*
X184100000Y-104175824D01*
X184100000Y-104175824D02*
X184100000Y-96600000D01*
X184100000Y-96600000D02*
X184150000Y-96550000D01*
X184150000Y-96550000D02*
X184150000Y-96266000D01*
X180654000Y-106036000D02*
X180654000Y-105134000D01*
X180654000Y-105134000D02*
X179820000Y-104300000D01*
X179820000Y-104300000D02*
X173190000Y-104300000D01*
X173190000Y-104300000D02*
X166370000Y-97480000D01*
X166370000Y-97480000D02*
X166370000Y-96266000D01*
X188654000Y-106036000D02*
X188654000Y-103853098D01*
X188654000Y-103853098D02*
X188947599Y-103559499D01*
X188947599Y-103559499D02*
X191810501Y-103559499D01*
X191810501Y-103559499D02*
X196818000Y-98552000D01*
X196818000Y-98552000D02*
X196850000Y-98552000D01*
X196850000Y-98552000D02*
X196850000Y-96266000D01*
X188154000Y-106036000D02*
X188154000Y-103993874D01*
X188154000Y-103993874D02*
X188842385Y-103305489D01*
X188842385Y-103305489D02*
X189524511Y-103305489D01*
X189524511Y-103305489D02*
X194278000Y-98552000D01*
X194278000Y-98552000D02*
X194310000Y-98552000D01*
X194310000Y-98552000D02*
X194310000Y-96266000D01*
X187654000Y-106036000D02*
X187654000Y-104134650D01*
X187654000Y-104134650D02*
X191770000Y-100018650D01*
X191770000Y-100018650D02*
X191770000Y-97480000D01*
X191770000Y-97480000D02*
X191770000Y-96266000D01*
X187154000Y-106036000D02*
X187154000Y-104275426D01*
X187154000Y-104275426D02*
X189230000Y-102199426D01*
X189230000Y-102199426D02*
X189230000Y-96266000D01*
D33*
X206400000Y-121500000D02*
X205650000Y-121500000D01*
X205650000Y-121500000D02*
X202150000Y-118000000D01*
X190320036Y-118000000D02*
X187654000Y-115333964D01*
X202150000Y-118000000D02*
X190320036Y-118000000D01*
X187654000Y-115333964D02*
X187654000Y-114666036D01*
X187654000Y-114666036D02*
X187654000Y-114250000D01*
X187654000Y-114611000D02*
X187654000Y-114250000D01*
X187654000Y-114250000D02*
X187654000Y-113536000D01*
X198900000Y-121500000D02*
X198400000Y-122000000D01*
X198400000Y-122000000D02*
X190600000Y-122000000D01*
X186654000Y-114611000D02*
X186654000Y-113536000D01*
X190600000Y-122000000D02*
X186518987Y-117918987D01*
X186518987Y-117918987D02*
X186518987Y-114747037D01*
X186518987Y-114747037D02*
X186654000Y-114612024D01*
X186654000Y-114612024D02*
X186654000Y-114611000D01*
X185154000Y-114611000D02*
X185154000Y-113536000D01*
X187900000Y-120950000D02*
X185154000Y-118204000D01*
X185154000Y-118204000D02*
X185154000Y-114611000D01*
X187900000Y-121500000D02*
X187900000Y-120950000D01*
X184072998Y-117277002D02*
X180400000Y-120950000D01*
X180400000Y-120950000D02*
X180400000Y-121500000D01*
X184072998Y-114747038D02*
X184072998Y-117277002D01*
X184154000Y-113536000D02*
X184154000Y-114666036D01*
X184154000Y-114666036D02*
X184072998Y-114747038D01*
X182654000Y-114611000D02*
X182654000Y-113536000D01*
X182654000Y-114674032D02*
X182654000Y-114611000D01*
X182727006Y-114747038D02*
X182654000Y-114674032D01*
X178700000Y-121500000D02*
X182727006Y-117472994D01*
X182727006Y-117472994D02*
X182727006Y-114747038D01*
X169400000Y-121500000D02*
X178700000Y-121500000D01*
X161900000Y-121500000D02*
X167700000Y-121500000D01*
X180400000Y-117500000D02*
X181572994Y-116327006D01*
X167700000Y-121500000D02*
X171700000Y-117500000D01*
X171700000Y-117500000D02*
X180400000Y-117500000D01*
X181572994Y-116327006D02*
X181572994Y-114692006D01*
X181572994Y-114692006D02*
X181654000Y-114611000D01*
X181654000Y-114611000D02*
X181654000Y-113536000D01*
D31*
X179654000Y-106036000D02*
X179654000Y-105134000D01*
X179654000Y-105134000D02*
X179336489Y-104816489D01*
X179336489Y-104816489D02*
X173742735Y-104816489D01*
X168348000Y-105648000D02*
X168348000Y-105442000D01*
X173742735Y-104816489D02*
X172105214Y-106454010D01*
X172105214Y-106454010D02*
X169154010Y-106454010D01*
X169154010Y-106454010D02*
X168348000Y-105648000D01*
X180154000Y-106036000D02*
X180154000Y-105134000D01*
X180154000Y-105134000D02*
X179582479Y-104562479D01*
X170079000Y-106200000D02*
X169648000Y-105769000D01*
X179582479Y-104562479D02*
X173637521Y-104562479D01*
X173637521Y-104562479D02*
X172000000Y-106200000D01*
X172000000Y-106200000D02*
X170079000Y-106200000D01*
X169648000Y-105769000D02*
X169648000Y-105442000D01*
D33*
X206400000Y-133500000D02*
X206400000Y-128000000D01*
X206400000Y-128000000D02*
X206400000Y-123550000D01*
X205330000Y-128405000D02*
X206265000Y-128405000D01*
X206265000Y-128405000D02*
X206400000Y-128270000D01*
X206400000Y-128270000D02*
X206400000Y-128000000D01*
X205330000Y-133905000D02*
X205995000Y-133905000D01*
X205995000Y-133905000D02*
X206400000Y-133500000D01*
X206400000Y-123550000D02*
X206400000Y-123000000D01*
X198900000Y-133770000D02*
X198900000Y-128000000D01*
X198900000Y-128000000D02*
X198900000Y-123000000D01*
X197830000Y-128405000D02*
X198765000Y-128405000D01*
X198900000Y-128270000D02*
X198900000Y-128000000D01*
X198765000Y-128405000D02*
X198900000Y-128270000D01*
X197830000Y-133905000D02*
X198765000Y-133905000D01*
X198765000Y-133905000D02*
X198900000Y-133770000D01*
X186830000Y-133905000D02*
X187595000Y-133905000D01*
X187595000Y-133905000D02*
X187900000Y-133600000D01*
X187900000Y-133600000D02*
X187900000Y-128000000D01*
X187900000Y-128000000D02*
X187900000Y-123550000D01*
X186830000Y-128405000D02*
X187765000Y-128405000D01*
X187900000Y-128270000D02*
X187900000Y-128000000D01*
X187765000Y-128405000D02*
X187900000Y-128270000D01*
X187900000Y-123550000D02*
X187900000Y-123000000D01*
X180400000Y-133770000D02*
X180400000Y-128100000D01*
X180400000Y-128100000D02*
X180400000Y-123550000D01*
X179330000Y-128405000D02*
X180265000Y-128405000D01*
X180265000Y-128405000D02*
X180400000Y-128270000D01*
X180400000Y-128270000D02*
X180400000Y-128100000D01*
X179330000Y-133905000D02*
X180265000Y-133905000D01*
X180265000Y-133905000D02*
X180400000Y-133770000D01*
X180400000Y-123550000D02*
X180400000Y-123000000D01*
X169400000Y-133770000D02*
X169400000Y-128200000D01*
X169400000Y-128200000D02*
X169400000Y-123000000D01*
X168330000Y-128405000D02*
X169265000Y-128405000D01*
X169265000Y-128405000D02*
X169400000Y-128270000D01*
X169400000Y-128270000D02*
X169400000Y-128200000D01*
X168330000Y-133905000D02*
X169265000Y-133905000D01*
X169265000Y-133905000D02*
X169400000Y-133770000D01*
X161900000Y-133165000D02*
X161900000Y-128200000D01*
X161900000Y-128200000D02*
X161900000Y-123550000D01*
X160830000Y-128405000D02*
X161765000Y-128405000D01*
X161765000Y-128405000D02*
X161900000Y-128270000D01*
X161900000Y-128270000D02*
X161900000Y-128200000D01*
X160830000Y-133905000D02*
X161160000Y-133905000D01*
X161160000Y-133905000D02*
X161900000Y-133165000D01*
X161900000Y-123550000D02*
X161900000Y-123000000D01*
D31*
X205500000Y-108400000D02*
X205500000Y-107673000D01*
X205500000Y-107673000D02*
X205500000Y-106450000D01*
D34*
G36*
X174473000Y-129400000D02*
X174483006Y-129449410D01*
X174502436Y-129481303D01*
X177973000Y-133645980D01*
X177973000Y-134373000D01*
X169827000Y-134373000D01*
X169827000Y-133973030D01*
X169840691Y-133952540D01*
X169877000Y-133770000D01*
X169877000Y-124127000D01*
X174473000Y-124127000D01*
X174473000Y-129400000D01*
X174473000Y-129400000D01*
G37*
X174473000Y-129400000D02*
X174483006Y-129449410D01*
X174502436Y-129481303D01*
X177973000Y-133645980D01*
X177973000Y-134373000D01*
X169827000Y-134373000D01*
X169827000Y-133973030D01*
X169840691Y-133952540D01*
X169877000Y-133770000D01*
X169877000Y-124127000D01*
X174473000Y-124127000D01*
X174473000Y-129400000D01*
G36*
X177973000Y-124000000D02*
X177983006Y-124049410D01*
X178011447Y-124091035D01*
X178053841Y-124118315D01*
X178100000Y-124127000D01*
X179923000Y-124127000D01*
X179923000Y-127766594D01*
X178695000Y-127766594D01*
X178573821Y-127789395D01*
X178462526Y-127861012D01*
X178387862Y-127970286D01*
X178361594Y-128100000D01*
X178361594Y-128710000D01*
X178384395Y-128831179D01*
X178456012Y-128942474D01*
X178565286Y-129017138D01*
X178695000Y-129043406D01*
X179923000Y-129043406D01*
X179923000Y-133173000D01*
X178459483Y-133173000D01*
X175027000Y-129054020D01*
X175027000Y-123827000D01*
X177973000Y-123827000D01*
X177973000Y-124000000D01*
X177973000Y-124000000D01*
G37*
X177973000Y-124000000D02*
X177983006Y-124049410D01*
X178011447Y-124091035D01*
X178053841Y-124118315D01*
X178100000Y-124127000D01*
X179923000Y-124127000D01*
X179923000Y-127766594D01*
X178695000Y-127766594D01*
X178573821Y-127789395D01*
X178462526Y-127861012D01*
X178387862Y-127970286D01*
X178361594Y-128100000D01*
X178361594Y-128710000D01*
X178384395Y-128831179D01*
X178456012Y-128942474D01*
X178565286Y-129017138D01*
X178695000Y-129043406D01*
X179923000Y-129043406D01*
X179923000Y-133173000D01*
X178459483Y-133173000D01*
X175027000Y-129054020D01*
X175027000Y-123827000D01*
X177973000Y-123827000D01*
X177973000Y-124000000D01*
G36*
X192973000Y-129400000D02*
X192983006Y-129449410D01*
X193002436Y-129481303D01*
X196473000Y-133645980D01*
X196473000Y-134373000D01*
X188327000Y-134373000D01*
X188327000Y-133803030D01*
X188340691Y-133782540D01*
X188377000Y-133600000D01*
X188377000Y-124127000D01*
X192973000Y-124127000D01*
X192973000Y-129400000D01*
X192973000Y-129400000D01*
G37*
X192973000Y-129400000D02*
X192983006Y-129449410D01*
X193002436Y-129481303D01*
X196473000Y-133645980D01*
X196473000Y-134373000D01*
X188327000Y-134373000D01*
X188327000Y-133803030D01*
X188340691Y-133782540D01*
X188377000Y-133600000D01*
X188377000Y-124127000D01*
X192973000Y-124127000D01*
X192973000Y-129400000D01*
G36*
X196473000Y-124000000D02*
X196483006Y-124049410D01*
X196511447Y-124091035D01*
X196553841Y-124118315D01*
X196600000Y-124127000D01*
X198423000Y-124127000D01*
X198423000Y-127766594D01*
X197195000Y-127766594D01*
X197073821Y-127789395D01*
X196962526Y-127861012D01*
X196887862Y-127970286D01*
X196861594Y-128100000D01*
X196861594Y-128710000D01*
X196884395Y-128831179D01*
X196956012Y-128942474D01*
X197065286Y-129017138D01*
X197195000Y-129043406D01*
X198423000Y-129043406D01*
X198423000Y-133173000D01*
X196959483Y-133173000D01*
X193527000Y-129054020D01*
X193527000Y-123827000D01*
X196473000Y-123827000D01*
X196473000Y-124000000D01*
X196473000Y-124000000D01*
G37*
X196473000Y-124000000D02*
X196483006Y-124049410D01*
X196511447Y-124091035D01*
X196553841Y-124118315D01*
X196600000Y-124127000D01*
X198423000Y-124127000D01*
X198423000Y-127766594D01*
X197195000Y-127766594D01*
X197073821Y-127789395D01*
X196962526Y-127861012D01*
X196887862Y-127970286D01*
X196861594Y-128100000D01*
X196861594Y-128710000D01*
X196884395Y-128831179D01*
X196956012Y-128942474D01*
X197065286Y-129017138D01*
X197195000Y-129043406D01*
X198423000Y-129043406D01*
X198423000Y-133173000D01*
X196959483Y-133173000D01*
X193527000Y-129054020D01*
X193527000Y-123827000D01*
X196473000Y-123827000D01*
X196473000Y-124000000D01*
G36*
X168773000Y-127766594D02*
X167695000Y-127766594D01*
X167660954Y-127773000D01*
X167500000Y-127773000D01*
X167450590Y-127783006D01*
X167408965Y-127811447D01*
X167381685Y-127853841D01*
X167373000Y-127900000D01*
X167373000Y-128043676D01*
X167361594Y-128100000D01*
X167361594Y-128710000D01*
X167373000Y-128770619D01*
X167373000Y-128900000D01*
X167383006Y-128949410D01*
X167411447Y-128991035D01*
X167453841Y-129018315D01*
X167500000Y-129027000D01*
X167613986Y-129027000D01*
X167695000Y-129043406D01*
X168773000Y-129043406D01*
X168773000Y-133073000D01*
X167200000Y-133073000D01*
X167150590Y-133083006D01*
X167108965Y-133111447D01*
X167081685Y-133153841D01*
X167073000Y-133200000D01*
X167073000Y-135200000D01*
X167083006Y-135249410D01*
X167110197Y-135289803D01*
X167910197Y-136089803D01*
X167952211Y-136117666D01*
X168000000Y-136127000D01*
X177947394Y-136127000D01*
X179873000Y-138052606D01*
X179873000Y-140947394D01*
X178947394Y-141873000D01*
X165252606Y-141873000D01*
X162327000Y-138947394D01*
X162327000Y-133368030D01*
X162340691Y-133347540D01*
X162377000Y-133165000D01*
X162377000Y-124127000D01*
X168773000Y-124127000D01*
X168773000Y-127766594D01*
X168773000Y-127766594D01*
G37*
X168773000Y-127766594D02*
X167695000Y-127766594D01*
X167660954Y-127773000D01*
X167500000Y-127773000D01*
X167450590Y-127783006D01*
X167408965Y-127811447D01*
X167381685Y-127853841D01*
X167373000Y-127900000D01*
X167373000Y-128043676D01*
X167361594Y-128100000D01*
X167361594Y-128710000D01*
X167373000Y-128770619D01*
X167373000Y-128900000D01*
X167383006Y-128949410D01*
X167411447Y-128991035D01*
X167453841Y-129018315D01*
X167500000Y-129027000D01*
X167613986Y-129027000D01*
X167695000Y-129043406D01*
X168773000Y-129043406D01*
X168773000Y-133073000D01*
X167200000Y-133073000D01*
X167150590Y-133083006D01*
X167108965Y-133111447D01*
X167081685Y-133153841D01*
X167073000Y-133200000D01*
X167073000Y-135200000D01*
X167083006Y-135249410D01*
X167110197Y-135289803D01*
X167910197Y-136089803D01*
X167952211Y-136117666D01*
X168000000Y-136127000D01*
X177947394Y-136127000D01*
X179873000Y-138052606D01*
X179873000Y-140947394D01*
X178947394Y-141873000D01*
X165252606Y-141873000D01*
X162327000Y-138947394D01*
X162327000Y-133368030D01*
X162340691Y-133347540D01*
X162377000Y-133165000D01*
X162377000Y-124127000D01*
X168773000Y-124127000D01*
X168773000Y-127766594D01*
G36*
X187273000Y-127766594D02*
X186195000Y-127766594D01*
X186160954Y-127773000D01*
X186000000Y-127773000D01*
X185950590Y-127783006D01*
X185908965Y-127811447D01*
X185881685Y-127853841D01*
X185873000Y-127900000D01*
X185873000Y-128043676D01*
X185861594Y-128100000D01*
X185861594Y-128710000D01*
X185873000Y-128770619D01*
X185873000Y-128900000D01*
X185883006Y-128949410D01*
X185911447Y-128991035D01*
X185953841Y-129018315D01*
X186000000Y-129027000D01*
X186113986Y-129027000D01*
X186195000Y-129043406D01*
X187273000Y-129043406D01*
X187273000Y-133073000D01*
X185600000Y-133073000D01*
X185550590Y-133083006D01*
X185508965Y-133111447D01*
X185481685Y-133153841D01*
X185473000Y-133200000D01*
X185473000Y-140347394D01*
X183947394Y-141873000D01*
X182052606Y-141873000D01*
X180827000Y-140647394D01*
X180827000Y-133973030D01*
X180840691Y-133952540D01*
X180877000Y-133770000D01*
X180877000Y-124127000D01*
X187273000Y-124127000D01*
X187273000Y-127766594D01*
X187273000Y-127766594D01*
G37*
X187273000Y-127766594D02*
X186195000Y-127766594D01*
X186160954Y-127773000D01*
X186000000Y-127773000D01*
X185950590Y-127783006D01*
X185908965Y-127811447D01*
X185881685Y-127853841D01*
X185873000Y-127900000D01*
X185873000Y-128043676D01*
X185861594Y-128100000D01*
X185861594Y-128710000D01*
X185873000Y-128770619D01*
X185873000Y-128900000D01*
X185883006Y-128949410D01*
X185911447Y-128991035D01*
X185953841Y-129018315D01*
X186000000Y-129027000D01*
X186113986Y-129027000D01*
X186195000Y-129043406D01*
X187273000Y-129043406D01*
X187273000Y-133073000D01*
X185600000Y-133073000D01*
X185550590Y-133083006D01*
X185508965Y-133111447D01*
X185481685Y-133153841D01*
X185473000Y-133200000D01*
X185473000Y-140347394D01*
X183947394Y-141873000D01*
X182052606Y-141873000D01*
X180827000Y-140647394D01*
X180827000Y-133973030D01*
X180840691Y-133952540D01*
X180877000Y-133770000D01*
X180877000Y-124127000D01*
X187273000Y-124127000D01*
X187273000Y-127766594D01*
G36*
X205773000Y-127766594D02*
X204695000Y-127766594D01*
X204660954Y-127773000D01*
X204500000Y-127773000D01*
X204450590Y-127783006D01*
X204408965Y-127811447D01*
X204381685Y-127853841D01*
X204373000Y-127900000D01*
X204373000Y-128043676D01*
X204361594Y-128100000D01*
X204361594Y-128710000D01*
X204373000Y-128770619D01*
X204373000Y-128900000D01*
X204383006Y-128949410D01*
X204411447Y-128991035D01*
X204453841Y-129018315D01*
X204500000Y-129027000D01*
X204613986Y-129027000D01*
X204695000Y-129043406D01*
X205773000Y-129043406D01*
X205773000Y-133073000D01*
X204100000Y-133073000D01*
X204050590Y-133083006D01*
X204008965Y-133111447D01*
X203981685Y-133153841D01*
X203973000Y-133200000D01*
X203973000Y-138647394D01*
X200747394Y-141873000D01*
X187052606Y-141873000D01*
X186127000Y-140947394D01*
X186127000Y-138052606D01*
X188052606Y-136127000D01*
X198000000Y-136127000D01*
X198049410Y-136116994D01*
X198089803Y-136089803D01*
X199289803Y-134889803D01*
X199317666Y-134847789D01*
X199327000Y-134800000D01*
X199327000Y-133973030D01*
X199340691Y-133952540D01*
X199377000Y-133770000D01*
X199377000Y-124127000D01*
X205773000Y-124127000D01*
X205773000Y-127766594D01*
X205773000Y-127766594D01*
G37*
X205773000Y-127766594D02*
X204695000Y-127766594D01*
X204660954Y-127773000D01*
X204500000Y-127773000D01*
X204450590Y-127783006D01*
X204408965Y-127811447D01*
X204381685Y-127853841D01*
X204373000Y-127900000D01*
X204373000Y-128043676D01*
X204361594Y-128100000D01*
X204361594Y-128710000D01*
X204373000Y-128770619D01*
X204373000Y-128900000D01*
X204383006Y-128949410D01*
X204411447Y-128991035D01*
X204453841Y-129018315D01*
X204500000Y-129027000D01*
X204613986Y-129027000D01*
X204695000Y-129043406D01*
X205773000Y-129043406D01*
X205773000Y-133073000D01*
X204100000Y-133073000D01*
X204050590Y-133083006D01*
X204008965Y-133111447D01*
X203981685Y-133153841D01*
X203973000Y-133200000D01*
X203973000Y-138647394D01*
X200747394Y-141873000D01*
X187052606Y-141873000D01*
X186127000Y-140947394D01*
X186127000Y-138052606D01*
X188052606Y-136127000D01*
X198000000Y-136127000D01*
X198049410Y-136116994D01*
X198089803Y-136089803D01*
X199289803Y-134889803D01*
X199317666Y-134847789D01*
X199327000Y-134800000D01*
X199327000Y-133973030D01*
X199340691Y-133952540D01*
X199377000Y-133770000D01*
X199377000Y-124127000D01*
X205773000Y-124127000D01*
X205773000Y-127766594D01*
G36*
X211473000Y-129400000D02*
X211483006Y-129449410D01*
X211502436Y-129481303D01*
X214973000Y-133645980D01*
X214973000Y-134373000D01*
X206827000Y-134373000D01*
X206827000Y-133703031D01*
X206840691Y-133682541D01*
X206877000Y-133500000D01*
X206877000Y-124127000D01*
X211473000Y-124127000D01*
X211473000Y-129400000D01*
X211473000Y-129400000D01*
G37*
X211473000Y-129400000D02*
X211483006Y-129449410D01*
X211502436Y-129481303D01*
X214973000Y-133645980D01*
X214973000Y-134373000D01*
X206827000Y-134373000D01*
X206827000Y-133703031D01*
X206840691Y-133682541D01*
X206877000Y-133500000D01*
X206877000Y-124127000D01*
X211473000Y-124127000D01*
X211473000Y-129400000D01*
G36*
X160113000Y-96242941D02*
X160113000Y-96289059D01*
X160202594Y-96739477D01*
X160457735Y-97121324D01*
X160839582Y-97376465D01*
X161290000Y-97466059D01*
X161740418Y-97376465D01*
X161805038Y-97333288D01*
X167957500Y-103485750D01*
X167957500Y-104025622D01*
X167926821Y-104031395D01*
X167815526Y-104103012D01*
X167782395Y-104151500D01*
X167613998Y-104151500D01*
X167586988Y-104109526D01*
X167477714Y-104034862D01*
X167348000Y-104008594D01*
X166748000Y-104008594D01*
X166626821Y-104031395D01*
X166515526Y-104103012D01*
X166440862Y-104212286D01*
X166414594Y-104342000D01*
X166414594Y-104692782D01*
X166388301Y-104703673D01*
X166209673Y-104882302D01*
X166113000Y-105115691D01*
X166113000Y-105183250D01*
X166271750Y-105342000D01*
X166921000Y-105342000D01*
X166921000Y-105295000D01*
X167175000Y-105295000D01*
X167175000Y-105342000D01*
X167195000Y-105342000D01*
X167195000Y-105542000D01*
X167175000Y-105542000D01*
X167175000Y-106118250D01*
X167333750Y-106277000D01*
X167474310Y-106277000D01*
X167707699Y-106180327D01*
X167886327Y-106001698D01*
X167910345Y-105943712D01*
X167918286Y-105949138D01*
X168048000Y-105975406D01*
X168123156Y-105975406D01*
X168877885Y-106730135D01*
X169004572Y-106814785D01*
X169154010Y-106844510D01*
X172105214Y-106844510D01*
X172254652Y-106814785D01*
X172381339Y-106730135D01*
X173904485Y-105206989D01*
X175591594Y-105206989D01*
X175591594Y-106000000D01*
X175614395Y-106121179D01*
X175624637Y-106137095D01*
X175565301Y-106161673D01*
X175386673Y-106340302D01*
X175290000Y-106573691D01*
X175290000Y-106814250D01*
X175448750Y-106973000D01*
X176173000Y-106973000D01*
X176173000Y-106953000D01*
X176427000Y-106953000D01*
X176427000Y-106973000D01*
X177151250Y-106973000D01*
X177310000Y-106814250D01*
X177310000Y-106573691D01*
X177213327Y-106340302D01*
X177194776Y-106321750D01*
X177869000Y-106321750D01*
X177869000Y-106937309D01*
X177965673Y-107170698D01*
X178144301Y-107349327D01*
X178377690Y-107446000D01*
X178420250Y-107446000D01*
X178579000Y-107287250D01*
X178579000Y-106163000D01*
X178027750Y-106163000D01*
X177869000Y-106321750D01*
X177194776Y-106321750D01*
X177034699Y-106161673D01*
X176976713Y-106137654D01*
X176982138Y-106129714D01*
X177008406Y-106000000D01*
X177008406Y-105460999D01*
X177869000Y-105460999D01*
X177869000Y-105750250D01*
X178027750Y-105909000D01*
X178579000Y-105909000D01*
X178579000Y-105889000D01*
X178670594Y-105889000D01*
X178670594Y-106811000D01*
X178693395Y-106932179D01*
X178729000Y-106987510D01*
X178729000Y-107287250D01*
X178887750Y-107446000D01*
X178930310Y-107446000D01*
X179163699Y-107349327D01*
X179342327Y-107170698D01*
X179357378Y-107134362D01*
X179407673Y-107124899D01*
X179504000Y-107144406D01*
X179804000Y-107144406D01*
X179907673Y-107124899D01*
X180004000Y-107144406D01*
X180304000Y-107144406D01*
X180407673Y-107124899D01*
X180504000Y-107144406D01*
X180804000Y-107144406D01*
X180907673Y-107124899D01*
X181004000Y-107144406D01*
X181304000Y-107144406D01*
X181407673Y-107124899D01*
X181504000Y-107144406D01*
X181804000Y-107144406D01*
X181907673Y-107124899D01*
X182004000Y-107144406D01*
X182304000Y-107144406D01*
X182407673Y-107124899D01*
X182504000Y-107144406D01*
X182804000Y-107144406D01*
X182907673Y-107124899D01*
X183004000Y-107144406D01*
X183304000Y-107144406D01*
X183407673Y-107124899D01*
X183504000Y-107144406D01*
X183804000Y-107144406D01*
X183907673Y-107124899D01*
X184004000Y-107144406D01*
X184304000Y-107144406D01*
X184407673Y-107124899D01*
X184504000Y-107144406D01*
X184804000Y-107144406D01*
X184907673Y-107124899D01*
X185004000Y-107144406D01*
X185304000Y-107144406D01*
X185407673Y-107124899D01*
X185504000Y-107144406D01*
X185804000Y-107144406D01*
X185907673Y-107124899D01*
X186004000Y-107144406D01*
X186304000Y-107144406D01*
X186407673Y-107124899D01*
X186504000Y-107144406D01*
X186804000Y-107144406D01*
X186907673Y-107124899D01*
X187004000Y-107144406D01*
X187304000Y-107144406D01*
X187407673Y-107124899D01*
X187504000Y-107144406D01*
X187804000Y-107144406D01*
X187907673Y-107124899D01*
X188004000Y-107144406D01*
X188304000Y-107144406D01*
X188407673Y-107124899D01*
X188504000Y-107144406D01*
X188804000Y-107144406D01*
X188907673Y-107124899D01*
X189004000Y-107144406D01*
X189304000Y-107144406D01*
X189407673Y-107124899D01*
X189504000Y-107144406D01*
X189804000Y-107144406D01*
X189907673Y-107124899D01*
X190004000Y-107144406D01*
X190304000Y-107144406D01*
X190425179Y-107121605D01*
X190536474Y-107049988D01*
X190611138Y-106940714D01*
X190637406Y-106811000D01*
X190637406Y-106426500D01*
X194414000Y-106426500D01*
X194563438Y-106396775D01*
X194690125Y-106312125D01*
X202206125Y-98796125D01*
X202290775Y-98669438D01*
X202320500Y-98520000D01*
X202320500Y-97388383D01*
X202380418Y-97376465D01*
X202762265Y-97121324D01*
X203017406Y-96739477D01*
X203037001Y-96640965D01*
X203274817Y-97147358D01*
X203703076Y-97537645D01*
X204113110Y-97707476D01*
X204343000Y-97586155D01*
X204343000Y-96393000D01*
X204323000Y-96393000D01*
X204323000Y-96139000D01*
X204343000Y-96139000D01*
X204343000Y-96127000D01*
X204597000Y-96127000D01*
X204597000Y-96139000D01*
X204617000Y-96139000D01*
X204617000Y-96393000D01*
X204597000Y-96393000D01*
X204597000Y-97586155D01*
X204826890Y-97707476D01*
X205236924Y-97537645D01*
X205665183Y-97147358D01*
X205826594Y-96803657D01*
X205826594Y-97116000D01*
X205849395Y-97237179D01*
X205921012Y-97348474D01*
X206030286Y-97423138D01*
X206160000Y-97449406D01*
X206583000Y-97449406D01*
X206583000Y-99393131D01*
X193104339Y-112871791D01*
X190299945Y-112873000D01*
X190250539Y-112883027D01*
X190208927Y-112911486D01*
X190181666Y-112953892D01*
X190173000Y-113000000D01*
X190173000Y-114173000D01*
X189137406Y-114173000D01*
X189137406Y-112761000D01*
X189114605Y-112639821D01*
X189042988Y-112528526D01*
X188933714Y-112453862D01*
X188804000Y-112427594D01*
X188504000Y-112427594D01*
X188400327Y-112447101D01*
X188304000Y-112427594D01*
X188004000Y-112427594D01*
X187900327Y-112447101D01*
X187804000Y-112427594D01*
X187504000Y-112427594D01*
X187400327Y-112447101D01*
X187304000Y-112427594D01*
X187004000Y-112427594D01*
X186900327Y-112447101D01*
X186804000Y-112427594D01*
X186504000Y-112427594D01*
X186400327Y-112447101D01*
X186304000Y-112427594D01*
X186004000Y-112427594D01*
X185900327Y-112447101D01*
X185804000Y-112427594D01*
X185504000Y-112427594D01*
X185400327Y-112447101D01*
X185304000Y-112427594D01*
X185004000Y-112427594D01*
X184900327Y-112447101D01*
X184804000Y-112427594D01*
X184504000Y-112427594D01*
X184400327Y-112447101D01*
X184304000Y-112427594D01*
X184004000Y-112427594D01*
X183900327Y-112447101D01*
X183804000Y-112427594D01*
X183504000Y-112427594D01*
X183400327Y-112447101D01*
X183304000Y-112427594D01*
X183004000Y-112427594D01*
X182900327Y-112447101D01*
X182804000Y-112427594D01*
X182504000Y-112427594D01*
X182400327Y-112447101D01*
X182304000Y-112427594D01*
X182004000Y-112427594D01*
X181900327Y-112447101D01*
X181857724Y-112438473D01*
X181842327Y-112401302D01*
X181663699Y-112222673D01*
X181430310Y-112126000D01*
X181387750Y-112126000D01*
X181229000Y-112284750D01*
X181229000Y-112584251D01*
X181196862Y-112631286D01*
X181170594Y-112761000D01*
X181170594Y-112873000D01*
X181137406Y-112873000D01*
X181137406Y-112761000D01*
X181114605Y-112639821D01*
X181079000Y-112584490D01*
X181079000Y-112284750D01*
X180920250Y-112126000D01*
X180877690Y-112126000D01*
X180654000Y-112218656D01*
X180430310Y-112126000D01*
X180387750Y-112126000D01*
X180229000Y-112284750D01*
X180229000Y-112584251D01*
X180196862Y-112631286D01*
X180170594Y-112761000D01*
X180170594Y-112873000D01*
X180137406Y-112873000D01*
X180137406Y-112761000D01*
X180114605Y-112639821D01*
X180079000Y-112584490D01*
X180079000Y-112284750D01*
X179920250Y-112126000D01*
X179877690Y-112126000D01*
X179654000Y-112218656D01*
X179430310Y-112126000D01*
X179387750Y-112126000D01*
X179229000Y-112284750D01*
X179229000Y-112584251D01*
X179196862Y-112631286D01*
X179170594Y-112761000D01*
X179170594Y-112873000D01*
X179137406Y-112873000D01*
X179137406Y-112761000D01*
X179114605Y-112639821D01*
X179079000Y-112584490D01*
X179079000Y-112284750D01*
X178920250Y-112126000D01*
X178877690Y-112126000D01*
X178644301Y-112222673D01*
X178465673Y-112401302D01*
X178450622Y-112437638D01*
X178382821Y-112450395D01*
X178347692Y-112473000D01*
X177410000Y-112473000D01*
X177410000Y-112285750D01*
X177251250Y-112127000D01*
X176527000Y-112127000D01*
X176527000Y-112147000D01*
X176273000Y-112147000D01*
X176273000Y-112127000D01*
X175548750Y-112127000D01*
X175390000Y-112285750D01*
X175390000Y-112473000D01*
X175199250Y-112473000D01*
X175126250Y-112400000D01*
X174477000Y-112400000D01*
X174477000Y-112447000D01*
X174223000Y-112447000D01*
X174223000Y-112400000D01*
X173573750Y-112400000D01*
X173500750Y-112473000D01*
X169885000Y-112473000D01*
X169885000Y-111973691D01*
X173415000Y-111973691D01*
X173415000Y-112041250D01*
X173573750Y-112200000D01*
X174223000Y-112200000D01*
X174223000Y-111623750D01*
X174477000Y-111623750D01*
X174477000Y-112200000D01*
X175126250Y-112200000D01*
X175285000Y-112041250D01*
X175285000Y-111973691D01*
X175188327Y-111740302D01*
X175009699Y-111561673D01*
X174797292Y-111473691D01*
X175390000Y-111473691D01*
X175390000Y-111714250D01*
X175548750Y-111873000D01*
X176273000Y-111873000D01*
X176273000Y-111123750D01*
X176527000Y-111123750D01*
X176527000Y-111873000D01*
X177251250Y-111873000D01*
X177410000Y-111714250D01*
X177410000Y-111473691D01*
X177313327Y-111240302D01*
X177134699Y-111061673D01*
X176901310Y-110965000D01*
X176685750Y-110965000D01*
X176527000Y-111123750D01*
X176273000Y-111123750D01*
X176114250Y-110965000D01*
X175898690Y-110965000D01*
X175665301Y-111061673D01*
X175486673Y-111240302D01*
X175390000Y-111473691D01*
X174797292Y-111473691D01*
X174776310Y-111465000D01*
X174635750Y-111465000D01*
X174477000Y-111623750D01*
X174223000Y-111623750D01*
X174064250Y-111465000D01*
X173923690Y-111465000D01*
X173690301Y-111561673D01*
X173511673Y-111740302D01*
X173415000Y-111973691D01*
X169885000Y-111973691D01*
X169885000Y-110935750D01*
X169726250Y-110777000D01*
X168577000Y-110777000D01*
X168577000Y-110797000D01*
X168323000Y-110797000D01*
X168323000Y-110777000D01*
X167173750Y-110777000D01*
X167015000Y-110935750D01*
X167015000Y-112473000D01*
X158000000Y-112473000D01*
X157881149Y-112495363D01*
X157771992Y-112565604D01*
X157698763Y-112672779D01*
X157673000Y-112800000D01*
X157673000Y-117000000D01*
X157695363Y-117118851D01*
X157765604Y-117228008D01*
X157872779Y-117301237D01*
X157873000Y-117301282D01*
X157873000Y-117700000D01*
X157883006Y-117749410D01*
X157911447Y-117791035D01*
X157953841Y-117818315D01*
X158000000Y-117827000D01*
X160647394Y-117827000D01*
X161873000Y-119052606D01*
X161873000Y-120916594D01*
X161450000Y-120916594D01*
X161328821Y-120939395D01*
X161217526Y-121011012D01*
X161142862Y-121120286D01*
X161116594Y-121250000D01*
X161116594Y-121750000D01*
X161139395Y-121871179D01*
X161211012Y-121982474D01*
X161320286Y-122057138D01*
X161450000Y-122083406D01*
X161873000Y-122083406D01*
X161873000Y-122416594D01*
X161450000Y-122416594D01*
X161328821Y-122439395D01*
X161217526Y-122511012D01*
X161142862Y-122620286D01*
X161116594Y-122750000D01*
X161116594Y-123250000D01*
X161139395Y-123371179D01*
X161211012Y-123482474D01*
X161320286Y-123557138D01*
X161423000Y-123577938D01*
X161423000Y-123655000D01*
X161115750Y-123655000D01*
X160957000Y-123813750D01*
X160957000Y-124468000D01*
X160977000Y-124468000D01*
X160977000Y-124722000D01*
X160957000Y-124722000D01*
X160957000Y-125738000D01*
X160977000Y-125738000D01*
X160977000Y-125992000D01*
X160957000Y-125992000D01*
X160957000Y-127008000D01*
X160977000Y-127008000D01*
X160977000Y-127262000D01*
X160957000Y-127262000D01*
X160957000Y-127282000D01*
X160703000Y-127282000D01*
X160703000Y-127262000D01*
X159718750Y-127262000D01*
X159560000Y-127420750D01*
X159560000Y-127566309D01*
X159656673Y-127799698D01*
X159835301Y-127978327D01*
X159882292Y-127997791D01*
X159861594Y-128100000D01*
X159861594Y-128710000D01*
X159884395Y-128831179D01*
X159956012Y-128942474D01*
X160065286Y-129017138D01*
X160195000Y-129043406D01*
X161423000Y-129043406D01*
X161423000Y-129155000D01*
X161115750Y-129155000D01*
X160957000Y-129313750D01*
X160957000Y-129968000D01*
X160977000Y-129968000D01*
X160977000Y-130222000D01*
X160957000Y-130222000D01*
X160957000Y-131238000D01*
X160977000Y-131238000D01*
X160977000Y-131492000D01*
X160957000Y-131492000D01*
X160957000Y-132508000D01*
X160977000Y-132508000D01*
X160977000Y-132762000D01*
X160957000Y-132762000D01*
X160957000Y-132782000D01*
X160703000Y-132782000D01*
X160703000Y-132762000D01*
X159718750Y-132762000D01*
X159560000Y-132920750D01*
X159560000Y-133066309D01*
X159656673Y-133299698D01*
X159835301Y-133478327D01*
X159882292Y-133497791D01*
X159861594Y-133600000D01*
X159861594Y-134210000D01*
X159884395Y-134331179D01*
X159956012Y-134442474D01*
X160065286Y-134517138D01*
X160195000Y-134543406D01*
X161465000Y-134543406D01*
X161586179Y-134520605D01*
X161697474Y-134448988D01*
X161772138Y-134339714D01*
X161798406Y-134210000D01*
X161798406Y-133941174D01*
X161873000Y-133866580D01*
X161873000Y-134947394D01*
X160947394Y-135873000D01*
X155402000Y-135873000D01*
X155402000Y-131650750D01*
X159560000Y-131650750D01*
X159560000Y-131796309D01*
X159644372Y-132000000D01*
X159560000Y-132203691D01*
X159560000Y-132349250D01*
X159718750Y-132508000D01*
X160703000Y-132508000D01*
X160703000Y-131492000D01*
X159718750Y-131492000D01*
X159560000Y-131650750D01*
X155402000Y-131650750D01*
X155402000Y-130380750D01*
X159560000Y-130380750D01*
X159560000Y-130526309D01*
X159644372Y-130730000D01*
X159560000Y-130933691D01*
X159560000Y-131079250D01*
X159718750Y-131238000D01*
X160703000Y-131238000D01*
X160703000Y-130222000D01*
X159718750Y-130222000D01*
X159560000Y-130380750D01*
X155402000Y-130380750D01*
X155402000Y-129663691D01*
X159560000Y-129663691D01*
X159560000Y-129809250D01*
X159718750Y-129968000D01*
X160703000Y-129968000D01*
X160703000Y-129313750D01*
X160544250Y-129155000D01*
X160068690Y-129155000D01*
X159835301Y-129251673D01*
X159656673Y-129430302D01*
X159560000Y-129663691D01*
X155402000Y-129663691D01*
X155402000Y-126150750D01*
X159560000Y-126150750D01*
X159560000Y-126296309D01*
X159644372Y-126500000D01*
X159560000Y-126703691D01*
X159560000Y-126849250D01*
X159718750Y-127008000D01*
X160703000Y-127008000D01*
X160703000Y-125992000D01*
X159718750Y-125992000D01*
X159560000Y-126150750D01*
X155402000Y-126150750D01*
X155402000Y-124880750D01*
X159560000Y-124880750D01*
X159560000Y-125026309D01*
X159644372Y-125230000D01*
X159560000Y-125433691D01*
X159560000Y-125579250D01*
X159718750Y-125738000D01*
X160703000Y-125738000D01*
X160703000Y-124722000D01*
X159718750Y-124722000D01*
X159560000Y-124880750D01*
X155402000Y-124880750D01*
X155402000Y-124163691D01*
X159560000Y-124163691D01*
X159560000Y-124309250D01*
X159718750Y-124468000D01*
X160703000Y-124468000D01*
X160703000Y-123813750D01*
X160544250Y-123655000D01*
X160068690Y-123655000D01*
X159835301Y-123751673D01*
X159656673Y-123930302D01*
X159560000Y-124163691D01*
X155402000Y-124163691D01*
X155402000Y-108773691D01*
X167015000Y-108773691D01*
X167015000Y-110364250D01*
X167173750Y-110523000D01*
X168323000Y-110523000D01*
X168323000Y-108423750D01*
X168577000Y-108423750D01*
X168577000Y-110523000D01*
X169726250Y-110523000D01*
X169885000Y-110364250D01*
X169885000Y-110071750D01*
X181559000Y-110071750D01*
X181559000Y-111652309D01*
X181655673Y-111885698D01*
X181834301Y-112064327D01*
X182067690Y-112161000D01*
X184118250Y-112161000D01*
X184277000Y-112002250D01*
X184277000Y-109913000D01*
X184531000Y-109913000D01*
X184531000Y-112002250D01*
X184689750Y-112161000D01*
X186740310Y-112161000D01*
X186973699Y-112064327D01*
X187152327Y-111885698D01*
X187249000Y-111652309D01*
X187249000Y-110071750D01*
X187090250Y-109913000D01*
X184531000Y-109913000D01*
X184277000Y-109913000D01*
X181717750Y-109913000D01*
X181559000Y-110071750D01*
X169885000Y-110071750D01*
X169885000Y-108773691D01*
X169788327Y-108540302D01*
X169609699Y-108361673D01*
X169376310Y-108265000D01*
X168735750Y-108265000D01*
X168577000Y-108423750D01*
X168323000Y-108423750D01*
X168164250Y-108265000D01*
X167523690Y-108265000D01*
X167290301Y-108361673D01*
X167111673Y-108540302D01*
X167015000Y-108773691D01*
X155402000Y-108773691D01*
X155402000Y-107385750D01*
X175290000Y-107385750D01*
X175290000Y-107626309D01*
X175386673Y-107859698D01*
X175565301Y-108038327D01*
X175798690Y-108135000D01*
X176014250Y-108135000D01*
X176173000Y-107976250D01*
X176173000Y-107227000D01*
X176427000Y-107227000D01*
X176427000Y-107976250D01*
X176585750Y-108135000D01*
X176801310Y-108135000D01*
X177034699Y-108038327D01*
X177153334Y-107919691D01*
X181559000Y-107919691D01*
X181559000Y-109500250D01*
X181717750Y-109659000D01*
X184277000Y-109659000D01*
X184277000Y-107569750D01*
X184531000Y-107569750D01*
X184531000Y-109659000D01*
X187090250Y-109659000D01*
X187249000Y-109500250D01*
X187249000Y-107919691D01*
X187152327Y-107686302D01*
X186973699Y-107507673D01*
X186740310Y-107411000D01*
X184689750Y-107411000D01*
X184531000Y-107569750D01*
X184277000Y-107569750D01*
X184118250Y-107411000D01*
X182067690Y-107411000D01*
X181834301Y-107507673D01*
X181655673Y-107686302D01*
X181559000Y-107919691D01*
X177153334Y-107919691D01*
X177213327Y-107859698D01*
X177310000Y-107626309D01*
X177310000Y-107385750D01*
X177151250Y-107227000D01*
X176427000Y-107227000D01*
X176173000Y-107227000D01*
X175448750Y-107227000D01*
X175290000Y-107385750D01*
X155402000Y-107385750D01*
X155402000Y-105700750D01*
X166113000Y-105700750D01*
X166113000Y-105768309D01*
X166209673Y-106001698D01*
X166388301Y-106180327D01*
X166621690Y-106277000D01*
X166762250Y-106277000D01*
X166921000Y-106118250D01*
X166921000Y-105542000D01*
X166271750Y-105542000D01*
X166113000Y-105700750D01*
X155402000Y-105700750D01*
X155402000Y-100039595D01*
X155759278Y-98243435D01*
X156754292Y-96754292D01*
X157693101Y-96127000D01*
X160136062Y-96127000D01*
X160113000Y-96242941D01*
X160113000Y-96242941D01*
G37*
X160113000Y-96242941D02*
X160113000Y-96289059D01*
X160202594Y-96739477D01*
X160457735Y-97121324D01*
X160839582Y-97376465D01*
X161290000Y-97466059D01*
X161740418Y-97376465D01*
X161805038Y-97333288D01*
X167957500Y-103485750D01*
X167957500Y-104025622D01*
X167926821Y-104031395D01*
X167815526Y-104103012D01*
X167782395Y-104151500D01*
X167613998Y-104151500D01*
X167586988Y-104109526D01*
X167477714Y-104034862D01*
X167348000Y-104008594D01*
X166748000Y-104008594D01*
X166626821Y-104031395D01*
X166515526Y-104103012D01*
X166440862Y-104212286D01*
X166414594Y-104342000D01*
X166414594Y-104692782D01*
X166388301Y-104703673D01*
X166209673Y-104882302D01*
X166113000Y-105115691D01*
X166113000Y-105183250D01*
X166271750Y-105342000D01*
X166921000Y-105342000D01*
X166921000Y-105295000D01*
X167175000Y-105295000D01*
X167175000Y-105342000D01*
X167195000Y-105342000D01*
X167195000Y-105542000D01*
X167175000Y-105542000D01*
X167175000Y-106118250D01*
X167333750Y-106277000D01*
X167474310Y-106277000D01*
X167707699Y-106180327D01*
X167886327Y-106001698D01*
X167910345Y-105943712D01*
X167918286Y-105949138D01*
X168048000Y-105975406D01*
X168123156Y-105975406D01*
X168877885Y-106730135D01*
X169004572Y-106814785D01*
X169154010Y-106844510D01*
X172105214Y-106844510D01*
X172254652Y-106814785D01*
X172381339Y-106730135D01*
X173904485Y-105206989D01*
X175591594Y-105206989D01*
X175591594Y-106000000D01*
X175614395Y-106121179D01*
X175624637Y-106137095D01*
X175565301Y-106161673D01*
X175386673Y-106340302D01*
X175290000Y-106573691D01*
X175290000Y-106814250D01*
X175448750Y-106973000D01*
X176173000Y-106973000D01*
X176173000Y-106953000D01*
X176427000Y-106953000D01*
X176427000Y-106973000D01*
X177151250Y-106973000D01*
X177310000Y-106814250D01*
X177310000Y-106573691D01*
X177213327Y-106340302D01*
X177194776Y-106321750D01*
X177869000Y-106321750D01*
X177869000Y-106937309D01*
X177965673Y-107170698D01*
X178144301Y-107349327D01*
X178377690Y-107446000D01*
X178420250Y-107446000D01*
X178579000Y-107287250D01*
X178579000Y-106163000D01*
X178027750Y-106163000D01*
X177869000Y-106321750D01*
X177194776Y-106321750D01*
X177034699Y-106161673D01*
X176976713Y-106137654D01*
X176982138Y-106129714D01*
X177008406Y-106000000D01*
X177008406Y-105460999D01*
X177869000Y-105460999D01*
X177869000Y-105750250D01*
X178027750Y-105909000D01*
X178579000Y-105909000D01*
X178579000Y-105889000D01*
X178670594Y-105889000D01*
X178670594Y-106811000D01*
X178693395Y-106932179D01*
X178729000Y-106987510D01*
X178729000Y-107287250D01*
X178887750Y-107446000D01*
X178930310Y-107446000D01*
X179163699Y-107349327D01*
X179342327Y-107170698D01*
X179357378Y-107134362D01*
X179407673Y-107124899D01*
X179504000Y-107144406D01*
X179804000Y-107144406D01*
X179907673Y-107124899D01*
X180004000Y-107144406D01*
X180304000Y-107144406D01*
X180407673Y-107124899D01*
X180504000Y-107144406D01*
X180804000Y-107144406D01*
X180907673Y-107124899D01*
X181004000Y-107144406D01*
X181304000Y-107144406D01*
X181407673Y-107124899D01*
X181504000Y-107144406D01*
X181804000Y-107144406D01*
X181907673Y-107124899D01*
X182004000Y-107144406D01*
X182304000Y-107144406D01*
X182407673Y-107124899D01*
X182504000Y-107144406D01*
X182804000Y-107144406D01*
X182907673Y-107124899D01*
X183004000Y-107144406D01*
X183304000Y-107144406D01*
X183407673Y-107124899D01*
X183504000Y-107144406D01*
X183804000Y-107144406D01*
X183907673Y-107124899D01*
X184004000Y-107144406D01*
X184304000Y-107144406D01*
X184407673Y-107124899D01*
X184504000Y-107144406D01*
X184804000Y-107144406D01*
X184907673Y-107124899D01*
X185004000Y-107144406D01*
X185304000Y-107144406D01*
X185407673Y-107124899D01*
X185504000Y-107144406D01*
X185804000Y-107144406D01*
X185907673Y-107124899D01*
X186004000Y-107144406D01*
X186304000Y-107144406D01*
X186407673Y-107124899D01*
X186504000Y-107144406D01*
X186804000Y-107144406D01*
X186907673Y-107124899D01*
X187004000Y-107144406D01*
X187304000Y-107144406D01*
X187407673Y-107124899D01*
X187504000Y-107144406D01*
X187804000Y-107144406D01*
X187907673Y-107124899D01*
X188004000Y-107144406D01*
X188304000Y-107144406D01*
X188407673Y-107124899D01*
X188504000Y-107144406D01*
X188804000Y-107144406D01*
X188907673Y-107124899D01*
X189004000Y-107144406D01*
X189304000Y-107144406D01*
X189407673Y-107124899D01*
X189504000Y-107144406D01*
X189804000Y-107144406D01*
X189907673Y-107124899D01*
X190004000Y-107144406D01*
X190304000Y-107144406D01*
X190425179Y-107121605D01*
X190536474Y-107049988D01*
X190611138Y-106940714D01*
X190637406Y-106811000D01*
X190637406Y-106426500D01*
X194414000Y-106426500D01*
X194563438Y-106396775D01*
X194690125Y-106312125D01*
X202206125Y-98796125D01*
X202290775Y-98669438D01*
X202320500Y-98520000D01*
X202320500Y-97388383D01*
X202380418Y-97376465D01*
X202762265Y-97121324D01*
X203017406Y-96739477D01*
X203037001Y-96640965D01*
X203274817Y-97147358D01*
X203703076Y-97537645D01*
X204113110Y-97707476D01*
X204343000Y-97586155D01*
X204343000Y-96393000D01*
X204323000Y-96393000D01*
X204323000Y-96139000D01*
X204343000Y-96139000D01*
X204343000Y-96127000D01*
X204597000Y-96127000D01*
X204597000Y-96139000D01*
X204617000Y-96139000D01*
X204617000Y-96393000D01*
X204597000Y-96393000D01*
X204597000Y-97586155D01*
X204826890Y-97707476D01*
X205236924Y-97537645D01*
X205665183Y-97147358D01*
X205826594Y-96803657D01*
X205826594Y-97116000D01*
X205849395Y-97237179D01*
X205921012Y-97348474D01*
X206030286Y-97423138D01*
X206160000Y-97449406D01*
X206583000Y-97449406D01*
X206583000Y-99393131D01*
X193104339Y-112871791D01*
X190299945Y-112873000D01*
X190250539Y-112883027D01*
X190208927Y-112911486D01*
X190181666Y-112953892D01*
X190173000Y-113000000D01*
X190173000Y-114173000D01*
X189137406Y-114173000D01*
X189137406Y-112761000D01*
X189114605Y-112639821D01*
X189042988Y-112528526D01*
X188933714Y-112453862D01*
X188804000Y-112427594D01*
X188504000Y-112427594D01*
X188400327Y-112447101D01*
X188304000Y-112427594D01*
X188004000Y-112427594D01*
X187900327Y-112447101D01*
X187804000Y-112427594D01*
X187504000Y-112427594D01*
X187400327Y-112447101D01*
X187304000Y-112427594D01*
X187004000Y-112427594D01*
X186900327Y-112447101D01*
X186804000Y-112427594D01*
X186504000Y-112427594D01*
X186400327Y-112447101D01*
X186304000Y-112427594D01*
X186004000Y-112427594D01*
X185900327Y-112447101D01*
X185804000Y-112427594D01*
X185504000Y-112427594D01*
X185400327Y-112447101D01*
X185304000Y-112427594D01*
X185004000Y-112427594D01*
X184900327Y-112447101D01*
X184804000Y-112427594D01*
X184504000Y-112427594D01*
X184400327Y-112447101D01*
X184304000Y-112427594D01*
X184004000Y-112427594D01*
X183900327Y-112447101D01*
X183804000Y-112427594D01*
X183504000Y-112427594D01*
X183400327Y-112447101D01*
X183304000Y-112427594D01*
X183004000Y-112427594D01*
X182900327Y-112447101D01*
X182804000Y-112427594D01*
X182504000Y-112427594D01*
X182400327Y-112447101D01*
X182304000Y-112427594D01*
X182004000Y-112427594D01*
X181900327Y-112447101D01*
X181857724Y-112438473D01*
X181842327Y-112401302D01*
X181663699Y-112222673D01*
X181430310Y-112126000D01*
X181387750Y-112126000D01*
X181229000Y-112284750D01*
X181229000Y-112584251D01*
X181196862Y-112631286D01*
X181170594Y-112761000D01*
X181170594Y-112873000D01*
X181137406Y-112873000D01*
X181137406Y-112761000D01*
X181114605Y-112639821D01*
X181079000Y-112584490D01*
X181079000Y-112284750D01*
X180920250Y-112126000D01*
X180877690Y-112126000D01*
X180654000Y-112218656D01*
X180430310Y-112126000D01*
X180387750Y-112126000D01*
X180229000Y-112284750D01*
X180229000Y-112584251D01*
X180196862Y-112631286D01*
X180170594Y-112761000D01*
X180170594Y-112873000D01*
X180137406Y-112873000D01*
X180137406Y-112761000D01*
X180114605Y-112639821D01*
X180079000Y-112584490D01*
X180079000Y-112284750D01*
X179920250Y-112126000D01*
X179877690Y-112126000D01*
X179654000Y-112218656D01*
X179430310Y-112126000D01*
X179387750Y-112126000D01*
X179229000Y-112284750D01*
X179229000Y-112584251D01*
X179196862Y-112631286D01*
X179170594Y-112761000D01*
X179170594Y-112873000D01*
X179137406Y-112873000D01*
X179137406Y-112761000D01*
X179114605Y-112639821D01*
X179079000Y-112584490D01*
X179079000Y-112284750D01*
X178920250Y-112126000D01*
X178877690Y-112126000D01*
X178644301Y-112222673D01*
X178465673Y-112401302D01*
X178450622Y-112437638D01*
X178382821Y-112450395D01*
X178347692Y-112473000D01*
X177410000Y-112473000D01*
X177410000Y-112285750D01*
X177251250Y-112127000D01*
X176527000Y-112127000D01*
X176527000Y-112147000D01*
X176273000Y-112147000D01*
X176273000Y-112127000D01*
X175548750Y-112127000D01*
X175390000Y-112285750D01*
X175390000Y-112473000D01*
X175199250Y-112473000D01*
X175126250Y-112400000D01*
X174477000Y-112400000D01*
X174477000Y-112447000D01*
X174223000Y-112447000D01*
X174223000Y-112400000D01*
X173573750Y-112400000D01*
X173500750Y-112473000D01*
X169885000Y-112473000D01*
X169885000Y-111973691D01*
X173415000Y-111973691D01*
X173415000Y-112041250D01*
X173573750Y-112200000D01*
X174223000Y-112200000D01*
X174223000Y-111623750D01*
X174477000Y-111623750D01*
X174477000Y-112200000D01*
X175126250Y-112200000D01*
X175285000Y-112041250D01*
X175285000Y-111973691D01*
X175188327Y-111740302D01*
X175009699Y-111561673D01*
X174797292Y-111473691D01*
X175390000Y-111473691D01*
X175390000Y-111714250D01*
X175548750Y-111873000D01*
X176273000Y-111873000D01*
X176273000Y-111123750D01*
X176527000Y-111123750D01*
X176527000Y-111873000D01*
X177251250Y-111873000D01*
X177410000Y-111714250D01*
X177410000Y-111473691D01*
X177313327Y-111240302D01*
X177134699Y-111061673D01*
X176901310Y-110965000D01*
X176685750Y-110965000D01*
X176527000Y-111123750D01*
X176273000Y-111123750D01*
X176114250Y-110965000D01*
X175898690Y-110965000D01*
X175665301Y-111061673D01*
X175486673Y-111240302D01*
X175390000Y-111473691D01*
X174797292Y-111473691D01*
X174776310Y-111465000D01*
X174635750Y-111465000D01*
X174477000Y-111623750D01*
X174223000Y-111623750D01*
X174064250Y-111465000D01*
X173923690Y-111465000D01*
X173690301Y-111561673D01*
X173511673Y-111740302D01*
X173415000Y-111973691D01*
X169885000Y-111973691D01*
X169885000Y-110935750D01*
X169726250Y-110777000D01*
X168577000Y-110777000D01*
X168577000Y-110797000D01*
X168323000Y-110797000D01*
X168323000Y-110777000D01*
X167173750Y-110777000D01*
X167015000Y-110935750D01*
X167015000Y-112473000D01*
X158000000Y-112473000D01*
X157881149Y-112495363D01*
X157771992Y-112565604D01*
X157698763Y-112672779D01*
X157673000Y-112800000D01*
X157673000Y-117000000D01*
X157695363Y-117118851D01*
X157765604Y-117228008D01*
X157872779Y-117301237D01*
X157873000Y-117301282D01*
X157873000Y-117700000D01*
X157883006Y-117749410D01*
X157911447Y-117791035D01*
X157953841Y-117818315D01*
X158000000Y-117827000D01*
X160647394Y-117827000D01*
X161873000Y-119052606D01*
X161873000Y-120916594D01*
X161450000Y-120916594D01*
X161328821Y-120939395D01*
X161217526Y-121011012D01*
X161142862Y-121120286D01*
X161116594Y-121250000D01*
X161116594Y-121750000D01*
X161139395Y-121871179D01*
X161211012Y-121982474D01*
X161320286Y-122057138D01*
X161450000Y-122083406D01*
X161873000Y-122083406D01*
X161873000Y-122416594D01*
X161450000Y-122416594D01*
X161328821Y-122439395D01*
X161217526Y-122511012D01*
X161142862Y-122620286D01*
X161116594Y-122750000D01*
X161116594Y-123250000D01*
X161139395Y-123371179D01*
X161211012Y-123482474D01*
X161320286Y-123557138D01*
X161423000Y-123577938D01*
X161423000Y-123655000D01*
X161115750Y-123655000D01*
X160957000Y-123813750D01*
X160957000Y-124468000D01*
X160977000Y-124468000D01*
X160977000Y-124722000D01*
X160957000Y-124722000D01*
X160957000Y-125738000D01*
X160977000Y-125738000D01*
X160977000Y-125992000D01*
X160957000Y-125992000D01*
X160957000Y-127008000D01*
X160977000Y-127008000D01*
X160977000Y-127262000D01*
X160957000Y-127262000D01*
X160957000Y-127282000D01*
X160703000Y-127282000D01*
X160703000Y-127262000D01*
X159718750Y-127262000D01*
X159560000Y-127420750D01*
X159560000Y-127566309D01*
X159656673Y-127799698D01*
X159835301Y-127978327D01*
X159882292Y-127997791D01*
X159861594Y-128100000D01*
X159861594Y-128710000D01*
X159884395Y-128831179D01*
X159956012Y-128942474D01*
X160065286Y-129017138D01*
X160195000Y-129043406D01*
X161423000Y-129043406D01*
X161423000Y-129155000D01*
X161115750Y-129155000D01*
X160957000Y-129313750D01*
X160957000Y-129968000D01*
X160977000Y-129968000D01*
X160977000Y-130222000D01*
X160957000Y-130222000D01*
X160957000Y-131238000D01*
X160977000Y-131238000D01*
X160977000Y-131492000D01*
X160957000Y-131492000D01*
X160957000Y-132508000D01*
X160977000Y-132508000D01*
X160977000Y-132762000D01*
X160957000Y-132762000D01*
X160957000Y-132782000D01*
X160703000Y-132782000D01*
X160703000Y-132762000D01*
X159718750Y-132762000D01*
X159560000Y-132920750D01*
X159560000Y-133066309D01*
X159656673Y-133299698D01*
X159835301Y-133478327D01*
X159882292Y-133497791D01*
X159861594Y-133600000D01*
X159861594Y-134210000D01*
X159884395Y-134331179D01*
X159956012Y-134442474D01*
X160065286Y-134517138D01*
X160195000Y-134543406D01*
X161465000Y-134543406D01*
X161586179Y-134520605D01*
X161697474Y-134448988D01*
X161772138Y-134339714D01*
X161798406Y-134210000D01*
X161798406Y-133941174D01*
X161873000Y-133866580D01*
X161873000Y-134947394D01*
X160947394Y-135873000D01*
X155402000Y-135873000D01*
X155402000Y-131650750D01*
X159560000Y-131650750D01*
X159560000Y-131796309D01*
X159644372Y-132000000D01*
X159560000Y-132203691D01*
X159560000Y-132349250D01*
X159718750Y-132508000D01*
X160703000Y-132508000D01*
X160703000Y-131492000D01*
X159718750Y-131492000D01*
X159560000Y-131650750D01*
X155402000Y-131650750D01*
X155402000Y-130380750D01*
X159560000Y-130380750D01*
X159560000Y-130526309D01*
X159644372Y-130730000D01*
X159560000Y-130933691D01*
X159560000Y-131079250D01*
X159718750Y-131238000D01*
X160703000Y-131238000D01*
X160703000Y-130222000D01*
X159718750Y-130222000D01*
X159560000Y-130380750D01*
X155402000Y-130380750D01*
X155402000Y-129663691D01*
X159560000Y-129663691D01*
X159560000Y-129809250D01*
X159718750Y-129968000D01*
X160703000Y-129968000D01*
X160703000Y-129313750D01*
X160544250Y-129155000D01*
X160068690Y-129155000D01*
X159835301Y-129251673D01*
X159656673Y-129430302D01*
X159560000Y-129663691D01*
X155402000Y-129663691D01*
X155402000Y-126150750D01*
X159560000Y-126150750D01*
X159560000Y-126296309D01*
X159644372Y-126500000D01*
X159560000Y-126703691D01*
X159560000Y-126849250D01*
X159718750Y-127008000D01*
X160703000Y-127008000D01*
X160703000Y-125992000D01*
X159718750Y-125992000D01*
X159560000Y-126150750D01*
X155402000Y-126150750D01*
X155402000Y-124880750D01*
X159560000Y-124880750D01*
X159560000Y-125026309D01*
X159644372Y-125230000D01*
X159560000Y-125433691D01*
X159560000Y-125579250D01*
X159718750Y-125738000D01*
X160703000Y-125738000D01*
X160703000Y-124722000D01*
X159718750Y-124722000D01*
X159560000Y-124880750D01*
X155402000Y-124880750D01*
X155402000Y-124163691D01*
X159560000Y-124163691D01*
X159560000Y-124309250D01*
X159718750Y-124468000D01*
X160703000Y-124468000D01*
X160703000Y-123813750D01*
X160544250Y-123655000D01*
X160068690Y-123655000D01*
X159835301Y-123751673D01*
X159656673Y-123930302D01*
X159560000Y-124163691D01*
X155402000Y-124163691D01*
X155402000Y-108773691D01*
X167015000Y-108773691D01*
X167015000Y-110364250D01*
X167173750Y-110523000D01*
X168323000Y-110523000D01*
X168323000Y-108423750D01*
X168577000Y-108423750D01*
X168577000Y-110523000D01*
X169726250Y-110523000D01*
X169885000Y-110364250D01*
X169885000Y-110071750D01*
X181559000Y-110071750D01*
X181559000Y-111652309D01*
X181655673Y-111885698D01*
X181834301Y-112064327D01*
X182067690Y-112161000D01*
X184118250Y-112161000D01*
X184277000Y-112002250D01*
X184277000Y-109913000D01*
X184531000Y-109913000D01*
X184531000Y-112002250D01*
X184689750Y-112161000D01*
X186740310Y-112161000D01*
X186973699Y-112064327D01*
X187152327Y-111885698D01*
X187249000Y-111652309D01*
X187249000Y-110071750D01*
X187090250Y-109913000D01*
X184531000Y-109913000D01*
X184277000Y-109913000D01*
X181717750Y-109913000D01*
X181559000Y-110071750D01*
X169885000Y-110071750D01*
X169885000Y-108773691D01*
X169788327Y-108540302D01*
X169609699Y-108361673D01*
X169376310Y-108265000D01*
X168735750Y-108265000D01*
X168577000Y-108423750D01*
X168323000Y-108423750D01*
X168164250Y-108265000D01*
X167523690Y-108265000D01*
X167290301Y-108361673D01*
X167111673Y-108540302D01*
X167015000Y-108773691D01*
X155402000Y-108773691D01*
X155402000Y-107385750D01*
X175290000Y-107385750D01*
X175290000Y-107626309D01*
X175386673Y-107859698D01*
X175565301Y-108038327D01*
X175798690Y-108135000D01*
X176014250Y-108135000D01*
X176173000Y-107976250D01*
X176173000Y-107227000D01*
X176427000Y-107227000D01*
X176427000Y-107976250D01*
X176585750Y-108135000D01*
X176801310Y-108135000D01*
X177034699Y-108038327D01*
X177153334Y-107919691D01*
X181559000Y-107919691D01*
X181559000Y-109500250D01*
X181717750Y-109659000D01*
X184277000Y-109659000D01*
X184277000Y-107569750D01*
X184531000Y-107569750D01*
X184531000Y-109659000D01*
X187090250Y-109659000D01*
X187249000Y-109500250D01*
X187249000Y-107919691D01*
X187152327Y-107686302D01*
X186973699Y-107507673D01*
X186740310Y-107411000D01*
X184689750Y-107411000D01*
X184531000Y-107569750D01*
X184277000Y-107569750D01*
X184118250Y-107411000D01*
X182067690Y-107411000D01*
X181834301Y-107507673D01*
X181655673Y-107686302D01*
X181559000Y-107919691D01*
X177153334Y-107919691D01*
X177213327Y-107859698D01*
X177310000Y-107626309D01*
X177310000Y-107385750D01*
X177151250Y-107227000D01*
X176427000Y-107227000D01*
X176173000Y-107227000D01*
X175448750Y-107227000D01*
X175290000Y-107385750D01*
X155402000Y-107385750D01*
X155402000Y-105700750D01*
X166113000Y-105700750D01*
X166113000Y-105768309D01*
X166209673Y-106001698D01*
X166388301Y-106180327D01*
X166621690Y-106277000D01*
X166762250Y-106277000D01*
X166921000Y-106118250D01*
X166921000Y-105542000D01*
X166271750Y-105542000D01*
X166113000Y-105700750D01*
X155402000Y-105700750D01*
X155402000Y-100039595D01*
X155759278Y-98243435D01*
X156754292Y-96754292D01*
X157693101Y-96127000D01*
X160136062Y-96127000D01*
X160113000Y-96242941D01*
G36*
X214245708Y-96754292D02*
X214873000Y-97693102D01*
X214873000Y-112862408D01*
X194312599Y-112871270D01*
X196298119Y-110885750D01*
X204265000Y-110885750D01*
X204265000Y-111326309D01*
X204361673Y-111559698D01*
X204540301Y-111738327D01*
X204773690Y-111835000D01*
X205214250Y-111835000D01*
X205373000Y-111676250D01*
X205373000Y-110727000D01*
X205627000Y-110727000D01*
X205627000Y-111676250D01*
X205785750Y-111835000D01*
X206226310Y-111835000D01*
X206459699Y-111738327D01*
X206638327Y-111559698D01*
X206735000Y-111326309D01*
X206735000Y-110885750D01*
X206576250Y-110727000D01*
X205627000Y-110727000D01*
X205373000Y-110727000D01*
X204423750Y-110727000D01*
X204265000Y-110885750D01*
X196298119Y-110885750D01*
X197310178Y-109873691D01*
X204265000Y-109873691D01*
X204265000Y-110314250D01*
X204423750Y-110473000D01*
X205373000Y-110473000D01*
X205373000Y-109523750D01*
X205627000Y-109523750D01*
X205627000Y-110473000D01*
X206576250Y-110473000D01*
X206735000Y-110314250D01*
X206735000Y-109873691D01*
X206638327Y-109640302D01*
X206459699Y-109461673D01*
X206226310Y-109365000D01*
X205785750Y-109365000D01*
X205627000Y-109523750D01*
X205373000Y-109523750D01*
X205214250Y-109365000D01*
X204773690Y-109365000D01*
X204540301Y-109461673D01*
X204361673Y-109640302D01*
X204265000Y-109873691D01*
X197310178Y-109873691D01*
X201083869Y-106100000D01*
X204516594Y-106100000D01*
X204516594Y-106800000D01*
X204539395Y-106921179D01*
X204611012Y-107032474D01*
X204720286Y-107107138D01*
X204850000Y-107133406D01*
X205109500Y-107133406D01*
X205109500Y-107466594D01*
X204900000Y-107466594D01*
X204778821Y-107489395D01*
X204667526Y-107561012D01*
X204592862Y-107670286D01*
X204566594Y-107800000D01*
X204566594Y-109000000D01*
X204589395Y-109121179D01*
X204661012Y-109232474D01*
X204770286Y-109307138D01*
X204900000Y-109333406D01*
X206100000Y-109333406D01*
X206221179Y-109310605D01*
X206332474Y-109238988D01*
X206407138Y-109129714D01*
X206433406Y-109000000D01*
X206433406Y-107800000D01*
X206410605Y-107678821D01*
X206338988Y-107567526D01*
X206229714Y-107492862D01*
X206100000Y-107466594D01*
X205890500Y-107466594D01*
X205890500Y-107133406D01*
X206150000Y-107133406D01*
X206271179Y-107110605D01*
X206382474Y-107038988D01*
X206457138Y-106929714D01*
X206483406Y-106800000D01*
X206483406Y-106100000D01*
X206460605Y-105978821D01*
X206388988Y-105867526D01*
X206279714Y-105792862D01*
X206150000Y-105766594D01*
X204850000Y-105766594D01*
X204728821Y-105789395D01*
X204617526Y-105861012D01*
X204542862Y-105970286D01*
X204516594Y-106100000D01*
X201083869Y-106100000D01*
X206583000Y-100600869D01*
X206583000Y-102313131D01*
X205198065Y-103698065D01*
X205105503Y-103836594D01*
X205099536Y-103866594D01*
X204850000Y-103866594D01*
X204728821Y-103889395D01*
X204617526Y-103961012D01*
X204542862Y-104070286D01*
X204516594Y-104200000D01*
X204516594Y-104900000D01*
X204539395Y-105021179D01*
X204611012Y-105132474D01*
X204720286Y-105207138D01*
X204850000Y-105233406D01*
X206150000Y-105233406D01*
X206271179Y-105210605D01*
X206382474Y-105138988D01*
X206457138Y-105029714D01*
X206483406Y-104900000D01*
X206483406Y-104200000D01*
X206460605Y-104078821D01*
X206388988Y-103967526D01*
X206279714Y-103892862D01*
X206222578Y-103881292D01*
X207311932Y-102791937D01*
X207311935Y-102791935D01*
X207404497Y-102653406D01*
X207437000Y-102490000D01*
X207437000Y-99570005D01*
X207437001Y-99570000D01*
X207437000Y-99569995D01*
X207437000Y-99381622D01*
X210072666Y-99381622D01*
X210365416Y-100090132D01*
X210907017Y-100632678D01*
X211615014Y-100926665D01*
X212381622Y-100927334D01*
X213090132Y-100634584D01*
X213632678Y-100092983D01*
X213926665Y-99384986D01*
X213927334Y-98618378D01*
X213634584Y-97909868D01*
X213092983Y-97367322D01*
X212384986Y-97073335D01*
X211618378Y-97072666D01*
X210909868Y-97365416D01*
X210367322Y-97907017D01*
X210073335Y-98615014D01*
X210072666Y-99381622D01*
X207437000Y-99381622D01*
X207437000Y-97449406D01*
X207860000Y-97449406D01*
X207981179Y-97426605D01*
X208092474Y-97354988D01*
X208167138Y-97245714D01*
X208193406Y-97116000D01*
X208193406Y-96127000D01*
X213306900Y-96127000D01*
X214245708Y-96754292D01*
X214245708Y-96754292D01*
G37*
X214245708Y-96754292D02*
X214873000Y-97693102D01*
X214873000Y-112862408D01*
X194312599Y-112871270D01*
X196298119Y-110885750D01*
X204265000Y-110885750D01*
X204265000Y-111326309D01*
X204361673Y-111559698D01*
X204540301Y-111738327D01*
X204773690Y-111835000D01*
X205214250Y-111835000D01*
X205373000Y-111676250D01*
X205373000Y-110727000D01*
X205627000Y-110727000D01*
X205627000Y-111676250D01*
X205785750Y-111835000D01*
X206226310Y-111835000D01*
X206459699Y-111738327D01*
X206638327Y-111559698D01*
X206735000Y-111326309D01*
X206735000Y-110885750D01*
X206576250Y-110727000D01*
X205627000Y-110727000D01*
X205373000Y-110727000D01*
X204423750Y-110727000D01*
X204265000Y-110885750D01*
X196298119Y-110885750D01*
X197310178Y-109873691D01*
X204265000Y-109873691D01*
X204265000Y-110314250D01*
X204423750Y-110473000D01*
X205373000Y-110473000D01*
X205373000Y-109523750D01*
X205627000Y-109523750D01*
X205627000Y-110473000D01*
X206576250Y-110473000D01*
X206735000Y-110314250D01*
X206735000Y-109873691D01*
X206638327Y-109640302D01*
X206459699Y-109461673D01*
X206226310Y-109365000D01*
X205785750Y-109365000D01*
X205627000Y-109523750D01*
X205373000Y-109523750D01*
X205214250Y-109365000D01*
X204773690Y-109365000D01*
X204540301Y-109461673D01*
X204361673Y-109640302D01*
X204265000Y-109873691D01*
X197310178Y-109873691D01*
X201083869Y-106100000D01*
X204516594Y-106100000D01*
X204516594Y-106800000D01*
X204539395Y-106921179D01*
X204611012Y-107032474D01*
X204720286Y-107107138D01*
X204850000Y-107133406D01*
X205109500Y-107133406D01*
X205109500Y-107466594D01*
X204900000Y-107466594D01*
X204778821Y-107489395D01*
X204667526Y-107561012D01*
X204592862Y-107670286D01*
X204566594Y-107800000D01*
X204566594Y-109000000D01*
X204589395Y-109121179D01*
X204661012Y-109232474D01*
X204770286Y-109307138D01*
X204900000Y-109333406D01*
X206100000Y-109333406D01*
X206221179Y-109310605D01*
X206332474Y-109238988D01*
X206407138Y-109129714D01*
X206433406Y-109000000D01*
X206433406Y-107800000D01*
X206410605Y-107678821D01*
X206338988Y-107567526D01*
X206229714Y-107492862D01*
X206100000Y-107466594D01*
X205890500Y-107466594D01*
X205890500Y-107133406D01*
X206150000Y-107133406D01*
X206271179Y-107110605D01*
X206382474Y-107038988D01*
X206457138Y-106929714D01*
X206483406Y-106800000D01*
X206483406Y-106100000D01*
X206460605Y-105978821D01*
X206388988Y-105867526D01*
X206279714Y-105792862D01*
X206150000Y-105766594D01*
X204850000Y-105766594D01*
X204728821Y-105789395D01*
X204617526Y-105861012D01*
X204542862Y-105970286D01*
X204516594Y-106100000D01*
X201083869Y-106100000D01*
X206583000Y-100600869D01*
X206583000Y-102313131D01*
X205198065Y-103698065D01*
X205105503Y-103836594D01*
X205099536Y-103866594D01*
X204850000Y-103866594D01*
X204728821Y-103889395D01*
X204617526Y-103961012D01*
X204542862Y-104070286D01*
X204516594Y-104200000D01*
X204516594Y-104900000D01*
X204539395Y-105021179D01*
X204611012Y-105132474D01*
X204720286Y-105207138D01*
X204850000Y-105233406D01*
X206150000Y-105233406D01*
X206271179Y-105210605D01*
X206382474Y-105138988D01*
X206457138Y-105029714D01*
X206483406Y-104900000D01*
X206483406Y-104200000D01*
X206460605Y-104078821D01*
X206388988Y-103967526D01*
X206279714Y-103892862D01*
X206222578Y-103881292D01*
X207311932Y-102791937D01*
X207311935Y-102791935D01*
X207404497Y-102653406D01*
X207437000Y-102490000D01*
X207437000Y-99570005D01*
X207437001Y-99570000D01*
X207437000Y-99569995D01*
X207437000Y-99381622D01*
X210072666Y-99381622D01*
X210365416Y-100090132D01*
X210907017Y-100632678D01*
X211615014Y-100926665D01*
X212381622Y-100927334D01*
X213090132Y-100634584D01*
X213632678Y-100092983D01*
X213926665Y-99384986D01*
X213927334Y-98618378D01*
X213634584Y-97909868D01*
X213092983Y-97367322D01*
X212384986Y-97073335D01*
X211618378Y-97072666D01*
X210909868Y-97365416D01*
X210367322Y-97907017D01*
X210073335Y-98615014D01*
X210072666Y-99381622D01*
X207437000Y-99381622D01*
X207437000Y-97449406D01*
X207860000Y-97449406D01*
X207981179Y-97426605D01*
X208092474Y-97354988D01*
X208167138Y-97245714D01*
X208193406Y-97116000D01*
X208193406Y-96127000D01*
X213306900Y-96127000D01*
X214245708Y-96754292D01*
G36*
X165193000Y-96242941D02*
X165193000Y-96289059D01*
X165282594Y-96739477D01*
X165537735Y-97121324D01*
X165919582Y-97376465D01*
X165979500Y-97388383D01*
X165979500Y-97480000D01*
X166009225Y-97629438D01*
X166093875Y-97756125D01*
X172913874Y-104576125D01*
X173008439Y-104639311D01*
X171838250Y-105809500D01*
X171817938Y-105809500D01*
X171835000Y-105768309D01*
X171835000Y-105700750D01*
X171676250Y-105542000D01*
X171027000Y-105542000D01*
X171027000Y-105589000D01*
X170773000Y-105589000D01*
X170773000Y-105542000D01*
X170753000Y-105542000D01*
X170753000Y-105342000D01*
X170773000Y-105342000D01*
X170773000Y-105295000D01*
X171027000Y-105295000D01*
X171027000Y-105342000D01*
X171676250Y-105342000D01*
X171835000Y-105183250D01*
X171835000Y-105115691D01*
X171738327Y-104882302D01*
X171559699Y-104703673D01*
X171533406Y-104692782D01*
X171533406Y-104342000D01*
X171510605Y-104220821D01*
X171438988Y-104109526D01*
X171329714Y-104034862D01*
X171200000Y-104008594D01*
X170600000Y-104008594D01*
X170478821Y-104031395D01*
X170367526Y-104103012D01*
X170334395Y-104151500D01*
X170213998Y-104151500D01*
X170186988Y-104109526D01*
X170077714Y-104034862D01*
X170038500Y-104026921D01*
X170038500Y-102084000D01*
X170008775Y-101934562D01*
X169963360Y-101866594D01*
X169924126Y-101807875D01*
X164892701Y-96776451D01*
X164917406Y-96739477D01*
X165007000Y-96289059D01*
X165007000Y-96242941D01*
X164983938Y-96127000D01*
X165216062Y-96127000D01*
X165193000Y-96242941D01*
X165193000Y-96242941D01*
G37*
X165193000Y-96242941D02*
X165193000Y-96289059D01*
X165282594Y-96739477D01*
X165537735Y-97121324D01*
X165919582Y-97376465D01*
X165979500Y-97388383D01*
X165979500Y-97480000D01*
X166009225Y-97629438D01*
X166093875Y-97756125D01*
X172913874Y-104576125D01*
X173008439Y-104639311D01*
X171838250Y-105809500D01*
X171817938Y-105809500D01*
X171835000Y-105768309D01*
X171835000Y-105700750D01*
X171676250Y-105542000D01*
X171027000Y-105542000D01*
X171027000Y-105589000D01*
X170773000Y-105589000D01*
X170773000Y-105542000D01*
X170753000Y-105542000D01*
X170753000Y-105342000D01*
X170773000Y-105342000D01*
X170773000Y-105295000D01*
X171027000Y-105295000D01*
X171027000Y-105342000D01*
X171676250Y-105342000D01*
X171835000Y-105183250D01*
X171835000Y-105115691D01*
X171738327Y-104882302D01*
X171559699Y-104703673D01*
X171533406Y-104692782D01*
X171533406Y-104342000D01*
X171510605Y-104220821D01*
X171438988Y-104109526D01*
X171329714Y-104034862D01*
X171200000Y-104008594D01*
X170600000Y-104008594D01*
X170478821Y-104031395D01*
X170367526Y-104103012D01*
X170334395Y-104151500D01*
X170213998Y-104151500D01*
X170186988Y-104109526D01*
X170077714Y-104034862D01*
X170038500Y-104026921D01*
X170038500Y-102084000D01*
X170008775Y-101934562D01*
X169963360Y-101866594D01*
X169924126Y-101807875D01*
X164892701Y-96776451D01*
X164917406Y-96739477D01*
X165007000Y-96289059D01*
X165007000Y-96242941D01*
X164983938Y-96127000D01*
X165216062Y-96127000D01*
X165193000Y-96242941D01*
G36*
X198213000Y-96242941D02*
X198213000Y-96289059D01*
X198302594Y-96739477D01*
X198557735Y-97121324D01*
X198939582Y-97376465D01*
X198999500Y-97388383D01*
X198999500Y-98358250D01*
X193207749Y-104150001D01*
X190381597Y-104150001D01*
X190232159Y-104179726D01*
X190206306Y-104197000D01*
X190100000Y-104197000D01*
X190100000Y-104177000D01*
X190053000Y-104177000D01*
X190053000Y-103949999D01*
X191810501Y-103949999D01*
X191959939Y-103920274D01*
X192086626Y-103835624D01*
X197029687Y-98892563D01*
X197126125Y-98828125D01*
X197210775Y-98701438D01*
X197240500Y-98552000D01*
X197240500Y-97388383D01*
X197300418Y-97376465D01*
X197682265Y-97121324D01*
X197937406Y-96739477D01*
X198027000Y-96289059D01*
X198027000Y-96242941D01*
X198003938Y-96127000D01*
X198236062Y-96127000D01*
X198213000Y-96242941D01*
X198213000Y-96242941D01*
G37*
X198213000Y-96242941D02*
X198213000Y-96289059D01*
X198302594Y-96739477D01*
X198557735Y-97121324D01*
X198939582Y-97376465D01*
X198999500Y-97388383D01*
X198999500Y-98358250D01*
X193207749Y-104150001D01*
X190381597Y-104150001D01*
X190232159Y-104179726D01*
X190206306Y-104197000D01*
X190100000Y-104197000D01*
X190100000Y-104177000D01*
X190053000Y-104177000D01*
X190053000Y-103949999D01*
X191810501Y-103949999D01*
X191959939Y-103920274D01*
X192086626Y-103835624D01*
X197029687Y-98892563D01*
X197126125Y-98828125D01*
X197210775Y-98701438D01*
X197240500Y-98552000D01*
X197240500Y-97388383D01*
X197300418Y-97376465D01*
X197682265Y-97121324D01*
X197937406Y-96739477D01*
X198027000Y-96289059D01*
X198027000Y-96242941D01*
X198003938Y-96127000D01*
X198236062Y-96127000D01*
X198213000Y-96242941D01*
G36*
X167733000Y-96242941D02*
X167733000Y-96289059D01*
X167822594Y-96739477D01*
X168077735Y-97121324D01*
X168459582Y-97376465D01*
X168519500Y-97388383D01*
X168519500Y-97480000D01*
X168549225Y-97629438D01*
X168633875Y-97756125D01*
X174053875Y-103176126D01*
X174127021Y-103225000D01*
X174180562Y-103260775D01*
X174330000Y-103290500D01*
X177415000Y-103290500D01*
X177415000Y-103314250D01*
X177573750Y-103473000D01*
X178323000Y-103473000D01*
X178323000Y-103453000D01*
X178577000Y-103453000D01*
X178577000Y-103473000D01*
X178597000Y-103473000D01*
X178597000Y-103727000D01*
X178577000Y-103727000D01*
X178577000Y-103747000D01*
X178323000Y-103747000D01*
X178323000Y-103727000D01*
X177573750Y-103727000D01*
X177415000Y-103885750D01*
X177415000Y-103909500D01*
X173351751Y-103909500D01*
X166818998Y-97376748D01*
X166820418Y-97376465D01*
X167202265Y-97121324D01*
X167457406Y-96739477D01*
X167547000Y-96289059D01*
X167547000Y-96242941D01*
X167523938Y-96127000D01*
X167756062Y-96127000D01*
X167733000Y-96242941D01*
X167733000Y-96242941D01*
G37*
X167733000Y-96242941D02*
X167733000Y-96289059D01*
X167822594Y-96739477D01*
X168077735Y-97121324D01*
X168459582Y-97376465D01*
X168519500Y-97388383D01*
X168519500Y-97480000D01*
X168549225Y-97629438D01*
X168633875Y-97756125D01*
X174053875Y-103176126D01*
X174127021Y-103225000D01*
X174180562Y-103260775D01*
X174330000Y-103290500D01*
X177415000Y-103290500D01*
X177415000Y-103314250D01*
X177573750Y-103473000D01*
X178323000Y-103473000D01*
X178323000Y-103453000D01*
X178577000Y-103453000D01*
X178577000Y-103473000D01*
X178597000Y-103473000D01*
X178597000Y-103727000D01*
X178577000Y-103727000D01*
X178577000Y-103747000D01*
X178323000Y-103747000D01*
X178323000Y-103727000D01*
X177573750Y-103727000D01*
X177415000Y-103885750D01*
X177415000Y-103909500D01*
X173351751Y-103909500D01*
X166818998Y-97376748D01*
X166820418Y-97376465D01*
X167202265Y-97121324D01*
X167457406Y-96739477D01*
X167547000Y-96289059D01*
X167547000Y-96242941D01*
X167523938Y-96127000D01*
X167756062Y-96127000D01*
X167733000Y-96242941D01*
G36*
X185513000Y-96242941D02*
X185513000Y-96289059D01*
X185602594Y-96739477D01*
X185857735Y-97121324D01*
X186239582Y-97376465D01*
X186299500Y-97388383D01*
X186299500Y-101983862D01*
X186288988Y-101967526D01*
X186179714Y-101892862D01*
X186050000Y-101866594D01*
X185699218Y-101866594D01*
X185688327Y-101840301D01*
X185509698Y-101661673D01*
X185276309Y-101565000D01*
X185208750Y-101565000D01*
X185050000Y-101723750D01*
X185050000Y-102373000D01*
X185097000Y-102373000D01*
X185097000Y-102627000D01*
X185050000Y-102627000D01*
X185050000Y-102647000D01*
X184850000Y-102647000D01*
X184850000Y-102627000D01*
X184803000Y-102627000D01*
X184803000Y-102373000D01*
X184850000Y-102373000D01*
X184850000Y-101723750D01*
X184691250Y-101565000D01*
X184623691Y-101565000D01*
X184490500Y-101620170D01*
X184490500Y-97398329D01*
X184600418Y-97376465D01*
X184982265Y-97121324D01*
X185237406Y-96739477D01*
X185327000Y-96289059D01*
X185327000Y-96242941D01*
X185303938Y-96127000D01*
X185536062Y-96127000D01*
X185513000Y-96242941D01*
X185513000Y-96242941D01*
G37*
X185513000Y-96242941D02*
X185513000Y-96289059D01*
X185602594Y-96739477D01*
X185857735Y-97121324D01*
X186239582Y-97376465D01*
X186299500Y-97388383D01*
X186299500Y-101983862D01*
X186288988Y-101967526D01*
X186179714Y-101892862D01*
X186050000Y-101866594D01*
X185699218Y-101866594D01*
X185688327Y-101840301D01*
X185509698Y-101661673D01*
X185276309Y-101565000D01*
X185208750Y-101565000D01*
X185050000Y-101723750D01*
X185050000Y-102373000D01*
X185097000Y-102373000D01*
X185097000Y-102627000D01*
X185050000Y-102627000D01*
X185050000Y-102647000D01*
X184850000Y-102647000D01*
X184850000Y-102627000D01*
X184803000Y-102627000D01*
X184803000Y-102373000D01*
X184850000Y-102373000D01*
X184850000Y-101723750D01*
X184691250Y-101565000D01*
X184623691Y-101565000D01*
X184490500Y-101620170D01*
X184490500Y-97398329D01*
X184600418Y-97376465D01*
X184982265Y-97121324D01*
X185237406Y-96739477D01*
X185327000Y-96289059D01*
X185327000Y-96242941D01*
X185303938Y-96127000D01*
X185536062Y-96127000D01*
X185513000Y-96242941D01*
G36*
X173415000Y-112941250D02*
X173573750Y-113100000D01*
X174223000Y-113100000D01*
X174223000Y-113053000D01*
X174477000Y-113053000D01*
X174477000Y-113100000D01*
X175126250Y-113100000D01*
X175285000Y-112941250D01*
X175285000Y-112927000D01*
X175409340Y-112927000D01*
X175390000Y-112973691D01*
X175390000Y-113214250D01*
X175548750Y-113373000D01*
X176273000Y-113373000D01*
X176273000Y-113353000D01*
X176527000Y-113353000D01*
X176527000Y-113373000D01*
X177251250Y-113373000D01*
X177410000Y-113214250D01*
X177410000Y-112973691D01*
X177390660Y-112927000D01*
X178670594Y-112927000D01*
X178670594Y-114173000D01*
X177349239Y-114173000D01*
X177410000Y-114026309D01*
X177410000Y-113785750D01*
X177251250Y-113627000D01*
X176527000Y-113627000D01*
X176527000Y-113647000D01*
X176273000Y-113647000D01*
X176273000Y-113627000D01*
X175548750Y-113627000D01*
X175390000Y-113785750D01*
X175390000Y-114026309D01*
X175450761Y-114173000D01*
X173000000Y-114173000D01*
X172950590Y-114183006D01*
X172910197Y-114210197D01*
X170247394Y-116873000D01*
X169885000Y-116873000D01*
X169885000Y-116335750D01*
X169726250Y-116177000D01*
X168577000Y-116177000D01*
X168577000Y-116197000D01*
X168323000Y-116197000D01*
X168323000Y-116177000D01*
X167173750Y-116177000D01*
X167015000Y-116335750D01*
X167015000Y-116873000D01*
X162025025Y-116873000D01*
X162038327Y-116859698D01*
X162135000Y-116626309D01*
X162135000Y-115285750D01*
X161976250Y-115127000D01*
X160127000Y-115127000D01*
X160127000Y-115147000D01*
X159873000Y-115147000D01*
X159873000Y-115127000D01*
X159853000Y-115127000D01*
X159853000Y-114873000D01*
X159873000Y-114873000D01*
X159873000Y-114853000D01*
X160127000Y-114853000D01*
X160127000Y-114873000D01*
X161976250Y-114873000D01*
X162135000Y-114714250D01*
X162135000Y-114173691D01*
X167015000Y-114173691D01*
X167015000Y-115764250D01*
X167173750Y-115923000D01*
X168323000Y-115923000D01*
X168323000Y-113823750D01*
X168577000Y-113823750D01*
X168577000Y-115923000D01*
X169726250Y-115923000D01*
X169885000Y-115764250D01*
X169885000Y-114173691D01*
X169788327Y-113940302D01*
X169609699Y-113761673D01*
X169376310Y-113665000D01*
X168735750Y-113665000D01*
X168577000Y-113823750D01*
X168323000Y-113823750D01*
X168164250Y-113665000D01*
X167523690Y-113665000D01*
X167290301Y-113761673D01*
X167111673Y-113940302D01*
X167015000Y-114173691D01*
X162135000Y-114173691D01*
X162135000Y-113458750D01*
X173415000Y-113458750D01*
X173415000Y-113526309D01*
X173511673Y-113759698D01*
X173690301Y-113938327D01*
X173923690Y-114035000D01*
X174064250Y-114035000D01*
X174223000Y-113876250D01*
X174223000Y-113300000D01*
X174477000Y-113300000D01*
X174477000Y-113876250D01*
X174635750Y-114035000D01*
X174776310Y-114035000D01*
X175009699Y-113938327D01*
X175188327Y-113759698D01*
X175285000Y-113526309D01*
X175285000Y-113458750D01*
X175126250Y-113300000D01*
X174477000Y-113300000D01*
X174223000Y-113300000D01*
X173573750Y-113300000D01*
X173415000Y-113458750D01*
X162135000Y-113458750D01*
X162135000Y-113373691D01*
X162038327Y-113140302D01*
X161859699Y-112961673D01*
X161775991Y-112927000D01*
X173415000Y-112927000D01*
X173415000Y-112941250D01*
X173415000Y-112941250D01*
G37*
X173415000Y-112941250D02*
X173573750Y-113100000D01*
X174223000Y-113100000D01*
X174223000Y-113053000D01*
X174477000Y-113053000D01*
X174477000Y-113100000D01*
X175126250Y-113100000D01*
X175285000Y-112941250D01*
X175285000Y-112927000D01*
X175409340Y-112927000D01*
X175390000Y-112973691D01*
X175390000Y-113214250D01*
X175548750Y-113373000D01*
X176273000Y-113373000D01*
X176273000Y-113353000D01*
X176527000Y-113353000D01*
X176527000Y-113373000D01*
X177251250Y-113373000D01*
X177410000Y-113214250D01*
X177410000Y-112973691D01*
X177390660Y-112927000D01*
X178670594Y-112927000D01*
X178670594Y-114173000D01*
X177349239Y-114173000D01*
X177410000Y-114026309D01*
X177410000Y-113785750D01*
X177251250Y-113627000D01*
X176527000Y-113627000D01*
X176527000Y-113647000D01*
X176273000Y-113647000D01*
X176273000Y-113627000D01*
X175548750Y-113627000D01*
X175390000Y-113785750D01*
X175390000Y-114026309D01*
X175450761Y-114173000D01*
X173000000Y-114173000D01*
X172950590Y-114183006D01*
X172910197Y-114210197D01*
X170247394Y-116873000D01*
X169885000Y-116873000D01*
X169885000Y-116335750D01*
X169726250Y-116177000D01*
X168577000Y-116177000D01*
X168577000Y-116197000D01*
X168323000Y-116197000D01*
X168323000Y-116177000D01*
X167173750Y-116177000D01*
X167015000Y-116335750D01*
X167015000Y-116873000D01*
X162025025Y-116873000D01*
X162038327Y-116859698D01*
X162135000Y-116626309D01*
X162135000Y-115285750D01*
X161976250Y-115127000D01*
X160127000Y-115127000D01*
X160127000Y-115147000D01*
X159873000Y-115147000D01*
X159873000Y-115127000D01*
X159853000Y-115127000D01*
X159853000Y-114873000D01*
X159873000Y-114873000D01*
X159873000Y-114853000D01*
X160127000Y-114853000D01*
X160127000Y-114873000D01*
X161976250Y-114873000D01*
X162135000Y-114714250D01*
X162135000Y-114173691D01*
X167015000Y-114173691D01*
X167015000Y-115764250D01*
X167173750Y-115923000D01*
X168323000Y-115923000D01*
X168323000Y-113823750D01*
X168577000Y-113823750D01*
X168577000Y-115923000D01*
X169726250Y-115923000D01*
X169885000Y-115764250D01*
X169885000Y-114173691D01*
X169788327Y-113940302D01*
X169609699Y-113761673D01*
X169376310Y-113665000D01*
X168735750Y-113665000D01*
X168577000Y-113823750D01*
X168323000Y-113823750D01*
X168164250Y-113665000D01*
X167523690Y-113665000D01*
X167290301Y-113761673D01*
X167111673Y-113940302D01*
X167015000Y-114173691D01*
X162135000Y-114173691D01*
X162135000Y-113458750D01*
X173415000Y-113458750D01*
X173415000Y-113526309D01*
X173511673Y-113759698D01*
X173690301Y-113938327D01*
X173923690Y-114035000D01*
X174064250Y-114035000D01*
X174223000Y-113876250D01*
X174223000Y-113300000D01*
X174477000Y-113300000D01*
X174477000Y-113876250D01*
X174635750Y-114035000D01*
X174776310Y-114035000D01*
X175009699Y-113938327D01*
X175188327Y-113759698D01*
X175285000Y-113526309D01*
X175285000Y-113458750D01*
X175126250Y-113300000D01*
X174477000Y-113300000D01*
X174223000Y-113300000D01*
X173573750Y-113300000D01*
X173415000Y-113458750D01*
X162135000Y-113458750D01*
X162135000Y-113373691D01*
X162038327Y-113140302D01*
X161859699Y-112961673D01*
X161775991Y-112927000D01*
X173415000Y-112927000D01*
X173415000Y-112941250D01*
G36*
X177873000Y-119052606D02*
X177873000Y-120723000D01*
X171727000Y-120723000D01*
X171727000Y-119106612D01*
X171906612Y-118927000D01*
X177747394Y-118927000D01*
X177873000Y-119052606D01*
X177873000Y-119052606D01*
G37*
X177873000Y-119052606D02*
X177873000Y-120723000D01*
X171727000Y-120723000D01*
X171727000Y-119106612D01*
X171906612Y-118927000D01*
X177747394Y-118927000D01*
X177873000Y-119052606D01*
G36*
X196373000Y-119252606D02*
X196373000Y-121047394D01*
X196247394Y-121173000D01*
X190871844Y-121173000D01*
X190427000Y-120728156D01*
X190427000Y-119252606D01*
X190552606Y-119127000D01*
X196247394Y-119127000D01*
X196373000Y-119252606D01*
X196373000Y-119252606D01*
G37*
X196373000Y-119252606D02*
X196373000Y-121047394D01*
X196247394Y-121173000D01*
X190871844Y-121173000D01*
X190427000Y-120728156D01*
X190427000Y-119252606D01*
X190552606Y-119127000D01*
X196247394Y-119127000D01*
X196373000Y-119252606D01*
M02*
