G04*
G04 #@! TF.GenerationSoftware,Altium Limited,Altium Designer,18.1.9 (240)*
G04*
G04 Layer_Physical_Order=2*
G04 Layer_Color=16711680*
%FSLAX25Y25*%
%MOIN*%
G70*
G01*
G75*
%ADD49C,0.00787*%
%ADD50C,0.01000*%
%ADD56C,0.03937*%
%ADD57C,0.07874*%
%ADD58R,0.05906X0.05906*%
%ADD59C,0.05906*%
%ADD60C,0.01968*%
%ADD61C,0.02362*%
G36*
X366053Y357931D02*
X368546Y357263D01*
X370930Y356276D01*
X373165Y354986D01*
X375212Y353415D01*
X377037Y351590D01*
X378608Y349543D01*
X379898Y347308D01*
X380885Y344924D01*
X381553Y342431D01*
X381890Y339873D01*
X381890Y338583D01*
X381890Y338583D01*
X381890Y338583D01*
X381890Y214567D01*
X372047Y204724D01*
X311614Y204724D01*
X305709Y198819D01*
X305709Y185039D01*
X304528Y183858D01*
X297244Y183858D01*
X296063Y185039D01*
X296063Y198819D01*
X290158Y204724D01*
X279520D01*
Y216646D01*
X279570Y216680D01*
X279898Y217171D01*
X280013Y217750D01*
X279898Y218329D01*
X279570Y218820D01*
X279079Y219148D01*
X278500Y219263D01*
X277921Y219148D01*
X277430Y218820D01*
X277102Y218329D01*
X276987Y217750D01*
X277102Y217171D01*
X277430Y216680D01*
X277480Y216646D01*
Y204724D01*
X273694D01*
Y216594D01*
X273744Y216628D01*
X274072Y217119D01*
X274187Y217698D01*
X274072Y218277D01*
X273744Y218768D01*
X273253Y219096D01*
X272674Y219212D01*
X272095Y219096D01*
X271604Y218768D01*
X271276Y218277D01*
X271161Y217698D01*
X271276Y217119D01*
X271604Y216628D01*
X271655Y216594D01*
Y204724D01*
X269718D01*
Y216556D01*
X269769Y216589D01*
X270097Y217080D01*
X270212Y217659D01*
X270097Y218239D01*
X269769Y218729D01*
X269278Y219058D01*
X268699Y219173D01*
X268120Y219058D01*
X267629Y218729D01*
X267301Y218239D01*
X267185Y217659D01*
X267301Y217080D01*
X267629Y216589D01*
X267679Y216556D01*
Y204724D01*
X263851D01*
Y216476D01*
X263902Y216510D01*
X264230Y217001D01*
X264345Y217580D01*
X264230Y218159D01*
X263902Y218650D01*
X263411Y218978D01*
X262832Y219093D01*
X262252Y218978D01*
X261761Y218650D01*
X261434Y218159D01*
X261318Y217580D01*
X261434Y217001D01*
X261761Y216510D01*
X261812Y216476D01*
Y204724D01*
X248056D01*
X247865Y205186D01*
X258797Y216119D01*
X258856Y216107D01*
X259435Y216222D01*
X259926Y216550D01*
X260254Y217041D01*
X260370Y217620D01*
X260254Y218199D01*
X259926Y218690D01*
X259435Y219018D01*
X258856Y219133D01*
X258277Y219018D01*
X257786Y218690D01*
X257458Y218199D01*
X257343Y217620D01*
X257355Y217561D01*
X256776Y216982D01*
X256315Y217228D01*
X256393Y217620D01*
X256278Y218199D01*
X255950Y218690D01*
X255556Y218953D01*
X255397Y219501D01*
X264376Y228480D01*
X275396D01*
X275430Y228430D01*
X275921Y228102D01*
X276500Y227987D01*
X277079Y228102D01*
X277570Y228430D01*
X277898Y228921D01*
X278013Y229500D01*
X277898Y230079D01*
X277570Y230570D01*
X277079Y230898D01*
X276500Y231013D01*
X275921Y230898D01*
X275430Y230570D01*
X275396Y230520D01*
X263954D01*
X263563Y230442D01*
X263233Y230221D01*
X254120Y221108D01*
X253620Y221315D01*
Y224928D01*
X256690Y227998D01*
X256750Y227987D01*
X257329Y228102D01*
X257820Y228430D01*
X258148Y228921D01*
X258263Y229500D01*
X258148Y230079D01*
X257820Y230570D01*
X257329Y230898D01*
X256750Y231013D01*
X256171Y230898D01*
X255680Y230570D01*
X255352Y230079D01*
X255237Y229500D01*
X255248Y229440D01*
X252307Y226499D01*
X251807Y226706D01*
Y228424D01*
X251857Y228457D01*
X252186Y228948D01*
X252301Y229528D01*
X252186Y230107D01*
X251857Y230598D01*
X251366Y230926D01*
X250787Y231041D01*
X250208Y230926D01*
X249717Y230598D01*
X249389Y230107D01*
X249274Y229528D01*
X249389Y228948D01*
X249717Y228457D01*
X249768Y228424D01*
Y223960D01*
X248292Y222484D01*
X247904Y222803D01*
X247942Y222860D01*
X248020Y223250D01*
Y228396D01*
X248070Y228430D01*
X248398Y228921D01*
X248513Y229500D01*
X248398Y230079D01*
X248070Y230570D01*
X247579Y230898D01*
X247000Y231013D01*
X246421Y230898D01*
X245930Y230570D01*
X245602Y230079D01*
X245487Y229500D01*
X245602Y228921D01*
X245930Y228430D01*
X245980Y228396D01*
Y223672D01*
X240810Y218501D01*
X240750Y218513D01*
X240171Y218398D01*
X239680Y218070D01*
X239352Y217579D01*
X239237Y217000D01*
X239352Y216421D01*
X239680Y215930D01*
X240171Y215602D01*
X240246Y215587D01*
X240254Y215566D01*
X240299Y215067D01*
X239930Y214820D01*
X239602Y214329D01*
X239487Y213750D01*
X239602Y213171D01*
X239930Y212680D01*
X240421Y212352D01*
X241000Y212237D01*
X241579Y212352D01*
X241952Y212601D01*
X242271Y212213D01*
X239925Y209866D01*
X229075D01*
X225020Y213922D01*
Y233896D01*
X225070Y233930D01*
X225398Y234421D01*
X225513Y235000D01*
X225398Y235579D01*
X225070Y236070D01*
X224579Y236398D01*
X224000Y236513D01*
X223421Y236398D01*
X222930Y236070D01*
X222602Y235579D01*
X222487Y235000D01*
X222602Y234421D01*
X222930Y233930D01*
X222980Y233896D01*
Y213500D01*
X223058Y213110D01*
X223279Y212779D01*
X227932Y208126D01*
X228263Y207905D01*
X228653Y207827D01*
X240132D01*
X240339Y207327D01*
X239781Y206770D01*
X220657D01*
X211910Y215516D01*
X211955Y215739D01*
X212107Y216026D01*
X212587Y216122D01*
X213078Y216450D01*
X213406Y216941D01*
X213521Y217520D01*
X213406Y218099D01*
X213078Y218590D01*
X213028Y218623D01*
Y233901D01*
X213070Y233930D01*
X213398Y234421D01*
X213513Y235000D01*
X213398Y235579D01*
X213070Y236070D01*
X212579Y236398D01*
X212000Y236513D01*
X211421Y236398D01*
X210930Y236070D01*
X210602Y235579D01*
X210487Y235000D01*
X210602Y234421D01*
X210930Y233930D01*
X210988Y233891D01*
Y218623D01*
X210938Y218590D01*
X210610Y218099D01*
X210514Y217619D01*
X210227Y217466D01*
X210004Y217422D01*
X202020Y225407D01*
Y233896D01*
X202070Y233930D01*
X202398Y234421D01*
X202513Y235000D01*
X202398Y235579D01*
X202070Y236070D01*
X201579Y236398D01*
X201000Y236513D01*
X200421Y236398D01*
X199930Y236070D01*
X199602Y235579D01*
X199487Y235000D01*
X199602Y234421D01*
X199930Y233930D01*
X199980Y233896D01*
Y224984D01*
X200058Y224594D01*
X200279Y224263D01*
X217456Y207087D01*
X219513Y205029D01*
X219844Y204808D01*
X220234Y204730D01*
X221260D01*
X221260Y201181D01*
X232283Y190157D01*
X232283Y184843D01*
X231102Y183661D01*
X220275Y183661D01*
X199213Y204724D01*
X179528D01*
X106299Y277953D01*
X106299Y338583D01*
X106299Y339873D01*
X106636Y342431D01*
X107304Y344924D01*
X108291Y347308D01*
X109581Y349542D01*
X111152Y351589D01*
X112977Y353414D01*
X115024Y354985D01*
X117259Y356275D01*
X119642Y357263D01*
X122135Y357930D01*
X124693Y358267D01*
X125983Y358267D01*
X125983Y358267D01*
X362205Y358268D01*
X363495Y358268D01*
X366053Y357931D01*
D02*
G37*
G36*
X133858Y227165D02*
X133858Y194094D01*
X174409Y153543D01*
X360276Y153543D01*
X377953Y135866D01*
X377953Y125984D01*
X374016Y122047D01*
X165436D01*
X111417Y176901D01*
Y227953D01*
X117716Y234252D01*
X126772Y234252D01*
X133858Y227165D01*
D02*
G37*
%LPC*%
G36*
X368110Y350925D02*
X366855Y350801D01*
X365647Y350435D01*
X364534Y349840D01*
X363559Y349040D01*
X362758Y348064D01*
X362164Y346951D01*
X361797Y345744D01*
X361674Y344488D01*
X361797Y343232D01*
X362164Y342025D01*
X362758Y340912D01*
X363559Y339937D01*
X364534Y339136D01*
X365647Y338542D01*
X366855Y338175D01*
X368110Y338052D01*
X369366Y338175D01*
X370573Y338542D01*
X371686Y339136D01*
X372661Y339937D01*
X373462Y340912D01*
X374057Y342025D01*
X374423Y343232D01*
X374547Y344488D01*
X374423Y345744D01*
X374057Y346951D01*
X373462Y348064D01*
X372661Y349040D01*
X371686Y349840D01*
X370573Y350435D01*
X369366Y350801D01*
X368110Y350925D01*
D02*
G37*
G36*
X120079D02*
X118823Y350801D01*
X117616Y350435D01*
X116503Y349840D01*
X115527Y349040D01*
X114727Y348064D01*
X114132Y346951D01*
X113766Y345744D01*
X113642Y344488D01*
X113766Y343232D01*
X114132Y342025D01*
X114727Y340912D01*
X115527Y339937D01*
X116503Y339136D01*
X117616Y338542D01*
X118823Y338175D01*
X120079Y338052D01*
X121334Y338175D01*
X122542Y338542D01*
X123655Y339136D01*
X124630Y339937D01*
X125431Y340912D01*
X126025Y342025D01*
X126392Y343232D01*
X126515Y344488D01*
X126392Y345744D01*
X126025Y346951D01*
X125431Y348064D01*
X124630Y349040D01*
X123655Y349840D01*
X122542Y350435D01*
X121334Y350801D01*
X120079Y350925D01*
D02*
G37*
G36*
X379831Y326287D02*
X372925D01*
Y319382D01*
X379831D01*
Y326287D01*
D02*
G37*
G36*
X115657Y324319D02*
X108752D01*
Y317413D01*
X115657D01*
Y324319D01*
D02*
G37*
G36*
X376378Y316317D02*
X375477Y316198D01*
X374637Y315851D01*
X373915Y315297D01*
X373362Y314576D01*
X373014Y313736D01*
X372895Y312835D01*
X373014Y311933D01*
X373362Y311093D01*
X373915Y310372D01*
X374637Y309819D01*
X375477Y309471D01*
X376378Y309352D01*
X377279Y309471D01*
X378119Y309819D01*
X378840Y310372D01*
X379394Y311093D01*
X379742Y311933D01*
X379860Y312835D01*
X379742Y313736D01*
X379394Y314576D01*
X378840Y315297D01*
X378119Y315851D01*
X377279Y316198D01*
X376378Y316317D01*
D02*
G37*
G36*
X314567Y339702D02*
X313988Y339587D01*
X313497Y339259D01*
X313169Y338768D01*
X313054Y338189D01*
X313169Y337610D01*
X313497Y337119D01*
X313547Y337085D01*
Y334252D01*
X313625Y333862D01*
X313846Y333531D01*
X345263Y302114D01*
X345594Y301893D01*
X345984Y301815D01*
X373063D01*
X373362Y301093D01*
X373915Y300372D01*
X374637Y299819D01*
X375477Y299471D01*
X376378Y299352D01*
X377279Y299471D01*
X378119Y299819D01*
X378840Y300372D01*
X379394Y301093D01*
X379742Y301933D01*
X379860Y302835D01*
X379742Y303736D01*
X379394Y304576D01*
X378840Y305297D01*
X378119Y305851D01*
X377279Y306199D01*
X376378Y306317D01*
X375477Y306199D01*
X374637Y305851D01*
X373915Y305297D01*
X373362Y304576D01*
X373063Y303854D01*
X346407D01*
X315586Y334674D01*
Y337085D01*
X315637Y337119D01*
X315965Y337610D01*
X316080Y338189D01*
X315965Y338768D01*
X315637Y339259D01*
X315146Y339587D01*
X314567Y339702D01*
D02*
G37*
G36*
X112705Y294787D02*
Y291366D01*
X116126D01*
X116056Y291898D01*
X115657Y292860D01*
X115024Y293685D01*
X114198Y294319D01*
X113237Y294717D01*
X112705Y294787D01*
D02*
G37*
G36*
X111705D02*
X111173Y294717D01*
X110211Y294319D01*
X109386Y293685D01*
X108752Y292860D01*
X108354Y291898D01*
X108284Y291366D01*
X111705D01*
Y294787D01*
D02*
G37*
G36*
X240644Y352694D02*
X192384D01*
X191993Y352617D01*
X191663Y352396D01*
X151153Y311886D01*
X115520D01*
X115221Y312607D01*
X114667Y313329D01*
X113946Y313882D01*
X113106Y314230D01*
X112205Y314349D01*
X111303Y314230D01*
X110463Y313882D01*
X109742Y313329D01*
X109189Y312607D01*
X108841Y311768D01*
X108722Y310866D01*
X108841Y309965D01*
X109189Y309125D01*
X109742Y308404D01*
X110463Y307850D01*
X111303Y307502D01*
X112205Y307384D01*
X113106Y307502D01*
X113946Y307850D01*
X114667Y308404D01*
X115221Y309125D01*
X115520Y309846D01*
X151575D01*
X151965Y309924D01*
X152296Y310145D01*
X192806Y350655D01*
X203678D01*
X203870Y350193D01*
X155562Y301886D01*
X115520D01*
X115221Y302607D01*
X114667Y303329D01*
X113946Y303882D01*
X113106Y304230D01*
X112205Y304349D01*
X111303Y304230D01*
X110463Y303882D01*
X109742Y303329D01*
X109189Y302607D01*
X108841Y301767D01*
X108722Y300866D01*
X108841Y299965D01*
X109189Y299125D01*
X109742Y298404D01*
X110463Y297850D01*
X111303Y297502D01*
X112205Y297384D01*
X113106Y297502D01*
X113946Y297850D01*
X114667Y298404D01*
X115221Y299125D01*
X115520Y299847D01*
X155984D01*
X156374Y299924D01*
X156705Y300145D01*
X205615Y349055D01*
X225589D01*
X225891Y348555D01*
X225837Y348425D01*
Y301181D01*
X225995Y300798D01*
X226378Y300640D01*
X234252D01*
X234635Y300798D01*
X234793Y301181D01*
Y348425D01*
X234739Y348555D01*
X235041Y349055D01*
X239418D01*
X259724Y328748D01*
X259560Y328206D01*
X259521Y328198D01*
X259030Y327870D01*
X258702Y327379D01*
X258587Y326800D01*
X258702Y326221D01*
X259030Y325730D01*
X259080Y325696D01*
Y324731D01*
X258970Y324621D01*
X258919Y324582D01*
X258630Y324408D01*
X258100Y324513D01*
X257898Y324473D01*
X257473Y324899D01*
X257513Y325100D01*
X257398Y325679D01*
X257070Y326170D01*
X256579Y326498D01*
X256000Y326613D01*
X255421Y326498D01*
X254930Y326170D01*
X254602Y325679D01*
X254487Y325100D01*
X254602Y324521D01*
X254896Y324080D01*
Y317321D01*
X254974Y316931D01*
X255195Y316601D01*
X256646Y315149D01*
Y313888D01*
X256148Y313829D01*
X255820Y314320D01*
X255329Y314648D01*
X254750Y314763D01*
X254171Y314648D01*
X253680Y314320D01*
X253352Y313829D01*
X253237Y313250D01*
X253249Y313190D01*
X252945Y312887D01*
X252724Y312556D01*
X252646Y312166D01*
Y270334D01*
X252724Y269944D01*
X252945Y269613D01*
X255248Y267310D01*
X255237Y267250D01*
X255352Y266671D01*
X255680Y266180D01*
X256171Y265852D01*
X256750Y265737D01*
X256810Y265749D01*
X260287Y262271D01*
X260469Y262150D01*
X260317Y261649D01*
X256721D01*
X244720Y273651D01*
Y310314D01*
X244771Y310347D01*
X245099Y310838D01*
X245214Y311417D01*
X245099Y311997D01*
X244771Y312487D01*
X244280Y312815D01*
X243701Y312931D01*
X243122Y312815D01*
X242631Y312487D01*
X242303Y311997D01*
X242188Y311417D01*
X242303Y310838D01*
X242631Y310347D01*
X242681Y310314D01*
Y273228D01*
X242759Y272838D01*
X242980Y272507D01*
X255578Y259909D01*
X255909Y259688D01*
X256299Y259610D01*
X311301D01*
X311448Y259390D01*
X311939Y259063D01*
X312518Y258947D01*
X313097Y259063D01*
X313588Y259390D01*
X313916Y259881D01*
X314031Y260461D01*
X313916Y261040D01*
X313588Y261531D01*
X313097Y261859D01*
X312518Y261974D01*
X311939Y261859D01*
X311625Y261649D01*
X296360D01*
X296208Y262150D01*
X296390Y262271D01*
X301115Y266996D01*
X301336Y267326D01*
X301413Y267717D01*
Y281861D01*
X306918Y287366D01*
X311543D01*
X311939Y287102D01*
X312518Y286987D01*
X313097Y287102D01*
X313588Y287430D01*
X313916Y287921D01*
X314031Y288500D01*
X313916Y289079D01*
X313588Y289570D01*
X313097Y289898D01*
X312518Y290013D01*
X311939Y289898D01*
X311448Y289570D01*
X311338Y289405D01*
X306496D01*
X306106Y289328D01*
X305775Y289107D01*
X299673Y283004D01*
X299452Y282674D01*
X299374Y282283D01*
Y268139D01*
X295247Y264012D01*
X276827D01*
X276797Y264036D01*
X276877Y264562D01*
X277079Y264602D01*
X277570Y264930D01*
X277898Y265421D01*
X278013Y266000D01*
X277994Y266098D01*
X278100Y266587D01*
X278679Y266702D01*
X278715Y266726D01*
X278981Y266640D01*
X279234Y266471D01*
X279247Y266403D01*
X279187Y266100D01*
X279302Y265521D01*
X279630Y265030D01*
X280121Y264702D01*
X280700Y264587D01*
X281279Y264702D01*
X281770Y265030D01*
X282098Y265521D01*
X282213Y266100D01*
X282190Y266219D01*
X282400Y266687D01*
X282979Y266802D01*
X283470Y267130D01*
X283798Y267621D01*
X283913Y268200D01*
X283798Y268779D01*
X283470Y269270D01*
X283352Y269349D01*
X283342Y269401D01*
X283121Y269731D01*
X280166Y272687D01*
X280412Y273148D01*
X280708Y273089D01*
X281364Y273219D01*
X281920Y273591D01*
X282292Y274147D01*
X282422Y274803D01*
X282292Y275459D01*
X281920Y276015D01*
X281723Y276146D01*
X281875Y276646D01*
X282784D01*
X283174Y276724D01*
X283505Y276945D01*
X283631Y277071D01*
X283858Y277026D01*
X284514Y277157D01*
X285070Y277528D01*
X285442Y278084D01*
X285488Y278318D01*
X285988Y278269D01*
Y270609D01*
X285930Y270570D01*
X285602Y270079D01*
X285487Y269500D01*
X285602Y268921D01*
X285930Y268430D01*
X286421Y268102D01*
X287000Y267987D01*
X287353Y268057D01*
X287798Y267755D01*
X287843Y267683D01*
X287840Y267577D01*
X287530Y267370D01*
X287202Y266879D01*
X287087Y266300D01*
X287202Y265721D01*
X287530Y265230D01*
X288021Y264902D01*
X288600Y264787D01*
X289179Y264902D01*
X289670Y265230D01*
X289998Y265721D01*
X290113Y266300D01*
X290092Y266409D01*
X290192Y266560D01*
X290270Y266950D01*
Y310896D01*
X290320Y310930D01*
X290648Y311421D01*
X290763Y312000D01*
X290648Y312579D01*
X290320Y313070D01*
X289894Y313355D01*
X289859Y313625D01*
X289894Y313895D01*
X290320Y314180D01*
X290648Y314671D01*
X290763Y315250D01*
X290648Y315829D01*
X290320Y316320D01*
X289829Y316648D01*
X289250Y316763D01*
X288671Y316648D01*
X288180Y316320D01*
X287852Y315829D01*
X287737Y315250D01*
X287749Y315190D01*
X286287Y313729D01*
X286066Y313398D01*
X285988Y313008D01*
Y279212D01*
X285488Y279163D01*
X285442Y279396D01*
X285070Y279952D01*
X284514Y280324D01*
X283858Y280454D01*
X283202Y280324D01*
X282646Y279952D01*
X282275Y279396D01*
X282144Y278740D01*
X282099Y278685D01*
X279418D01*
X279137Y279096D01*
X279151Y279185D01*
X279263Y279750D01*
X279148Y280329D01*
X278820Y280820D01*
X278329Y281148D01*
X277750Y281263D01*
X277690Y281252D01*
X273020Y285922D01*
Y307936D01*
X273520Y308203D01*
X273671Y308102D01*
X274250Y307987D01*
X274829Y308102D01*
X275320Y308430D01*
X275648Y308921D01*
X275763Y309500D01*
X275751Y309560D01*
X283004Y316812D01*
X283225Y317143D01*
X283303Y317533D01*
Y325168D01*
X289989Y331854D01*
X299184D01*
X339240Y291799D01*
X339570Y291578D01*
X339961Y291500D01*
X373194D01*
X373362Y291093D01*
X373915Y290372D01*
X374637Y289819D01*
X375477Y289471D01*
X376378Y289352D01*
X377279Y289471D01*
X378119Y289819D01*
X378840Y290372D01*
X379394Y291093D01*
X379742Y291933D01*
X379860Y292835D01*
X379742Y293736D01*
X379394Y294576D01*
X378840Y295297D01*
X378119Y295851D01*
X377279Y296199D01*
X376378Y296317D01*
X375477Y296199D01*
X374637Y295851D01*
X373915Y295297D01*
X373362Y294576D01*
X373014Y293736D01*
X372988Y293539D01*
X340383D01*
X300327Y333595D01*
X299996Y333816D01*
X299606Y333894D01*
X289567D01*
X289177Y333816D01*
X288846Y333595D01*
X281562Y326311D01*
X281342Y325981D01*
X281264Y325590D01*
Y317956D01*
X274310Y311001D01*
X274250Y311013D01*
X273671Y310898D01*
X273520Y310797D01*
X273020Y311064D01*
Y312096D01*
X273070Y312130D01*
X273398Y312621D01*
X273513Y313200D01*
X273398Y313779D01*
X273070Y314270D01*
X272579Y314598D01*
X272000Y314713D01*
X271904Y314694D01*
X271404Y315105D01*
Y315962D01*
X272940Y317498D01*
X273000Y317487D01*
X273579Y317602D01*
X274070Y317930D01*
X274398Y318421D01*
X274513Y319000D01*
X274398Y319579D01*
X274070Y320070D01*
X273579Y320398D01*
X273000Y320513D01*
X272579Y320429D01*
X272332Y320890D01*
X272940Y321498D01*
X273000Y321487D01*
X273579Y321602D01*
X274070Y321930D01*
X274398Y322421D01*
X274513Y323000D01*
X274398Y323579D01*
X274070Y324070D01*
X273579Y324398D01*
X273000Y324513D01*
X272421Y324398D01*
X271930Y324070D01*
X271602Y323579D01*
X271487Y323000D01*
X271498Y322940D01*
X268220Y319661D01*
X267720Y319869D01*
Y325619D01*
X267642Y326009D01*
X267421Y326340D01*
X241365Y352396D01*
X241034Y352617D01*
X240644Y352694D01*
D02*
G37*
G36*
X116126Y290366D02*
X112705D01*
Y286945D01*
X113237Y287015D01*
X114198Y287413D01*
X115024Y288047D01*
X115657Y288873D01*
X116056Y289834D01*
X116126Y290366D01*
D02*
G37*
G36*
X111705D02*
X108284D01*
X108354Y289834D01*
X108752Y288873D01*
X109386Y288047D01*
X110211Y287413D01*
X111173Y287015D01*
X111705Y286945D01*
Y290366D01*
D02*
G37*
G36*
X287402Y325529D02*
X286822Y325414D01*
X286332Y325086D01*
X286003Y324595D01*
X285888Y324016D01*
X286003Y323437D01*
X286332Y322946D01*
X286822Y322618D01*
X287402Y322502D01*
X287461Y322514D01*
X318862Y291113D01*
Y285265D01*
X316113Y282516D01*
X313624D01*
X313588Y282570D01*
X313097Y282898D01*
X312518Y283013D01*
X311939Y282898D01*
X311448Y282570D01*
X311120Y282079D01*
X311004Y281500D01*
X311120Y280921D01*
X311448Y280430D01*
X311939Y280102D01*
X312518Y279987D01*
X313097Y280102D01*
X313588Y280430D01*
X313619Y280476D01*
X316535D01*
X316926Y280554D01*
X317256Y280775D01*
X320603Y284122D01*
X320824Y284452D01*
X320901Y284842D01*
Y291535D01*
X320824Y291926D01*
X320603Y292256D01*
X288903Y323956D01*
X288915Y324016D01*
X288800Y324595D01*
X288472Y325086D01*
X287981Y325414D01*
X287402Y325529D01*
D02*
G37*
G36*
X376378Y286317D02*
X375477Y286198D01*
X374637Y285851D01*
X373915Y285297D01*
X373362Y284576D01*
X373014Y283736D01*
X372895Y282835D01*
X373014Y281933D01*
X373362Y281093D01*
X373915Y280372D01*
X374637Y279819D01*
X375477Y279471D01*
X376378Y279352D01*
X377279Y279471D01*
X378119Y279819D01*
X378840Y280372D01*
X379394Y281093D01*
X379742Y281933D01*
X379860Y282835D01*
X379742Y283736D01*
X379394Y284576D01*
X378840Y285297D01*
X378119Y285851D01*
X377279Y286198D01*
X376378Y286317D01*
D02*
G37*
G36*
X376878Y276756D02*
Y273335D01*
X380299D01*
X380229Y273867D01*
X379831Y274828D01*
X379197Y275654D01*
X378371Y276287D01*
X377410Y276686D01*
X376878Y276756D01*
D02*
G37*
G36*
X375878Y276756D02*
X375346Y276686D01*
X374384Y276287D01*
X373559Y275654D01*
X372925Y274828D01*
X372527Y273867D01*
X372457Y273335D01*
X375878D01*
Y276756D01*
D02*
G37*
G36*
X312518Y276013D02*
X311939Y275898D01*
X311448Y275570D01*
X311120Y275079D01*
X311004Y274500D01*
X311120Y273921D01*
X311448Y273430D01*
X311939Y273102D01*
X312518Y272987D01*
X313097Y273102D01*
X313588Y273430D01*
X313916Y273921D01*
X314031Y274500D01*
X313916Y275079D01*
X313588Y275570D01*
X313097Y275898D01*
X312518Y276013D01*
D02*
G37*
G36*
X380299Y272335D02*
X376878D01*
Y268914D01*
X377410Y268984D01*
X378371Y269382D01*
X379197Y270016D01*
X379831Y270841D01*
X380229Y271803D01*
X380299Y272335D01*
D02*
G37*
G36*
X375878D02*
X372457D01*
X372527Y271803D01*
X372925Y270841D01*
X373559Y270016D01*
X374384Y269382D01*
X375346Y268984D01*
X375878Y268914D01*
Y272335D01*
D02*
G37*
G36*
X312518Y268974D02*
X311939Y268859D01*
X311448Y268531D01*
X311120Y268040D01*
X311004Y267461D01*
X311120Y266881D01*
X311448Y266390D01*
X311939Y266062D01*
X312518Y265947D01*
X313097Y266062D01*
X313588Y266390D01*
X313916Y266881D01*
X314031Y267461D01*
X313916Y268040D01*
X313588Y268531D01*
X313097Y268859D01*
X312518Y268974D01*
D02*
G37*
%LPD*%
G36*
X266121Y314802D02*
X266700Y314687D01*
X266844Y314715D01*
X267230Y314398D01*
Y296672D01*
X264810Y294251D01*
X264750Y294263D01*
X264171Y294148D01*
X264154Y294137D01*
X263654Y294404D01*
Y311791D01*
X264154Y312075D01*
X264600Y311987D01*
X265179Y312102D01*
X265670Y312430D01*
X265998Y312921D01*
X266113Y313500D01*
X265998Y314079D01*
X265753Y314447D01*
X266102Y314796D01*
X266120Y314803D01*
X266121Y314802D01*
D02*
G37*
G36*
X234252Y301181D02*
X226378D01*
Y348425D01*
X234252D01*
Y301181D01*
D02*
G37*
G36*
X272016Y265279D02*
X272347Y265058D01*
X272737Y264980D01*
X275396D01*
X275430Y264930D01*
X275921Y264602D01*
X276123Y264562D01*
X276203Y264036D01*
X276173Y264012D01*
X261430D01*
X259730Y265712D01*
X260049Y266100D01*
X260271Y265952D01*
X260850Y265837D01*
X261429Y265952D01*
X261920Y266280D01*
X262248Y266771D01*
X262363Y267350D01*
X262248Y267929D01*
X261920Y268420D01*
X261429Y268748D01*
X260850Y268863D01*
X260790Y268851D01*
X256770Y272872D01*
Y279819D01*
X257270Y280026D01*
X272016Y265279D01*
D02*
G37*
D49*
X242719Y234573D02*
D03*
Y239691D02*
D03*
Y244809D02*
D03*
Y249927D02*
D03*
X247837Y234573D02*
D03*
Y239691D02*
D03*
Y244809D02*
D03*
Y249927D02*
D03*
X252955Y234573D02*
D03*
Y239691D02*
D03*
Y244809D02*
D03*
Y249927D02*
D03*
X258073Y234573D02*
D03*
Y239691D02*
D03*
Y244809D02*
D03*
Y249927D02*
D03*
X263191Y234573D02*
D03*
Y239691D02*
D03*
Y244809D02*
D03*
Y249927D02*
D03*
X268309Y234573D02*
D03*
Y239691D02*
D03*
Y244809D02*
D03*
Y249927D02*
D03*
X288781Y234573D02*
D03*
Y239691D02*
D03*
Y244809D02*
D03*
Y249927D02*
D03*
X283663Y234573D02*
D03*
Y239691D02*
D03*
Y244809D02*
D03*
Y249927D02*
D03*
X273427Y234573D02*
D03*
Y239691D02*
D03*
Y244809D02*
D03*
Y249927D02*
D03*
X278545D02*
D03*
Y244809D02*
D03*
Y239691D02*
D03*
Y234573D02*
D03*
D50*
X312348Y260630D02*
X312518Y260461D01*
X256299Y260630D02*
X312348D01*
X312598Y281496D02*
X316535D01*
X319882Y284842D01*
Y291535D01*
X300394Y282283D02*
X306496Y288386D01*
X312402D01*
X287402Y324016D02*
X319882Y291535D01*
X300394Y267717D02*
Y282283D01*
X212008Y217520D02*
Y234992D01*
X212000Y235000D02*
X212008Y234992D01*
X220234Y205750D02*
X240204D01*
X201000Y224984D02*
X220234Y205750D01*
X201000Y224984D02*
Y235000D01*
X112205Y310630D02*
X112441Y310866D01*
X151575D01*
X112205Y300787D02*
X112284Y300866D01*
X155984D01*
X240204Y205750D02*
X263954Y229500D01*
X276500D01*
X235344Y198084D02*
X254880Y217620D01*
X237236Y196000D02*
X258856Y217620D01*
X345984Y302835D02*
X376378D01*
X314567Y334252D02*
X345984Y302835D01*
X314567Y334252D02*
Y338189D01*
X339961Y292520D02*
X375984D01*
X299606Y332874D02*
X339961Y292520D01*
X289567Y332874D02*
X299606D01*
X250787Y223537D02*
Y229528D01*
X241000Y213750D02*
X250787Y223537D01*
X252600Y221100D02*
Y225350D01*
X252500Y221000D02*
X252600Y221100D01*
Y225350D02*
X256750Y229500D01*
X266800Y287752D02*
X276887Y277666D01*
X282784D01*
X283858Y278740D01*
X266800Y287752D02*
Y289500D01*
X264716Y285284D02*
Y292716D01*
Y285284D02*
X275197Y274803D01*
X264716Y292716D02*
X264750Y292750D01*
X266800Y289500D02*
Y289550D01*
X269850Y292600D01*
Y314140D01*
X257916Y322816D02*
X258100Y323000D01*
X257916Y317584D02*
Y322816D01*
X257834Y280903D02*
Y310363D01*
Y280903D02*
X272737Y266000D01*
X259434Y281566D02*
Y311026D01*
Y281566D02*
X272750Y268250D01*
X272772Y272753D02*
X278657D01*
X282400Y269010D01*
Y268200D02*
Y269010D01*
X268784Y315337D02*
Y318784D01*
X273000Y323000D01*
X272000Y285500D02*
Y313200D01*
Y285500D02*
X277750Y279750D01*
X239840Y350075D02*
X264600Y325315D01*
Y313500D02*
Y325315D01*
X151575Y310866D02*
X192384Y351675D01*
X240644D01*
X266700Y325619D01*
Y316200D02*
Y325619D01*
X280234Y266566D02*
Y268913D01*
X277994Y271153D02*
X280234Y268913D01*
X272110Y271153D02*
X277994D01*
X260866Y311857D02*
Y320384D01*
X260000Y321250D02*
X260866Y320384D01*
X261034Y282228D02*
Y311689D01*
Y282228D02*
X272110Y271153D01*
X260100Y324706D02*
X262466Y322340D01*
Y312520D02*
Y322340D01*
X262634Y282891D02*
Y312351D01*
Y282891D02*
X272772Y272753D01*
X253666Y312166D02*
X254750Y313250D01*
X253666Y270334D02*
Y312166D01*
Y270334D02*
X256750Y267250D01*
X257916Y317584D02*
X259266Y316234D01*
X255916Y317321D02*
Y325016D01*
Y317321D02*
X257666Y315571D01*
X272737Y266000D02*
X276500D01*
X255916Y325016D02*
X256000Y325100D01*
X262466Y312520D02*
X262634Y312351D01*
X260866Y311857D02*
X261034Y311689D01*
X259266Y311195D02*
Y316234D01*
Y311195D02*
X259434Y311026D01*
X257666Y310532D02*
Y315571D01*
Y310532D02*
X257834Y310363D01*
X272900Y268100D02*
X278100D01*
X272750Y268250D02*
X272900Y268100D01*
X260100Y324706D02*
Y326800D01*
X205193Y350075D02*
X239840D01*
X270384Y316384D02*
X273000Y319000D01*
X270384Y314674D02*
Y316384D01*
X269850Y314140D02*
X270384Y314674D01*
X268250Y314802D02*
X268784Y315337D01*
X268250Y296250D02*
Y314802D01*
X280234Y266566D02*
X280700Y266100D01*
X255750Y272450D02*
X260850Y267350D01*
X255750Y272450D02*
Y309500D01*
X289250Y266950D02*
Y312000D01*
X288600Y266300D02*
X289250Y266950D01*
X244250Y193250D02*
X251100Y200100D01*
Y203100D01*
X228399Y198084D02*
X235344D01*
X228346Y198031D02*
X228399Y198084D01*
X230000Y196000D02*
X237236D01*
X272674Y196326D02*
Y217698D01*
X268699Y192801D02*
Y217659D01*
X278500Y193941D02*
Y217750D01*
X262832Y197832D02*
Y217580D01*
X258250Y196250D02*
Y202250D01*
X155984Y300866D02*
X205193Y350075D01*
X376378Y302756D02*
Y302835D01*
X282283Y325590D02*
X289567Y332874D01*
X295669Y262992D02*
X300394Y267717D01*
X261008Y262992D02*
X295669D01*
X256750Y267250D02*
X261008Y262992D01*
X275197Y274803D02*
X280708D01*
X287008Y313008D02*
X289250Y315250D01*
X287008Y269508D02*
Y313008D01*
X287000Y269500D02*
X287008Y269508D01*
X243701Y273228D02*
X256299Y260630D01*
X243701Y273228D02*
Y311417D01*
X282283Y317533D02*
Y325590D01*
X274250Y309500D02*
X282283Y317533D01*
X334646Y176378D02*
X345276Y187008D01*
X296063Y176378D02*
X334646D01*
X278500Y193941D02*
X296063Y176378D01*
X232472Y170472D02*
X258250Y196250D01*
X203028Y170472D02*
X232472D01*
X199250Y174250D02*
X203028Y170472D01*
X294750Y174250D02*
X311250D01*
X272674Y196326D02*
X294750Y174250D01*
X240250Y175250D02*
X262832Y197832D01*
X240250Y174250D02*
Y175250D01*
X224000Y213500D02*
Y235000D01*
Y213500D02*
X228653Y208847D01*
X240347D01*
X252500Y221000D01*
X254000Y185750D02*
X260500Y179250D01*
X285250D01*
X256250Y187250D02*
X261250Y182250D01*
X278250D01*
X236750Y192500D02*
X241000Y188250D01*
X264750Y292750D02*
X268250Y296250D01*
X247000Y223250D02*
Y229500D01*
X240750Y217000D02*
X247000Y223250D01*
X268699Y192801D02*
X274250Y187250D01*
D56*
X120079Y104331D02*
D03*
Y344488D02*
D03*
X368110D02*
D03*
Y104331D02*
D03*
D57*
X280935Y106000D02*
D03*
X261250D02*
D03*
X241565D02*
D03*
X122835Y246457D02*
D03*
Y226772D02*
D03*
D58*
X112205Y320866D02*
D03*
X376378Y322835D02*
D03*
D59*
X112205Y310866D02*
D03*
Y300866D02*
D03*
Y290866D02*
D03*
X376378Y272835D02*
D03*
Y282835D02*
D03*
Y292835D02*
D03*
Y302835D02*
D03*
Y312835D02*
D03*
D60*
X167520Y344094D02*
D03*
X177165Y284842D02*
D03*
X227417Y213356D02*
D03*
X231354Y236978D02*
D03*
X212008Y217520D02*
D03*
X254880Y217620D02*
D03*
X258856D02*
D03*
X250787Y229528D02*
D03*
X297638Y189567D02*
D03*
X304134D02*
D03*
X300984D02*
D03*
X297835Y185630D02*
D03*
X299410Y187598D02*
D03*
X302559D02*
D03*
X303937Y185630D02*
D03*
X300984D02*
D03*
X224803Y185433D02*
D03*
Y189370D02*
D03*
X230315D02*
D03*
X227559D02*
D03*
Y185433D02*
D03*
X230315D02*
D03*
X226181Y187402D02*
D03*
X228937D02*
D03*
X266800Y289500D02*
D03*
X287400Y327100D02*
D03*
X258100Y323000D02*
D03*
X278100Y268100D02*
D03*
X282400Y268200D02*
D03*
X260100Y326800D02*
D03*
X272000Y313200D02*
D03*
X266700Y316200D02*
D03*
X264600Y313500D02*
D03*
X260000Y321250D02*
D03*
X256000Y325100D02*
D03*
X241500Y274500D02*
D03*
X260850Y267350D02*
D03*
X280700Y266100D02*
D03*
X255750Y309500D02*
D03*
X288600Y266300D02*
D03*
X251100Y203100D02*
D03*
X230000Y196000D02*
D03*
X272674Y217698D02*
D03*
X268699Y217659D02*
D03*
X278500Y217750D02*
D03*
X262832Y217580D02*
D03*
X276500Y229500D02*
D03*
X228346Y198031D02*
D03*
X258250Y202250D02*
D03*
X227937Y344530D02*
D03*
Y346892D02*
D03*
X230299Y344530D02*
D03*
Y346892D02*
D03*
X232661Y344530D02*
D03*
Y346892D02*
D03*
X224000Y330750D02*
D03*
X314567Y338189D02*
D03*
X250394Y284252D02*
D03*
X277165Y285433D02*
D03*
X287402Y324016D02*
D03*
X294094Y274016D02*
D03*
X230299Y302797D02*
D03*
Y305159D02*
D03*
X232661D02*
D03*
X227937D02*
D03*
X232661Y302797D02*
D03*
X227953Y302756D02*
D03*
X243701Y311417D02*
D03*
X212000Y235000D02*
D03*
X201000D02*
D03*
X224000D02*
D03*
X241000Y213750D02*
D03*
X256750Y229500D02*
D03*
X221000Y293250D02*
D03*
X209000D02*
D03*
X197000Y293500D02*
D03*
X339768Y267461D02*
D03*
Y260461D02*
D03*
Y288250D02*
D03*
Y281250D02*
D03*
Y274250D02*
D03*
X257250Y354000D02*
D03*
X262500Y340500D02*
D03*
X283500Y340000D02*
D03*
X303250Y325000D02*
D03*
X244250Y193250D02*
D03*
X254000Y185750D02*
D03*
X256250Y187250D02*
D03*
X236750Y192500D02*
D03*
X241000Y188250D02*
D03*
X236750Y315000D02*
D03*
X224000Y305750D02*
D03*
X240750Y263750D02*
D03*
X254750Y313250D02*
D03*
X273000Y323000D02*
D03*
X264750Y292750D02*
D03*
X273000Y319000D02*
D03*
X277750Y279750D02*
D03*
X274250Y309500D02*
D03*
X289250Y312000D02*
D03*
Y315250D02*
D03*
X287000Y269500D02*
D03*
X312518Y267461D02*
D03*
X240750Y217000D02*
D03*
X247000Y229500D02*
D03*
X276500Y266000D02*
D03*
X312518Y260461D02*
D03*
Y274500D02*
D03*
Y281500D02*
D03*
Y288500D02*
D03*
X256750Y267250D02*
D03*
X285250Y179250D02*
D03*
X278250Y182250D02*
D03*
X274250Y187250D02*
D03*
X199250Y174250D02*
D03*
X311250D02*
D03*
X240250D02*
D03*
X345250Y187250D02*
D03*
D61*
X280708Y274803D02*
D03*
X283858Y278740D02*
D03*
X234000Y135000D02*
D03*
Y132000D02*
D03*
X231000Y135000D02*
D03*
Y138000D02*
D03*
X228000D02*
D03*
X225000Y141000D02*
D03*
Y144000D02*
D03*
Y138000D02*
D03*
Y135000D02*
D03*
X228000D02*
D03*
Y132000D02*
D03*
X225000D02*
D03*
X231000D02*
D03*
X228000Y141000D02*
D03*
X305000Y135000D02*
D03*
Y132000D02*
D03*
X302000Y135000D02*
D03*
Y138000D02*
D03*
X299000D02*
D03*
X296000Y141000D02*
D03*
Y144000D02*
D03*
Y138000D02*
D03*
Y135000D02*
D03*
X299000D02*
D03*
Y132000D02*
D03*
X296000D02*
D03*
X302000D02*
D03*
X299000Y141000D02*
D03*
X370000D02*
D03*
X373000Y132000D02*
D03*
X367000D02*
D03*
X370000D02*
D03*
Y135000D02*
D03*
X367000D02*
D03*
Y138000D02*
D03*
Y144000D02*
D03*
Y141000D02*
D03*
X370000Y138000D02*
D03*
X373000D02*
D03*
Y135000D02*
D03*
X376000Y132000D02*
D03*
Y135000D02*
D03*
M02*
